<svg xmlns="http://www.w3.org/2000/svg" xmlns:xlink="http://www.w3.org/1999/xlink" viewBox="0 0 40 40"><path d="M 18.454 18.213 L 18.454 21.944 C 18.454 22.382 18.601 22.75 18.893 23.046 C 19.186 23.342 19.557 23.49 20.005 23.49 C 20.453 23.49 20.822 23.344 21.112 23.053 C 21.401 22.761 21.546 22.39 21.546 21.939 L 21.546 18.213 L 25.278 18.213 C 25.716 18.213 26.083 18.066 26.379 17.773 C 26.676 17.481 26.824 17.11 26.824 16.662 C 26.824 16.214 26.678 15.845 26.386 15.555 C 26.094 15.266 25.723 15.121 25.272 15.121 L 21.546 15.121 L 21.546 11.389 C 21.546 10.951 21.399 10.584 21.107 10.287 C 20.814 9.991 20.443 9.843 19.995 9.843 C 19.547 9.843 19.178 9.989 18.888 10.281 C 18.599 10.573 18.454 10.944 18.454 11.394 L 18.454 15.121 L 14.722 15.121 C 14.284 15.121 13.917 15.267 13.621 15.56 C 13.324 15.853 13.176 16.223 13.176 16.672 C 13.176 17.12 13.322 17.489 13.614 17.778 C 13.906 18.068 14.277 18.213 14.728 18.213 Z M 9.341 30.659 L 5.82 34.18 C 5.233 34.767 4.562 34.903 3.807 34.589 C 3.051 34.274 2.674 33.712 2.674 32.903 L 2.674 6.347 C 2.674 5.33 3.033 4.461 3.751 3.74 C 4.469 3.019 5.334 2.658 6.347 2.658 L 33.653 2.658 C 34.67 2.658 35.539 3.019 36.26 3.74 C 36.981 4.461 37.342 5.33 37.342 6.347 L 37.342 26.987 C 37.342 27.999 36.981 28.864 36.26 29.582 C 35.539 30.3 34.67 30.659 33.653 30.659 Z" fill="#FFC200"></path></svg>