<svg xmlns="http://www.w3.org/2000/svg" xmlns:xlink="http://www.w3.org/1999/xlink" viewBox="0 0 40 40"><path d="M 5.018 16.865 C 4.542 16.865 4.145 16.697 3.829 16.361 C 3.513 16.025 3.381 15.633 3.434 15.185 C 3.607 13.332 4.071 11.568 4.827 9.894 C 5.583 8.219 6.605 6.715 7.892 5.38 C 8.213 5.047 8.615 4.883 9.1 4.89 C 9.584 4.896 10.002 5.085 10.353 5.454 C 10.656 5.775 10.802 6.16 10.793 6.608 C 10.784 7.057 10.626 7.452 10.321 7.791 C 9.342 8.816 8.564 9.954 7.987 11.208 C 7.409 12.461 7.036 13.787 6.867 15.185 C 6.791 15.667 6.578 16.068 6.229 16.386 C 5.88 16.705 5.476 16.865 5.018 16.865 Z M 34.963 16.865 C 34.514 16.865 34.125 16.705 33.796 16.387 C 33.468 16.068 33.265 15.667 33.188 15.185 C 33.019 13.787 32.65 12.459 32.08 11.201 C 31.51 9.944 30.747 8.799 29.79 7.768 C 29.485 7.43 29.327 7.04 29.318 6.598 C 29.309 6.156 29.46 5.775 29.772 5.453 C 30.118 5.09 30.528 4.903 31.002 4.894 C 31.477 4.884 31.873 5.056 32.191 5.408 C 33.46 6.761 34.468 8.265 35.214 9.922 C 35.961 11.578 36.421 13.332 36.594 15.185 C 36.647 15.633 36.511 16.025 36.187 16.361 C 35.862 16.697 35.454 16.865 34.963 16.865 Z M 7.403 32.24 C 6.869 32.24 6.426 32.063 6.073 31.71 C 5.72 31.358 5.544 30.919 5.544 30.396 C 5.544 29.872 5.72 29.433 6.073 29.081 C 6.426 28.728 6.867 28.551 7.396 28.551 L 9.216 28.551 L 9.216 16.893 C 9.216 14.427 9.941 12.201 11.392 10.216 C 12.842 8.231 14.766 6.962 17.164 6.411 L 17.164 5.348 C 17.164 4.556 17.439 3.896 17.991 3.37 C 18.542 2.843 19.212 2.58 20 2.58 C 20.788 2.58 21.458 2.843 22.009 3.37 C 22.561 3.896 22.836 4.556 22.836 5.348 L 22.836 6.411 C 25.25 6.962 27.185 8.231 28.642 10.216 C 30.099 12.201 30.827 14.427 30.827 16.893 L 30.827 28.551 L 32.627 28.551 C 33.145 28.551 33.583 28.728 33.941 29.081 C 34.3 29.433 34.479 29.872 34.479 30.396 C 34.479 30.919 34.3 31.358 33.941 31.71 C 33.583 32.063 33.145 32.24 32.627 32.24 Z M 20.016 37.326 C 19.055 37.326 18.221 36.981 17.514 36.29 C 16.808 35.599 16.455 34.763 16.455 33.781 L 23.569 33.781 C 23.569 34.766 23.222 35.603 22.527 36.292 C 21.832 36.981 20.995 37.326 20.016 37.326 Z" fill="#FF9400"></path></svg>