<svg xmlns="http://www.w3.org/2000/svg" xmlns:xlink="http://www.w3.org/1999/xlink" viewBox="0 0 40 40"><path d="M 17.528 22.845 L 14.114 19.431 C 13.772 19.089 13.349 18.918 12.845 18.918 C 12.341 18.918 11.905 19.098 11.537 19.458 C 11.195 19.811 11.025 20.238 11.028 20.741 C 11.031 21.244 11.208 21.666 11.56 22.008 L 16.219 26.694 C 16.592 27.061 17.028 27.244 17.526 27.244 C 18.023 27.244 18.461 27.061 18.838 26.694 L 28.31 17.207 C 28.681 16.846 28.866 16.418 28.866 15.922 C 28.866 15.426 28.681 14.993 28.31 14.625 C 27.949 14.283 27.513 14.117 26.999 14.126 C 26.486 14.135 26.055 14.311 25.705 14.653 Z M 20.002 37.326 C 17.609 37.326 15.359 36.874 13.253 35.968 C 11.147 35.063 9.31 33.827 7.742 32.258 C 6.173 30.69 4.937 28.854 4.032 26.749 C 3.126 24.644 2.674 22.395 2.674 20.002 C 2.674 17.591 3.126 15.332 4.032 13.226 C 4.937 11.119 6.173 9.287 7.739 7.727 C 9.306 6.167 11.142 4.933 13.247 4.023 C 15.353 3.113 17.603 2.658 19.997 2.658 C 22.409 2.658 24.669 3.113 26.776 4.022 C 28.884 4.931 30.717 6.164 32.276 7.722 C 33.834 9.281 35.069 11.113 35.978 13.22 C 36.887 15.326 37.342 17.586 37.342 20 C 37.342 22.395 36.887 24.645 35.977 26.751 C 35.067 28.857 33.833 30.693 32.273 32.26 C 30.713 33.827 28.881 35.063 26.777 35.968 C 24.672 36.874 22.414 37.326 20.002 37.326 Z" fill="#FF7000"></path></svg>