<svg xmlns="http://www.w3.org/2000/svg" xmlns:xlink="http://www.w3.org/1999/xlink" viewBox="0 0 40 40"><path d="M 21.763 19.28 L 21.763 13.087 C 21.763 12.607 21.603 12.207 21.284 11.887 C 20.965 11.567 20.566 11.408 20.087 11.408 C 19.607 11.408 19.207 11.567 18.886 11.887 C 18.565 12.207 18.404 12.607 18.404 13.087 L 18.404 19.931 C 18.404 20.174 18.446 20.401 18.529 20.611 C 18.612 20.822 18.737 21.021 18.903 21.208 L 24.422 26.866 C 24.761 27.211 25.168 27.378 25.642 27.369 C 26.116 27.36 26.524 27.192 26.866 26.866 C 27.208 26.54 27.379 26.136 27.379 25.654 C 27.379 25.172 27.208 24.76 26.866 24.418 Z M 20.002 37.326 C 17.609 37.326 15.36 36.872 13.255 35.964 C 11.15 35.056 9.315 33.819 7.748 32.253 C 6.182 30.687 4.945 28.852 4.036 26.748 C 3.128 24.643 2.674 22.395 2.674 20.002 C 2.674 17.609 3.129 15.359 4.039 13.253 C 4.95 11.147 6.186 9.313 7.75 7.75 C 9.313 6.186 11.147 4.947 13.252 4.032 C 15.357 3.116 17.606 2.658 20 2.658 C 22.394 2.658 24.643 3.116 26.748 4.032 C 28.853 4.947 30.687 6.186 32.25 7.75 C 33.814 9.313 35.053 11.147 35.968 13.252 C 36.884 15.357 37.342 17.606 37.342 20 C 37.342 22.394 36.884 24.643 35.968 26.748 C 35.053 28.853 33.814 30.687 32.25 32.25 C 30.687 33.814 28.854 35.05 26.749 35.961 C 24.644 36.871 22.395 37.326 20.002 37.326 Z" fill="#ff7000"></path></svg>