<svg width="252" height="67" viewBox="0 0 252 67" fill="none" xmlns="http://www.w3.org/2000/svg">
<g id="Frame 16">
<g id="Clip path group">
<mask id="mask0_149_182" style="mask-type:luminance" maskUnits="userSpaceOnUse" x="0" y="0" width="252" height="67">
<g id="SVGID_3_">
<path id="Vector" d="M251.826 0H0V66.814H251.826V0Z" fill="white"/>
</g>
</mask>
<g mask="url(#mask0_149_182)">
<path id="Vector_2" d="M180.063 47.8906C180.063 49.6374 179.044 51.093 176.86 51.093C174.677 51.093 173.658 49.6374 173.658 47.8906V37.1189C173.658 34.2076 172.202 31.733 168.854 31.733C166.38 31.733 164.633 33.1887 163.323 34.2076V47.8906C163.323 49.6374 162.304 51.093 160.12 51.093C157.937 51.093 156.918 49.6374 156.918 47.8906V27.2205H162.449L162.886 29.9862C163.905 29.1129 166.816 26.4927 171.329 26.4927C175.405 26.4927 180.208 28.8217 180.208 34.9354V47.8906H180.063ZM118.926 44.3971C118.926 45.7072 119.945 46.5806 121.109 46.5806C123.147 46.5806 123.729 44.9794 125.185 44.9794C126.495 44.9794 127.223 45.9983 127.223 47.0173C127.223 49.2007 124.603 51.093 119.945 51.093C114.704 51.093 112.375 48.0362 112.375 44.106V31.733H108.154V27.075H112.375V21.8346L118.926 20.0879V27.2205H127.514L125.913 31.8786H118.926V44.3971ZM193.309 44.3971C193.309 45.7072 194.328 46.5806 195.492 46.5806C197.53 46.5806 198.113 44.9794 199.714 44.9794C201.024 44.9794 201.752 45.9983 201.752 47.0173C201.752 49.2007 199.132 51.093 194.473 51.093C189.233 51.093 186.904 48.0362 186.904 44.106V31.733H182.683V27.075H186.904V21.8346L193.455 20.0879V27.2205H202.043L200.442 31.8786H193.455L193.309 44.3971ZM82.6802 45.416C82.6802 43.9604 83.8447 42.9415 85.1548 42.9415C87.3382 42.9415 88.9394 45.9983 94.4709 45.9983C97.8189 45.9983 100.293 44.5427 100.293 42.0681C100.293 39.8846 98.5467 38.5745 95.781 37.2645C94.9076 36.8278 93.3064 36.0999 92.2874 35.6632C88.5027 33.9165 84.7181 31.4419 84.7181 26.4927C84.7181 21.6891 88.9394 17.6133 96.3632 17.6133C101.749 17.6133 104.951 19.0689 105.679 19.5056L104.078 24.3092C103.205 23.8725 100.002 22.708 96.6543 22.708C94.1798 22.708 91.7052 23.8725 91.7052 26.3471C91.7052 28.6762 93.7431 29.6951 96.3632 31.0052C97.2366 31.4419 97.9644 31.733 98.8378 32.1697C102.914 34.062 107.281 36.2455 107.281 41.6314C107.281 47.4539 101.749 51.093 94.4709 51.093C87.7749 50.9475 82.6802 48.3273 82.6802 45.416ZM242.946 50.9475C234.504 50.9475 229.554 45.416 229.554 38.7201C229.554 31.733 234.649 26.4927 242.946 26.4927C247.75 26.4927 250.37 28.2395 250.807 28.5306L249.351 32.752C248.915 32.4608 246.731 31.0052 243.529 31.0052C238.725 31.0052 236.25 34.4987 236.25 38.7201C236.25 42.9415 238.871 46.435 243.238 46.435C246.585 46.435 247.896 44.2515 249.642 44.2515C250.952 44.2515 251.826 45.2705 251.826 46.435C251.826 48.764 247.75 50.9475 242.946 50.9475ZM221.84 44.5427C220.093 44.5427 218.783 46.7261 215.58 46.7261C212.232 46.7261 209.758 44.106 209.467 41.1947H226.061V39.739C226.061 32.0241 221.84 26.6383 214.561 26.6383C207.138 26.6383 202.916 31.8786 202.916 38.8657C202.916 45.1249 206.701 51.093 215.435 51.093C220.384 51.093 224.169 48.9096 224.169 46.7261C224.169 45.416 223.441 44.5427 221.84 44.5427ZM214.416 31.1508C218.346 31.1508 219.365 34.3532 219.365 36.9733H209.321C209.321 34.062 210.777 31.1508 214.416 31.1508ZM150.95 43.8148V36.0999C150.95 30.4229 147.456 26.6383 139.887 26.6383C134.647 26.6383 131.007 28.5306 130.28 28.9673L132.172 32.8975C132.609 32.752 135.666 31.2963 138.577 31.2963C142.653 31.2963 144.545 33.4798 144.545 35.6632V35.9544L140.469 36.0999C134.501 36.3911 129.406 38.2834 129.406 43.8148C129.406 48.3273 133.045 51.2386 137.995 51.2386C142.216 51.2386 144.399 49.0552 145.127 48.3273C145.273 48.764 146.001 51.2386 149.057 51.2386C150.513 51.2386 151.386 50.6564 151.386 49.3463C151.386 47.7451 150.95 46.8717 150.95 43.8148ZM144.399 44.8338C143.963 45.1249 142.216 46.5806 139.741 46.5806C137.412 46.5806 135.957 45.1249 135.957 43.2326C135.957 41.0491 137.703 40.0302 141.343 39.8846L144.399 39.739V44.8338Z" fill="black"/>
</g>
</g>
</g>
</svg>
