<svg xmlns="http://www.w3.org/2000/svg" xmlns:xlink="http://www.w3.org/1999/xlink" viewBox="0 0 40 40"><path d="M 14.419 25.738 L 9.196 25.738 C 8.452 25.738 7.905 25.412 7.554 24.759 C 7.204 24.107 7.248 23.471 7.686 22.851 L 22.217 1.902 C 22.494 1.516 22.846 1.256 23.271 1.12 C 23.696 0.985 24.122 1.002 24.549 1.171 C 24.976 1.329 25.311 1.607 25.553 2.005 C 25.796 2.403 25.888 2.829 25.827 3.285 L 24.244 15.913 L 30.846 15.913 C 31.627 15.913 32.181 16.263 32.507 16.964 C 32.834 17.664 32.752 18.317 32.263 18.921 L 16.375 38.034 C 16.088 38.392 15.729 38.62 15.297 38.717 C 14.865 38.815 14.444 38.772 14.033 38.589 C 13.633 38.416 13.324 38.137 13.107 37.752 C 12.889 37.367 12.811 36.944 12.872 36.483 Z" fill="#FF9400"></path></svg>