<svg xmlns="http://www.w3.org/2000/svg" xmlns:xlink="http://www.w3.org/1999/xlink" viewBox="0 0 40 40"><path d="M 5.502 29.275 C 4.882 29.698 4.249 29.735 3.601 29.388 C 2.953 29.041 2.629 28.501 2.629 27.768 L 2.629 12.232 C 2.629 11.499 2.953 10.957 3.601 10.607 C 4.249 10.257 4.882 10.296 5.502 10.725 L 16.849 18.478 C 17.406 18.845 17.684 19.352 17.684 20 C 17.684 20.648 17.406 21.155 16.849 21.522 Z M 23.8 29.275 C 23.18 29.698 22.546 29.735 21.899 29.388 C 21.251 29.041 20.927 28.501 20.927 27.768 L 20.927 12.232 C 20.927 11.499 21.251 10.957 21.899 10.607 C 22.546 10.257 23.18 10.296 23.8 10.725 L 35.131 18.478 C 35.698 18.845 35.982 19.352 35.982 20 C 35.982 20.648 35.698 21.155 35.131 21.522 Z" fill="#ff9400"></path></svg>