<svg width="81" height="81" viewBox="0 0 81 81" fill="none" xmlns="http://www.w3.org/2000/svg">
<g id="Frame 11">
<g id="&#240;&#159;&#166;&#134; icon &#34;search&#34;">
<path id="Vector" d="M49.1665 16.9291C56.74 24.5026 57.712 36.1666 52.0825 44.8336C52.5685 45.2386 52.9735 45.6841 53.5405 46.0891C54.3505 46.7371 55.444 47.5471 56.821 48.4786C58.198 49.4506 59.089 50.0581 59.494 50.3821C61.195 51.6376 62.4505 52.6906 63.301 53.5411C64.597 54.8371 65.731 56.1736 66.703 57.5911C67.7155 59.0086 68.485 60.3856 69.0925 61.8031C69.6595 63.2206 69.943 64.5571 69.8215 65.8531C69.7405 67.1491 69.2545 68.2426 68.3635 69.1336C67.4725 70.0246 66.379 70.5106 65.083 70.5916C63.8275 70.6726 62.4505 70.4296 61.0735 69.8221C59.656 69.2551 58.2385 68.4451 56.8615 67.4326C55.444 66.4606 54.1075 65.3266 52.8115 64.0306C51.961 63.1801 50.908 61.9246 49.693 60.2641C49.288 59.7376 48.6805 58.8466 47.7895 57.5911C46.8985 56.2951 46.1695 55.2826 45.5215 54.4321C44.8735 53.6221 44.347 53.0146 43.7395 52.4071C35.356 56.8216 24.745 55.4851 17.6575 48.4381C8.99048 39.7306 8.99048 25.5961 17.6575 16.9291C26.365 8.22156 40.459 8.22156 49.1665 16.9291ZM43.456 42.6871C48.964 37.1386 48.964 28.1881 43.456 22.6396C37.9075 17.0911 28.9165 17.0911 23.4085 22.6396C17.86 28.1881 17.86 37.1386 23.4085 42.6871C28.9165 48.2356 37.9075 48.2356 43.456 42.6871Z" fill="#E69D4D"/>
</g>
</g>
</svg>
