<svg width="51" height="73" viewBox="0 0 51 73" fill="none" xmlns="http://www.w3.org/2000/svg">
<g id="Frame 9">
<g id="&#240;&#159;&#166;&#134; icon &#34;trusted organization&#34;">
<path id="Vector" d="M51 25.5113C51.0019 21.1212 49.8705 16.8051 47.7152 12.9806C45.5598 9.15604 42.4537 5.95274 38.6973 3.68072C34.9409 1.4087 30.6616 0.144929 26.2736 0.0117407C21.8856 -0.121448 17.5376 0.880457 13.6503 2.92047C9.76309 4.96048 6.46835 7.9695 4.08504 11.6563C1.70173 15.343 0.310587 19.5826 0.046268 23.9647C-0.218051 28.3467 0.65341 32.7228 2.57629 36.6693C4.49917 40.6158 7.40834 43.999 11.0222 46.4915L3.47699e-06 65.5827L8.2169 65.922L12.6193 72.8684L25.2459 50.9984C25.3315 50.9992 25.4142 51.0113 25.5 51.0113C25.5858 51.0113 25.6685 50.9992 25.7541 50.9984L38.3807 72.8684L42.8687 66.0708L51 65.5827L39.9776 46.4915C43.3782 44.1501 46.1584 41.0169 48.0786 37.362C49.9988 33.707 51.0014 29.6399 51 25.5113ZM7.28572 25.5113C7.28572 21.9088 8.35397 18.3873 10.3554 15.392C12.3568 12.3966 15.2015 10.0621 18.5297 8.68346C21.8579 7.30486 25.5202 6.94416 29.0534 7.64696C32.5867 8.34976 35.8321 10.0845 38.3794 12.6318C40.9268 15.1791 42.6615 18.4246 43.3643 21.9578C44.0671 25.4911 43.7064 29.1533 42.3278 32.4816C40.9492 35.8098 38.6146 38.6545 35.6193 40.6559C32.624 42.6573 29.1024 43.7255 25.5 43.7255C20.6693 43.7255 16.0364 41.8065 12.6206 38.3907C9.20472 34.9749 7.28572 30.342 7.28572 25.5113Z" fill="#E69D4D"/>
<path id="Vector_2" d="M25.4999 36.4397C31.5355 36.4397 36.4284 31.5468 36.4284 25.5111C36.4284 19.4754 31.5355 14.5825 25.4999 14.5825C19.4642 14.5825 14.5713 19.4754 14.5713 25.5111C14.5713 31.5468 19.4642 36.4397 25.4999 36.4397Z" fill="#E69D4D"/>
</g>
</g>
</svg>
