<svg width="77" height="77" viewBox="0 0 77 77" fill="none" xmlns="http://www.w3.org/2000/svg">
<g id="Frame 10">
<g id="&#240;&#159;&#166;&#134; icon &#34;Chat bot&#34;">
<path id="Vector" d="M38.5 45.7188C35.7206 45.7211 32.984 45.0347 30.5347 43.721C28.0854 42.4072 25.9998 40.507 24.4644 38.1903L28.4732 35.5256C29.5708 37.1801 31.0609 38.5373 32.8104 39.4761C34.5599 40.4149 36.5145 40.9062 38.5 40.9062C40.4855 40.9062 42.4401 40.4149 44.1897 39.4761C45.9392 38.5373 47.4292 37.1801 48.5269 35.5256L52.5357 38.1903C51.0002 40.507 48.9146 42.4072 46.4653 43.721C44.016 45.0347 41.2794 45.7211 38.5 45.7188Z" fill="#E69D4D"/>
<path id="Vector_2" d="M48.125 19.2499C47.1732 19.2499 46.2427 19.5321 45.4513 20.0609C44.6599 20.5897 44.0431 21.3413 43.6788 22.2207C43.3146 23.1001 43.2193 24.0677 43.405 25.0012C43.5907 25.9348 44.049 26.7923 44.7221 27.4653C45.3951 28.1384 46.2526 28.5967 47.1861 28.7824C48.1197 28.9681 49.0873 28.8728 49.9667 28.5085C50.846 28.1443 51.5976 27.5275 52.1265 26.736C52.6553 25.9446 52.9375 25.0142 52.9375 24.0624C52.9437 23.4286 52.8235 22.8 52.5839 22.2133C52.3442 21.6266 51.99 21.0936 51.5419 20.6455C51.0937 20.1974 50.5607 19.8431 49.974 19.6035C49.3873 19.3638 48.7587 19.2436 48.125 19.2499Z" fill="#E69D4D"/>
<path id="Vector_3" d="M28.875 19.2499C27.9232 19.2499 26.9927 19.5321 26.2013 20.0609C25.4099 20.5897 24.7931 21.3413 24.4288 22.2207C24.0646 23.1001 23.9693 24.0677 24.155 25.0012C24.3407 25.9348 24.799 26.7923 25.4721 27.4653C26.1451 28.1384 27.0026 28.5967 27.9361 28.7824C28.8697 28.9681 29.8373 28.8728 30.7167 28.5085C31.596 28.1443 32.3476 27.5275 32.8765 26.736C33.4053 25.9446 33.6875 25.0142 33.6875 24.0624C33.6937 23.4286 33.5735 22.8 33.3339 22.2133C33.0942 21.6266 32.74 21.0936 32.2919 20.6455C31.8437 20.1974 31.3107 19.8431 30.724 19.6035C30.1373 19.3638 29.5087 19.2436 28.875 19.2499Z" fill="#E69D4D"/>
<path id="Vector_4" d="M42.6768 72.1875L38.5 69.7812L48.125 52.9375H62.5625C63.1948 52.9386 63.8211 52.8148 64.4054 52.5734C64.9898 52.3319 65.5208 51.9775 65.9679 51.5304C66.415 51.0833 66.7694 50.5523 67.0109 49.9679C67.2523 49.3836 67.3761 48.7573 67.375 48.125V14.4375C67.3761 13.8052 67.2523 13.1789 67.0109 12.5946C66.7694 12.0102 66.415 11.4792 65.9679 11.0321C65.5208 10.585 64.9898 10.2306 64.4054 9.98913C63.8211 9.74767 63.1948 9.62392 62.5625 9.625H14.4375C13.8052 9.62392 13.1789 9.74767 12.5946 9.98913C12.0102 10.2306 11.4792 10.585 11.0321 11.0321C10.585 11.4792 10.2306 12.0102 9.98913 12.5946C9.74767 13.1789 9.62392 13.8052 9.625 14.4375V48.125C9.62392 48.7573 9.74767 49.3836 9.98913 49.9679C10.2306 50.5523 10.585 51.0833 11.0321 51.5304C11.4792 51.9775 12.0102 52.3319 12.5946 52.5734C13.1789 52.8148 13.8052 52.9386 14.4375 52.9375H36.0938V57.75H14.4375C13.1735 57.7502 11.9218 57.5014 10.7539 57.0178C9.58605 56.5342 8.52491 55.8252 7.6311 54.9314C6.7373 54.0376 6.02833 52.9764 5.54471 51.8086C5.06109 50.6407 4.81228 49.389 4.8125 48.125V14.4375C4.81212 13.1734 5.06082 11.9217 5.54439 10.7537C6.02795 9.58579 6.73691 8.52459 7.63075 7.63075C8.52459 6.73691 9.58579 6.02795 10.7537 5.54439C11.9217 5.06082 13.1734 4.81212 14.4375 4.8125H62.5625C63.8266 4.81212 65.0783 5.06082 66.2463 5.54439C67.4142 6.02795 68.4754 6.73691 69.3692 7.63075C70.2631 8.52459 70.972 9.58579 71.4556 10.7537C71.9392 11.9217 72.1879 13.1734 72.1875 14.4375V48.125C72.1877 49.389 71.9389 50.6407 71.4553 51.8086C70.9717 52.9764 70.2627 54.0376 69.3689 54.9314C68.4751 55.8252 67.4139 56.5342 66.2461 57.0178C65.0782 57.5014 63.8265 57.7502 62.5625 57.75H50.9273L42.6768 72.1875Z" fill="#E69D4D"/>
</g>
</g>
</svg>
