<svg width="72" height="72" viewBox="0 0 72 72" fill="none" xmlns="http://www.w3.org/2000/svg">
<g id="Frame 7">
<g id="&#240;&#159;&#166;&#134; icon &#34;layout masonry fill&#34;">
<path id="Vector" d="M66 29.997V60C66 60.7957 65.6839 61.5587 65.1213 62.1213C64.5587 62.6839 63.7957 63 63 63H39V29.997H66ZM33 47.997V63H9C8.20435 63 7.44129 62.6839 6.87868 62.1213C6.31607 61.5587 6 60.7957 6 60V47.997H33ZM33 9V41.997H6V12C6 11.2044 6.31607 10.4413 6.87868 9.87868C7.44129 9.31607 8.20435 9 9 9H33ZM63 9C63.7957 9 64.5587 9.31607 65.1213 9.87868C65.6839 10.4413 66 11.2044 66 12V23.997H39V9H63Z" fill="#E69D4D"/>
</g>
</g>
</svg>
