<svg width="77" height="77" viewBox="0 0 77 77" fill="none" xmlns="http://www.w3.org/2000/svg">
<g id="Frame 12">
<g id="&#240;&#159;&#166;&#134; icon &#34;Chart relationship&#34;">
<path id="Vector" d="M62.5624 14.4376C60.4344 14.4441 58.3687 15.1563 56.6888 16.4626C55.0089 17.7689 53.8098 19.5955 53.2793 21.6563H43.1451C42.6963 18.0833 41.2539 14.708 38.9818 11.9142C36.7097 9.12042 33.6993 7.02029 30.2928 5.85266C26.8863 4.68504 23.2205 4.49679 19.7123 5.30932C16.2041 6.12186 12.9943 7.90256 10.448 10.4489C7.90171 12.9953 6.12107 16.2051 5.30862 19.7133C4.49616 23.2215 4.68449 26.8873 5.85219 30.2938C7.01989 33.7002 9.1201 36.7107 11.9139 38.9827C14.7078 41.2547 18.0831 42.6971 21.6561 43.1458V53.2795C19.3879 53.8652 17.4111 55.258 16.0962 57.1969C14.7814 59.1358 14.2189 61.4877 14.5141 63.8116C14.8093 66.1356 15.9419 68.2722 17.6997 69.8208C19.4575 71.3695 21.7197 72.2239 24.0624 72.2239C26.405 72.2239 28.6673 71.3695 30.4251 69.8208C32.1828 68.2722 33.3155 66.1356 33.6107 63.8116C33.9059 61.4877 33.3433 59.1358 32.0285 57.1969C30.7137 55.258 28.7369 53.8652 26.4686 53.2795V43.1458C29.8887 42.7157 33.1291 41.3695 35.8472 39.2496L44.6765 48.0806C43.7929 49.5473 43.3216 51.2253 43.3124 52.9376C43.3124 54.8412 43.8769 56.7021 44.9345 58.2849C45.9921 59.8677 47.4953 61.1014 49.2541 61.8299C51.0128 62.5584 52.9481 62.749 54.8151 62.3776C56.6822 62.0062 58.3972 61.0895 59.7433 59.7435C61.0894 58.3974 62.0061 56.6824 62.3774 54.8153C62.7488 52.9482 62.5582 51.013 61.8297 49.2542C61.1012 47.4955 59.8676 45.9923 58.2847 44.9347C56.7019 43.8771 54.841 43.3126 52.9374 43.3126C51.2247 43.3215 49.5462 43.7928 48.0792 44.6767L39.2497 35.8472C41.3694 33.1291 42.7154 29.8888 43.1451 26.4688H53.2793C53.7323 28.2078 54.6638 29.7849 55.9681 31.0211C57.2724 32.2573 58.8972 33.1029 60.658 33.462C62.4188 33.8211 64.245 33.6792 65.9292 33.0525C67.6134 32.4258 69.0882 31.3394 70.1859 29.9167C71.2837 28.4939 71.9605 26.7919 72.1395 25.0038C72.3185 23.2157 71.9925 21.4132 71.1985 19.8011C70.4045 18.189 69.1744 16.8318 67.6478 15.8837C66.1213 14.9356 64.3594 14.4346 62.5624 14.4376ZM28.8749 62.5626C28.8749 63.5144 28.5926 64.4448 28.0638 65.2362C27.535 66.0277 26.7834 66.6445 25.904 67.0087C25.0247 67.373 24.057 67.4683 23.1235 67.2826C22.19 67.0969 21.3325 66.6386 20.6594 65.9655C19.9864 65.2925 19.528 64.435 19.3424 63.5014C19.1567 62.5679 19.252 61.6003 19.6162 60.7209C19.9805 59.8415 20.5973 59.0899 21.3887 58.5611C22.1801 58.0323 23.1106 57.7501 24.0624 57.7501C25.3383 57.7515 26.5615 58.259 27.4637 59.1612C28.3659 60.0634 28.8734 61.2867 28.8749 62.5626ZM24.0624 38.5001C21.2069 38.5001 18.4156 37.6533 16.0413 36.0669C13.6671 34.4805 11.8166 32.2257 10.7239 29.5876C9.63113 26.9494 9.34522 24.0465 9.90229 21.2459C10.4594 18.4453 11.8344 15.8728 13.8535 13.8537C15.8726 11.8346 18.4452 10.4596 21.2458 9.90248C24.0464 9.3454 26.9493 9.63131 29.5874 10.7241C32.2255 11.8168 34.4803 13.6673 36.0667 16.0415C37.6531 18.4158 38.4999 21.2071 38.4999 24.0626C38.4957 27.8903 36.9732 31.5601 34.2666 34.2668C31.5599 36.9734 27.8902 38.4959 24.0624 38.5001ZM57.7499 52.9376C57.7499 53.8894 57.4676 54.8198 56.9388 55.6112C56.41 56.4027 55.6584 57.0195 54.779 57.3837C53.8997 57.748 52.932 57.8433 51.9985 57.6576C51.065 57.4719 50.2075 57.0136 49.5344 56.3405C48.8614 55.6675 48.403 54.81 48.2174 53.8764C48.0317 52.9429 48.127 51.9753 48.4912 51.0959C48.8555 50.2165 49.4723 49.4649 50.2637 48.9361C51.0551 48.4073 51.9856 48.1251 52.9374 48.1251C54.2133 48.1265 55.4365 48.634 56.3387 49.5362C57.2409 50.4384 57.7484 51.6617 57.7499 52.9376ZM62.5624 28.8751C61.6106 28.8751 60.6801 28.5928 59.8887 28.064C59.0973 27.5352 58.4805 26.7836 58.1162 25.9042C57.752 25.0249 57.6567 24.0572 57.8424 23.1237C58.028 22.1902 58.4864 21.3327 59.1594 20.6596C59.8325 19.9866 60.69 19.5282 61.6235 19.3425C62.557 19.1568 63.5247 19.2521 64.404 19.6164C65.2834 19.9806 66.035 20.5975 66.5638 21.3889C67.0926 22.1803 67.3749 23.1107 67.3749 24.0626C67.3734 25.3385 66.8659 26.5617 65.9637 27.4639C65.0615 28.3661 63.8383 28.8736 62.5624 28.8751Z" fill="#E69D4D"/>
</g>
</g>
</svg>
