<svg width="215" height="25" viewBox="0 0 215 25" fill="none" xmlns="http://www.w3.org/2000/svg">
<g id="Frame" clip-path="url(#clip0_149_118)">
<g id="Group">
<path id="Vector" d="M62.5755 8.53153C62.5755 5.65542 62.5755 2.90376 62.5755 0C64.1621 0.525442 65.5846 1.0094 67.0208 1.47954C67.0345 1.72843 67.0618 1.93584 67.0618 2.14325C67.0618 6.76162 67.1028 11.38 67.0481 16.0122C67.0071 19.7732 65.3247 22.594 61.9053 24.1565C57.2686 26.2583 51.9479 23.8247 50.3203 18.9712C48.679 14.0625 51.7975 8.71128 56.8172 7.77102C58.5269 7.45299 60.1819 7.63274 61.7822 8.28263C61.9874 8.35177 62.1925 8.40708 62.5755 8.53153ZM62.4935 16.3025C62.5618 14.0625 60.8111 12.2235 58.5543 12.1405C56.3658 12.0714 54.5057 13.8689 54.4099 16.1366C54.3279 18.3214 56.1607 20.271 58.3628 20.3263C60.6059 20.3955 62.4251 18.6256 62.4935 16.3025Z" fill="#2E2E32"/>
<path id="Vector_2" d="M174.364 24.5991C172.914 24.5991 171.519 24.5991 170.096 24.5991C170 24.447 169.905 24.2949 169.809 24.1289C165.377 25.7053 161.575 24.9586 158.88 20.8933C156.966 17.9896 156.911 14.7816 158.744 11.8502C161.383 7.61898 165.254 6.7202 169.85 8.40715C169.905 8.1306 169.959 7.90936 170.014 7.63281C171.464 7.63281 172.9 7.63281 174.364 7.63281C174.364 13.2882 174.364 18.9022 174.364 24.5991ZM170.096 16.4409C170.247 14.3115 168.578 12.348 166.499 12.1959C164.16 12.0299 162.19 13.6754 162.026 15.9293C161.862 18.1693 163.572 20.1605 165.801 20.354C167.525 20.4923 170.014 19.1925 170.096 16.4409Z" fill="#2E2E32"/>
<path id="Vector_3" d="M32.3886 18.432C30.4601 18.432 28.5178 18.432 26.5619 18.432C24.6334 18.432 22.7048 18.432 20.7762 18.432C20.7489 19.3307 22.7322 20.3401 23.6759 20.3816C24.9616 20.4369 26.0285 19.953 27.0133 19.1233C28.0665 20.1327 29.0786 21.1007 30.0908 22.0547C28.258 24.3639 23.9084 25.8849 19.9829 23.7693C16.1121 21.6814 14.4435 16.745 16.2626 12.7074C18.0817 8.66979 22.7869 6.62333 26.8218 8.15817C31.4722 9.92809 32.9631 14.2422 32.3886 18.432ZM27.3415 13.938C26.6987 12.7212 24.9753 11.8639 23.6759 12.0575C22.4586 12.2373 21.3917 12.6936 20.6668 13.938C22.951 13.938 25.0984 13.938 27.3415 13.938Z" fill="#2E2E32"/>
<path id="Vector_4" d="M112.13 16.2197C112.13 11.4769 115.987 7.56372 120.678 7.56372C125.452 7.56372 129.391 11.4907 129.295 16.2473C129.2 21.1837 125.479 24.8342 120.719 24.8618C115.946 24.8895 112.13 21.004 112.13 16.2197ZM116.685 16.192C116.671 18.4736 118.504 20.3264 120.733 20.3403C122.908 20.3403 124.741 18.4874 124.754 16.275C124.768 13.9796 122.976 12.1544 120.706 12.1406C118.531 12.1268 116.698 13.9797 116.685 16.192Z" fill="#2E2E32"/>
<path id="Vector_5" d="M85.5542 16.2473C85.5405 20.8104 81.998 24.8757 76.9509 24.8757C72.1774 24.8618 68.416 21.004 68.4297 16.2335C68.4297 11.3801 72.2732 7.56372 77.1151 7.56372C81.7655 7.57755 85.5679 11.5045 85.5542 16.2473ZM72.9297 16.2059C72.9023 18.3629 74.7762 20.3126 76.8962 20.3403C79.1804 20.3541 81.0406 18.515 81.0406 16.2335C81.0406 14.0211 79.2625 12.1959 77.0604 12.1544C74.8309 12.0991 72.9434 13.9382 72.9297 16.2059Z" fill="#2E2E32"/>
<path id="Vector_6" d="M48.5831 24.5852C47.1332 24.5852 45.7244 24.5852 44.2472 24.5852C44.2199 24.3225 44.1925 24.0875 44.1925 23.8524C44.1925 21.239 44.2062 18.6256 44.1788 16.0261C44.1652 14.1732 43.1804 12.9564 41.5117 12.666C39.7336 12.3618 38.0649 13.7584 38.0512 15.5974C38.0375 18.3076 38.0512 21.0039 38.0512 23.7141C38.0512 23.9768 38.0239 24.2257 38.0102 24.5714C36.5193 24.5714 35.0832 24.5714 33.5786 24.5714C33.5786 18.916 33.5786 13.3021 33.5786 7.63281C35.0695 7.63281 36.5193 7.63281 37.9965 7.63281C38.0375 7.96467 38.0786 8.22739 38.1333 8.58691C38.5983 8.46246 39.036 8.35184 39.4737 8.24122C43.7822 7.19033 48.3095 10.4121 48.5694 14.8646C48.7472 17.9204 48.6515 20.9763 48.6788 24.046C48.6788 24.1981 48.6241 24.364 48.5831 24.5852Z" fill="#2E2E32"/>
<path id="Vector_7" d="M135.423 24.6129C133.932 24.6129 132.537 24.6129 131.019 24.6129C131.019 18.9437 131.019 13.3159 131.019 7.63281C132.51 7.63281 133.946 7.63281 135.41 7.63281C135.451 7.96467 135.492 8.25505 135.533 8.61456C135.984 8.49011 136.381 8.37949 136.791 8.2827C141.565 7.17651 146.051 10.7716 146.051 15.6942C146.051 18.3767 146.051 21.0731 146.051 23.7556C146.051 24.0183 146.023 24.2672 145.996 24.5991C144.519 24.5991 143.096 24.5991 141.619 24.5991C141.606 24.3087 141.565 24.0736 141.565 23.8386C141.565 21.1699 141.565 18.5012 141.565 15.8325C141.565 14.27 140.539 12.9425 139.171 12.7213C137.448 12.4448 136.121 13.2053 135.587 14.8231C135.492 15.0996 135.478 15.4177 135.478 15.708C135.464 18.4182 135.478 21.1146 135.478 23.8247C135.464 24.046 135.437 24.2949 135.423 24.6129Z" fill="#2E2E32"/>
<path id="Vector_8" d="M202.458 24.751C202.458 23.2162 202.458 21.7228 202.458 20.1741C202.731 20.1603 202.964 20.1188 203.196 20.1188C205.097 20.1188 206.985 20.1188 208.886 20.1188C209.132 20.1188 209.419 20.1741 209.597 20.0497C209.857 19.8699 210.185 19.5657 210.185 19.303C210.185 19.0541 209.857 18.6531 209.597 18.584C209.146 18.4457 208.64 18.501 208.161 18.4872C205.015 18.418 202.594 15.8323 202.717 12.652C202.813 9.96949 205.043 7.54969 207.696 7.39758C209.83 7.27314 211.964 7.34227 214.111 7.32845C214.22 7.32845 214.33 7.36993 214.494 7.41141C214.494 8.9186 214.494 10.4258 214.494 12.0298C214.22 12.0574 213.96 12.1266 213.701 12.1266C211.991 12.1404 210.281 12.1127 208.571 12.1404C208.271 12.1404 207.888 12.2648 207.682 12.4723C207.532 12.6382 207.491 13.0807 207.6 13.2881C207.737 13.5093 208.079 13.6614 208.366 13.7167C209.461 13.9103 210.609 13.8826 211.635 14.2283C213.646 14.9059 215.068 17.1874 215.027 19.3445C214.986 21.6813 213.454 23.8522 211.334 24.5436C210.897 24.6819 210.432 24.8063 209.98 24.8063C207.641 24.834 205.289 24.8202 202.95 24.8202C202.786 24.8063 202.663 24.7787 202.458 24.751Z" fill="#2E2E32"/>
<path id="Vector_9" d="M111.884 11.3662C110.735 12.1682 109.572 12.9978 108.355 13.8551C107.26 12.5277 105.879 11.8916 104.265 12.2788C103.458 12.4724 102.596 12.9287 102.036 13.5233C100.531 15.0996 100.627 17.5332 102.09 19.0681C103.814 20.8656 105.797 20.755 108.437 18.6256C109.613 19.4414 110.817 20.271 112.02 21.1007C110.201 24.0183 106.289 25.7052 102.35 24.4746C98.4657 23.2716 96.0311 19.3308 96.5235 15.0028C96.9475 11.2141 100.422 7.90932 104.183 7.59129C107.958 7.28709 111.309 9.73454 111.884 11.3662Z" fill="#2E2E32"/>
<path id="Vector_10" d="M187.754 18.6393C188.958 19.469 190.134 20.2986 191.324 21.1145C189.464 24.032 185.866 25.5254 182.433 24.6958C178.207 23.6587 175.526 20.0083 175.759 15.8462C176.005 11.5873 178.946 8.37939 183.254 7.67419C186.126 7.20405 190.353 9.12607 191.214 11.3661C190.052 12.1819 188.876 13.0116 187.658 13.8827C186.55 12.5553 185.21 11.9745 183.555 12.2649C182.625 12.4308 181.845 12.8871 181.243 13.62C179.889 15.2516 179.958 17.5746 181.408 19.1095C183.09 20.8656 185.073 20.7411 187.754 18.6393Z" fill="#2E2E32"/>
<path id="Vector_11" d="M0 7.82642C1.72339 7.82642 3.29633 7.82642 4.9103 7.82642C6.12762 10.9791 7.34493 14.1317 8.54857 17.2982C8.61696 17.2844 8.69903 17.2844 8.76742 17.2706C9.97105 14.1456 11.1884 11.0067 12.4194 7.84024C14.006 7.84024 15.5789 7.84024 17.316 7.84024C15.0318 13.4957 12.7887 19.0405 10.5455 24.5991C9.27349 24.5991 8.05617 24.5991 6.74311 24.5991C4.51365 19.0681 2.28418 13.5095 0 7.82642Z" fill="#2E2E32"/>
<path id="Vector_12" d="M197.178 7.77107C198.846 7.77107 200.324 7.77107 201.869 7.77107C201.869 9.1953 201.869 10.5504 201.869 11.9884C200.351 11.9884 198.833 11.9884 197.369 11.9884C197.273 12.1267 197.219 12.1682 197.219 12.2097C197.178 13.9658 196.904 15.7495 197.533 17.4503C198.149 19.1096 199.435 20.036 201.144 20.3679C201.363 20.4093 201.582 20.437 201.856 20.4785C201.856 21.9718 201.856 23.4376 201.856 24.9586C200.761 25.0554 199.735 24.7926 198.751 24.4331C195.085 23.0642 192.691 19.6488 192.664 15.708C192.637 11.947 192.65 8.19972 192.65 4.43866C192.65 4.27273 192.664 4.1068 192.691 3.81643C194.114 3.33247 195.55 2.84851 197.164 2.29541C197.178 4.21742 197.178 5.94585 197.178 7.77107Z" fill="#2E2E32"/>
<path id="Vector_13" d="M157.814 20.52C157.814 22.0133 157.814 23.4514 157.814 24.9724C156.706 25.083 155.68 24.8065 154.695 24.447C151.057 23.1057 148.636 19.6765 148.608 15.7772C148.581 12.0023 148.595 8.22738 148.595 4.45249C148.595 4.27273 148.622 4.07915 148.636 3.81643C150.058 3.33247 151.481 2.84851 153.095 2.29541C153.095 4.2036 153.095 5.94585 153.095 7.77107C154.736 7.77107 156.227 7.77107 157.8 7.77107C157.8 9.1953 157.8 10.5366 157.8 11.9746C156.282 11.9746 154.75 11.9746 153.327 11.9746C153.204 12.1129 153.163 12.1267 153.163 12.1544C153.108 14.1317 152.739 16.1505 153.724 18.0034C154.462 19.3999 155.68 20.1605 157.239 20.3817C157.417 20.4093 157.595 20.4647 157.814 20.52Z" fill="#2E2E32"/>
<path id="Vector_14" d="M91.6272 24.599C90.15 24.599 88.7549 24.599 87.2913 24.599C87.264 24.3639 87.2093 24.1703 87.2093 23.9767C87.2093 21.6122 87.1546 19.2477 87.2366 16.8833C87.3734 12.6244 89.5755 9.7483 93.3506 8.07518C94.2396 7.68801 95.2381 7.57739 96.1955 7.35615C96.4144 7.30084 96.6606 7.34233 96.9341 7.34233C96.9341 8.83569 96.9341 10.2599 96.9341 11.7395C96.3597 11.8916 95.7715 12.0022 95.2244 12.1958C93.0223 12.9701 91.6682 14.9059 91.6682 17.2566C91.6682 19.4413 91.6682 21.6122 91.6682 23.797C91.6819 24.032 91.6545 24.2671 91.6272 24.599Z" fill="#2E2E32"/>
</g>
</g>
<defs>
<clipPath id="clip0_149_118">
<rect width="215" height="25" fill="white"/>
</clipPath>
</defs>
</svg>
