<svg xmlns="http://www.w3.org/2000/svg" xmlns:xlink="http://www.w3.org/1999/xlink" viewBox="0 0 48 48"><path d="M 48 12 C 48 8.688 46.656 5.688 44.484 3.516 C 42.312 1.344 39.312 0 36 0 L 12 0 C 5.371 0 0 5.371 0 12 L 0 36 C 0 42.629 5.371 48 12 48 L 19.999 48 C 26.628 48 31.999 42.629 31.999 36 C 31.999 35.772 31.992 35.544 31.98 35.321 C 36.653 33.682 40.001 29.232 40.001 24 C 40.001 23.772 39.994 23.544 39.982 23.321 C 44.654 21.682 48.002 17.232 48.002 12 Z M 19.999 43.999 L 12 43.999 C 7.589 43.999 4.001 40.411 4.001 36 C 4.001 34.543 4.392 33.175 5.076 31.999 C 6.456 29.611 9.043 27.998 12 27.998 L 19.999 27.998 C 22.956 27.998 25.543 29.611 26.923 31.999 C 27.607 33.175 27.998 34.543 27.998 36 C 27.998 40.411 24.41 43.999 19.999 43.999 Z M 31.075 31.382 C 29.268 27.043 24.991 23.998 19.999 23.998 L 12 23.998 C 8.928 23.998 6.125 25.154 4.001 27.058 L 4.001 23.998 C 4.001 22.541 4.392 21.173 5.076 19.997 C 6.456 17.609 9.043 15.996 12 15.996 L 28.001 15.996 C 30.958 15.996 33.545 17.609 34.925 19.997 C 35.609 21.173 36 22.541 36 23.998 C 36 27.322 33.965 30.173 31.075 31.382 Z M 39.074 19.382 C 37.267 15.043 32.99 11.998 27.998 11.998 L 12 11.998 C 8.928 11.998 6.125 13.154 4.001 15.058 L 4.001 11.998 C 4.001 7.586 7.589 3.998 12 3.998 L 36 3.998 C 40.411 3.998 43.999 7.586 43.999 11.998 C 43.999 15.322 41.964 18.173 39.074 19.382 Z" fill="hsl(0, 0%, 0%)"></path></svg>