<svg xmlns="http://www.w3.org/2000/svg" xmlns:xlink="http://www.w3.org/1999/xlink" viewBox="0 0 40 40"><path d="M 16.536 26.824 C 16.969 26.824 17.33 26.678 17.62 26.386 C 17.91 26.094 18.056 25.733 18.056 25.301 L 18.056 14.699 C 18.056 14.267 17.909 13.906 17.617 13.614 C 17.324 13.322 16.962 13.176 16.53 13.176 C 16.097 13.176 15.732 13.322 15.434 13.614 C 15.136 13.906 14.987 14.267 14.987 14.699 L 14.987 25.301 C 14.987 25.733 15.136 26.094 15.433 26.386 C 15.73 26.678 16.098 26.824 16.536 26.824 Z M 23.494 26.824 C 23.926 26.824 24.287 26.678 24.577 26.386 C 24.868 26.094 25.013 25.733 25.013 25.301 L 25.013 14.699 C 25.013 14.267 24.866 13.906 24.574 13.614 C 24.281 13.322 23.919 13.176 23.487 13.176 C 23.054 13.176 22.689 13.322 22.391 13.614 C 22.093 13.906 21.944 14.267 21.944 14.699 L 21.944 25.301 C 21.944 25.733 22.093 26.094 22.39 26.386 C 22.687 26.678 23.055 26.824 23.494 26.824 Z M 20.01 37.326 C 17.603 37.326 15.349 36.874 13.247 35.968 C 11.145 35.063 9.31 33.827 7.742 32.258 C 6.173 30.69 4.937 28.855 4.032 26.753 C 3.126 24.652 2.674 22.397 2.674 19.988 C 2.674 17.58 3.126 15.324 4.032 13.221 C 4.937 11.118 6.173 9.287 7.739 7.727 C 9.306 6.167 11.14 4.933 13.243 4.023 C 15.345 3.113 17.601 2.658 20.01 2.658 C 22.42 2.658 24.676 3.113 26.781 4.022 C 28.885 4.931 30.717 6.164 32.276 7.722 C 33.834 9.281 35.069 11.113 35.978 13.22 C 36.887 15.326 37.342 17.584 37.342 19.993 C 37.342 22.401 36.887 24.656 35.977 26.757 C 35.067 28.859 33.833 30.691 32.273 32.255 C 30.713 33.819 28.881 35.055 26.777 35.963 C 24.672 36.872 22.416 37.326 20.01 37.326 Z" fill="#ffc200"></path></svg>