<svg xmlns="http://www.w3.org/2000/svg" xmlns:xlink="http://www.w3.org/1999/xlink" viewBox="0 0 40 40"><path d="M 13.279 36.911 L 10.806 32.684 L 5.936 31.664 C 5.478 31.579 5.106 31.341 4.818 30.951 C 4.53 30.561 4.414 30.134 4.47 29.671 L 5.011 24.879 L 1.854 21.207 C 1.54 20.868 1.383 20.466 1.383 20 C 1.383 19.534 1.54 19.132 1.854 18.793 L 5.011 15.149 L 4.47 10.356 C 4.414 9.893 4.53 9.467 4.818 9.077 C 5.106 8.687 5.478 8.444 5.936 8.348 L 10.806 7.344 L 13.279 3.089 C 13.516 2.694 13.858 2.418 14.304 2.261 C 14.75 2.103 15.192 2.122 15.63 2.317 L 20 4.298 L 24.37 2.317 C 24.808 2.132 25.25 2.111 25.696 2.254 C 26.142 2.398 26.484 2.666 26.721 3.061 L 29.222 7.344 L 34.064 8.348 C 34.522 8.444 34.894 8.687 35.182 9.077 C 35.47 9.467 35.586 9.893 35.53 10.356 L 34.989 15.149 L 38.146 18.793 C 38.46 19.132 38.617 19.534 38.617 20 C 38.617 20.466 38.46 20.868 38.146 21.207 L 34.989 24.879 L 35.53 29.671 C 35.586 30.134 35.47 30.561 35.182 30.951 C 34.894 31.341 34.522 31.579 34.064 31.664 L 29.222 32.684 L 26.721 36.939 C 26.484 37.334 26.142 37.602 25.696 37.745 C 25.25 37.889 24.808 37.868 24.37 37.683 L 20 35.702 L 15.63 37.683 C 15.192 37.868 14.75 37.884 14.304 37.732 C 13.858 37.579 13.516 37.306 13.279 36.911 Z M 18.222 21.483 L 15.522 18.69 C 15.217 18.366 14.846 18.204 14.408 18.204 C 13.97 18.204 13.587 18.353 13.259 18.652 C 12.935 18.986 12.774 19.371 12.774 19.806 C 12.774 20.24 12.935 20.62 13.259 20.943 L 16.912 24.569 C 17.279 24.946 17.716 25.135 18.222 25.135 C 18.729 25.135 19.165 24.946 19.532 24.569 L 26.741 17.388 C 27.05 17.089 27.204 16.719 27.202 16.278 C 27.2 15.837 27.037 15.461 26.713 15.152 C 26.404 14.872 26.035 14.736 25.606 14.743 C 25.178 14.75 24.823 14.899 24.543 15.19 Z" fill="#FFC200"></path></svg>