<svg width="67" height="67" viewBox="0 0 67 67" fill="none" xmlns="http://www.w3.org/2000/svg">
<g id="Frame 17">
<g id="Group">
<g id="Group_2">
<path id="SVGID_1_" d="M26.056 61.7192C35.9544 60.2636 42.7959 52.2576 43.8148 43.5237C44.5427 44.8338 45.1249 47.3084 45.1249 49.4918C45.1249 57.2067 38.8656 62.3015 31.1507 62.3015C28.6762 62.3015 26.6383 61.8648 26.056 61.7192ZM49.3463 20.9612C48.764 20.5246 47.0172 19.36 45.7072 18.4867C40.9035 15.2842 37.2644 13.3919 37.2644 9.89837C37.2644 7.7149 39.0112 6.1137 41.3402 6.1137C45.5616 6.1137 50.5108 9.89837 50.5108 9.89837C58.0801 15.4298 62.5926 24.1637 62.5926 33.4798C62.5926 37.1189 62.0104 39.8846 61.5737 41.1947C61.5737 36.9733 59.0991 27.3661 49.3463 20.9612ZM9.7528 50.5108C6.25926 45.416 4.36693 39.5935 4.36693 33.4798C4.36693 17.4677 16.5943 6.1137 30.1318 4.51249C29.8407 4.65805 26.4927 6.84152 26.4927 12.0818C26.4927 16.8855 29.8407 21.1068 32.6064 25.037C33.3342 26.056 33.9165 27.0749 34.7898 28.2395C36.9733 31.5874 39.5935 35.9544 39.5935 41.0491C39.5935 50.2197 32.1697 57.3523 23.2903 57.3523C15.4298 57.4979 11.6451 53.1309 9.7528 50.5108ZM0 33.4798C0 51.9664 14.9931 66.9595 33.4798 66.9595C51.9664 66.9595 66.9595 51.9664 66.9595 33.4798C66.9595 14.9931 51.9664 0 33.4798 0C14.9931 0 0 14.9931 0 33.4798Z" fill="black"/>
</g>
</g>
</g>
</svg>
