<svg xmlns="http://www.w3.org/2000/svg" xmlns:xlink="http://www.w3.org/1999/xlink" viewBox="0 0 40 40"><path d="M 19.995 8.346 C 19.48 8.346 19.046 8.168 18.693 7.813 C 18.34 7.458 18.164 7.024 18.164 6.51 L 18.164 2.899 C 18.164 2.385 18.342 1.95 18.698 1.595 C 19.054 1.24 19.49 1.062 20.005 1.062 C 20.52 1.062 20.954 1.24 21.307 1.595 C 21.66 1.95 21.836 2.385 21.836 2.899 L 21.836 6.51 C 21.836 7.024 21.658 7.458 21.302 7.813 C 20.946 8.168 20.51 8.346 19.995 8.346 Z M 28.232 11.768 C 27.875 11.41 27.696 10.981 27.696 10.482 C 27.696 9.982 27.875 9.553 28.232 9.195 L 30.76 6.626 C 31.128 6.259 31.564 6.075 32.068 6.075 C 32.572 6.075 33.008 6.259 33.374 6.626 C 33.737 6.983 33.917 7.412 33.915 7.912 C 33.912 8.412 33.732 8.841 33.374 9.198 L 30.805 11.768 C 30.447 12.125 30.019 12.304 29.519 12.304 C 29.019 12.304 28.59 12.125 28.232 11.768 Z M 33.49 21.836 C 32.976 21.836 32.542 21.658 32.187 21.302 C 31.832 20.946 31.654 20.51 31.654 19.995 C 31.654 19.48 31.832 19.046 32.187 18.693 C 32.542 18.34 32.976 18.164 33.49 18.164 L 37.101 18.164 C 37.615 18.164 38.05 18.342 38.405 18.698 C 38.76 19.054 38.938 19.49 38.938 20.005 C 38.938 20.52 38.76 20.954 38.405 21.307 C 38.05 21.66 37.615 21.836 37.101 21.836 Z M 19.995 38.938 C 19.48 38.938 19.046 38.76 18.693 38.405 C 18.34 38.05 18.164 37.615 18.164 37.101 L 18.164 33.49 C 18.164 32.976 18.342 32.542 18.698 32.187 C 19.054 31.832 19.49 31.654 20.005 31.654 C 20.52 31.654 20.954 31.832 21.307 32.187 C 21.66 32.542 21.836 32.976 21.836 33.49 L 21.836 37.101 C 21.836 37.615 21.658 38.05 21.302 38.405 C 20.946 38.76 20.51 38.938 19.995 38.938 Z M 9.195 11.768 L 6.626 9.24 C 6.259 8.891 6.075 8.462 6.075 7.951 C 6.075 7.441 6.262 6.999 6.636 6.626 C 7.002 6.268 7.431 6.089 7.924 6.089 C 8.416 6.089 8.841 6.268 9.198 6.626 L 11.768 9.195 C 12.141 9.568 12.327 10.005 12.327 10.505 C 12.327 11.005 12.141 11.434 11.768 11.791 C 11.396 12.13 10.96 12.298 10.46 12.296 C 9.96 12.293 9.538 12.117 9.195 11.768 Z M 30.764 33.374 L 28.209 30.805 C 27.851 30.442 27.677 30.008 27.684 29.503 C 27.692 28.998 27.875 28.566 28.232 28.209 C 28.576 27.87 28.999 27.7 29.501 27.7 C 30.004 27.7 30.438 27.87 30.805 28.209 L 33.402 30.737 C 33.769 31.094 33.947 31.529 33.935 32.04 C 33.924 32.551 33.747 32.997 33.405 33.377 C 33.04 33.747 32.602 33.932 32.091 33.932 C 31.58 33.932 31.138 33.746 30.764 33.374 Z M 2.899 21.836 C 2.385 21.836 1.95 21.658 1.595 21.302 C 1.24 20.946 1.062 20.51 1.062 19.995 C 1.062 19.48 1.24 19.046 1.595 18.693 C 1.95 18.34 2.385 18.164 2.899 18.164 L 6.51 18.164 C 7.024 18.164 7.458 18.342 7.813 18.698 C 8.168 19.054 8.346 19.49 8.346 20.005 C 8.346 20.52 8.168 20.954 7.813 21.307 C 7.458 21.66 7.024 21.836 6.51 21.836 Z M 6.626 33.364 C 6.263 32.998 6.082 32.569 6.082 32.076 C 6.082 31.584 6.263 31.152 6.626 30.778 L 9.195 28.209 C 9.549 27.87 9.979 27.7 10.484 27.7 C 10.988 27.7 11.424 27.872 11.791 28.216 C 12.158 28.577 12.341 29.015 12.341 29.527 C 12.341 30.04 12.158 30.48 11.791 30.847 L 9.263 33.374 C 8.899 33.741 8.462 33.925 7.951 33.925 C 7.441 33.925 6.999 33.738 6.626 33.364 Z M 20 29.843 C 17.259 29.843 14.933 28.888 13.023 26.977 C 11.112 25.067 10.157 22.741 10.157 20 C 10.157 17.259 11.112 14.933 13.023 13.023 C 14.933 11.112 17.259 10.157 20 10.157 C 22.741 10.157 25.067 11.112 26.977 13.023 C 28.888 14.933 29.843 17.259 29.843 20 C 29.843 22.741 28.888 25.067 26.977 26.977 C 25.067 28.888 22.741 29.843 20 29.843 Z" fill="#ff7000"></path></svg>