<svg xmlns="http://www.w3.org/2000/svg" xmlns:xlink="http://www.w3.org/1999/xlink" viewBox="0 0 40 40"><path d="M 16.379 29.919 C 16.141 29.919 15.914 29.875 15.696 29.789 C 15.479 29.703 15.277 29.567 15.093 29.382 L 7.676 21.966 C 7.318 21.608 7.142 21.168 7.147 20.645 C 7.151 20.122 7.332 19.681 7.69 19.324 C 8.047 18.966 8.481 18.787 8.992 18.787 C 9.502 18.787 9.941 18.966 10.309 19.324 L 16.379 25.393 L 30.825 10.963 C 31.183 10.605 31.618 10.422 32.132 10.415 C 32.646 10.407 33.084 10.589 33.447 10.963 C 33.805 11.32 33.983 11.76 33.983 12.281 C 33.983 12.803 33.805 13.243 33.447 13.6 L 17.665 29.382 C 17.48 29.567 17.279 29.703 17.062 29.789 C 16.844 29.875 16.616 29.919 16.379 29.919 Z" fill="#FF7D00"></path></svg>