<svg width="77" height="77" viewBox="0 0 77 77" fill="none" xmlns="http://www.w3.org/2000/svg">
<path d="M38.5005 45.7188C35.7211 45.7211 32.9845 45.0347 30.5352 43.721C28.0859 42.4072 26.0003 40.5071 24.4648 38.1903L28.4737 35.5257C29.5713 37.1801 31.0613 38.5373 32.8109 39.4761C34.5604 40.4149 36.515 40.9062 38.5005 40.9062C40.486 40.9062 42.4406 40.4149 44.1901 39.4761C45.9397 38.5373 47.4297 37.1801 48.5273 35.5257L52.5362 38.1903C51.0007 40.5071 48.9151 42.4072 46.4658 43.721C44.0165 45.0347 41.2799 45.7211 38.5005 45.7188Z" fill="#D9E167"/>
<path d="M48.125 19.2499C47.1732 19.2499 46.2427 19.5322 45.4513 20.061C44.6599 20.5898 44.0431 21.3414 43.6788 22.2208C43.3146 23.1001 43.2193 24.0678 43.405 25.0013C43.5907 25.9348 44.049 26.7923 44.7221 27.4654C45.3951 28.1384 46.2526 28.5968 47.1861 28.7825C48.1197 28.9681 49.0873 28.8728 49.9667 28.5086C50.846 28.1444 51.5976 27.5275 52.1265 26.7361C52.6553 25.9447 52.9375 25.0142 52.9375 24.0624C52.9437 23.4287 52.8235 22.8001 52.5839 22.2134C52.3442 21.6267 51.99 21.0937 51.5419 20.6456C51.0937 20.1974 50.5607 19.8432 49.974 19.6035C49.3873 19.3639 48.7587 19.2437 48.125 19.2499Z" fill="#D9E167"/>
<path d="M28.875 19.2499C27.9232 19.2499 26.9927 19.5322 26.2013 20.061C25.4099 20.5898 24.7931 21.3414 24.4288 22.2208C24.0646 23.1001 23.9693 24.0678 24.155 25.0013C24.3407 25.9348 24.799 26.7923 25.4721 27.4654C26.1451 28.1384 27.0026 28.5968 27.9361 28.7825C28.8697 28.9681 29.8373 28.8728 30.7167 28.5086C31.596 28.1444 32.3476 27.5275 32.8765 26.7361C33.4053 25.9447 33.6875 25.0142 33.6875 24.0624C33.6937 23.4287 33.5735 22.8001 33.3339 22.2134C33.0942 21.6267 32.74 21.0937 32.2919 20.6456C31.8437 20.1974 31.3107 19.8432 30.724 19.6035C30.1373 19.3639 29.5087 19.2437 28.875 19.2499Z" fill="#D9E167"/>
<path d="M42.6768 72.1875L38.5 69.7812L48.125 52.9375H62.5625C63.1948 52.9386 63.8211 52.8148 64.4054 52.5733C64.9898 52.3319 65.5208 51.9774 65.9679 51.5303C66.415 51.0832 66.7694 50.5523 67.0109 49.9679C67.2523 49.3836 67.3761 48.7573 67.375 48.125V14.4375C67.3761 13.8052 67.2523 13.1789 67.0109 12.5945C66.7694 12.0102 66.415 11.4792 65.9679 11.0321C65.5208 10.585 64.9898 10.2306 64.4054 9.98912C63.8211 9.74765 63.1948 9.62391 62.5625 9.62499H14.4375C13.8052 9.62391 13.1789 9.74765 12.5946 9.98912C12.0102 10.2306 11.4792 10.585 11.0321 11.0321C10.585 11.4792 10.2306 12.0102 9.98913 12.5945C9.74767 13.1789 9.62392 13.8052 9.625 14.4375V48.125C9.62392 48.7573 9.74767 49.3836 9.98913 49.9679C10.2306 50.5523 10.585 51.0832 11.0321 51.5303C11.4792 51.9774 12.0102 52.3319 12.5946 52.5733C13.1789 52.8148 13.8052 52.9386 14.4375 52.9375H36.0938V57.75H14.4375C13.1735 57.7502 11.9218 57.5014 10.7539 57.0178C9.58605 56.5342 8.52491 55.8252 7.6311 54.9314C6.7373 54.0376 6.02833 52.9764 5.54471 51.8086C5.06109 50.6407 4.81228 49.389 4.8125 48.125V14.4375C4.81212 13.1734 5.06082 11.9216 5.54439 10.7537C6.02795 9.58578 6.73691 8.52458 7.63075 7.63074C8.52459 6.7369 9.58579 6.02794 10.7537 5.54437C11.9217 5.06081 13.1734 4.81211 14.4375 4.81249H62.5625C63.8266 4.81211 65.0783 5.06081 66.2463 5.54437C67.4142 6.02794 68.4754 6.7369 69.3692 7.63074C70.2631 8.52458 70.972 9.58578 71.4556 10.7537C71.9392 11.9216 72.1879 13.1734 72.1875 14.4375V48.125C72.1877 49.389 71.9389 50.6407 71.4553 51.8086C70.9717 52.9764 70.2627 54.0376 69.3689 54.9314C68.4751 55.8252 67.4139 56.5342 66.2461 57.0178C65.0782 57.5014 63.8265 57.7502 62.5625 57.75H50.9273L42.6768 72.1875Z" fill="#D9E167"/>
</svg>
