<svg width="261" height="33" viewBox="0 0 261 33" fill="none" xmlns="http://www.w3.org/2000/svg">
<g clip-path="url(#clip0_284_489)">
<path d="M168.038 0.657796C169.93 0.657796 171.61 0.657796 173.361 0.657796C173.361 11.2742 173.361 21.8201 173.361 32.4599C172.178 32.4599 171.042 32.2955 169.978 32.5069C168.274 32.8592 167.612 31.9432 167.115 30.6279C165.53 26.3297 163.944 22.0315 162.359 17.7332C162.146 17.193 161.933 16.6293 161.507 16.0891C161.507 21.5617 161.507 27.0108 161.507 32.6009C159.496 32.6009 157.698 32.6009 155.758 32.6009C155.734 32.0606 155.687 31.5439 155.687 31.0272C155.687 21.4443 155.71 11.8614 155.663 2.30192C155.663 0.869184 155.947 0.305483 157.509 0.540358C158.739 0.728259 159.993 0.587333 161.342 0.587333C163.447 6.13039 165.577 11.7204 167.73 17.3105C167.848 17.287 167.943 17.2635 168.061 17.24C168.038 11.7204 168.038 6.27132 168.038 0.657796Z" fill="black"/>
<path d="M57.7558 32.4129C55.792 32.4129 54.0411 32.4129 52.2902 32.4129C50.1607 26.7289 48.0076 21.0684 45.8782 15.4079C45.8072 15.4079 45.7599 15.4079 45.6889 15.4079C45.6889 21.0919 45.6889 26.7993 45.6889 32.6712C44.0563 32.6712 42.5657 32.7182 41.0987 32.6242C40.7911 32.6008 40.4126 32.131 40.2706 31.7787C40.1286 31.4499 40.2233 31.0271 40.2233 30.6278C40.2469 21.9844 40.2943 13.3175 40.3179 4.67407C40.3179 3.59364 40.1523 2.48973 40.2233 1.4093C40.2469 1.08048 40.7438 0.516777 41.0514 0.493289C42.5893 0.399339 44.1273 0.446314 45.7125 0.446314C47.9603 6.41215 50.1607 12.2605 52.4558 18.2734C52.4558 12.284 52.4558 6.48261 52.4558 0.610727C54.2304 0.610727 55.9576 0.610727 57.7558 0.610727C57.7558 11.2036 57.7558 21.7495 57.7558 32.4129Z" fill="black"/>
<path d="M115.274 32.6714C114.115 32.6714 113.026 32.5539 111.985 32.6949C110.495 32.9063 109.95 32.1781 109.595 30.8863C108.815 27.9504 107.916 25.0614 107.111 22.149C107.064 22.008 107.206 21.8201 107.3 21.5148C106.614 21.5148 106.046 21.5148 105.242 21.5148C105.242 25.1789 105.242 28.8429 105.242 32.6479C103.562 32.6479 102.095 32.7184 100.675 32.6009C100.368 32.5774 99.8709 31.8728 99.8472 31.4735C99.7526 29.4066 99.7999 27.3397 99.7999 25.2728C99.7999 19.26 99.7999 13.2472 99.7999 7.23437C99.7999 5.07351 99.7999 2.91266 99.7999 0.469956C101.835 0.469956 103.657 0.446468 105.455 0.469956C106.851 0.493444 108.294 0.352518 109.595 0.681344C113.121 1.57387 114.848 4.08704 115.44 7.65714C115.936 10.6635 115.865 13.529 114.919 16.371C114.611 17.2635 114.115 18.25 113.405 18.8372C112.103 19.9646 112.245 20.9981 112.766 22.4543C113.807 25.4607 114.588 28.5845 115.44 31.6614C115.487 31.9433 115.345 32.2486 115.274 32.6714ZM105.289 16.3006C105.833 16.324 106.378 16.371 106.945 16.371C109.217 16.324 110.116 15.3845 110.092 13.0828C110.092 11.9789 110.045 10.8749 110.092 9.77102C110.329 5.42583 108.933 5.26142 105.266 5.6607C105.289 9.13686 105.289 12.6365 105.289 16.3006Z" fill="black"/>
<path d="M61.7773 33C61.7773 21.8904 61.7773 11.2975 61.7773 0.75159C65.1135 0.75159 68.3313 0.587178 71.5255 0.798566C74.3411 0.986466 77.2987 4.5096 77.2514 7.86832C77.1331 13.9046 77.2514 19.9644 77.204 26.0007C77.204 28.3495 74.767 31.5672 72.4009 31.9196C68.9465 32.4363 65.4447 32.6477 61.7773 33ZM67.172 5.28469C67.172 12.9886 67.172 20.2932 67.172 27.7153C68.0474 27.7153 68.7572 27.7623 69.4907 27.7153C70.6974 27.6448 71.9987 26.2591 71.9987 25.1082C71.9751 19.4007 72.0224 13.6697 71.9277 7.96227C71.9277 7.30462 71.4072 6.34163 70.863 6.08326C69.7983 5.61351 68.5443 5.54305 67.172 5.28469Z" fill="black"/>
<path d="M136.522 17.2634C136.522 13.8108 136.38 10.3581 136.569 6.92891C136.735 4.03994 139.598 0.25845 143.431 0.187988C147.974 0.0940374 150.718 1.69119 151.854 5.40222C152.209 6.5766 152.28 7.8919 152.303 9.13674C152.374 14.4214 152.422 19.7061 152.374 25.0143C152.351 29.5004 148.494 33.3759 143.975 32.9296C139.834 32.5303 136.687 29.5474 136.616 25.4841C136.569 22.736 136.616 20.0115 136.616 17.2634C136.569 17.2634 136.545 17.2634 136.522 17.2634ZM146.791 16.5823C146.767 16.5823 146.72 16.5823 146.696 16.5823C146.696 13.5524 146.696 10.5225 146.696 7.5161C146.696 5.98941 145.631 4.83852 144.282 4.8855C143.218 4.93247 141.893 6.50614 141.893 7.68051C141.916 13.2471 141.94 18.8136 141.964 24.3802C141.964 24.9439 141.964 25.531 142.106 26.0947C142.39 27.3396 143.715 28.0912 145.111 27.8563C146.199 27.6684 146.767 26.9638 146.767 25.9303C146.814 22.83 146.791 19.7061 146.791 16.5823Z" fill="black"/>
<path d="M96.2511 16.3708C96.2511 19.4477 96.3457 22.5245 96.2274 25.6014C96.0854 29.3124 92.5837 33.2114 88.0408 32.8826C84.3498 32.6242 82.102 30.8626 80.8953 27.6213C80.5168 26.6114 80.5404 25.4135 80.5404 24.2861C80.4931 18.7665 80.3512 13.2235 80.4931 7.7039C80.5641 4.76796 81.9837 2.48967 84.7757 1.00995C88.656 -1.03346 92.4181 0.422765 94.5712 3.10035C95.6596 4.43914 96.2747 5.98931 96.2511 7.75088C96.2274 10.6398 96.2511 13.5288 96.2511 16.4178C96.2511 16.3708 96.2511 16.3708 96.2511 16.3708ZM86.077 16.7936C86.0533 16.7936 86.0297 16.7936 86.006 16.7936C86.006 19.7295 85.9824 22.6655 86.0297 25.5779C86.0534 27.0107 87.2364 28.0441 88.585 27.9737C90.0993 27.9032 90.9038 26.7523 90.9274 24.7559C90.9984 19.2363 90.9748 13.6932 90.9274 8.17366C90.9274 7.58647 90.7618 6.9523 90.5252 6.3886C90.123 5.37864 89.2002 4.6975 88.2065 4.97935C87.26 5.2612 86.006 5.54305 86.0534 7.1402C86.148 10.358 86.077 13.5758 86.077 16.7936Z" fill="black"/>
<path d="M209.23 32.6244C207.527 32.6244 205.776 32.6244 203.883 32.6244C203.599 31.3795 203.197 30.1347 203.031 28.8429C202.913 27.9503 202.511 27.7624 201.706 27.7859C200.097 27.8329 198.512 27.8329 196.903 27.7859C196.051 27.7624 195.484 27.9503 195.436 28.9133C195.413 29.4535 195.294 30.0172 195.176 30.5575C194.845 32.366 194.514 32.6478 192.55 32.6244C191.58 32.6244 190.61 32.6244 189.639 32.6009C189.545 32.6009 189.45 32.5539 189.143 32.4599C189.356 31.5909 189.568 30.7219 189.781 29.8293C191.343 23.018 192.905 16.2066 194.466 9.39518C195.058 6.81155 195.673 4.22792 196.146 1.6208C196.335 0.540374 196.832 0.258523 197.802 0.422936C198.039 0.469911 198.276 0.422936 198.536 0.422936C202.18 0.258523 202.085 0.258523 202.676 3.94607C203.031 6.20087 203.741 8.4087 204.238 10.6635C205.066 14.3511 205.8 18.0386 206.675 21.7261C207.219 24.0044 207.976 26.2592 208.544 28.5375C208.876 29.8293 208.994 31.1681 209.23 32.6244ZM199.364 13.1062C199.269 13.1297 199.151 13.1532 199.056 13.1767C198.347 16.3005 197.637 19.4478 196.903 22.6891C198.441 22.6891 199.814 22.6891 201.517 22.6891C200.784 19.4244 200.074 16.2535 199.364 13.1062Z" fill="black"/>
<path d="M0 0.587208C1.94017 0.587208 3.62007 0.587208 5.4656 0.587208C7.09818 7.18721 8.73076 13.8342 10.3633 20.5046C10.4816 20.4812 10.5999 20.4812 10.7182 20.4577C12.3272 13.8342 13.9598 7.2107 15.5923 0.563721C17.3905 0.563721 19.2124 0.563721 21.0816 0.563721C19.6146 6.71746 18.2187 12.7772 16.7517 18.8135C15.7343 23.0648 14.6696 27.2691 13.6285 31.5203C13.4865 32.131 13.2736 32.5068 12.4928 32.4833C10.9549 32.4128 9.39326 32.4598 7.78434 32.4598C5.20533 21.8434 2.62633 11.2975 0 0.587208Z" fill="black"/>
<path d="M260.882 11.3212C259.036 11.2272 257.262 11.1568 255.25 11.0628C255.25 9.91194 255.298 8.76105 255.25 7.63365C255.132 5.35535 254.612 5.28489 252.861 4.95607C251.772 4.74468 250.826 5.8251 250.495 7.30482C250.069 9.20731 250.779 10.6635 252.08 12.0023C254.967 15.0087 257.877 17.9917 260.574 21.139C261.166 21.8201 261.071 23.2059 261 24.2628C260.716 28.7724 259.178 31.5675 254.99 32.6714C249.927 34.0102 245.573 30.9333 245.242 25.4842C245.195 24.8735 245.147 24.2393 245.124 23.6287C245.1 23.065 245.124 22.5013 245.124 21.8436C246.946 21.8436 248.673 21.8436 250.447 21.8436C250.447 23.065 250.258 24.3098 250.518 25.4372C250.708 26.3297 251.275 27.4102 252.033 27.8564C252.79 28.3262 253.973 28.0443 254.683 27.2457C255.014 26.8465 255.203 26.3062 255.345 25.7895C256.031 23.2059 254.422 21.5852 252.861 19.9411C250.471 17.4045 248.081 14.8443 245.692 12.2842C245.479 12.0493 245.195 11.7675 245.171 11.4856C244.934 8.05642 244.887 4.6977 247.703 1.99663C249.785 0.000193372 253.642 -0.211194 255.913 0.634357C260.101 2.18454 261.213 6.29486 260.882 11.3212Z" fill="black"/>
<path d="M22.7852 0.540283C27.5883 0.540283 32.344 0.540283 37.2181 0.540283C37.2181 2.23139 37.2181 3.82854 37.2181 5.54313C34.4498 5.54313 31.6106 5.54313 28.6293 5.54313C28.6293 8.40861 28.6293 11.1801 28.6293 14.0926C30.8771 14.0926 33.1958 14.0926 35.6092 14.0926C35.6092 15.8072 35.6092 17.3574 35.6092 19.0954C33.2905 19.0954 30.9954 19.0954 28.6057 19.0954C28.6057 22.0314 28.6057 24.7794 28.6057 27.7154C31.4923 27.7154 34.3315 27.7154 37.2418 27.7154C37.2418 29.4065 37.2418 30.9332 37.2418 32.5303C32.486 32.5303 27.6829 32.5303 22.7852 32.5303C22.7852 21.7495 22.7852 11.1332 22.7852 0.540283Z" fill="black"/>
<path d="M226.952 10.1233C225.012 10.1233 223.545 10.1703 222.102 10.0764C221.794 10.0529 221.345 9.51266 221.25 9.13686C221.085 8.45572 221.227 7.70412 221.085 6.9995C220.824 5.68419 219.712 4.9091 218.482 5.05003C217.275 5.19095 216.471 6.27138 216.447 7.61017C216.423 12.566 216.376 17.4984 216.352 22.4543C216.352 23.4173 216.329 24.3568 216.305 25.3198C216.281 26.6586 217.11 27.8799 218.151 27.9504C219.902 28.0678 221.108 27.1283 221.203 25.5312C221.25 24.897 221.203 24.2863 221.203 23.6522C221.203 23.0885 221.203 22.5248 221.203 21.7497C222.859 21.7497 224.373 21.7027 225.911 21.7966C226.172 21.8201 226.645 22.3134 226.645 22.5952C226.645 25.5077 226.81 28.4671 224.302 30.6984C222.788 32.0607 221.203 32.8123 219.097 32.9063C215.927 33.0707 213.631 31.7084 212.117 29.2187C211.265 27.8329 210.816 26.0244 210.745 24.3803C210.579 19.2365 210.532 14.0927 210.721 8.94896C210.91 4.22797 213.064 0.610883 218.198 0.0706699C221.25 -0.234668 225.083 1.55038 226.006 5.14398C226.408 6.67067 226.597 8.29131 226.952 10.1233Z" fill="black"/>
<path d="M128.713 21.7965C130.606 21.7965 132.239 21.7965 133.942 21.7965C133.966 24.5446 134.534 27.2691 132.712 29.6649C129.447 33.9396 123.011 34.1745 119.935 29.7353C119.036 28.4435 118.35 26.7524 118.279 25.2257C118.09 19.5652 118.043 13.8812 118.232 8.19724C118.35 4.6976 119.888 1.69119 123.461 0.469839C128.595 -1.26824 134.321 2.30187 133.99 8.12678C133.871 10.1702 133.848 10.1702 131.813 10.1702C131.576 10.1702 131.34 10.1702 131.08 10.1702C128.784 10.1702 128.784 10.1702 128.713 7.8919C128.666 6.2008 127.672 5.19083 126.418 5.12037C125.661 5.0734 124.668 5.70756 124.123 6.34172C123.697 6.81148 123.721 7.75098 123.721 8.47909C123.697 13.9047 123.697 19.3538 123.721 24.7794C123.721 26.7994 124.644 27.8093 126.395 27.8328C127.696 27.8563 128.548 26.9638 128.69 25.3431C128.737 24.7794 128.713 24.1923 128.713 23.6051C128.713 23.0414 128.713 22.4777 128.713 21.7965Z" fill="black"/>
<path d="M180.767 32.5773C180.767 23.5581 180.767 14.6563 180.767 5.56663C178.779 5.56663 176.981 5.56663 174.946 5.56663C174.946 4.03994 174.899 2.65417 174.994 1.26841C175.017 1.01005 175.514 0.587271 175.798 0.563783C181.074 0.516808 186.351 0.540296 191.745 0.540296C191.745 2.2314 191.745 3.78158 191.745 5.51965C190.137 5.51965 188.386 5.51965 186.469 5.51965C186.469 14.6093 186.469 23.5346 186.469 32.5538C184.553 32.5773 182.802 32.5773 180.767 32.5773Z" fill="black"/>
<path d="M238.428 32.5772C236.559 32.5772 234.831 32.5772 232.938 32.5772C232.938 23.558 232.938 14.6328 232.938 5.54308C231.353 5.54308 229.957 5.49611 228.585 5.56657C227.544 5.61354 227.213 5.21425 227.284 4.22778C227.355 3.02991 227.307 1.83205 227.307 0.563721C232.868 0.563721 238.38 0.563721 243.964 0.563721C243.964 2.18436 243.964 3.78151 243.964 5.49611C242.166 5.49611 240.392 5.49611 238.475 5.49611C238.428 14.5858 238.428 23.558 238.428 32.5772Z" fill="black"/>
</g>
<defs>
<clipPath id="clip0_284_489">
<rect width="261" height="33" fill="white"/>
</clipPath>
</defs>
</svg>
