<svg width="77" height="47" viewBox="0 0 77 47" fill="none" xmlns="http://www.w3.org/2000/svg">
<path d="M76.6921 2.38631C76.3015 1.44584 75.5542 0.698476 74.6137 0.30791C74.151 0.11069 73.6541 0.00608119 73.1511 0H53.9067C52.8859 0 51.9069 0.405507 51.1851 1.12731C50.4633 1.84912 50.0578 2.8281 50.0578 3.84888C50.0578 4.86967 50.4633 5.84865 51.1851 6.57046C51.9069 7.29226 52.8859 7.69777 53.9067 7.69777H63.8753L42.36 29.213L29.6972 16.5117C29.3394 16.151 28.9137 15.8646 28.4447 15.6692C27.9757 15.4738 27.4726 15.3732 26.9645 15.3732C26.4564 15.3732 25.9533 15.4738 25.4843 15.6692C25.0153 15.8646 24.5896 16.151 24.2318 16.5117L1.13849 39.605C0.777744 39.9628 0.491409 40.3885 0.296006 40.8575C0.100603 41.3266 0 41.8296 0 42.3377C0 42.8458 0.100603 43.3489 0.296006 43.8179C0.491409 44.2869 0.777744 44.7126 1.13849 45.0704C1.4963 45.4312 1.92199 45.7175 2.39101 45.9129C2.86003 46.1083 3.3631 46.2089 3.8712 46.2089C4.3793 46.2089 4.88237 46.1083 5.35139 45.9129C5.82041 45.7175 6.24611 45.4312 6.60391 45.0704L26.9645 24.6713L39.6273 37.3727C39.9851 37.7334 40.4108 38.0197 40.8799 38.2152C41.3489 38.4106 41.8519 38.5112 42.36 38.5112C42.8681 38.5112 43.3712 38.4106 43.8402 38.2152C44.3093 38.0197 44.7349 37.7334 45.0928 37.3727L69.3022 13.1247V23.0933C69.3022 24.1141 69.7077 25.0931 70.4295 25.8149C71.1513 26.5367 72.1303 26.9422 73.1511 26.9422C74.1719 26.9422 75.1509 26.5367 75.8727 25.8149C76.5945 25.0931 77 24.1141 77 23.0933V3.84888C76.9939 3.34592 76.8893 2.84903 76.6921 2.38631Z" fill="#D9E167"/>
</svg>
