<svg width="72" height="58" viewBox="0 0 72 58" fill="none" xmlns="http://www.w3.org/2000/svg">
<path d="M5.61542 42.0145C5.87269 42.9653 6.85706 43.5358 7.80786 43.2785L32.0143 36.7906C32.9651 36.5334 33.5356 35.549 33.2783 34.5982L27.7189 13.8482C27.4616 12.8974 26.4772 12.3269 25.5264 12.5842L16.8909 14.9109L19.665 25.2803L12.7521 27.126L9.97794 16.7566L1.33119 19.0721C0.380384 19.3293 -0.1901 20.3137 0.067177 21.2645L5.61542 42.0145ZM42.9542 0C40.9742 0 39.3747 1.59959 39.3747 3.57951V39.7773L0.660033 50.3368C0.179037 50.4711 -0.100613 50.9633 0.0336191 51.4331L1.44305 56.6122C1.57728 57.0932 2.06946 57.3728 2.53928 57.2386L46.5784 45.2249C46.8469 51.9141 52.3056 57.2721 59.062 57.2721C65.9861 57.2721 71.5902 51.668 71.5902 44.7439V0L42.9542 0ZM59.062 50.1131C56.0977 50.1131 53.6927 47.7081 53.6927 44.7439C53.6927 41.7796 56.0977 39.3746 59.062 39.3746C62.0262 39.3746 64.4312 41.7796 64.4312 44.7439C64.4312 47.7081 62.0262 50.1131 59.062 50.1131Z" fill="#D9E167"/>
</svg>
