<?xml version="1.0" encoding="utf-8"?>
<!-- Generator: Adobe Illustrator 19.2.1, SVG Export Plug-In . SVG Version: 6.00 Build 0)  -->
<svg version="1.1" id="layer" xmlns="http://www.w3.org/2000/svg" xmlns:xlink="http://www.w3.org/1999/xlink" x="0px" y="0px"
	 viewBox="0 0 652 652" style="enable-background:new 0 0 652 652;" xml:space="preserve">
<g>
	<path d="M407,295.3c-3.8,0-6.8,3.1-6.8,6.8c0,2.8,2,4.9,5.5,8.4l0.3,0.2c5.9-3.8,7.9-5.5,7.9-8.6
		C413.9,298.4,410.8,295.3,407,295.3 M404,327.7c-5.9,3.7-8.7,6.3-8.7,10.8c0,5.3,4.3,9.6,9.6,9.6c2.6,0,4.7-0.9,6.8-2.8l4.9-4.9
		L404,327.7z M404.9,361.5c-12.7,0-23-10.3-23-23c0-10.4,6.5-16.4,12.4-20.5c-4-4.1-7.5-8.9-7.5-15.9c0-11.1,9.1-20.2,20.2-20.2
		c11.1,0,20.2,9.1,20.2,20.2c0,9.1-5.5,14.2-11.6,18.3l10.5,10.5l15.6-15.6l4.4,14.5l-10.6,10.6l19.8,19.8h-18.9l-10.3-10.3
		l-4.9,4.9C416.9,359.1,411.1,361.5,404.9,361.5"/>
	<path d="M46.4,317c3.7,0,6.7-1,9-2.9c2.3-1.9,3.4-4.5,3.4-8c0-3.5-1.1-6.1-3.4-8c-2.3-1.9-5.3-2.8-9-2.8H35.2V317H46.4z
		 M20.5,360.2V282h25.6c4,0,7.7,0.6,11,1.6c3.3,1.1,6.2,2.7,8.6,4.7c2.4,2,4.3,4.6,5.6,7.6c1.3,3,2,6.5,2,10.3c0,3.8-0.7,7.3-2,10.2
		c-1.3,3-3.2,5.5-5.6,7.6c-2.4,2-5.3,3.6-8.6,4.7c-3.3,1.1-7,1.6-11,1.6h-11v29.9H20.5z"/>
	<path d="M117.3,326.4c-0.3-1.3-0.7-2.6-1.3-3.8c-0.8-1.5-1.7-2.7-2.9-3.7c-1.2-1-2.6-1.9-4.1-2.4c-1.6-0.6-3.3-0.9-5.1-0.9
		c-1.8,0-3.5,0.4-5,1c-1.6,0.7-3,1.6-4.2,2.7c-1.2,1.1-2.2,2.3-3,3.7c-0.6,1.1-1,2.3-1.3,3.4H117.3z M104.8,361.5
		c-4.2,0-8.1-0.7-11.6-2.1c-3.5-1.4-6.6-3.4-9.1-6c-2.5-2.5-4.5-5.6-5.9-9.1c-1.4-3.5-2.1-7.4-2.1-11.7c0-4.1,0.7-7.9,2.1-11.5
		c1.4-3.5,3.4-6.6,5.9-9.2c2.5-2.6,5.5-4.6,8.9-6.1c3.4-1.5,7.1-2.2,11.1-2.2c4,0,7.8,0.7,11.1,2.2c3.3,1.5,6.3,3.5,8.7,6.1
		c2.4,2.6,4.3,5.7,5.7,9.2c1.3,3.5,2,7.4,2,11.4c0,1,0,2.3-0.1,3.9l0,0.7H90.3c0.2,1.6,0.7,3,1.4,4.3c0.8,1.6,1.9,2.9,3.2,4.1
		c1.3,1.2,2.9,2.1,4.6,2.7c1.7,0.7,3.6,1,5.4,1c3.3,0,6-0.7,7.9-2.2c2-1.5,3.7-3.4,5.2-5.6l0.4-0.6l11.7,5.6l-0.4,0.7
		c-2.3,4.3-5.6,7.8-9.8,10.4C115.7,360.2,110.6,361.5,104.8,361.5"/>
	<path d="M140.8,360.2V305h14v6.9c1.3-2,3.1-3.7,5.2-5.1c3-1.9,6.4-2.9,10-2.9c1.3,0,2.1,0.1,3.2,0.4v0.4v14.1c0,0-1.2-0.3-1.8-0.5
		c-0.6-0.1-1.1-0.2-2.2-0.2c-4.5-0.1-7.9,1.7-10.5,4.9c-2.5,3.2-3.8,7.5-3.8,12.8v24.4H140.8z"/>
	<polygon points="219.1,360.2 200.2,336.8 198.3,338.5 198.3,360.2 184.2,360.2 184.2,282 198.3,282 198.3,324.1 217.4,305 
		235.1,305 210.9,329.1 236.6,360.2 	"/>
	<path d="M250.4,299.2c-2.3,0-4.3-0.9-6-2.5c-1.7-1.7-2.5-3.7-2.5-6c0-2.4,0.9-4.5,2.5-6.1c1.7-1.7,3.7-2.5,6-2.5
		c2.5,0,4.6,0.9,6.2,2.6c1.6,1.7,2.5,3.8,2.5,6.1c0,2.3-0.8,4.3-2.5,6C254.9,298.3,252.9,299.2,250.4,299.2"/>
	<polygon points="243.3,360.2 243.3,330.6 243.3,305 257.6,305 257.6,330.6 257.6,360.2 	"/>
	<path d="M305.8,360.2v-30.7c0-4-1-7.1-2.9-9.3c-1.9-2.2-4.7-3.3-8.3-3.3c-3.6,0-6.4,1.2-8.6,3.8c-2.2,2.6-3.3,6.1-3.3,10.5v29
		h-14.2V305h14.2v5.6c1.5-1.8,3.4-3.3,5.5-4.5c2.8-1.6,6.3-2.4,10.2-2.4c6.8,0,12.1,2.1,15.9,6.3c3.8,4.2,5.7,9.9,5.7,17.1v33.1
		H305.8z"/>
	<path d="M349.1,361.5c-5.2,0-9.7-1.3-13.5-3.9c-3.8-2.6-6.5-6-8.1-10.3l-0.2-0.6l11.7-6.1l0.3,0.8c0.9,2.3,2.3,4.2,4,5.6
		c1.8,1.4,3.7,2.1,6,2.1c1.8,0,3.4-0.4,4.7-1.3c1.2-0.8,1.8-1.9,1.8-3.6c0-1.2-0.4-2.2-1.2-2.9c-0.9-0.8-2.4-1.5-4.4-2.1l-6.5-2.1
		c-9.4-3-14.2-8.5-14.2-16.3c0-2.6,0.5-5,1.6-7.1c1-2.1,2.4-4,4.2-5.5c1.8-1.5,3.8-2.6,6.1-3.4c2.3-0.8,4.8-1.2,7.4-1.2
		c4.5,0,8.6,1.1,12.2,3.4c3.6,2.3,6.3,5.4,8,9.2l0.3,0.7l-11.5,6.2l-0.4-0.7c-1-2-2.2-3.7-3.7-4.9c-1.4-1.2-3.1-1.8-4.9-1.8
		c-1.7,0-3.1,0.4-4.2,1.2c-1,0.7-1.5,1.7-1.5,3c0,2.2,1.8,3.9,5.5,5.1l6.3,2.1c5.2,1.7,8.9,4,11.2,6.6c2.3,2.7,3.5,6,3.5,9.7
		c0,2.9-0.6,5.5-1.7,7.7c-1.1,2.2-2.6,4.1-4.5,5.7c-1.9,1.6-4.1,2.7-6.5,3.5C354.4,361.1,351.8,361.5,349.1,361.5"/>
	<path d="M562.9,299.2c-2.3,0-4.4-0.9-6-2.5c-1.7-1.7-2.5-3.7-2.5-6c0-2.4,0.9-4.5,2.5-6.1c1.7-1.7,3.7-2.5,6-2.5
		c2.5,0,4.6,0.9,6.2,2.6c1.6,1.7,2.5,3.8,2.5,6.1c0,2.3-0.8,4.3-2.5,6C567.4,298.3,565.3,299.2,562.9,299.2"/>
	<polygon points="555.8,360.2 555.8,332.6 555.8,305 570.1,305 570.1,333 570.1,360.2 	"/>
	<polygon points="581.1,360.2 581.1,323.5 581.1,282 595.3,282 595.3,323.5 595.3,360.2 	"/>
	<polygon points="606.3,360.2 606.3,324.3 606.3,282 620.5,282 620.5,324.3 620.5,360.2 	"/>
	<polygon points="472.6,360.2 449.2,282 464.5,282 478.8,333.7 493.3,282 505.3,282 519.7,333.7 534.1,282 549.2,282 525.7,360.2 
		513.7,360.2 499.1,308 484.6,360.2 	"/>
</g>
</svg>
