<svg width="81" height="81" viewBox="0 0 81 81" fill="none" xmlns="http://www.w3.org/2000/svg">
<path d="M49.1665 16.929C56.74 24.5025 57.712 36.1665 52.0825 44.8335C52.5685 45.2385 52.9735 45.684 53.5405 46.089C54.3505 46.737 55.444 47.547 56.821 48.4785C58.198 49.4505 59.089 50.058 59.494 50.382C61.195 51.6375 62.4505 52.6905 63.301 53.541C64.597 54.837 65.731 56.1735 66.703 57.591C67.7155 59.0085 68.485 60.3855 69.0925 61.803C69.6595 63.2205 69.943 64.557 69.8215 65.853C69.7405 67.149 69.2545 68.2425 68.3635 69.1335C67.4725 70.0245 66.379 70.5105 65.083 70.5915C63.8275 70.6725 62.4505 70.4295 61.0735 69.822C59.656 69.255 58.2385 68.445 56.8615 67.4325C55.444 66.4605 54.1075 65.3265 52.8115 64.0305C51.961 63.18 50.908 61.9245 49.693 60.264C49.288 59.7375 48.6805 58.8465 47.7895 57.591C46.8985 56.295 46.1695 55.2825 45.5215 54.432C44.8735 53.622 44.347 53.0145 43.7395 52.407C35.356 56.8215 24.745 55.485 17.6575 48.438C8.99048 39.7305 8.99048 25.596 17.6575 16.929C26.365 8.22152 40.459 8.22152 49.1665 16.929ZM43.456 42.687C48.964 37.1385 48.964 28.188 43.456 22.6395C37.9075 17.091 28.9165 17.091 23.4085 22.6395C17.86 28.188 17.86 37.1385 23.4085 42.687C28.9165 48.2355 37.9075 48.2355 43.456 42.687Z" fill="#D9E167"/>
</svg>
