<svg width="198" height="53" viewBox="0 0 198 53" fill="none" xmlns="http://www.w3.org/2000/svg">
<path d="M20.6128 45.8312C28.3265 44.7503 33.658 38.8052 34.4521 32.3197C35.0193 33.2925 35.473 35.1301 35.473 36.7514C35.473 42.4803 30.5952 46.2636 24.5831 46.2636C22.6547 46.2636 21.0665 45.9393 20.6128 45.8312ZM38.7627 15.5653C38.3089 15.241 36.9477 14.3763 35.9268 13.7277C32.1833 11.3497 29.3474 9.94451 29.3474 7.35029C29.3474 5.7289 30.7087 4.53988 32.5237 4.53988C35.8133 4.53988 39.6702 7.35029 39.6702 7.35029C45.5689 11.4578 49.0854 17.9434 49.0854 24.8613C49.0854 27.5636 48.6317 29.6173 48.2914 30.5902C48.2914 27.4555 46.3629 20.3214 38.7627 15.5653ZM7.90788 37.5081C5.1854 33.7249 3.71072 29.4012 3.71072 24.8613C3.71072 12.9711 13.2394 4.53988 23.789 3.35087C23.5622 3.45896 20.9531 5.08035 20.9531 8.97168C20.9531 12.5387 23.5622 15.6734 25.7175 18.5919C26.2846 19.3486 26.7384 20.1052 27.419 20.9699C29.1206 23.4561 31.1624 26.6988 31.1624 30.4821C31.1624 37.2919 25.3771 42.5884 18.4575 42.5884C12.3319 42.6965 9.38256 39.4538 7.90788 37.5081ZM0.307617 24.8613C0.307617 38.589 11.9916 49.7225 26.3981 49.7225C40.8045 49.7225 52.4885 38.589 52.4885 24.8613C52.4885 11.1335 40.8045 0 26.3981 0C11.9916 0 0.307617 11.1335 0.307617 24.8613Z" fill="black"/>
<mask id="mask0_284_588" style="mask-type:luminance" maskUnits="userSpaceOnUse" x="0" y="0" width="198" height="53">
<path d="M197.308 0H0.307617V52.2676H197.308V0Z" fill="white"/>
</mask>
<g mask="url(#mask0_284_588)">
<path d="M141.168 37.4642C141.168 38.8307 140.371 39.9694 138.663 39.9694C136.955 39.9694 136.158 38.8307 136.158 37.4642V29.0376C136.158 26.7602 135.019 24.8244 132.4 24.8244C130.464 24.8244 129.098 25.9631 128.073 26.7602V37.4642C128.073 38.8307 127.276 39.9694 125.568 39.9694C123.86 39.9694 123.062 38.8307 123.062 37.4642V21.2943H127.39L127.731 23.4579C128.528 22.7746 130.806 20.7249 134.336 20.7249C137.524 20.7249 141.282 22.5469 141.282 27.3296V37.4642H141.168ZM93.3416 34.7313C93.3416 35.7561 94.1387 36.4394 95.0497 36.4394C96.6439 36.4394 97.0994 35.1868 98.2382 35.1868C99.263 35.1868 99.8324 35.9839 99.8324 36.781C99.8324 38.4891 97.7827 39.9694 94.1388 39.9694C90.0393 39.9694 88.2174 37.5781 88.2174 34.5035V24.8244H84.9151V21.1804H88.2174V17.081L93.3416 15.7145V21.2943H100.06L98.8075 24.9382H93.3416V34.7313ZM151.531 34.7313C151.531 35.7561 152.328 36.4394 153.239 36.4394C154.833 36.4394 155.288 35.1868 156.541 35.1868C157.566 35.1868 158.135 35.9839 158.135 36.781C158.135 38.4891 156.086 39.9694 152.442 39.9694C148.342 39.9694 146.52 37.5781 146.52 34.5035V24.8244H143.218V21.1804H146.52V17.081L151.645 15.7145V21.2943H158.363L157.11 24.9382H151.645L151.531 34.7313ZM64.9873 35.5284C64.9873 34.3897 65.8983 33.5926 66.9231 33.5926C68.6312 33.5926 69.8838 35.9839 74.211 35.9839C76.8301 35.9839 78.7659 34.8452 78.7659 32.9093C78.7659 31.2012 77.3994 30.1764 75.2359 29.1515C74.5526 28.8099 73.3 28.2405 72.5029 27.8989C69.5422 26.5324 66.5815 24.5966 66.5815 20.7249C66.5815 16.9671 69.8838 13.7787 75.6913 13.7787C79.9046 13.7787 82.4098 14.9174 82.9792 15.259L81.7266 19.0168C81.0434 18.6752 78.5382 17.7642 75.9191 17.7642C73.9833 17.7642 72.0474 18.6752 72.0474 20.6111C72.0474 22.433 73.6416 23.2301 75.6913 24.255C76.3746 24.5966 76.944 24.8244 77.6272 25.166C80.8156 26.6463 84.2318 28.3544 84.2318 32.5677C84.2318 37.1226 79.9046 39.9694 74.211 39.9694C68.9729 39.8556 64.9873 37.8059 64.9873 35.5284ZM190.361 39.8556C183.757 39.8556 179.885 35.5284 179.885 30.2902C179.885 24.8244 183.871 20.7249 190.361 20.7249C194.119 20.7249 196.169 22.0914 196.51 22.3191L195.372 25.6215C195.03 25.3937 193.322 24.255 190.817 24.255C187.059 24.255 185.123 26.9879 185.123 30.2902C185.123 33.5926 187.173 36.3255 190.589 36.3255C193.208 36.3255 194.233 34.6174 195.599 34.6174C196.624 34.6174 197.308 35.4145 197.308 36.3255C197.308 38.1475 194.119 39.8556 190.361 39.8556ZM173.85 34.8452C172.483 34.8452 171.458 36.5533 168.953 36.5533C166.334 36.5533 164.398 34.5035 164.171 32.2261H177.152V31.0874C177.152 25.0521 173.85 20.8388 168.156 20.8388C162.349 20.8388 159.046 24.9382 159.046 30.4041C159.046 35.3007 162.007 39.9694 168.839 39.9694C172.711 39.9694 175.672 38.2613 175.672 36.5533C175.672 35.5284 175.102 34.8452 173.85 34.8452ZM168.042 24.3689C171.117 24.3689 171.914 26.8741 171.914 28.9238H164.057C164.057 26.6463 165.195 24.3689 168.042 24.3689ZM118.394 34.2758V28.2405C118.394 23.7995 115.661 20.8388 109.739 20.8388C105.64 20.8388 102.793 22.3191 102.224 22.6608L103.704 25.7353C104.046 25.6215 106.437 24.4827 108.714 24.4827C111.903 24.4827 113.383 26.1908 113.383 27.8989V28.1267L110.195 28.2405C105.526 28.4683 101.54 29.9486 101.54 34.2758C101.54 37.8059 104.387 40.0833 108.259 40.0833C111.561 40.0833 113.269 38.3752 113.839 37.8059C113.953 38.1475 114.522 40.0833 116.913 40.0833C118.052 40.0833 118.735 39.6278 118.735 38.603C118.735 37.3504 118.394 36.6671 118.394 34.2758ZM113.269 35.0729C112.928 35.3007 111.561 36.4394 109.625 36.4394C107.803 36.4394 106.665 35.3007 106.665 33.8203C106.665 32.1122 108.031 31.3151 110.878 31.2012L113.269 31.0874V35.0729Z" fill="black"/>
</g>
</svg>
