<?xml version="1.0" encoding="utf-8"?>
<!-- Generator: Adobe Illustrator 27.9.0, SVG Export Plug-In . SVG Version: 6.00 Build 0)  -->
<svg version="1.1" id="Layer_1" xmlns="http://www.w3.org/2000/svg" xmlns:xlink="http://www.w3.org/1999/xlink" x="0px" y="0px"
	 viewBox="0 0 601 415" style="enable-background:new 0 0 601 415;" xml:space="preserve">
<style type="text/css">
	.st0{fill:#D9E167;}
</style>
<g>
	<path class="st0" d="M495.6,414.5H105.4c-57.9,0-104.9-47-104.9-104.9V0h85v280.1c0,27.3,22.1,49.4,49.4,49.4h331.3
		c27.3,0,49.4-22.1,49.4-49.4V0h85v309.6C600.5,367.5,553.5,414.5,495.6,414.5z"/>
</g>
<g>
	<path d="M49.3,56.1H38.6c-4,0-5.7,1.7-5.7,4.1c0,2.6,1.8,4.2,5.7,4.2h10.7v2.3H38.8c-5.5,0-7.8-2.8-7.8-6.6c0-3.6,2.1-6.3,7.7-6.3
		h10.6V56.1z"/>
	<path d="M40.7,71c1.3,0,2.4,0,3.5-0.1v2l-2.1,0.1v0.1c1.2,0.6,2.4,2.1,2.4,4.1c0,1.7-1.1,4.4-5.5,4.4h-7.7v-2.3h7.5
		c2.1,0,3.8-0.7,3.8-2.9c0-1.5-1.1-2.7-2.4-3c-0.3-0.1-0.7-0.2-1.1-0.2h-7.8V71H40.7z"/>
	<path d="M31.3,85.9h12.9v2.3H31.3V85.9z M47.9,88.5c-0.8,0-1.4-0.5-1.4-1.4c0-0.8,0.6-1.4,1.4-1.4c0.8,0,1.5,0.6,1.5,1.4
		C49.3,87.9,48.7,88.5,47.9,88.5z"/>
	<path d="M47.9,95.2h-3.7v3.3h-1.8v-3.3h-7c-1.6,0-2.5,0.4-2.5,1.7c0,0.6,0.1,1,0.2,1.3l-1.8,0.1c-0.2-0.4-0.3-1.1-0.3-2
		c0-1.1,0.3-1.9,1-2.5c0.7-0.6,1.8-0.9,3.4-0.9h7.1v-1.9h1.8V93h3.1L47.9,95.2z"/>
	<path d="M31.3,101.6h12.9v2.3H31.3V101.6z M47.9,104.1c-0.8,0-1.4-0.5-1.4-1.4c0-0.8,0.6-1.4,1.4-1.4c0.8,0,1.5,0.6,1.5,1.4
		C49.3,103.5,48.7,104.1,47.9,104.1z"/>
	<path d="M40.7,108.1c1.3,0,2.4,0,3.5-0.1v2l-2.1,0.1v0.1c1.2,0.6,2.4,2.1,2.4,4.1c0,1.7-1.1,4.4-5.5,4.4h-7.7v-2.3h7.5
		c2.1,0,3.8-0.7,3.8-2.9c0-1.5-1.1-2.7-2.4-3c-0.3-0.1-0.7-0.2-1.1-0.2h-7.8v-2.3H40.7z"/>
	<path d="M44.2,133.8c-0.9-0.1-2-0.1-3.6-0.1h-7.5c-3,0-4.8-0.6-5.9-1.8c-1.2-1.2-1.5-3-1.5-4.5c0-1.5,0.4-3.2,1.1-4.2l1.8,0.6
		c-0.5,0.8-1,2.1-1,3.7c0,2.3,1.3,4,4.5,4h1.4v-0.1c-1.2-0.7-2.2-2-2.2-4c0-3.1,2.7-5.3,6.3-5.3c4.4,0,6.9,2.8,6.9,5.6
		c0,2.2-1.2,3.4-2.2,3.9v0.1l2,0.1V133.8z M39.1,131.4c0.4,0,0.7,0,1.1-0.1c1.4-0.4,2.5-1.5,2.5-3.2c0-2.2-1.9-3.7-4.9-3.7
		c-2.5,0-4.6,1.2-4.6,3.7c0,1.4,0.9,2.7,2.4,3.2c0.4,0.1,0.9,0.2,1.3,0.2H39.1z"/>
	<path d="M31.3,146.9l18-5.7v2.4l-8.9,2.7c-2.4,0.7-4.6,1.4-6.7,1.9v0.1c2.1,0.5,4.4,1.2,6.7,2l8.9,2.9v2.4l-18-6.2V146.9z"/>
	<path d="M31.3,157.5h12.9v2.3H31.3V157.5z M47.9,160.1c-0.8,0-1.4-0.5-1.4-1.4c0-0.8,0.6-1.4,1.4-1.4c0.8,0,1.5,0.6,1.5,1.4
		C49.3,159.5,48.7,160.1,47.9,160.1z"/>
	<path d="M33.7,163.8c-0.5,0.7-0.9,1.9-0.9,3c0,1.7,0.9,2.4,1.9,2.4c1.1,0,1.7-0.6,2.4-2.3c0.8-2.2,2.1-3.3,3.7-3.3
		c2.1,0,3.8,1.6,3.8,4.3c0,1.3-0.4,2.4-0.8,3.1l-1.7-0.6c0.3-0.5,0.7-1.4,0.7-2.6c0-1.3-0.8-2.1-1.8-2.1c-1.1,0-1.5,0.7-2.2,2.4
		c-0.9,2.2-2,3.3-3.9,3.3c-2.3,0-3.9-1.7-3.9-4.7c0-1.4,0.3-2.6,0.9-3.5L33.7,163.8z"/>
	<path d="M31.3,174.9h12.9v2.3H31.3V174.9z M47.9,177.4c-0.8,0-1.4-0.5-1.4-1.4c0-0.8,0.6-1.4,1.4-1.4c0.8,0,1.5,0.6,1.5,1.4
		C49.3,176.8,48.7,177.4,47.9,177.4z"/>
	<path d="M37.9,192.7c-4.8,0-6.9-3.2-6.9-6.2c0-3.4,2.6-6,6.7-6c4.3,0,6.9,2.7,6.9,6.2C44.5,190.3,41.8,192.7,37.9,192.7z
		 M37.7,182.8c-2.8,0-5,1.6-5,3.8c0,2.2,2.1,3.8,5,3.8c2.2,0,5-1.1,5-3.7S40.2,182.8,37.7,182.8z"/>
	<path d="M40.7,196.1c1.3,0,2.4,0,3.5-0.1v2l-2.1,0.1v0.1c1.2,0.6,2.4,2.1,2.4,4.1c0,1.7-1.1,4.4-5.5,4.4h-7.7v-2.3h7.5
		c2.1,0,3.8-0.7,3.8-2.9c0-1.5-1.1-2.7-2.4-3c-0.3-0.1-0.7-0.2-1.1-0.2h-7.8v-2.3H40.7z"/>
	<path d="M31.3,217.9l1.6-0.2v-0.1c-1-0.7-1.9-2-1.9-3.8c0-2.5,1.8-3.8,3.7-3.8c3.1,0,4.8,2.7,4.8,7.5h0.3c1.1,0,3-0.3,3-2.8
		c0-1.2-0.4-2.4-1-3.3l1.5-0.5c0.7,1,1.1,2.5,1.1,4.1c0,3.8-2.7,4.8-5.3,4.8h-4.8c-1.1,0-2.2,0.1-3.1,0.2V217.9z M37.9,217.6
		c0.1-2.5-0.4-5.3-2.9-5.3c-1.5,0-2.2,1-2.2,2.1c0,1.6,1.1,2.7,2.2,3c0.2,0.1,0.5,0.1,0.7,0.1H37.9z"/>
	<path d="M40.2,223.9c1.5,0,2.8,0,4-0.1v2l-2.5,0.1v0.1c1.7,0.6,2.8,1.9,2.8,3.5c0,0.3,0,0.4-0.1,0.6h-2.2c0.1-0.2,0.1-0.5,0.1-0.8
		c0-1.6-1.3-2.7-3-3c-0.3-0.1-0.7-0.1-1.1-0.1h-6.9v-2.2H40.2z"/>
	<path d="M31.3,233h12.9v2.3H31.3V233z M47.9,235.6c-0.8,0-1.4-0.5-1.4-1.4c0-0.8,0.6-1.4,1.4-1.4c0.8,0,1.5,0.6,1.5,1.4
		C49.3,235,48.7,235.6,47.9,235.6z"/>
	<path d="M37.3,240.9c-3.2,0.1-4.5,2-4.5,4.3c0,1.6,0.3,2.6,0.7,3.5l-1.7,0.4c-0.4-0.8-0.8-2.2-0.8-4.2c0-3.8,2.6-6.1,6.5-6.1
		s7,2.2,7,5.9c0,4.1-3.7,5.2-6.1,5.2c-0.5,0-0.9-0.1-1.1-0.1V240.9z M39,247.5c1.5,0,3.8-0.6,3.8-3.2c0-2.3-2.2-3.3-3.8-3.5V247.5z"
		/>
	<path d="M33.7,252.8c-0.5,0.7-0.9,1.9-0.9,3c0,1.7,0.9,2.4,1.9,2.4c1.1,0,1.7-0.6,2.4-2.3c0.8-2.2,2.1-3.3,3.7-3.3
		c2.1,0,3.8,1.6,3.8,4.3c0,1.3-0.4,2.4-0.8,3.1l-1.7-0.6c0.3-0.5,0.7-1.4,0.7-2.6c0-1.3-0.8-2.1-1.8-2.1c-1.1,0-1.5,0.7-2.2,2.4
		c-0.9,2.2-2,3.3-3.9,3.3c-2.3,0-3.9-1.7-3.9-4.7c0-1.4,0.3-2.6,0.9-3.5L33.7,252.8z"/>
	<path d="M31.3,276.7l1.6-0.2v-0.1c-1-0.7-1.9-2-1.9-3.8c0-2.5,1.8-3.8,3.7-3.8c3.1,0,4.8,2.7,4.8,7.5h0.3c1.1,0,3-0.3,3-2.8
		c0-1.2-0.4-2.4-1-3.3l1.5-0.5c0.7,1,1.1,2.5,1.1,4.1c0,3.8-2.7,4.8-5.3,4.8h-4.8c-1.1,0-2.2,0.1-3.1,0.2V276.7z M37.9,276.4
		c0.1-2.5-0.4-5.3-2.9-5.3c-1.5,0-2.2,1-2.2,2.1c0,1.6,1.1,2.7,2.2,3c0.2,0.1,0.5,0.1,0.7,0.1H37.9z"/>
	<path d="M40.6,282.8c1.3,0,2.4-0.1,3.5-0.2l0,2l-2.1,0.2l0,0.1c1.2,0.6,2.5,2,2.5,4.1c0,1.7-1,4.4-5.4,4.5l-7.7,0.1l0-2.3l7.5-0.1
		c2.1,0,3.8-0.8,3.8-3c0-1.5-1.1-2.6-2.5-3c-0.3-0.1-0.7-0.1-1.1-0.1l-7.8,0.1l0-2.3L40.6,282.8z"/>
	<path d="M52.6,306.8l-15.4,2.9c-1.1,0.2-2.4,0.5-3.3,0.7l-0.4-2l2.2-0.5l0-0.1c-1.5-0.4-2.9-1.7-3.3-3.7c-0.6-3,1.6-5.7,5.5-6.5
		c4.2-0.8,7.3,1.2,7.9,4.2c0.4,1.9-0.3,3.3-1.3,4.1l0,0.1l7.6-1.4L52.6,306.8z M41.1,306.7c0.3-0.1,0.7-0.2,1-0.3
		c1.4-0.6,2.4-2.1,2.1-3.7c-0.4-2.3-2.8-3.3-5.6-2.8c-2.6,0.5-4.5,2.1-4,4.5c0.3,1.5,1.6,2.7,3.4,2.8c0.3,0,0.6,0,1-0.1L41.1,306.7z
		"/>
	<path d="M46.2,319c1.2-0.6,2.2-1.1,3.1-1.7l0.9,1.8l-1.8,1l0,0.1c1.4,0.1,3,0.6,3.9,2.4c0.8,1.5,0.4,3.2-0.7,4.3l0,0
		c0.8,0,1.5,0.2,2.1,0.5c0.9,0.4,1.5,1,2.1,2c0.8,1.5,0.9,4.2-3.1,6.2l-6.8,3.5l-1-2l6.5-3.3c2.2-1.1,3.1-2.6,2.3-4.2
		c-0.6-1.1-1.9-1.6-3.1-1.4c-0.3,0.1-0.7,0.2-1.1,0.4l-7.1,3.6l-1-2l6.9-3.5c1.8-0.9,2.8-2.4,2-3.9c-0.6-1.3-2.2-1.6-3.4-1.4
		c-0.4,0-0.7,0.2-1.1,0.4l-6.9,3.6l-1-2L46.2,319z"/>
	<path d="M54.4,349.8l1.1-1.2l0-0.1c-1.2,0.1-2.8-0.4-3.9-1.8c-1.6-2-1-4.1,0.5-5.3c2.4-2,5.4-1,8.5,2.8l0.2-0.2
		c0.8-0.7,2.1-2.1,0.5-4.1c-0.7-0.9-1.8-1.6-2.8-1.9l0.9-1.4c1.2,0.4,2.5,1.2,3.5,2.5c2.4,3,0.9,5.4-1.1,7l-3.8,3.1
		c-0.9,0.7-1.7,1.4-2.3,2.1L54.4,349.8z M59.3,345.4c-1.5-2-3.7-3.9-5.6-2.3c-1.2,1-1.1,2.2-0.4,3.1c1,1.3,2.5,1.4,3.6,1
		c0.2-0.1,0.5-0.2,0.7-0.4L59.3,345.4z"/>
	<path d="M66,351.9L66,351.9c0.6-0.1,1.3-0.2,1.8-0.3l5.7-0.9l2,1.8l-7.1,0.7l-1,9.3l-2.1-1.8l0.9-7.5l-1.8,0.2l-3.2,3.6l-1.7-1.5
		l12.7-14.1L74,343L66,351.9z"/>
	<path d="M75.1,360.5c-1.7,2.7-0.7,4.9,1.2,6.1c1.4,0.9,2.4,1.2,3.3,1.3l-0.6,1.6c-0.9-0.1-2.3-0.5-3.9-1.6
		c-3.2-2.1-3.8-5.5-1.7-8.8c2.1-3.3,5.6-4.7,8.7-2.7c3.4,2.2,2.3,5.9,1.1,7.9c-0.3,0.4-0.5,0.7-0.7,0.9L75.1,360.5z M81.6,362.7
		c0.8-1.2,1.6-3.5-0.6-4.9c-1.9-1.2-4,0.1-5,1.3L81.6,362.7z"/>
	<path d="M87.4,364.4c0.6-1.4,1.2-2.6,1.6-3.7l1.8,0.8l-1,2.3l0.1,0c1.2-1.3,2.9-1.8,4.3-1.1c0.2,0.1,0.4,0.2,0.6,0.3l-0.9,2
		c-0.2-0.1-0.4-0.3-0.7-0.4c-1.5-0.7-3,0-4,1.5c-0.2,0.3-0.4,0.6-0.5,1l-2.9,6.3l-2-0.9L87.4,364.4z"/>
	<path d="M93.7,374.2c0.5,0.6,1.5,1.4,2.6,1.8c1.6,0.5,2.6-0.1,2.9-1.1c0.3-1.1-0.1-1.8-1.5-3c-1.9-1.5-2.5-3-2.1-4.5
		c0.6-2,2.7-3.1,5.2-2.3c1.2,0.4,2.2,1.1,2.7,1.7l-1.1,1.5c-0.4-0.5-1.1-1.1-2.2-1.5c-1.3-0.4-2.2,0.1-2.5,1.1
		c-0.3,1,0.3,1.7,1.6,2.8c1.8,1.5,2.5,2.9,2,4.7c-0.7,2.2-2.8,3.2-5.6,2.3c-1.3-0.4-2.4-1.1-3.1-1.9L93.7,374.2z"/>
	<path d="M111.5,373.9c0.1-1.6,1.5-2.7,3-2.5c1.5,0.2,2.6,1.5,2.4,3c-0.2,1.6-1.5,2.7-3,2.5C112.4,376.7,111.3,375.4,111.5,373.9z"
		/>
	<path d="M129,363.5v10.7c0,4,1.7,5.7,4.1,5.7c2.6,0,4.2-1.8,4.2-5.7v-10.7h2.3V374c0,5.5-2.8,7.8-6.6,7.8c-3.6,0-6.3-2.1-6.3-7.7
		v-10.6H129z"/>
	<path d="M143.9,372.1c0-1.3,0-2.4-0.1-3.5h2l0.1,2.1h0.1c0.6-1.2,2.1-2.4,4.1-2.4c1.7,0,4.4,1.1,4.4,5.5v7.7h-2.3v-7.5
		c0-2.1-0.7-3.8-2.9-3.8c-1.5,0-2.7,1.1-3,2.4c-0.1,0.3-0.2,0.7-0.2,1.1v7.8h-2.3V372.1z"/>
	<path d="M161.3,365c0,0.8-0.5,1.4-1.4,1.4c-0.8,0-1.4-0.6-1.4-1.4c0-0.8,0.6-1.5,1.4-1.5C160.7,363.5,161.3,364.2,161.3,365z
		 M158.7,381.6v-12.9h2.3v12.9H158.7z"/>
	<path d="M168,364.9v3.7h3.3v1.8H168v7c0,1.6,0.4,2.5,1.7,2.5c0.6,0,1-0.1,1.3-0.2l0.1,1.8c-0.4,0.2-1.1,0.3-2,0.3
		c-1.1,0-1.9-0.3-2.5-1c-0.6-0.7-0.9-1.8-0.9-3.4v-7.1h-1.9v-1.8h1.9v-3.1L168,364.9z"/>
	<path d="M176.9,365c0,0.8-0.5,1.4-1.4,1.4c-0.8,0-1.4-0.6-1.4-1.4c0-0.8,0.6-1.5,1.4-1.5C176.4,363.5,176.9,364.2,176.9,365z
		 M174.4,381.6v-12.9h2.3v12.9H174.4z"/>
	<path d="M180.9,372.1c0-1.3,0-2.4-0.1-3.5h2l0.1,2.1h0.1c0.6-1.2,2.1-2.4,4.1-2.4c1.7,0,4.4,1.1,4.4,5.5v7.7h-2.3v-7.5
		c0-2.1-0.7-3.8-2.9-3.8c-1.5,0-2.7,1.1-3,2.4c-0.1,0.3-0.2,0.7-0.2,1.1v7.8h-2.3V372.1z"/>
	<path d="M206.6,368.6c-0.1,0.9-0.1,2-0.1,3.6v7.5c0,3-0.6,4.8-1.8,5.9c-1.2,1.2-3,1.5-4.5,1.5c-1.5,0-3.2-0.4-4.2-1.1l0.6-1.8
		c0.8,0.5,2.1,1,3.7,1c2.3,0,4-1.3,4-4.5v-1.4h-0.1c-0.7,1.2-2,2.2-4,2.2c-3.1,0-5.3-2.7-5.3-6.3c0-4.4,2.8-6.9,5.6-6.9
		c2.2,0,3.4,1.2,3.9,2.2h0.1l0.1-2H206.6z M204.2,373.7c0-0.4,0-0.7-0.1-1.1c-0.4-1.4-1.5-2.5-3.2-2.5c-2.2,0-3.7,1.9-3.7,4.9
		c0,2.5,1.2,4.6,3.7,4.6c1.4,0,2.7-0.9,3.2-2.4c0.1-0.4,0.2-0.9,0.2-1.3V373.7z"/>
	<path d="M219.7,381.6l-5.7-18h2.4l2.7,8.9c0.7,2.4,1.4,4.6,1.9,6.7h0.1c0.5-2.1,1.2-4.4,2-6.7l2.9-8.9h2.4l-6.2,18H219.7z"/>
	<path d="M232.9,365c0,0.8-0.5,1.4-1.4,1.4c-0.8,0-1.4-0.6-1.4-1.4c0-0.8,0.6-1.5,1.4-1.5C232.3,363.5,232.9,364.2,232.9,365z
		 M230.4,381.6v-12.9h2.3v12.9H230.4z"/>
	<path d="M236.6,379.2c0.7,0.5,1.9,0.9,3,0.9c1.7,0,2.4-0.9,2.4-1.9c0-1.1-0.6-1.7-2.3-2.4c-2.2-0.8-3.3-2.1-3.3-3.7
		c0-2.1,1.6-3.8,4.3-3.8c1.3,0,2.4,0.4,3.1,0.8l-0.6,1.7c-0.5-0.3-1.4-0.7-2.6-0.7c-1.3,0-2.1,0.8-2.1,1.8c0,1.1,0.7,1.5,2.4,2.2
		c2.2,0.9,3.3,2,3.3,3.9c0,2.3-1.7,3.9-4.7,3.9c-1.4,0-2.6-0.3-3.5-0.9L236.6,379.2z"/>
	<path d="M250.2,365c0,0.8-0.5,1.4-1.4,1.4c-0.8,0-1.4-0.6-1.4-1.4c0-0.8,0.6-1.5,1.4-1.5C249.7,363.5,250.2,364.2,250.2,365z
		 M247.7,381.6v-12.9h2.3v12.9H247.7z"/>
	<path d="M265.6,375c0,4.8-3.2,6.9-6.2,6.9c-3.4,0-6-2.6-6-6.7c0-4.3,2.7-6.9,6.2-6.9C263.1,368.3,265.6,371,265.6,375z
		 M255.6,375.1c0,2.8,1.6,5,3.8,5c2.2,0,3.8-2.1,3.8-5c0-2.2-1.1-5-3.7-5S255.6,372.7,255.6,375.1z"/>
	<path d="M268.9,372.1c0-1.3,0-2.4-0.1-3.5h2l0.1,2.1h0.1c0.6-1.2,2.1-2.4,4.1-2.4c1.7,0,4.4,1.1,4.4,5.5v7.7h-2.3v-7.5
		c0-2.1-0.7-3.8-2.9-3.8c-1.5,0-2.7,1.1-3,2.4c-0.1,0.3-0.2,0.7-0.2,1.1v7.8h-2.3V372.1z"/>
	<path d="M290.7,381.6l-0.2-1.6h-0.1c-0.7,1-2,1.9-3.8,1.9c-2.5,0-3.8-1.8-3.8-3.7c0-3.1,2.7-4.8,7.5-4.8v-0.3c0-1.1-0.3-3-2.8-3
		c-1.2,0-2.4,0.4-3.3,1l-0.5-1.5c1-0.7,2.5-1.1,4.1-1.1c3.8,0,4.8,2.7,4.8,5.3v4.8c0,1.1,0.1,2.2,0.2,3.1H290.7z M290.4,375
		c-2.5-0.1-5.3,0.4-5.3,2.9c0,1.5,1,2.2,2.1,2.2c1.6,0,2.7-1.1,3-2.2c0.1-0.2,0.1-0.5,0.1-0.7V375z"/>
	<path d="M296.8,372.7c0-1.5,0-2.8-0.1-4h2l0.1,2.5h0.1c0.6-1.7,1.9-2.8,3.5-2.8c0.3,0,0.4,0,0.6,0.1v2.2c-0.2-0.1-0.5-0.1-0.8-0.1
		c-1.6,0-2.7,1.3-3,3c-0.1,0.3-0.1,0.7-0.1,1.1v6.9h-2.2V372.7z"/>
	<path d="M308.4,365c0,0.8-0.5,1.4-1.4,1.4c-0.8,0-1.4-0.6-1.4-1.4c0-0.8,0.6-1.5,1.4-1.5C307.9,363.5,308.4,364.2,308.4,365z
		 M305.9,381.6v-12.9h2.3v12.9H305.9z"/>
	<path d="M313.7,375.5c0.1,3.2,2,4.5,4.3,4.5c1.6,0,2.6-0.3,3.5-0.7l0.4,1.7c-0.8,0.4-2.2,0.8-4.2,0.8c-3.8,0-6.1-2.6-6.1-6.5
		c0-3.9,2.2-7,5.9-7c4.1,0,5.2,3.7,5.2,6.1c0,0.5-0.1,0.9-0.1,1.1H313.7z M320.4,373.8c0-1.5-0.6-3.8-3.2-3.8
		c-2.3,0-3.3,2.2-3.5,3.8H320.4z"/>
	<path d="M325.6,379.2c0.7,0.5,1.9,0.9,3,0.9c1.7,0,2.4-0.9,2.4-1.9c0-1.1-0.6-1.7-2.3-2.4c-2.2-0.8-3.3-2.1-3.3-3.7
		c0-2.1,1.6-3.8,4.3-3.8c1.3,0,2.4,0.4,3.1,0.8l-0.6,1.7c-0.5-0.3-1.4-0.7-2.6-0.7c-1.3,0-2.1,0.8-2.1,1.8c0,1.1,0.7,1.5,2.4,2.2
		c2.2,0.9,3.3,2,3.3,3.9c0,2.3-1.7,3.9-4.7,3.9c-1.4,0-2.6-0.3-3.5-0.9L325.6,379.2z"/>
	<path d="M349.6,381.6l-0.2-1.6h-0.1c-0.7,1-2,1.9-3.8,1.9c-2.5,0-3.8-1.8-3.8-3.7c0-3.1,2.7-4.8,7.5-4.8v-0.3c0-1.1-0.3-3-2.8-3
		c-1.2,0-2.4,0.4-3.3,1l-0.5-1.5c1-0.7,2.5-1.1,4.1-1.1c3.8,0,4.8,2.7,4.8,5.3v4.8c0,1.1,0.1,2.2,0.2,3.1H349.6z M349.2,375
		c-2.5-0.1-5.3,0.4-5.3,2.9c0,1.5,1,2.2,2.1,2.2c1.6,0,2.7-1.1,3-2.2c0.1-0.2,0.1-0.5,0.1-0.7V375z"/>
	<path d="M355.6,372.1c0-1.3,0-2.4-0.1-3.5h2l0.1,2.1h0.1c0.6-1.2,2.1-2.4,4.1-2.4c1.7,0,4.4,1.1,4.4,5.5v7.7H364v-7.5
		c0-2.1-0.7-3.8-2.9-3.8c-1.5,0-2.7,1.1-3,2.4c-0.1,0.3-0.2,0.7-0.2,1.1v7.8h-2.3V372.1z"/>
	<path d="M381.3,362.6v15.6c0,1.1,0,2.5,0.1,3.3h-2l-0.1-2.2h-0.1c-0.7,1.4-2.2,2.5-4.3,2.5c-3,0-5.3-2.6-5.3-6.6
		c0-4.3,2.6-6.9,5.6-6.9c1.9,0,3.2,0.9,3.8,2h0.1v-7.7H381.3z M379,373.9c0-0.3,0-0.7-0.1-1c-0.3-1.5-1.6-2.7-3.3-2.7
		c-2.4,0-3.7,2.1-3.7,5c0,2.6,1.2,4.8,3.7,4.8c1.5,0,2.9-1,3.3-2.8c0.1-0.3,0.1-0.6,0.1-1V373.9z"/>
	<path d="M391.6,372.1c0-1.3,0-2.4-0.1-3.5h2l0.1,2.1h0.1c0.7-1.2,1.9-2.4,3.9-2.4c1.7,0,3,1.1,3.5,2.6h0.1c0.4-0.7,0.9-1.3,1.4-1.7
		c0.7-0.6,1.6-0.9,2.8-0.9c1.7,0,4.1,1.1,4.1,5.6v7.6h-2.2v-7.3c0-2.5-0.9-4-2.7-4c-1.3,0-2.3,1-2.7,2.1c-0.1,0.3-0.2,0.7-0.2,1.2v8
		h-2.2v-7.7c0-2.1-0.9-3.6-2.6-3.6c-1.4,0-2.5,1.2-2.8,2.4c-0.1,0.3-0.2,0.7-0.2,1.1v7.8h-2.2V372.1z"/>
	<path d="M420.6,381.6l-0.2-1.6h-0.1c-0.7,1-2,1.9-3.8,1.9c-2.5,0-3.8-1.8-3.8-3.7c0-3.1,2.7-4.8,7.5-4.8v-0.3c0-1.1-0.3-3-2.8-3
		c-1.2,0-2.4,0.4-3.3,1l-0.5-1.5c1-0.7,2.5-1.1,4.1-1.1c3.8,0,4.8,2.7,4.8,5.3v4.8c0,1.1,0.1,2.2,0.2,3.1H420.6z M420.2,375
		c-2.5-0.1-5.3,0.4-5.3,2.9c0,1.5,1,2.2,2.1,2.2c1.6,0,2.7-1.1,3-2.2c0.1-0.2,0.1-0.5,0.1-0.7V375z"/>
	<path d="M428.9,374.6L428.9,374.6c0.4-0.5,0.8-1,1.2-1.5l3.7-4.5h2.7l-4.8,5.3l5.5,7.6h-2.8l-4.3-6.2l-1.2,1.3v4.9h-2.2v-19h2.2
		V374.6z"/>
	<path d="M440.5,375.5c0.1,3.2,2,4.5,4.3,4.5c1.6,0,2.6-0.3,3.5-0.7l0.4,1.7c-0.8,0.4-2.2,0.8-4.2,0.8c-3.8,0-6.1-2.6-6.1-6.5
		c0-3.9,2.2-7,5.9-7c4.1,0,5.2,3.7,5.2,6.1c0,0.5-0.1,0.9-0.1,1.1H440.5z M447.2,373.8c0-1.5-0.6-3.8-3.2-3.8
		c-2.3,0-3.3,2.2-3.5,3.8H447.2z"/>
	<path d="M452.7,372.7c0-1.5,0-2.8-0.1-4h2l0.1,2.5h0.1c0.6-1.7,1.9-2.8,3.5-2.8c0.3,0,0.4,0,0.6,0.1v2.2c-0.2-0.1-0.5-0.1-0.8-0.1
		c-1.6,0-2.7,1.3-3,3c-0.1,0.3-0.1,0.7-0.1,1.1v6.9h-2.2V372.7z"/>
	<path d="M461.4,379.2c0.7,0.5,1.9,0.9,3,0.9c1.7,0,2.4-0.9,2.4-1.9c0-1.1-0.6-1.7-2.3-2.4c-2.2-0.8-3.3-2.1-3.3-3.7
		c0-2.1,1.6-3.8,4.3-3.8c1.3,0,2.4,0.4,3.1,0.8l-0.6,1.7c-0.5-0.3-1.4-0.7-2.6-0.7c-1.3,0-2.1,0.8-2.1,1.8c0,1.1,0.7,1.5,2.4,2.2
		c2.2,0.9,3.3,2,3.3,3.9c0,2.3-1.7,3.9-4.7,3.9c-1.4,0-2.6-0.3-3.5-0.9L461.4,379.2z"/>
	<path d="M477.7,374.6c-0.1-1.6,1-2.9,2.5-3c1.5-0.1,2.8,1.1,2.9,2.6c0.1,1.6-1,2.9-2.5,3C479.1,377.3,477.8,376.2,477.7,374.6z"/>
	<path d="M492.4,361.6l3.2,10.2c1.2,3.9,3.4,5,5.6,4.3c2.5-0.8,3.5-2.9,2.3-6.7l-3.2-10.2l2.2-0.7l3.1,10c1.6,5.3-0.4,8.3-4,9.4
		c-3.4,1.1-6.6-0.2-8.3-5.5l-3.2-10.1L492.4,361.6z"/>
	<path d="M509.3,364.6c-0.6-1.2-1.2-2.1-1.8-3l1.8-1l1.2,1.8l0,0c-0.1-1.4,0.6-3.1,2.4-4.1c1.5-0.8,4.4-1.2,6.5,2.7l3.8,6.7l-2,1.1
		l-3.6-6.5c-1-1.8-2.5-3-4.4-1.9c-1.3,0.7-1.8,2.3-1.5,3.6c0.1,0.3,0.2,0.7,0.4,1l3.8,6.8l-2,1.1L509.3,364.6z"/>
	<path d="M520,349.6c0.5,0.6,0.4,1.5-0.3,2c-0.6,0.5-1.5,0.3-2-0.3c-0.5-0.7-0.4-1.5,0.3-2C518.6,348.7,519.5,348.9,520,349.6z
		 M527.8,364.4l-7.7-10.4l1.8-1.4l7.7,10.4L527.8,364.4z"/>
	<path d="M524.7,345.5l2.5,2.7l2.4-2.2l1.2,1.3l-2.4,2.2l4.7,5.2c1.1,1.2,2,1.6,3,0.7c0.4-0.4,0.7-0.8,0.9-1l1.3,1.2
		c-0.2,0.4-0.6,1-1.3,1.6c-0.8,0.7-1.6,1-2.5,0.9c-0.9-0.1-1.9-0.8-2.9-1.9l-4.7-5.2l-1.4,1.3l-1.2-1.3l1.4-1.3l-2.1-2.3
		L524.7,345.5z"/>
	<path d="M530.6,339.5c0.6,0.5,0.7,1.4,0.1,2c-0.5,0.6-1.4,0.6-2,0c-0.6-0.6-0.7-1.4-0.1-2C529.1,339,530,339,530.6,339.5z
		 M541.1,352.6l-9.6-8.7l1.5-1.7l9.6,8.7L541.1,352.6z"/>
	<path d="M538.7,341.2c-1.1-0.8-2-1.4-2.9-1.9l1.2-1.7l1.8,1.1l0,0c-0.7-1.2-0.8-3.1,0.4-4.8c1-1.4,3.4-3,7-0.5l6.3,4.4l-1.3,1.9
		l-6.1-4.3c-1.7-1.2-3.6-1.6-4.8,0.2c-0.9,1.2-0.6,2.8,0.2,3.9c0.2,0.3,0.5,0.5,0.8,0.8l6.4,4.4l-1.3,1.9L538.7,341.2z"/>
	<path d="M548.4,317.2c0.8,0.4,1.8,0.9,3.2,1.6l6.8,3.1c2.7,1.2,4.1,2.5,4.6,4.1c0.6,1.6,0.2,3.3-0.5,4.8c-0.6,1.4-1.7,2.7-2.7,3.3
		l-1.4-1.3c0.8-0.5,1.8-1.5,2.5-2.9c1-2.1,0.5-4.2-2.4-5.5l-1.3-0.6l0,0c0.8,1.1,1.1,2.8,0.3,4.5c-1.3,2.8-4.7,3.7-8,2.2
		c-4-1.8-5.1-5.4-3.9-8c0.9-2,2.5-2.6,3.7-2.6l0,0l-1.7-0.9L548.4,317.2z M552,321.5c-0.4-0.2-0.7-0.3-1-0.3
		c-1.4-0.2-2.9,0.3-3.6,1.8c-0.9,2,0.2,4.2,2.9,5.4c2.3,1.1,4.7,0.8,5.8-1.4c0.6-1.3,0.3-2.8-0.9-3.9c-0.3-0.3-0.7-0.5-1.1-0.7
		L552,321.5z"/>
	<path d="M564.6,307.5l-18.8,2.1l0.5-2.4l9.2-0.9c2.5-0.3,4.8-0.5,7-0.5l0-0.1c-1.9-0.9-4-2-6.2-3.3l-8.2-4.6l0.5-2.4L565,305
		L564.6,307.5z"/>
	<path d="M550,291.9c0.8,0,1.4,0.7,1.3,1.6c-0.1,0.8-0.7,1.3-1.5,1.3c-0.8-0.1-1.4-0.7-1.4-1.5C548.5,292.3,549.2,291.8,550,291.9z
		 M566.3,295.6l-12.9-1l0.2-2.3l12.9,1L566.3,295.6z"/>
	<path d="M564.3,288.5c0.5-0.7,0.9-1.9,0.9-3c0-1.7-0.9-2.4-1.9-2.4c-1.1,0-1.7,0.6-2.4,2.3c-0.8,2.2-2.1,3.3-3.7,3.3
		c-2.1,0-3.8-1.6-3.8-4.3c0-1.3,0.4-2.4,0.8-3.1l1.7,0.6c-0.3,0.5-0.7,1.4-0.7,2.6c0,1.3,0.8,2.1,1.8,2.1c1.1,0,1.5-0.7,2.2-2.4
		c0.9-2.2,2-3.3,3.9-3.3c2.3,0,3.9,1.7,3.9,4.7c0,1.4-0.3,2.6-0.9,3.5L564.3,288.5z"/>
	<path d="M550.1,275c0.8,0,1.4,0.5,1.4,1.4c0,0.8-0.6,1.4-1.4,1.4c-0.8,0-1.5-0.6-1.5-1.4C548.7,275.5,549.3,275,550.1,275z
		 M566.7,277.5h-12.9v-2.3h12.9V277.5z"/>
	<path d="M560.1,259.6c4.8,0,6.9,3.2,6.9,6.2c0,3.4-2.6,6-6.7,6c-4.3,0-6.9-2.7-6.9-6.2C553.5,262,556.2,259.6,560.1,259.6z
		 M560.3,269.5c2.8,0,5-1.6,5-3.8c0-2.2-2.1-3.8-5-3.8c-2.2,0-5,1.1-5,3.7S557.8,269.5,560.3,269.5z"/>
	<path d="M557.3,256.2c-1.3,0-2.4,0-3.5,0.1v-2l2.1-0.1v-0.1c-1.2-0.6-2.4-2.1-2.4-4.1c0-1.7,1.1-4.4,5.5-4.4h7.7v2.3h-7.5
		c-2.1,0-3.8,0.7-3.8,2.9c0,1.5,1.1,2.7,2.4,3c0.3,0.1,0.7,0.2,1.1,0.2h7.8v2.3H557.3z"/>
	<path d="M566.7,234.4l-1.6,0.2v0.1c1,0.7,1.9,2,1.9,3.8c0,2.5-1.8,3.8-3.7,3.8c-3.1,0-4.8-2.7-4.8-7.5h-0.3c-1.1,0-3,0.3-3,2.8
		c0,1.2,0.4,2.4,1,3.3l-1.5,0.5c-0.7-1-1.1-2.5-1.1-4.1c0-3.8,2.7-4.8,5.3-4.8h4.8c1.1,0,2.2-0.1,3.1-0.2V234.4z M560.1,234.8
		c-0.1,2.5,0.4,5.3,2.9,5.3c1.5,0,2.2-1,2.2-2.1c0-1.6-1.1-2.7-2.2-3c-0.2-0.1-0.5-0.1-0.7-0.1H560.1z"/>
	<path d="M557.8,228.4c-1.5,0-2.8,0-4,0.1v-2l2.5-0.1v-0.1c-1.7-0.6-2.8-1.9-2.8-3.5c0-0.3,0-0.4,0.1-0.6h2.2
		c-0.1,0.2-0.1,0.5-0.1,0.8c0,1.6,1.3,2.7,3,3c0.3,0.1,0.7,0.1,1.1,0.1h6.9v2.2H557.8z"/>
	<path d="M550.1,216.8c0.8,0,1.4,0.5,1.4,1.4c0,0.8-0.6,1.4-1.4,1.4c-0.8,0-1.5-0.6-1.5-1.4C548.7,217.3,549.3,216.8,550.1,216.8z
		 M566.7,219.3h-12.9V217h12.9V219.3z"/>
	<path d="M560.7,211.5c3.2-0.1,4.5-2,4.5-4.3c0-1.6-0.3-2.6-0.7-3.5l1.7-0.4c0.4,0.8,0.8,2.2,0.8,4.2c0,3.8-2.6,6.1-6.5,6.1
		c-3.9,0-7-2.2-7-5.9c0-4.1,3.7-5.2,6.1-5.2c0.5,0,0.9,0.1,1.1,0.1V211.5z M559,204.8c-1.5,0-3.8,0.6-3.8,3.2c0,2.3,2.2,3.3,3.8,3.5
		V204.8z"/>
	<path d="M564.3,199.6c0.5-0.7,0.9-1.9,0.9-3c0-1.7-0.9-2.4-1.9-2.4c-1.1,0-1.7,0.6-2.4,2.3c-0.8,2.2-2.1,3.3-3.7,3.3
		c-2.1,0-3.8-1.6-3.8-4.3c0-1.3,0.4-2.4,0.8-3.1l1.7,0.6c-0.3,0.5-0.7,1.4-0.7,2.6c0,1.3,0.8,2.1,1.8,2.1c1.1,0,1.5-0.7,2.2-2.4
		c0.9-2.2,2-3.3,3.9-3.3c2.3,0,3.9,1.7,3.9,4.7c0,1.4-0.3,2.6-0.9,3.5L564.3,199.6z"/>
	<path d="M566.7,175.6l-1.6,0.2v0.1c1,0.7,1.9,2,1.9,3.8c0,2.5-1.8,3.8-3.7,3.8c-3.1,0-4.8-2.7-4.8-7.5h-0.3c-1.1,0-3,0.3-3,2.8
		c0,1.2,0.4,2.4,1,3.3l-1.5,0.5c-0.7-1-1.1-2.5-1.1-4.1c0-3.8,2.7-4.8,5.3-4.8h4.8c1.1,0,2.2-0.1,3.1-0.2V175.6z M560.1,176
		c-0.1,2.5,0.4,5.3,2.9,5.3c1.5,0,2.2-1,2.2-2.1c0-1.6-1.1-2.7-2.2-3c-0.2-0.1-0.5-0.1-0.7-0.1H560.1z"/>
	<path d="M557.3,169.6c-1.3,0-2.4,0-3.5,0.1v-2l2.1-0.1v-0.1c-1.2-0.6-2.4-2.1-2.4-4.1c0-1.7,1.1-4.4,5.5-4.4h7.7v2.3h-7.5
		c-2.1,0-3.8,0.7-3.8,2.9c0,1.5,1.1,2.7,2.4,3c0.3,0.1,0.7,0.2,1.1,0.2h7.8v2.3H557.3z"/>
	<path d="M547.7,143.9h15.6c1.1,0,2.5,0,3.3-0.1v2l-2.2,0.1v0.1c1.4,0.7,2.5,2.2,2.5,4.3c0,3-2.6,5.3-6.6,5.3
		c-4.3,0-6.9-2.6-6.9-5.6c0-1.9,0.9-3.2,2-3.8v-0.1h-7.7V143.9z M559,146.2c-0.3,0-0.7,0-1,0.1c-1.5,0.3-2.7,1.6-2.7,3.3
		c0,2.4,2.1,3.7,5,3.7c2.6,0,4.8-1.2,4.8-3.7c0-1.5-1-2.9-2.8-3.3c-0.3-0.1-0.6-0.1-1-0.1H559z"/>
	<path d="M557.3,133.6c-1.3,0-2.4,0-3.5,0.1v-2l2.1-0.1v-0.1c-1.2-0.7-2.4-1.9-2.4-3.9c0-1.7,1.1-3,2.6-3.5V124
		c-0.7-0.4-1.3-0.9-1.7-1.4c-0.6-0.7-0.9-1.6-0.9-2.8c0-1.7,1.1-4.1,5.6-4.1h7.6v2.2h-7.3c-2.5,0-4,0.9-4,2.7c0,1.3,1,2.3,2.1,2.7
		c0.3,0.1,0.7,0.2,1.2,0.2h8v2.2H559c-2.1,0-3.6,0.9-3.6,2.6c0,1.4,1.2,2.5,2.4,2.8c0.3,0.1,0.7,0.2,1.1,0.2h7.8v2.2H557.3z"/>
	<path d="M566.7,104.6l-1.6,0.2v0.1c1,0.7,1.9,2,1.9,3.8c0,2.5-1.8,3.8-3.7,3.8c-3.1,0-4.8-2.7-4.8-7.5h-0.3c-1.1,0-3,0.3-3,2.8
		c0,1.2,0.4,2.4,1,3.3l-1.5,0.5c-0.7-1-1.1-2.5-1.1-4.1c0-3.8,2.7-4.8,5.3-4.8h4.8c1.1,0,2.2-0.1,3.1-0.2V104.6z M560.1,104.9
		c-0.1,2.5,0.4,5.3,2.9,5.3c1.5,0,2.2-1,2.2-2.1c0-1.6-1.1-2.7-2.2-3c-0.2-0.1-0.5-0.1-0.7-0.1H560.1z"/>
	<path d="M559.7,96.3L559.7,96.3c-0.5-0.4-1-0.8-1.5-1.2l-4.5-3.7v-2.7l5.3,4.8l7.6-5.5v2.8l-6.2,4.3l1.3,1.2h4.9v2.2h-19v-2.2
		H559.7z"/>
	<path d="M560.7,84.6c3.2-0.1,4.5-2,4.5-4.3c0-1.6-0.3-2.6-0.7-3.5l1.7-0.4c0.4,0.8,0.8,2.2,0.8,4.2c0,3.8-2.6,6.1-6.5,6.1
		c-3.9,0-7-2.2-7-5.9c0-4.1,3.7-5.2,6.1-5.2c0.5,0,0.9,0.1,1.1,0.1V84.6z M559,78c-1.5,0-3.8,0.6-3.8,3.2c0,2.3,2.2,3.3,3.8,3.5V78z
		"/>
	<path d="M557.8,72.5c-1.5,0-2.8,0-4,0.1v-2l2.5-0.1v-0.1c-1.7-0.6-2.8-1.9-2.8-3.5c0-0.3,0-0.4,0.1-0.6h2.2
		c-0.1,0.2-0.1,0.5-0.1,0.8c0,1.6,1.3,2.7,3,3c0.3,0.1,0.7,0.1,1.1,0.1h6.9v2.2H557.8z"/>
	<path d="M564.3,63.8c0.5-0.7,0.9-1.9,0.9-3c0-1.7-0.9-2.4-1.9-2.4c-1.1,0-1.7,0.6-2.4,2.3c-0.8,2.2-2.1,3.3-3.7,3.3
		c-2.1,0-3.8-1.6-3.8-4.3c0-1.3,0.4-2.4,0.8-3.1l1.7,0.6c-0.3,0.5-0.7,1.4-0.7,2.6c0,1.3,0.8,2.1,1.8,2.1c1.1,0,1.5-0.7,2.2-2.4
		c0.9-2.2,2-3.3,3.9-3.3c2.3,0,3.9,1.7,3.9,4.7c0,1.4-0.3,2.6-0.9,3.5L564.3,63.8z"/>
</g>
</svg>
