<?xml version="1.0" encoding="utf-8"?>
<!-- Generator: Adobe Illustrator 27.9.0, SVG Export Plug-In . SVG Version: 6.00 Build 0)  -->
<svg version="1.1" id="Layer_1" xmlns="http://www.w3.org/2000/svg" xmlns:xlink="http://www.w3.org/1999/xlink" x="0px" y="0px"
	 viewBox="0 0 1461 348" style="enable-background:new 0 0 1461 348;" xml:space="preserve">
<style type="text/css">
	.st0{fill:#D9E167;}
</style>
<g>
	<path class="st0" d="M537.7,347.5H0v-85h499.7c15.7,0,28.3-12.7,28.3-28.3V75.8c0-41.6,33.7-75.3,75.3-75.3H1461v85H641.3
		c-15.7,0-28.3,12.7-28.3,28.3v158.4C613,313.8,579.3,347.5,537.7,347.5z"/>
</g>
<g>
	<g>
		<path d="M34.2,294.1v8.8c0,3.3,1.5,4.7,3.5,4.7c2.2,0,3.6-1.5,3.6-4.7v-8.8h1.9v8.6c0,4.6-2.4,6.4-5.6,6.4c-3,0-5.3-1.7-5.3-6.3
			v-8.7H34.2z"/>
		<path d="M47.3,301.2c0-1.1,0-2-0.1-2.9H49l0.1,1.8h0c0.5-1,1.8-2,3.5-2c1.5,0,3.8,0.9,3.8,4.5v6.4h-1.9v-6.1
			c0-1.7-0.6-3.1-2.5-3.1c-1.3,0-2.3,0.9-2.6,2c-0.1,0.2-0.1,0.6-0.1,0.9v6.4h-1.9V301.2z"/>
		<path d="M62.6,295.3c0,0.7-0.5,1.2-1.2,1.2c-0.7,0-1.2-0.5-1.2-1.2c0-0.7,0.5-1.2,1.2-1.2C62.1,294.1,62.6,294.6,62.6,295.3z
			 M60.4,309v-10.6h1.9V309H60.4z"/>
		<path d="M68.8,295.2v3.1h2.8v1.5h-2.8v5.7c0,1.3,0.4,2.1,1.5,2.1c0.5,0,0.9-0.1,1.1-0.1l0.1,1.5c-0.4,0.2-1,0.3-1.7,0.3
			c-0.9,0-1.6-0.3-2.1-0.8c-0.6-0.6-0.7-1.5-0.7-2.8v-5.8h-1.7v-1.5h1.7v-2.6L68.8,295.2z"/>
		<path d="M76.8,295.3c0,0.7-0.5,1.2-1.2,1.2c-0.7,0-1.2-0.5-1.2-1.2c0-0.7,0.5-1.2,1.2-1.2C76.3,294.1,76.8,294.6,76.8,295.3z
			 M74.6,309v-10.6h1.9V309H74.6z"/>
		<path d="M80.7,301.2c0-1.1,0-2-0.1-2.9h1.7l0.1,1.8h0c0.5-1,1.8-2,3.5-2c1.5,0,3.8,0.9,3.8,4.5v6.4h-1.9v-6.1
			c0-1.7-0.6-3.1-2.5-3.1c-1.3,0-2.3,0.9-2.6,2c-0.1,0.2-0.1,0.6-0.1,0.9v6.4h-1.9V301.2z"/>
		<path d="M102.9,298.3c0,0.8-0.1,1.6-0.1,2.9v6.2c0,2.4-0.5,3.9-1.5,4.9c-1,1-2.5,1.3-3.9,1.3c-1.3,0-2.7-0.3-3.5-0.9l0.5-1.5
			c0.7,0.4,1.8,0.8,3.1,0.8c2,0,3.4-1,3.4-3.7v-1.2h0c-0.6,1-1.7,1.8-3.4,1.8c-2.6,0-4.5-2.2-4.5-5.2c0-3.6,2.4-5.7,4.8-5.7
			c1.8,0,2.9,1,3.3,1.8h0l0.1-1.6H102.9z M100.9,302.5c0-0.3,0-0.6-0.1-0.9c-0.4-1.1-1.3-2-2.7-2c-1.8,0-3.2,1.6-3.2,4
			c0,2.1,1.1,3.8,3.1,3.8c1.2,0,2.3-0.7,2.7-2c0.1-0.3,0.2-0.7,0.2-1V302.5z"/>
		<path d="M115,309l-4.8-14.8h2.1l2.3,7.3c0.6,2,1.2,3.8,1.6,5.5h0c0.4-1.7,1-3.6,1.7-5.5l2.5-7.3h2l-5.3,14.8H115z"/>
		<path d="M126.6,295.3c0,0.7-0.5,1.2-1.2,1.2c-0.7,0-1.2-0.5-1.2-1.2c0-0.7,0.5-1.2,1.2-1.2C126.2,294.1,126.6,294.6,126.6,295.3z
			 M124.5,309v-10.6h1.9V309H124.5z"/>
		<path d="M130.2,307c0.6,0.4,1.6,0.8,2.6,0.8c1.4,0,2.1-0.7,2.1-1.6c0-0.9-0.6-1.4-2-2c-1.9-0.7-2.8-1.7-2.8-3
			c0-1.7,1.4-3.1,3.7-3.1c1.1,0,2,0.3,2.6,0.7l-0.5,1.4c-0.4-0.3-1.2-0.6-2.2-0.6c-1.1,0-1.8,0.7-1.8,1.5c0,0.9,0.6,1.3,2,1.8
			c1.8,0.7,2.8,1.6,2.8,3.2c0,1.9-1.5,3.2-4,3.2c-1.2,0-2.2-0.3-3-0.7L130.2,307z"/>
		<path d="M142.3,295.3c0,0.7-0.5,1.2-1.2,1.2c-0.7,0-1.2-0.5-1.2-1.2c0-0.7,0.5-1.2,1.2-1.2C141.8,294.1,142.3,294.6,142.3,295.3z
			 M140.1,309v-10.6h1.9V309H140.1z"/>
		<path d="M155.8,303.5c0,3.9-2.7,5.7-5.3,5.7c-2.9,0-5.1-2.1-5.1-5.5c0-3.6,2.3-5.7,5.3-5.7C153.7,298.1,155.8,300.3,155.8,303.5z
			 M147.3,303.7c0,2.3,1.3,4.1,3.2,4.1c1.8,0,3.2-1.7,3.2-4.1c0-1.8-0.9-4.1-3.2-4.1C148.3,299.5,147.3,301.6,147.3,303.7z"/>
		<path d="M159.1,301.2c0-1.1,0-2-0.1-2.9h1.7l0.1,1.8h0c0.5-1,1.8-2,3.5-2c1.5,0,3.8,0.9,3.8,4.5v6.4h-1.9v-6.1
			c0-1.7-0.6-3.1-2.5-3.1c-1.3,0-2.3,0.9-2.6,2c-0.1,0.2-0.1,0.6-0.1,0.9v6.4h-1.9V301.2z"/>
		<path d="M178.1,309l-0.2-1.3h-0.1c-0.6,0.8-1.7,1.6-3.3,1.6c-2.2,0-3.3-1.5-3.3-3.1c0-2.6,2.3-4,6.4-4V302c0-0.9-0.2-2.5-2.4-2.5
			c-1,0-2,0.3-2.8,0.8l-0.4-1.3c0.9-0.6,2.2-0.9,3.5-0.9c3.3,0,4,2.2,4,4.4v4c0,0.9,0,1.8,0.2,2.6H178.1z M177.8,303.5
			c-2.1,0-4.5,0.3-4.5,2.4c0,1.3,0.8,1.8,1.8,1.8c1.4,0,2.3-0.9,2.6-1.8c0.1-0.2,0.1-0.4,0.1-0.6V303.5z"/>
		<path d="M183.7,301.6c0-1.3,0-2.3-0.1-3.3h1.7l0.1,2.1h0.1c0.5-1.4,1.6-2.3,2.9-2.3c0.2,0,0.4,0,0.5,0.1v1.8
			c-0.2,0-0.4-0.1-0.7-0.1c-1.4,0-2.3,1-2.6,2.5c0,0.3-0.1,0.6-0.1,0.9v5.7h-1.9V301.6z"/>
		<path d="M194,295.3c0,0.7-0.5,1.2-1.2,1.2c-0.7,0-1.2-0.5-1.2-1.2c0-0.7,0.5-1.2,1.2-1.2C193.5,294.1,194,294.6,194,295.3z
			 M191.9,309v-10.6h1.9V309H191.9z"/>
		<path d="M198.9,304c0,2.6,1.7,3.7,3.7,3.7c1.4,0,2.2-0.2,2.9-0.5l0.3,1.4c-0.7,0.3-1.8,0.7-3.5,0.7c-3.3,0-5.2-2.2-5.2-5.4
			c0-3.2,1.9-5.7,5-5.7c3.5,0,4.4,3.1,4.4,5c0,0.4,0,0.7-0.1,0.9H198.9z M204.6,302.6c0-1.2-0.5-3.1-2.7-3.1c-2,0-2.8,1.8-3,3.1
			H204.6z"/>
		<path d="M209.5,307c0.6,0.4,1.6,0.8,2.6,0.8c1.4,0,2.1-0.7,2.1-1.6c0-0.9-0.6-1.4-2-2c-1.9-0.7-2.8-1.7-2.8-3
			c0-1.7,1.4-3.1,3.7-3.1c1.1,0,2,0.3,2.6,0.7l-0.5,1.4c-0.4-0.3-1.2-0.6-2.2-0.6c-1.1,0-1.8,0.7-1.8,1.5c0,0.9,0.6,1.3,2,1.8
			c1.8,0.7,2.8,1.6,2.8,3.2c0,1.9-1.5,3.2-4,3.2c-1.2,0-2.2-0.3-3-0.7L209.5,307z"/>
		<path d="M230.8,309l-0.2-1.3h-0.1c-0.6,0.8-1.7,1.6-3.3,1.6c-2.2,0-3.3-1.5-3.3-3.1c0-2.6,2.3-4,6.4-4V302c0-0.9-0.2-2.5-2.4-2.5
			c-1,0-2,0.3-2.8,0.8l-0.4-1.3c0.9-0.6,2.2-0.9,3.5-0.9c3.3,0,4,2.2,4,4.4v4c0,0.9,0,1.8,0.2,2.6H230.8z M230.5,303.5
			c-2.1,0-4.5,0.3-4.5,2.4c0,1.3,0.8,1.8,1.8,1.8c1.4,0,2.3-0.9,2.6-1.8c0.1-0.2,0.1-0.4,0.1-0.6V303.5z"/>
		<path d="M236.4,301.2c0-1.1,0-2-0.1-2.9h1.7l0.1,1.8h0c0.5-1,1.8-2,3.5-2c1.5,0,3.8,0.9,3.8,4.5v6.4h-1.9v-6.1
			c0-1.7-0.6-3.1-2.5-3.1c-1.3,0-2.3,0.9-2.6,2c-0.1,0.2-0.1,0.6-0.1,0.9v6.4h-1.9V301.2z"/>
		<path d="M258.7,293.3v12.9c0,0.9,0,2,0.1,2.8H257l-0.1-1.8h0c-0.6,1.2-1.9,2.1-3.6,2.1c-2.6,0-4.6-2.2-4.6-5.4
			c0-3.5,2.2-5.7,4.8-5.7c1.6,0,2.7,0.8,3.2,1.6h0v-6.4H258.7z M256.7,302.6c0-0.2,0-0.6-0.1-0.8c-0.3-1.2-1.3-2.2-2.8-2.2
			c-2,0-3.2,1.8-3.2,4.1c0,2.2,1.1,3.9,3.1,3.9c1.3,0,2.5-0.9,2.8-2.3c0.1-0.3,0.1-0.5,0.1-0.8V302.6z"/>
		<path d="M268.3,301.2c0-1.1,0-2-0.1-2.9h1.7l0.1,1.7h0.1c0.6-1,1.6-2,3.3-2c1.5,0,2.6,0.9,3,2.1h0c0.3-0.6,0.7-1.1,1.2-1.4
			c0.6-0.5,1.3-0.7,2.4-0.7c1.4,0,3.5,0.9,3.5,4.6v6.3h-1.9v-6c0-2-0.7-3.3-2.3-3.3c-1.1,0-2,0.8-2.3,1.8c-0.1,0.3-0.2,0.6-0.2,1
			v6.6H275v-6.4c0-1.7-0.7-2.9-2.2-2.9c-1.2,0-2.1,1-2.4,1.9c-0.1,0.3-0.2,0.6-0.2,0.9v6.4h-1.9V301.2z"/>
		<path d="M293.4,309l-0.2-1.3h-0.1c-0.6,0.8-1.7,1.6-3.3,1.6c-2.2,0-3.3-1.5-3.3-3.1c0-2.6,2.3-4,6.4-4V302c0-0.9-0.2-2.5-2.4-2.5
			c-1,0-2,0.3-2.8,0.8l-0.4-1.3c0.9-0.6,2.2-0.9,3.5-0.9c3.3,0,4,2.2,4,4.4v4c0,0.9,0,1.8,0.2,2.6H293.4z M293.2,303.5
			c-2.1,0-4.5,0.3-4.5,2.4c0,1.3,0.8,1.8,1.8,1.8c1.4,0,2.3-0.9,2.6-1.8c0.1-0.2,0.1-0.4,0.1-0.6V303.5z"/>
		<path d="M301,303.2L301,303.2c0.3-0.4,0.7-0.8,1-1.2l3.1-3.7h2.3l-4.1,4.4l4.7,6.3h-2.4l-3.7-5.1l-1,1.1v4h-1.9v-15.6h1.9V303.2z"
			/>
		<path d="M311.3,304c0,2.6,1.7,3.7,3.7,3.7c1.4,0,2.2-0.2,2.9-0.5l0.3,1.4c-0.7,0.3-1.8,0.7-3.5,0.7c-3.3,0-5.2-2.2-5.2-5.4
			c0-3.2,1.9-5.7,5-5.7c3.5,0,4.4,3.1,4.4,5c0,0.4,0,0.7-0.1,0.9H311.3z M317,302.6c0-1.2-0.5-3.1-2.7-3.1c-2,0-2.8,1.8-3,3.1H317z"
			/>
		<path d="M322.1,301.6c0-1.3,0-2.3-0.1-3.3h1.7l0.1,2.1h0.1c0.5-1.4,1.6-2.3,2.9-2.3c0.2,0,0.4,0,0.6,0.1v1.8
			c-0.2,0-0.4-0.1-0.7-0.1c-1.4,0-2.3,1-2.6,2.5c0,0.3-0.1,0.6-0.1,0.9v5.7h-1.9V301.6z"/>
		<path d="M330,307c0.6,0.4,1.6,0.8,2.6,0.8c1.4,0,2.1-0.7,2.1-1.6c0-0.9-0.6-1.4-2-2c-1.9-0.7-2.8-1.7-2.8-3c0-1.7,1.4-3.1,3.7-3.1
			c1.1,0,2,0.3,2.6,0.7l-0.5,1.4c-0.4-0.3-1.2-0.6-2.2-0.6c-1.1,0-1.8,0.7-1.8,1.5c0,0.9,0.6,1.3,2,1.8c1.8,0.7,2.8,1.6,2.8,3.2
			c0,1.9-1.5,3.2-4,3.2c-1.2,0-2.2-0.3-3-0.7L330,307z"/>
		<path d="M344.6,303.2c0-1.3,1-2.3,2.3-2.3c1.3,0,2.3,1,2.3,2.3c0,1.3-1,2.3-2.3,2.3C345.6,305.5,344.6,304.5,344.6,303.2z"/>
		<path d="M360,294.1v8.8c0,3.3,1.5,4.7,3.5,4.7c2.2,0,3.6-1.5,3.6-4.7v-8.8h1.9v8.6c0,4.6-2.4,6.4-5.6,6.4c-3,0-5.3-1.7-5.3-6.3
			v-8.7H360z"/>
		<path d="M373.1,301.2c0-1.1,0-2-0.1-2.9h1.7l0.1,1.8h0c0.5-1,1.8-2,3.5-2c1.5,0,3.8,0.9,3.8,4.5v6.4h-1.9v-6.1
			c0-1.7-0.6-3.1-2.5-3.1c-1.3,0-2.3,0.9-2.6,2c-0.1,0.2-0.1,0.6-0.1,0.9v6.4h-1.9V301.2z"/>
		<path d="M388.4,295.3c0,0.7-0.5,1.2-1.2,1.2c-0.7,0-1.2-0.5-1.2-1.2c0-0.7,0.5-1.2,1.2-1.2C387.9,294.1,388.4,294.6,388.4,295.3z
			 M386.2,309v-10.6h1.9V309H386.2z"/>
		<path d="M394.6,295.2v3.1h2.8v1.5h-2.8v5.7c0,1.3,0.4,2.1,1.5,2.1c0.5,0,0.9-0.1,1.1-0.1l0.1,1.5c-0.4,0.2-1,0.3-1.7,0.3
			c-0.9,0-1.6-0.3-2.1-0.8c-0.6-0.6-0.7-1.5-0.7-2.8v-5.8H391v-1.5h1.7v-2.6L394.6,295.2z"/>
		<path d="M402.5,295.3c0,0.7-0.5,1.2-1.2,1.2c-0.7,0-1.2-0.5-1.2-1.2c0-0.7,0.5-1.2,1.2-1.2C402.1,294.1,402.5,294.6,402.5,295.3z
			 M400.4,309v-10.6h1.9V309H400.4z"/>
		<path d="M406.4,301.2c0-1.1,0-2-0.1-2.9h1.7l0.1,1.8h0c0.5-1,1.8-2,3.5-2c1.5,0,3.8,0.9,3.8,4.5v6.4h-1.9v-6.1
			c0-1.7-0.6-3.1-2.5-3.1c-1.3,0-2.3,0.9-2.6,2c-0.1,0.2-0.1,0.6-0.1,0.9v6.4h-1.9V301.2z"/>
		<path d="M428.7,298.3c0,0.8-0.1,1.6-0.1,2.9v6.2c0,2.4-0.5,3.9-1.5,4.9c-1,1-2.5,1.3-3.9,1.3c-1.3,0-2.7-0.3-3.5-0.9l0.5-1.5
			c0.7,0.4,1.8,0.8,3.1,0.8c2,0,3.4-1,3.4-3.7v-1.2h0c-0.6,1-1.7,1.8-3.4,1.8c-2.6,0-4.5-2.2-4.5-5.2c0-3.6,2.4-5.7,4.8-5.7
			c1.8,0,2.9,1,3.3,1.8h0l0.1-1.6H428.7z M426.7,302.5c0-0.3,0-0.6-0.1-0.9c-0.4-1.1-1.3-2-2.7-2c-1.8,0-3.2,1.6-3.2,4
			c0,2.1,1.1,3.8,3.1,3.8c1.2,0,2.3-0.7,2.7-2c0.1-0.3,0.2-0.7,0.2-1V302.5z"/>
		<path d="M440.8,309l-4.8-14.8h2.1l2.3,7.3c0.6,2,1.2,3.8,1.6,5.5h0c0.4-1.7,1-3.6,1.7-5.5l2.5-7.3h2l-5.3,14.8H440.8z"/>
		<path d="M452.4,295.3c0,0.7-0.5,1.2-1.2,1.2c-0.7,0-1.2-0.5-1.2-1.2c0-0.7,0.5-1.2,1.2-1.2C451.9,294.1,452.4,294.6,452.4,295.3z
			 M450.3,309v-10.6h1.9V309H450.3z"/>
		<path d="M456,307c0.6,0.4,1.6,0.8,2.6,0.8c1.4,0,2.1-0.7,2.1-1.6c0-0.9-0.6-1.4-2-2c-1.9-0.7-2.8-1.7-2.8-3c0-1.7,1.4-3.1,3.7-3.1
			c1.1,0,2,0.3,2.6,0.7l-0.5,1.4c-0.4-0.3-1.2-0.6-2.2-0.6c-1.1,0-1.8,0.7-1.8,1.5c0,0.9,0.6,1.3,2,1.8c1.8,0.7,2.8,1.6,2.8,3.2
			c0,1.9-1.5,3.2-4,3.2c-1.2,0-2.2-0.3-3-0.7L456,307z"/>
		<path d="M468,295.3c0,0.7-0.5,1.2-1.2,1.2c-0.7,0-1.2-0.5-1.2-1.2c0-0.7,0.5-1.2,1.2-1.2C467.6,294.1,468,294.6,468,295.3z
			 M465.9,309v-10.6h1.9V309H465.9z"/>
		<path d="M481.5,303.5c0,3.9-2.7,5.7-5.3,5.7c-2.9,0-5.1-2.1-5.1-5.5c0-3.6,2.3-5.7,5.3-5.7C479.5,298.1,481.5,300.3,481.5,303.5z
			 M473.1,303.7c0,2.3,1.3,4.1,3.2,4.1c1.8,0,3.2-1.7,3.2-4.1c0-1.8-0.9-4.1-3.2-4.1C474.1,299.5,473.1,301.6,473.1,303.7z"/>
		<path d="M484.9,301.2c0-1.1,0-2-0.1-2.9h1.7l0.1,1.8h0c0.5-1,1.8-2,3.5-2c1.5,0,3.8,0.9,3.8,4.5v6.4H492v-6.1
			c0-1.7-0.6-3.1-2.5-3.1c-1.3,0-2.3,0.9-2.6,2c-0.1,0.2-0.1,0.6-0.1,0.9v6.4h-1.9V301.2z"/>
		<path d="M503.9,309l-0.2-1.3h-0.1c-0.6,0.8-1.7,1.6-3.3,1.6c-2.2,0-3.3-1.5-3.3-3.1c0-2.6,2.3-4,6.4-4V302c0-0.9-0.2-2.5-2.4-2.5
			c-1,0-2,0.3-2.8,0.8l-0.4-1.3c0.9-0.6,2.2-0.9,3.5-0.9c3.3,0,4,2.2,4,4.4v4c0,0.9,0,1.8,0.2,2.6H503.9z M503.6,303.5
			c-2.1,0-4.5,0.3-4.5,2.4c0,1.3,0.8,1.8,1.8,1.8c1.4,0,2.3-0.9,2.6-1.8c0.1-0.2,0.1-0.4,0.1-0.6V303.5z"/>
		<path d="M509.5,301.7c-0.1-1.3-0.1-2.3-0.2-3.3l1.7-0.1l0.2,2.1l0.1,0c0.4-1.5,1.5-2.4,2.8-2.5c0.2,0,0.4,0,0.6,0l0.1,1.8
			c-0.2,0-0.4,0-0.7,0c-1.4,0.1-2.3,1.1-2.5,2.6c0,0.3-0.1,0.6,0,0.9l0.3,5.7l-1.9,0.1L509.5,301.7z"/>
		<path d="M519,294.4c0.1,0.6-0.3,1.2-1,1.4c-0.7,0.1-1.2-0.3-1.3-1c-0.1-0.7,0.3-1.3,1-1.4C518.3,293.3,518.9,293.7,519,294.4z
			 M519.1,308.2l-1.7-10.5l1.9-0.3l1.7,10.5L519.1,308.2z"/>
		<path d="M525.9,301.7c0.9,2.5,2.8,3,4.6,2.4c1.3-0.4,2-0.9,2.6-1.4l0.7,1.2c-0.6,0.5-1.6,1.2-3.2,1.7c-3.1,1-5.6-0.4-6.6-3.5
			c-1-3.1,0-6,3-7c3.3-1.1,5.1,1.5,5.7,3.4c0.1,0.4,0.2,0.7,0.2,0.9L525.9,301.7z M530.8,298.6c-0.4-1.2-1.5-2.8-3.5-2.2
			c-1.9,0.6-2.1,2.6-1.8,3.9L530.8,298.6z"/>
		<path d="M537.9,300.4c0.7,0.1,1.8-0.1,2.6-0.5c1.2-0.7,1.5-1.6,1.1-2.4c-0.4-0.8-1.2-1-2.7-0.8c-2,0.3-3.3-0.2-3.9-1.3
			c-0.8-1.5-0.3-3.4,1.7-4.5c0.9-0.5,1.9-0.7,2.6-0.7l0.2,1.5c-0.5,0-1.3,0-2.2,0.5c-1,0.5-1.3,1.4-0.9,2.1c0.4,0.8,1.2,0.8,2.6,0.6
			c2-0.3,3.2,0.1,4,1.5c0.9,1.6,0.2,3.5-2,4.7c-1,0.6-2.1,0.8-3,0.8L537.9,300.4z"/>
		<path d="M558,288.2l-1-0.9l0,0c0.1,1-0.2,2.3-1.3,3.4c-1.6,1.5-3.4,1.2-4.5,0c-1.8-1.9-1.1-4.5,1.9-7.3l-0.2-0.2
			c-0.6-0.6-1.9-1.6-3.5-0.1c-0.7,0.7-1.2,1.6-1.5,2.5l-1.2-0.6c0.2-1,0.9-2.2,1.9-3.1c2.4-2.3,4.5-1.2,5.9,0.3l2.8,2.9
			c0.6,0.7,1.3,1.3,1.9,1.7L558,288.2z M554,284.5c-1.6,1.4-3,3.4-1.6,4.9c0.9,0.9,1.9,0.8,2.6,0.1c1-1,1-2.2,0.6-3.1
			c-0.1-0.2-0.2-0.4-0.3-0.5L554,284.5z"/>
		<path d="M556.6,278.3c-0.9-0.6-1.7-1.1-2.4-1.6l1-1.4l1.5,0.9l0,0c-0.5-1-0.7-2.6,0.3-4c0.8-1.2,2.9-2.6,5.9-0.5l5.2,3.6l-1.1,1.6
			l-5.1-3.5c-1.4-1-3-1.3-4,0.2c-0.7,1.1-0.5,2.4,0.2,3.3c0.1,0.2,0.4,0.4,0.7,0.6l5.3,3.6l-1.1,1.6L556.6,278.3z"/>
		<path d="M560,255.5l11.9,4.8c0.9,0.4,1.9,0.7,2.6,0.9l-0.6,1.6l-1.7-0.6l0,0c0.9,1,1.2,2.5,0.6,4.1c-1,2.4-3.7,3.4-6.7,2.2
			c-3.3-1.3-4.5-4.2-3.5-6.6c0.6-1.5,1.7-2.2,2.7-2.4l0,0l-5.9-2.4L560,255.5z M567.9,260.8c-0.2-0.1-0.5-0.2-0.8-0.2
			c-1.2-0.2-2.6,0.4-3.1,1.8c-0.7,1.9,0.4,3.6,2.6,4.5c2,0.8,4,0.5,4.8-1.5c0.5-1.2,0.1-2.6-1.1-3.5c-0.2-0.2-0.5-0.3-0.7-0.4
			L567.9,260.8z"/>
		<path d="M569.8,248.5c-1.1,0-2,0-2.9,0l0-1.7l1.7-0.1l0-0.1c-1-0.6-1.9-1.6-1.9-3.4c0-1.5,0.9-2.5,2.2-3l0,0
			c-0.6-0.3-1-0.8-1.4-1.2c-0.5-0.6-0.7-1.4-0.7-2.4c0-1.4,1-3.5,4.7-3.4l6.3,0.1l0,1.9l-6-0.1c-2,0-3.3,0.7-3.3,2.3
			c0,1.1,0.8,2,1.7,2.3c0.3,0.1,0.6,0.2,1,0.2l6.6,0.1l0,1.9l-6.4-0.1c-1.7,0-2.9,0.7-3,2.2c0,1.2,0.9,2.1,1.9,2.4
			c0.3,0.1,0.6,0.2,0.9,0.2l6.4,0.1l0,1.9L569.8,248.5z"/>
		<path d="M577.7,223.4l-1.3,0.2v0.1c0.8,0.6,1.6,1.7,1.6,3.3c0,2.2-1.5,3.3-3.1,3.3c-2.6,0-4-2.3-4-6.4h-0.2
			c-0.9,0-2.5,0.2-2.5,2.4c0,1,0.3,2,0.8,2.8l-1.3,0.4c-0.6-0.9-0.9-2.2-0.9-3.5c0-3.3,2.2-4,4.4-4h4c0.9,0,1.8,0,2.6-0.2V223.4z
			 M572.3,223.6c0,2.1,0.3,4.5,2.4,4.5c1.3,0,1.8-0.8,1.8-1.8c0-1.4-0.9-2.3-1.8-2.6c-0.2-0.1-0.4-0.1-0.6-0.1H572.3z"/>
		<path d="M571.9,215.8L571.9,215.8c-0.4-0.3-0.8-0.7-1.2-1l-3.7-3.1v-2.3l4.4,4.1l6.3-4.7v2.4l-5.1,3.7l1.1,1h4v1.9h-15.6v-1.9
			H571.9z"/>
		<path d="M572.7,205.5c2.6,0,3.7-1.7,3.7-3.7c0-1.4-0.2-2.2-0.5-2.9l1.4-0.3c0.3,0.7,0.7,1.8,0.7,3.5c0,3.3-2.2,5.2-5.4,5.2
			s-5.7-1.9-5.7-5c0-3.5,3.1-4.4,5-4.4c0.4,0,0.7,0,0.9,0.1V205.5z M571.3,199.8c-1.2,0-3.1,0.5-3.1,2.7c0,2,1.8,2.8,3.1,3V199.8z"
			/>
		<path d="M570.4,194.7c-1.3,0-2.3,0-3.3,0.1v-1.7l2.1-0.1v-0.1c-1.4-0.5-2.3-1.7-2.3-2.9c0-0.2,0-0.4,0.1-0.6h1.8
			c0,0.2-0.1,0.4-0.1,0.7c0,1.4,1,2.3,2.5,2.6c0.3,0,0.6,0.1,0.9,0.1h5.7v1.9H570.4z"/>
		<path d="M575.7,186.9c0.4-0.6,0.8-1.6,0.8-2.6c0-1.4-0.7-2.1-1.6-2.1c-0.9,0-1.4,0.5-2,2c-0.7,1.9-1.7,2.8-3,2.8
			c-1.7,0-3.1-1.4-3.1-3.7c0-1.1,0.3-2,0.7-2.6l1.4,0.5c-0.3,0.4-0.6,1.2-0.6,2.2c0,1.1,0.7,1.8,1.5,1.8c0.9,0,1.3-0.6,1.8-2
			c0.7-1.8,1.6-2.8,3.2-2.8c1.9,0,3.2,1.5,3.2,4c0,1.2-0.3,2.2-0.7,3L575.7,186.9z"/>
		<path d="M571.9,172.3c-1.3,0-2.3-1-2.3-2.3c0-1.3,1-2.3,2.3-2.3c1.3,0,2.3,1,2.3,2.3C574.2,171.2,573.2,172.3,571.9,172.3z"/>
		<path d="M562.9,156.9h8.8c3.3,0,4.7-1.5,4.7-3.5c0-2.2-1.5-3.6-4.7-3.6h-8.8v-1.9h8.6c4.6,0,6.4,2.4,6.4,5.6c0,3-1.7,5.3-6.3,5.3
			h-8.7V156.9z"/>
		<path d="M569.9,143.7c-1.1,0-2,0-2.9,0.1v-1.7l1.8-0.1v0c-1-0.5-2-1.8-2-3.5c0-1.5,0.9-3.8,4.5-3.8h6.4v1.9h-6.1
			c-1.7,0-3.1,0.6-3.1,2.5c0,1.3,0.9,2.3,2,2.6c0.2,0.1,0.6,0.1,0.9,0.1h6.4v1.9H569.9z"/>
		<path d="M564,128.5c0.7,0,1.2,0.5,1.2,1.2c0,0.7-0.5,1.2-1.2,1.2c-0.7,0-1.2-0.5-1.2-1.2C562.8,128.9,563.4,128.5,564,128.5z
			 M577.7,130.6H567v-1.9h10.6V130.6z"/>
		<path d="M564,122.3h3.1v-2.8h1.5v2.8h5.7c1.3,0,2.1-0.4,2.1-1.5c0-0.5-0.1-0.9-0.1-1.1l1.5-0.1c0.2,0.4,0.3,1,0.3,1.7
			c0,0.9-0.3,1.6-0.8,2.1c-0.6,0.6-1.5,0.7-2.8,0.7h-5.8v1.7H567v-1.7h-2.6L564,122.3z"/>
		<path d="M564,114.3c0.7,0,1.2,0.5,1.2,1.2c0,0.7-0.5,1.2-1.2,1.2c-0.7,0-1.2-0.5-1.2-1.2C562.8,114.7,563.4,114.3,564,114.3z
			 M577.7,116.4H567v-1.9h10.6V116.4z"/>
		<path d="M569.9,110.4c-1.1,0-2,0-2.9,0.1v-1.7l1.8-0.1v0c-1-0.5-2-1.8-2-3.5c0-1.5,0.9-3.8,4.5-3.8h6.4v1.9h-6.1
			c-1.7,0-3.1,0.6-3.1,2.5c0,1.3,0.9,2.3,2,2.6c0.2,0.1,0.6,0.1,0.9,0.1h6.4v1.9H569.9z"/>
		<path d="M567.1,88c0.8,0.1,1.6,0.1,2.9,0.1l6.2,0.1c2.4,0,3.9,0.5,4.8,1.6c1,1,1.2,2.6,1.2,3.9c0,1.3-0.4,2.7-0.9,3.5l-1.5-0.5
			c0.5-0.7,0.9-1.8,0.9-3.1c0-2-1-3.4-3.7-3.5l-1.2,0l0,0c1,0.6,1.8,1.8,1.7,3.4c0,2.6-2.3,4.5-5.3,4.5c-3.6-0.1-5.6-2.4-5.6-4.9
			c0-1.8,1-2.8,1.9-3.3l0,0l-1.6-0.1L567.1,88z M571.3,90.1c-0.3,0-0.6,0-0.9,0.1c-1.1,0.3-2.1,1.3-2.1,2.7c0,1.8,1.5,3.2,4,3.2
			c2.1,0,3.8-1,3.9-3.1c0-1.2-0.7-2.3-1.9-2.7c-0.3-0.1-0.7-0.2-1-0.2L571.3,90.1z"/>
		<path d="M580.2,77.6L564.6,77l0.7-1.9l7.7,0.3c2.1,0.1,4,0.2,5.8,0.4l0,0c-1.5-1-3-2.2-4.6-3.5l-6-4.9l0.7-1.9L581,75.6
			L580.2,77.6z"/>
		<path d="M573,60.8c0.6,0.3,0.8,1,0.4,1.7c-0.3,0.6-1,0.7-1.6,0.4c-0.6-0.3-0.8-1-0.4-1.7C571.8,60.6,572.5,60.5,573,60.8z
			 M583.8,69.5l-9.2-5.3l1-1.7l9.2,5.3L583.8,69.5z"/>
		<path d="M584.9,63.8c0.6-0.2,1.6-0.8,2.2-1.5c0.9-1.1,0.7-2.1,0-2.6c-0.7-0.6-1.5-0.5-2.8,0.3c-1.7,1.1-3.1,1.1-4.1,0.3
			c-1.3-1.1-1.6-3-0.2-4.8c0.7-0.8,1.5-1.4,2.1-1.6l0.8,1.3c-0.5,0.2-1.2,0.5-1.8,1.3c-0.7,0.9-0.6,1.8,0,2.3
			c0.7,0.5,1.4,0.3,2.7-0.5c1.7-1,3-1.2,4.3-0.2c1.5,1.2,1.6,3.1,0,5.1c-0.7,0.9-1.6,1.6-2.4,1.9L584.9,63.8z"/>
		<path d="M584.8,46.5c0.5,0.5,0.5,1.2-0.1,1.7c-0.5,0.5-1.2,0.4-1.7-0.1c-0.5-0.5-0.5-1.2,0.1-1.7C583.7,46,584.4,46,584.8,46.5z
			 M592.6,57.9l-7.3-7.8l1.4-1.3l7.3,7.8L592.6,57.9z"/>
		<path d="M601.7,44.5c2.1,3.3,0.8,6.2-1.4,7.6c-2.4,1.6-5.4,1-7.3-1.8c-1.9-3-1.1-6,1.4-7.6C597,41,599.9,41.7,601.7,44.5z
			 M594.6,49.1c1.3,2,3.4,2.7,4.9,1.7c1.6-1,1.8-3.2,0.5-5.2c-1-1.5-3-2.9-4.9-1.7C593.2,45.1,593.5,47.4,594.6,49.1z"/>
		<path d="M604.4,40.6c-0.4-1-0.7-1.9-1-2.7l1.6-0.6l0.7,1.6l0,0c0.2-1.1,1-2.5,2.7-3c1.4-0.5,3.8-0.4,5,3.1l2,6l-1.8,0.6l-2-5.8
			c-0.6-1.6-1.6-2.8-3.3-2.2c-1.2,0.4-1.9,1.6-1.8,2.7c0,0.3,0.1,0.6,0.2,0.9l2.1,6.1l-1.8,0.6L604.4,40.6z"/>
		<path d="M624.5,43.9l-0.3-1.3l-0.1,0c-0.5,0.9-1.6,1.7-3.1,1.9c-2.1,0.2-3.4-1.2-3.5-2.7c-0.2-2.6,1.9-4.2,6-4.5l0-0.2
			c-0.1-0.9-0.5-2.4-2.6-2.2c-1,0.1-2,0.5-2.7,1.1l-0.6-1.2c0.8-0.7,2.1-1.1,3.4-1.3c3.2-0.3,4.2,1.8,4.4,4l0.4,4
			c0.1,0.9,0.2,1.8,0.4,2.5L624.5,43.9z M623.7,38.6c-2.1,0.2-4.5,0.8-4.3,2.8c0.1,1.2,1,1.8,2,1.7c1.4-0.1,2.2-1.1,2.4-2
			c0-0.2,0.1-0.4,0.1-0.6L623.7,38.6z"/>
		<path d="M629.7,36.6c0-1.3,0-2.3-0.1-3.3h1.7l0.1,2.1h0.1c0.5-1.4,1.6-2.3,2.9-2.3c0.2,0,0.4,0,0.5,0.1v1.8
			c-0.2,0-0.4-0.1-0.7-0.1c-1.4,0-2.3,1-2.6,2.5c0,0.3-0.1,0.6-0.1,0.9v5.7h-1.9V36.6z"/>
		<path d="M640.1,30.3c0,0.7-0.5,1.2-1.2,1.2c-0.7,0-1.2-0.5-1.2-1.2c0-0.7,0.5-1.2,1.2-1.2C639.6,29.1,640.1,29.6,640.1,30.3z
			 M637.9,43.9V33.3h1.9v10.6H637.9z"/>
		<path d="M645,39c0,2.6,1.7,3.7,3.7,3.7c1.4,0,2.2-0.2,2.9-0.5l0.3,1.4c-0.7,0.3-1.8,0.7-3.5,0.7c-3.3,0-5.2-2.2-5.2-5.4
			c0-3.2,1.9-5.7,5-5.7c3.5,0,4.4,3.1,4.4,5c0,0.4,0,0.7-0.1,0.9H645z M650.7,37.6c0-1.2-0.5-3.1-2.7-3.1c-2,0-2.8,1.8-3,3.1H650.7z
			"/>
		<path d="M655.6,42c0.6,0.4,1.6,0.8,2.6,0.8c1.4,0,2.1-0.7,2.1-1.6c0-0.9-0.6-1.4-2-2c-1.9-0.7-2.8-1.7-2.8-3
			c0-1.7,1.4-3.1,3.7-3.1c1.1,0,2,0.3,2.6,0.7l-0.5,1.4c-0.4-0.3-1.2-0.6-2.2-0.6c-1.1,0-1.8,0.7-1.8,1.5c0,0.9,0.6,1.3,2,1.8
			c1.8,0.7,2.8,1.6,2.8,3.2c0,1.9-1.5,3.2-4,3.2c-1.2,0-2.2-0.3-3-0.7L655.6,42z"/>
		<path d="M676.9,43.9l-0.2-1.3h-0.1c-0.6,0.8-1.7,1.6-3.3,1.6c-2.2,0-3.3-1.5-3.3-3.1c0-2.6,2.3-4,6.4-4v-0.2
			c0-0.9-0.2-2.5-2.4-2.5c-1,0-2,0.3-2.8,0.8l-0.4-1.3c0.9-0.6,2.2-0.9,3.5-0.9c3.3,0,4,2.2,4,4.4v4c0,0.9,0,1.8,0.2,2.6H676.9z
			 M676.6,38.5c-2.1,0-4.5,0.3-4.5,2.4c0,1.3,0.8,1.8,1.8,1.8c1.4,0,2.3-0.9,2.6-1.8c0.1-0.2,0.1-0.4,0.1-0.6V38.5z"/>
		<path d="M682.5,36.2c0-1.1,0-2-0.1-2.9h1.7l0.1,1.8h0c0.5-1,1.8-2,3.5-2c1.5,0,3.8,0.9,3.8,4.5v6.4h-1.9v-6.1
			c0-1.7-0.6-3.1-2.5-3.1c-1.3,0-2.3,0.9-2.6,2c-0.1,0.2-0.1,0.6-0.1,0.9v6.4h-1.9V36.2z"/>
		<path d="M704.8,28.3v12.9c0,0.9,0,2,0.1,2.8h-1.7l-0.1-1.8h0c-0.6,1.2-1.9,2.1-3.6,2.1c-2.6,0-4.6-2.2-4.6-5.4
			c0-3.5,2.2-5.7,4.8-5.7c1.6,0,2.7,0.8,3.2,1.6h0v-6.4H704.8z M702.8,37.6c0-0.2,0-0.6-0.1-0.8c-0.3-1.2-1.3-2.2-2.8-2.2
			c-2,0-3.2,1.8-3.2,4.1c0,2.2,1.1,3.9,3.1,3.9c1.3,0,2.5-0.9,2.8-2.3c0.1-0.3,0.1-0.5,0.1-0.8V37.6z"/>
		<path d="M714.4,36.2c0-1.1,0-2-0.1-2.9h1.7l0.1,1.7h0.1c0.6-1,1.6-2,3.3-2c1.5,0,2.6,0.9,3,2.1h0c0.3-0.6,0.7-1.1,1.2-1.4
			c0.6-0.5,1.3-0.7,2.4-0.7c1.4,0,3.5,0.9,3.5,4.6v6.3h-1.9v-6c0-2-0.7-3.3-2.3-3.3c-1.1,0-2,0.8-2.3,1.8c-0.1,0.3-0.2,0.6-0.2,1
			v6.6h-1.9v-6.4c0-1.7-0.7-2.9-2.2-2.9c-1.2,0-2.1,1-2.4,1.9c-0.1,0.3-0.2,0.6-0.2,0.9v6.4h-1.9V36.2z"/>
		<path d="M739.5,43.9l-0.2-1.3h-0.1c-0.6,0.8-1.7,1.6-3.3,1.6c-2.2,0-3.3-1.5-3.3-3.1c0-2.6,2.3-4,6.4-4v-0.2
			c0-0.9-0.2-2.5-2.4-2.5c-1,0-2,0.3-2.8,0.8l-0.4-1.3c0.9-0.6,2.2-0.9,3.5-0.9c3.3,0,4,2.2,4,4.4v4c0,0.9,0,1.8,0.2,2.6H739.5z
			 M739.2,38.5c-2.1,0-4.5,0.3-4.5,2.4c0,1.3,0.8,1.8,1.8,1.8c1.4,0,2.3-0.9,2.6-1.8c0.1-0.2,0.1-0.4,0.1-0.6V38.5z"/>
		<path d="M747.1,38.2L747.1,38.2c0.3-0.4,0.7-0.8,1-1.2l3.1-3.7h2.3l-4.1,4.4l4.7,6.3h-2.4l-3.7-5.1l-1,1.1v4h-1.9V28.3h1.9V38.2z"
			/>
		<path d="M757.4,39c0,2.6,1.7,3.7,3.7,3.7c1.4,0,2.2-0.2,2.9-0.5l0.3,1.4c-0.7,0.3-1.8,0.7-3.5,0.7c-3.3,0-5.2-2.2-5.2-5.4
			c0-3.2,1.9-5.7,5-5.7c3.5,0,4.4,3.1,4.4,5c0,0.4,0,0.7-0.1,0.9H757.4z M763.1,37.6c0-1.2-0.5-3.1-2.7-3.1c-2,0-2.8,1.8-3,3.1
			H763.1z"/>
		<path d="M768.2,36.6c0-1.3,0-2.3-0.1-3.3h1.7l0.1,2.1h0.1c0.5-1.4,1.7-2.3,2.9-2.3c0.2,0,0.4,0,0.6,0.1v1.8
			c-0.2,0-0.4-0.1-0.7-0.1c-1.4,0-2.3,1-2.6,2.5c0,0.3-0.1,0.6-0.1,0.9v5.7h-1.9V36.6z"/>
		<path d="M776,42c0.6,0.4,1.6,0.8,2.6,0.8c1.4,0,2.1-0.7,2.1-1.6c0-0.9-0.5-1.4-2-2c-1.9-0.7-2.8-1.7-2.8-3c0-1.7,1.4-3.1,3.7-3.1
			c1.1,0,2,0.3,2.6,0.7l-0.5,1.4c-0.4-0.3-1.2-0.6-2.2-0.6c-1.1,0-1.8,0.7-1.8,1.5c0,0.9,0.6,1.3,2,1.8c1.8,0.7,2.8,1.6,2.8,3.2
			c0,1.9-1.5,3.2-4,3.2c-1.2,0-2.2-0.3-3-0.7L776,42z"/>
		<path d="M790.6,38.2c0-1.3,1-2.3,2.3-2.3s2.3,1,2.3,2.3c0,1.3-1,2.3-2.3,2.3C791.7,40.5,790.6,39.5,790.6,38.2z"/>
		<path d="M806.1,29.1v8.8c0,3.3,1.5,4.7,3.5,4.7c2.2,0,3.6-1.5,3.6-4.7v-8.8h1.9v8.6c0,4.6-2.4,6.4-5.6,6.4c-3,0-5.3-1.7-5.3-6.3
			v-8.7H806.1z"/>
		<path d="M819.2,36.2c0-1.1,0-2-0.1-2.9h1.7l0.1,1.8h0c0.5-1,1.8-2,3.5-2c1.5,0,3.8,0.9,3.8,4.5v6.4h-1.9v-6.1
			c0-1.7-0.6-3.1-2.5-3.1c-1.3,0-2.3,0.9-2.6,2c-0.1,0.2-0.1,0.6-0.1,0.9v6.4h-1.9V36.2z"/>
		<path d="M834.5,30.3c0,0.7-0.5,1.2-1.2,1.2c-0.7,0-1.2-0.5-1.2-1.2c0-0.7,0.5-1.2,1.2-1.2C834,29.1,834.5,29.6,834.5,30.3z
			 M832.3,43.9V33.3h1.9v10.6H832.3z"/>
		<path d="M840.6,30.2v3.1h2.8v1.5h-2.8v5.7c0,1.3,0.4,2.1,1.5,2.1c0.5,0,0.9-0.1,1.1-0.1l0.1,1.5c-0.4,0.2-1,0.3-1.7,0.3
			c-0.9,0-1.6-0.3-2.1-0.8c-0.5-0.6-0.7-1.5-0.7-2.8v-5.8h-1.6v-1.5h1.6v-2.6L840.6,30.2z"/>
		<path d="M848.7,30.3c0,0.7-0.5,1.2-1.2,1.2c-0.7,0-1.2-0.5-1.2-1.2c0-0.7,0.5-1.2,1.2-1.2C848.2,29.1,848.7,29.6,848.7,30.3z
			 M846.5,43.9V33.3h1.9v10.6H846.5z"/>
		<path d="M852.5,36.2c0-1.1,0-2-0.1-2.9h1.7l0.1,1.8h0c0.5-1,1.8-2,3.5-2c1.5,0,3.8,0.9,3.8,4.5v6.4h-1.9v-6.1
			c0-1.7-0.6-3.1-2.5-3.1c-1.3,0-2.3,0.9-2.6,2c-0.1,0.2-0.1,0.6-0.1,0.9v6.4h-1.9V36.2z"/>
		<path d="M874.8,33.3c0,0.8-0.1,1.6-0.1,2.9v6.2c0,2.4-0.5,3.9-1.5,4.9c-1,1-2.5,1.3-3.9,1.3c-1.3,0-2.7-0.3-3.5-0.9l0.5-1.5
			c0.7,0.4,1.8,0.8,3.1,0.8c2,0,3.4-1,3.4-3.7v-1.2h0c-0.6,1-1.7,1.8-3.4,1.8c-2.6,0-4.5-2.2-4.5-5.2c0-3.6,2.4-5.7,4.8-5.7
			c1.8,0,2.9,1,3.3,1.8h0l0.1-1.6H874.8z M872.8,37.5c0-0.3,0-0.6-0.1-0.9c-0.4-1.1-1.3-2-2.7-2c-1.8,0-3.2,1.6-3.2,4
			c0,2.1,1.1,3.8,3.1,3.8c1.2,0,2.3-0.7,2.7-2c0.1-0.3,0.2-0.7,0.2-1V37.5z"/>
		<path d="M886.9,43.9L882,29.1h2.1l2.3,7.3c0.6,2,1.2,3.8,1.6,5.5h0c0.4-1.7,1-3.6,1.7-5.5l2.5-7.3h2L889,43.9H886.9z"/>
		<path d="M898.5,30.3c0,0.7-0.5,1.2-1.2,1.2c-0.7,0-1.2-0.5-1.2-1.2c0-0.7,0.5-1.2,1.2-1.2C898,29.1,898.5,29.6,898.5,30.3z
			 M896.3,43.9V33.3h1.9v10.6H896.3z"/>
		<path d="M902.1,42c0.6,0.4,1.6,0.8,2.6,0.8c1.4,0,2.1-0.7,2.1-1.6c0-0.9-0.5-1.4-2-2c-1.9-0.7-2.8-1.7-2.8-3
			c0-1.7,1.4-3.1,3.7-3.1c1.1,0,2,0.3,2.6,0.7l-0.5,1.4c-0.4-0.3-1.2-0.6-2.2-0.6c-1.1,0-1.8,0.7-1.8,1.5c0,0.9,0.6,1.3,2,1.8
			c1.8,0.7,2.8,1.6,2.8,3.2c0,1.9-1.5,3.2-4,3.2c-1.2,0-2.2-0.3-3-0.7L902.1,42z"/>
		<path d="M914.1,30.3c0,0.7-0.5,1.2-1.2,1.2c-0.7,0-1.2-0.5-1.2-1.2c0-0.7,0.5-1.2,1.2-1.2C913.7,29.1,914.1,29.6,914.1,30.3z
			 M912,43.9V33.3h1.9v10.6H912z"/>
		<path d="M927.6,38.5c0,3.9-2.7,5.7-5.3,5.7c-2.9,0-5.1-2.1-5.1-5.5c0-3.6,2.3-5.7,5.3-5.7C925.6,33,927.6,35.3,927.6,38.5z
			 M919.2,38.6c0,2.3,1.3,4.1,3.2,4.1c1.8,0,3.2-1.7,3.2-4.1c0-1.8-0.9-4.1-3.2-4.1C920.2,34.5,919.2,36.6,919.2,38.6z"/>
		<path d="M931,36.2c0-1.1,0-2-0.1-2.9h1.7l0.1,1.8h0c0.5-1,1.8-2,3.5-2c1.5,0,3.8,0.9,3.8,4.5v6.4h-1.9v-6.1c0-1.7-0.6-3.1-2.5-3.1
			c-1.3,0-2.3,0.9-2.6,2c-0.1,0.2-0.1,0.6-0.1,0.9v6.4H931V36.2z"/>
		<path d="M949.9,43.9l-0.2-1.3h-0.1c-0.6,0.8-1.7,1.6-3.3,1.6c-2.2,0-3.3-1.5-3.3-3.1c0-2.6,2.3-4,6.4-4v-0.2
			c0-0.9-0.2-2.5-2.4-2.5c-1,0-2,0.3-2.8,0.8L944,34c0.9-0.6,2.2-0.9,3.5-0.9c3.3,0,4,2.2,4,4.4v4c0,0.9,0,1.8,0.2,2.6H949.9z
			 M949.7,38.5c-2.1,0-4.5,0.3-4.5,2.4c0,1.3,0.8,1.8,1.8,1.8c1.4,0,2.3-0.9,2.6-1.8c0.1-0.2,0.1-0.4,0.1-0.6V38.5z"/>
		<path d="M955.5,36.6c0-1.3,0-2.3-0.1-3.3h1.7l0.1,2.1h0.1c0.5-1.4,1.7-2.3,2.9-2.3c0.2,0,0.4,0,0.6,0.1v1.8
			c-0.2,0-0.4-0.1-0.7-0.1c-1.4,0-2.3,1-2.6,2.5c0,0.3-0.1,0.6-0.1,0.9v5.7h-1.9V36.6z"/>
		<path d="M965.9,30.3c0,0.7-0.5,1.2-1.2,1.2c-0.7,0-1.2-0.5-1.2-1.2c0-0.7,0.5-1.2,1.2-1.2C965.4,29.1,965.9,29.6,965.9,30.3z
			 M963.7,43.9V33.3h1.9v10.6H963.7z"/>
		<path d="M970.8,39c0,2.6,1.7,3.7,3.7,3.7c1.4,0,2.2-0.2,2.9-0.5l0.3,1.4c-0.7,0.3-1.8,0.7-3.5,0.7c-3.3,0-5.2-2.2-5.2-5.4
			c0-3.2,1.9-5.7,5-5.7c3.5,0,4.4,3.1,4.4,5c0,0.4,0,0.7-0.1,0.9H970.8z M976.5,37.6c0-1.2-0.5-3.1-2.7-3.1c-2,0-2.8,1.8-3,3.1
			H976.5z"/>
		<path d="M981.4,42c0.6,0.4,1.6,0.8,2.6,0.8c1.4,0,2.1-0.7,2.1-1.6c0-0.9-0.5-1.4-2-2c-1.9-0.7-2.8-1.7-2.8-3
			c0-1.7,1.4-3.1,3.7-3.1c1.1,0,2,0.3,2.6,0.7l-0.5,1.4c-0.4-0.3-1.2-0.6-2.2-0.6c-1.1,0-1.8,0.7-1.8,1.5c0,0.9,0.6,1.3,2,1.8
			c1.8,0.7,2.8,1.6,2.8,3.2c0,1.9-1.5,3.2-4,3.2c-1.2,0-2.2-0.3-3-0.7L981.4,42z"/>
		<path d="M1002.7,43.9l-0.2-1.3h-0.1c-0.6,0.8-1.7,1.6-3.3,1.6c-2.2,0-3.3-1.5-3.3-3.1c0-2.6,2.3-4,6.4-4v-0.2
			c0-0.9-0.2-2.5-2.4-2.5c-1,0-2,0.3-2.8,0.8l-0.4-1.3c0.9-0.6,2.2-0.9,3.5-0.9c3.3,0,4,2.2,4,4.4v4c0,0.9,0,1.8,0.2,2.6H1002.7z
			 M1002.4,38.5c-2.1,0-4.5,0.3-4.5,2.4c0,1.3,0.8,1.8,1.8,1.8c1.4,0,2.3-0.9,2.6-1.8c0.1-0.2,0.1-0.4,0.1-0.6V38.5z"/>
		<path d="M1008.3,36.2c0-1.1,0-2-0.1-2.9h1.7l0.1,1.8h0c0.5-1,1.8-2,3.5-2c1.5,0,3.8,0.9,3.8,4.5v6.4h-1.9v-6.1
			c0-1.7-0.6-3.1-2.5-3.1c-1.3,0-2.3,0.9-2.6,2c-0.1,0.2-0.1,0.6-0.1,0.9v6.4h-1.9V36.2z"/>
		<path d="M1030.5,28.3v12.9c0,0.9,0,2,0.1,2.8h-1.7l-0.1-1.8h0c-0.6,1.2-1.9,2.1-3.6,2.1c-2.6,0-4.6-2.2-4.6-5.4
			c0-3.5,2.2-5.7,4.8-5.7c1.6,0,2.7,0.8,3.2,1.6h0v-6.4H1030.5z M1028.6,37.6c0-0.2,0-0.6-0.1-0.8c-0.3-1.2-1.3-2.2-2.8-2.2
			c-2,0-3.2,1.8-3.2,4.1c0,2.2,1.1,3.9,3.1,3.9c1.3,0,2.5-0.9,2.8-2.3c0.1-0.3,0.1-0.5,0.1-0.8V37.6z"/>
		<path d="M1040.2,36.2c0-1.1,0-2-0.1-2.9h1.7l0.1,1.7h0.1c0.6-1,1.6-2,3.3-2c1.5,0,2.6,0.9,3,2.1h0c0.3-0.6,0.7-1.1,1.2-1.4
			c0.6-0.5,1.3-0.7,2.4-0.7c1.4,0,3.5,0.9,3.5,4.6v6.3h-1.9v-6c0-2-0.7-3.3-2.3-3.3c-1.1,0-2,0.8-2.3,1.8c-0.1,0.3-0.2,0.6-0.2,1
			v6.6h-1.9v-6.4c0-1.7-0.7-2.9-2.2-2.9c-1.2,0-2.1,1-2.4,1.9c-0.1,0.3-0.2,0.6-0.2,0.9v6.4h-1.9V36.2z"/>
		<path d="M1065.3,43.9l-0.2-1.3h-0.1c-0.6,0.8-1.7,1.6-3.3,1.6c-2.2,0-3.3-1.5-3.3-3.1c0-2.6,2.3-4,6.4-4v-0.2
			c0-0.9-0.2-2.5-2.4-2.5c-1,0-2,0.3-2.8,0.8l-0.4-1.3c0.9-0.6,2.2-0.9,3.5-0.9c3.3,0,4,2.2,4,4.4v4c0,0.9,0,1.8,0.2,2.6H1065.3z
			 M1065,38.5c-2.1,0-4.5,0.3-4.5,2.4c0,1.3,0.8,1.8,1.8,1.8c1.4,0,2.3-0.9,2.6-1.8c0.1-0.2,0.1-0.4,0.1-0.6V38.5z"/>
		<path d="M1072.8,38.2L1072.8,38.2c0.3-0.4,0.7-0.8,1-1.2l3.1-3.7h2.3l-4.1,4.4l4.7,6.3h-2.4l-3.7-5.1l-1,1.1v4h-1.9V28.3h1.9V38.2
			z"/>
		<path d="M1083.2,39c0,2.6,1.7,3.7,3.7,3.7c1.4,0,2.2-0.2,2.9-0.5l0.3,1.4c-0.7,0.3-1.8,0.7-3.5,0.7c-3.3,0-5.2-2.2-5.2-5.4
			c0-3.2,1.9-5.7,5-5.7c3.5,0,4.4,3.1,4.4,5c0,0.4,0,0.7-0.1,0.9H1083.2z M1088.9,37.6c0-1.2-0.5-3.1-2.7-3.1c-2,0-2.8,1.8-3,3.1
			H1088.9z"/>
		<path d="M1094,36.6c0-1.3,0-2.3-0.1-3.3h1.7l0.1,2.1h0.1c0.5-1.4,1.7-2.3,2.9-2.3c0.2,0,0.4,0,0.6,0.1v1.8c-0.2,0-0.4-0.1-0.7-0.1
			c-1.4,0-2.3,1-2.6,2.5c0,0.3-0.1,0.6-0.1,0.9v5.7h-1.9V36.6z"/>
		<path d="M1101.8,42c0.6,0.4,1.6,0.8,2.6,0.8c1.4,0,2.1-0.7,2.1-1.6c0-0.9-0.5-1.4-2-2c-1.9-0.7-2.8-1.7-2.8-3
			c0-1.7,1.4-3.1,3.7-3.1c1.1,0,2,0.3,2.6,0.7l-0.5,1.4c-0.4-0.3-1.2-0.6-2.2-0.6c-1.1,0-1.8,0.7-1.8,1.5c0,0.9,0.6,1.3,2,1.8
			c1.8,0.7,2.8,1.6,2.8,3.2c0,1.9-1.5,3.2-4,3.2c-1.2,0-2.2-0.3-3-0.7L1101.8,42z"/>
		<path d="M1116.4,38.2c0-1.3,1-2.3,2.3-2.3s2.3,1,2.3,2.3c0,1.3-1,2.3-2.3,2.3C1117.5,40.5,1116.4,39.5,1116.4,38.2z"/>
		<path d="M1131.8,29.1v8.8c0,3.3,1.5,4.7,3.5,4.7c2.2,0,3.6-1.5,3.6-4.7v-8.8h1.9v8.6c0,4.6-2.4,6.4-5.6,6.4c-3,0-5.3-1.7-5.3-6.3
			v-8.7H1131.8z"/>
		<path d="M1145,36.2c0-1.1,0-2-0.1-2.9h1.7l0.1,1.8h0c0.5-1,1.8-2,3.5-2c1.5,0,3.8,0.9,3.8,4.5v6.4h-1.9v-6.1
			c0-1.7-0.6-3.1-2.5-3.1c-1.3,0-2.3,0.9-2.6,2c-0.1,0.2-0.1,0.6-0.1,0.9v6.4h-1.9V36.2z"/>
		<path d="M1160.2,30.3c0,0.7-0.5,1.2-1.2,1.2c-0.7,0-1.2-0.5-1.2-1.2c0-0.7,0.5-1.2,1.2-1.2C1159.7,29.1,1160.2,29.6,1160.2,30.3z
			 M1158.1,43.9V33.3h1.9v10.6H1158.1z"/>
		<path d="M1166.4,30.2v3.1h2.8v1.5h-2.8v5.7c0,1.3,0.4,2.1,1.5,2.1c0.5,0,0.9-0.1,1.1-0.1l0.1,1.5c-0.4,0.2-1,0.3-1.7,0.3
			c-0.9,0-1.6-0.3-2.1-0.8c-0.5-0.6-0.7-1.5-0.7-2.8v-5.8h-1.6v-1.5h1.6v-2.6L1166.4,30.2z"/>
		<path d="M1174.4,30.3c0,0.7-0.5,1.2-1.2,1.2c-0.7,0-1.2-0.5-1.2-1.2c0-0.7,0.5-1.2,1.2-1.2C1173.9,29.1,1174.4,29.6,1174.4,30.3z
			 M1172.3,43.9V33.3h1.9v10.6H1172.3z"/>
		<path d="M1178.3,36.2c0-1.1,0-2-0.1-2.9h1.7l0.1,1.8h0c0.5-1,1.8-2,3.5-2c1.5,0,3.8,0.9,3.8,4.5v6.4h-1.9v-6.1
			c0-1.7-0.6-3.1-2.5-3.1c-1.3,0-2.3,0.9-2.6,2c-0.1,0.2-0.1,0.6-0.1,0.9v6.4h-1.9V36.2z"/>
		<path d="M1200.6,33.3c0,0.8-0.1,1.6-0.1,2.9v6.2c0,2.4-0.5,3.9-1.5,4.9c-1,1-2.5,1.3-3.9,1.3c-1.3,0-2.7-0.3-3.5-0.9l0.5-1.5
			c0.7,0.4,1.8,0.8,3.1,0.8c2,0,3.4-1,3.4-3.7v-1.2h0c-0.6,1-1.7,1.8-3.4,1.8c-2.6,0-4.5-2.2-4.5-5.2c0-3.6,2.4-5.7,4.8-5.7
			c1.8,0,2.9,1,3.3,1.8h0l0.1-1.6H1200.6z M1198.5,37.5c0-0.3,0-0.6-0.1-0.9c-0.4-1.1-1.3-2-2.7-2c-1.8,0-3.2,1.6-3.2,4
			c0,2.1,1.1,3.8,3.1,3.8c1.2,0,2.3-0.7,2.7-2c0.1-0.3,0.2-0.7,0.2-1V37.5z"/>
		<path d="M1212.6,43.9l-4.8-14.8h2.1l2.3,7.3c0.6,2,1.2,3.8,1.6,5.5h0c0.4-1.7,1-3.6,1.7-5.5l2.5-7.3h2l-5.3,14.8H1212.6z"/>
		<path d="M1224.3,30.3c0,0.7-0.5,1.2-1.2,1.2c-0.7,0-1.2-0.5-1.2-1.2c0-0.7,0.5-1.2,1.2-1.2C1223.8,29.1,1224.3,29.6,1224.3,30.3z
			 M1222.1,43.9V33.3h1.9v10.6H1222.1z"/>
		<path d="M1227.9,42c0.6,0.4,1.6,0.8,2.6,0.8c1.4,0,2.1-0.7,2.1-1.6c0-0.9-0.5-1.4-2-2c-1.9-0.7-2.8-1.7-2.8-3
			c0-1.7,1.4-3.1,3.7-3.1c1.1,0,2,0.3,2.6,0.7l-0.5,1.4c-0.4-0.3-1.2-0.6-2.2-0.6c-1.1,0-1.8,0.7-1.8,1.5c0,0.9,0.6,1.3,2,1.8
			c1.8,0.7,2.8,1.6,2.8,3.2c0,1.9-1.5,3.2-4,3.2c-1.2,0-2.2-0.3-3-0.7L1227.9,42z"/>
		<path d="M1239.9,30.3c0,0.7-0.5,1.2-1.2,1.2c-0.7,0-1.2-0.5-1.2-1.2c0-0.7,0.5-1.2,1.2-1.2C1239.5,29.1,1239.9,29.6,1239.9,30.3z
			 M1237.8,43.9V33.3h1.9v10.6H1237.8z"/>
		<path d="M1253.4,38.5c0,3.9-2.7,5.7-5.3,5.7c-2.9,0-5.1-2.1-5.1-5.5c0-3.6,2.3-5.7,5.3-5.7C1251.4,33,1253.4,35.3,1253.4,38.5z
			 M1245,38.6c0,2.3,1.3,4.1,3.2,4.1c1.8,0,3.2-1.7,3.2-4.1c0-1.8-0.9-4.1-3.2-4.1C1246,34.5,1245,36.6,1245,38.6z"/>
		<path d="M1256.7,36.2c0-1.1,0-2-0.1-2.9h1.7l0.1,1.8h0c0.5-1,1.8-2,3.5-2c1.5,0,3.8,0.9,3.8,4.5v6.4h-1.9v-6.1
			c0-1.7-0.6-3.1-2.5-3.1c-1.3,0-2.3,0.9-2.6,2c-0.1,0.2-0.1,0.6-0.1,0.9v6.4h-1.9V36.2z"/>
		<path d="M1275.7,43.9l-0.2-1.3h-0.1c-0.6,0.8-1.7,1.6-3.3,1.6c-2.2,0-3.3-1.5-3.3-3.1c0-2.6,2.3-4,6.4-4v-0.2
			c0-0.9-0.2-2.5-2.4-2.5c-1,0-2,0.3-2.8,0.8l-0.4-1.3c0.9-0.6,2.2-0.9,3.5-0.9c3.3,0,4,2.2,4,4.4v4c0,0.9,0,1.8,0.2,2.6H1275.7z
			 M1275.4,38.5c-2.1,0-4.5,0.3-4.5,2.4c0,1.3,0.8,1.8,1.8,1.8c1.4,0,2.3-0.9,2.6-1.8c0.1-0.2,0.1-0.4,0.1-0.6V38.5z"/>
		<path d="M1281.3,36.6c0-1.3,0-2.3-0.1-3.3h1.7l0.1,2.1h0.1c0.5-1.4,1.7-2.3,2.9-2.3c0.2,0,0.4,0,0.6,0.1v1.8
			c-0.2,0-0.4-0.1-0.7-0.1c-1.4,0-2.3,1-2.6,2.5c0,0.3-0.1,0.6-0.1,0.9v5.7h-1.9V36.6z"/>
		<path d="M1291.6,30.3c0,0.7-0.5,1.2-1.2,1.2c-0.7,0-1.2-0.5-1.2-1.2c0-0.7,0.5-1.2,1.2-1.2C1291.2,29.1,1291.6,29.6,1291.6,30.3z
			 M1289.5,43.9V33.3h1.9v10.6H1289.5z"/>
		<path d="M1296.6,39c0,2.6,1.7,3.7,3.7,3.7c1.4,0,2.2-0.2,2.9-0.5l0.3,1.4c-0.7,0.3-1.8,0.7-3.5,0.7c-3.3,0-5.2-2.2-5.2-5.4
			c0-3.2,1.9-5.7,5-5.7c3.5,0,4.4,3.1,4.4,5c0,0.4,0,0.7-0.1,0.9H1296.6z M1302.3,37.6c0-1.2-0.5-3.1-2.7-3.1c-2,0-2.8,1.8-3,3.1
			H1302.3z"/>
		<path d="M1307.1,42c0.6,0.4,1.6,0.8,2.6,0.8c1.4,0,2.1-0.7,2.1-1.6c0-0.9-0.5-1.4-2-2c-1.9-0.7-2.8-1.7-2.8-3
			c0-1.7,1.4-3.1,3.7-3.1c1.1,0,2,0.3,2.6,0.7l-0.5,1.4c-0.4-0.3-1.2-0.6-2.2-0.6c-1.1,0-1.8,0.7-1.8,1.5c0,0.9,0.6,1.3,2,1.8
			c1.8,0.7,2.8,1.6,2.8,3.2c0,1.9-1.5,3.2-4,3.2c-1.2,0-2.2-0.3-3-0.7L1307.1,42z"/>
		<path d="M1328.4,43.9l-0.2-1.3h-0.1c-0.6,0.8-1.7,1.6-3.3,1.6c-2.2,0-3.3-1.5-3.3-3.1c0-2.6,2.3-4,6.4-4v-0.2
			c0-0.9-0.2-2.5-2.4-2.5c-1,0-2,0.3-2.8,0.8l-0.4-1.3c0.9-0.6,2.2-0.9,3.5-0.9c3.3,0,4,2.2,4,4.4v4c0,0.9,0,1.8,0.2,2.6H1328.4z
			 M1328.2,38.5c-2.1,0-4.5,0.3-4.5,2.4c0,1.3,0.8,1.8,1.8,1.8c1.4,0,2.3-0.9,2.6-1.8c0.1-0.2,0.1-0.4,0.1-0.6V38.5z"/>
		<path d="M1334,36.2c0-1.1,0-2-0.1-2.9h1.7l0.1,1.8h0c0.5-1,1.8-2,3.5-2c1.5,0,3.8,0.9,3.8,4.5v6.4h-1.9v-6.1
			c0-1.7-0.6-3.1-2.5-3.1c-1.3,0-2.3,0.9-2.6,2c-0.1,0.2-0.1,0.6-0.1,0.9v6.4h-1.9V36.2z"/>
		<path d="M1356.3,28.3v12.9c0,0.9,0,2,0.1,2.8h-1.7l-0.1-1.8h0c-0.6,1.2-1.9,2.1-3.6,2.1c-2.6,0-4.6-2.2-4.6-5.4
			c0-3.5,2.2-5.7,4.8-5.7c1.6,0,2.7,0.8,3.2,1.6h0v-6.4H1356.3z M1354.4,37.6c0-0.2,0-0.6-0.1-0.8c-0.3-1.2-1.3-2.2-2.8-2.2
			c-2,0-3.2,1.8-3.2,4.1c0,2.2,1.1,3.9,3.1,3.9c1.3,0,2.5-0.9,2.8-2.3c0.1-0.3,0.1-0.5,0.1-0.8V37.6z"/>
		<path d="M1366,36.2c0-1.1,0-2-0.1-2.9h1.7l0.1,1.7h0.1c0.6-1,1.6-2,3.3-2c1.5,0,2.6,0.9,3,2.1h0c0.3-0.6,0.7-1.1,1.2-1.4
			c0.6-0.5,1.3-0.7,2.4-0.7c1.4,0,3.5,0.9,3.5,4.6v6.3h-1.9v-6c0-2-0.7-3.3-2.3-3.3c-1.1,0-2,0.8-2.3,1.8c-0.1,0.3-0.2,0.6-0.2,1
			v6.6h-1.9v-6.4c0-1.7-0.7-2.9-2.2-2.9c-1.2,0-2.1,1-2.4,1.9c-0.1,0.3-0.2,0.6-0.2,0.9v6.4h-1.9V36.2z"/>
		<path d="M1391.1,43.9l-0.2-1.3h-0.1c-0.6,0.8-1.7,1.6-3.3,1.6c-2.2,0-3.3-1.5-3.3-3.1c0-2.6,2.3-4,6.4-4v-0.2
			c0-0.9-0.2-2.5-2.4-2.5c-1,0-2,0.3-2.8,0.8l-0.4-1.3c0.9-0.6,2.2-0.9,3.5-0.9c3.3,0,4,2.2,4,4.4v4c0,0.9,0,1.8,0.2,2.6H1391.1z
			 M1390.8,38.5c-2.1,0-4.5,0.3-4.5,2.4c0,1.3,0.8,1.8,1.8,1.8c1.4,0,2.3-0.9,2.6-1.8c0.1-0.2,0.1-0.4,0.1-0.6V38.5z"/>
		<path d="M1398.6,38.2L1398.6,38.2c0.3-0.4,0.7-0.8,1-1.2l3.1-3.7h2.3l-4.1,4.4l4.7,6.3h-2.4l-3.7-5.1l-1,1.1v4h-1.9V28.3h1.9V38.2
			z"/>
		<path d="M1409,39c0,2.6,1.7,3.7,3.7,3.7c1.4,0,2.2-0.2,2.9-0.5l0.3,1.4c-0.7,0.3-1.8,0.7-3.5,0.7c-3.3,0-5.2-2.2-5.2-5.4
			c0-3.2,1.9-5.7,5-5.7c3.5,0,4.4,3.1,4.4,5c0,0.4,0,0.7-0.1,0.9H1409z M1414.6,37.6c0-1.2-0.5-3.1-2.7-3.1c-2,0-2.8,1.8-3,3.1
			H1414.6z"/>
		<path d="M1419.8,36.6c0-1.3,0-2.3-0.1-3.3h1.7l0.1,2.1h0.1c0.5-1.4,1.7-2.3,2.9-2.3c0.2,0,0.4,0,0.6,0.1v1.8
			c-0.2,0-0.4-0.1-0.7-0.1c-1.4,0-2.3,1-2.6,2.5c0,0.3-0.1,0.6-0.1,0.9v5.7h-1.9V36.6z"/>
		<path d="M1427.6,42c0.6,0.4,1.6,0.8,2.6,0.8c1.4,0,2.1-0.7,2.1-1.6c0-0.9-0.5-1.4-2-2c-1.9-0.7-2.8-1.7-2.8-3
			c0-1.7,1.4-3.1,3.7-3.1c1.1,0,2,0.3,2.6,0.7l-0.5,1.4c-0.4-0.3-1.2-0.6-2.2-0.6c-1.1,0-1.8,0.7-1.8,1.5c0,0.9,0.6,1.3,2,1.8
			c1.8,0.7,2.8,1.6,2.8,3.2c0,1.9-1.5,3.2-4,3.2c-1.2,0-2.2-0.3-3-0.7L1427.6,42z"/>
	</g>
</g>
</svg>
