<svg width="768" height="103" viewBox="0 0 768 103" fill="none" xmlns="http://www.w3.org/2000/svg">
<g clip-path="url(#clip0_869_459)">
<path d="M26.167 22.2H-0.391872V75.3177H26.167V22.2ZM26.167 75.3177H767.731V22.2H26.167V75.3177Z" fill="#D9E167"/>
<path d="M0.313995 57.2694V48.6085H1.45642V49.9462C1.80793 49.3929 2.23756 48.9795 2.7453 48.7061C3.25956 48.4262 3.84867 48.2863 4.51264 48.2863C5.49558 48.2863 6.26045 48.5597 6.80725 49.1065C7.35405 49.6533 7.62745 50.4149 7.62745 51.3913V57.2694H6.40691V51.9283C6.40691 51.0626 6.22464 50.4214 5.86011 50.0048C5.50209 49.5817 4.94552 49.3701 4.19042 49.3701C3.27258 49.3701 2.59558 49.6435 2.15945 50.1903C1.72982 50.7306 1.515 51.5833 1.515 52.7485V57.2694H0.313995Z" fill="black"/>
<path d="M18.4209 48.6085V55.7657C18.4209 56.9049 18.3883 57.7739 18.3232 58.3728C18.2647 58.9717 18.1638 59.4176 18.0206 59.7105C17.7211 60.3549 17.2622 60.8334 16.6438 61.1458C16.0254 61.4648 15.2442 61.6243 14.3004 61.6243C13.1482 61.6243 12.2499 61.3997 11.6054 60.9506C10.9675 60.5079 10.5802 59.8342 10.4435 58.9293H11.9472C12.0448 59.4631 12.2987 59.8667 12.7088 60.1401C13.1254 60.4135 13.6885 60.5502 14.398 60.5502C14.9318 60.5502 15.4102 60.4558 15.8334 60.267C16.263 60.0783 16.5852 59.8179 16.8 59.4859C16.9432 59.2711 17.0441 59.0205 17.1027 58.7341C17.1678 58.4541 17.2004 58.018 17.2004 57.4256V55.6681C16.9335 56.2865 16.5234 56.7714 15.9701 57.1229C15.4233 57.4745 14.7951 57.6502 14.0855 57.6502C12.8683 57.6502 11.8951 57.2271 11.166 56.3809C10.4435 55.5346 10.0822 54.3987 10.0822 52.9731C10.0822 51.5606 10.4532 50.4279 11.1953 49.5752C11.9374 48.7159 12.9203 48.2863 14.1441 48.2863C14.8276 48.2863 15.446 48.4653 15.9994 48.8233C16.5592 49.1748 16.9595 49.6435 17.2004 50.2294V48.6085H18.4209ZM14.2808 49.3896C13.3825 49.3896 12.673 49.7119 12.1522 50.3563C11.638 50.9942 11.3808 51.873 11.3808 52.9927C11.3808 54.1058 11.6249 54.9748 12.1132 55.5997C12.6079 56.2181 13.2914 56.5273 14.1637 56.5273C15.088 56.5273 15.8268 56.1986 16.3802 55.5411C16.94 54.8837 17.2199 53.9984 17.2199 52.8852C17.2199 51.7916 16.9595 50.9356 16.4387 50.3172C15.918 49.6988 15.1987 49.3896 14.2808 49.3896Z" fill="black"/>
<path d="M31.3273 57.826L25.7324 42.9745H27.2263L31.3469 54.6135L35.6822 42.9745H37.1078L31.3273 57.826Z" fill="black"/>
<path d="M38.3615 45.23C38.3615 44.9762 38.4527 44.7614 38.6349 44.5856C38.8172 44.4033 39.0353 44.3122 39.2891 44.3122C39.543 44.3122 39.7611 44.4033 39.9433 44.5856C40.1321 44.7614 40.2265 44.9762 40.2265 45.23C40.2265 45.4904 40.1354 45.7085 39.9531 45.8843C39.7773 46.06 39.556 46.1479 39.2891 46.1479C39.0287 46.1479 38.8074 46.06 38.6252 45.8843C38.4494 45.7085 38.3615 45.4904 38.3615 45.23ZM38.6642 57.2694V48.6085H39.9043V57.2694H38.6642Z" fill="black"/>
<path d="M42.2711 55.7267L43.4136 55.0724C43.6023 55.5542 43.8757 55.9187 44.2338 56.166C44.5918 56.4069 45.0312 56.5273 45.5519 56.5273C46.0597 56.5273 46.4633 56.4004 46.7627 56.1465C47.0622 55.8861 47.2119 55.5411 47.2119 55.1115C47.2119 54.4475 46.6228 53.8845 45.4445 53.4223C45.3209 53.3767 45.2232 53.3377 45.1516 53.3051C44.2403 52.9471 43.6023 52.5793 43.2378 52.2017C42.8733 51.8177 42.691 51.3457 42.691 50.7859C42.691 50.0503 42.9514 49.4482 43.4721 48.9795C43.9929 48.5043 44.6666 48.2667 45.4934 48.2667C46.1964 48.2667 46.7953 48.4197 47.29 48.7257C47.7847 49.0316 48.146 49.4677 48.3738 50.0341L47.2705 50.6492C47.1338 50.2391 46.9059 49.9267 46.587 49.7119C46.268 49.497 45.8774 49.3896 45.4152 49.3896C44.9986 49.3896 44.6536 49.5133 44.3802 49.7607C44.1133 50.0015 43.9799 50.3042 43.9799 50.6688C43.9799 51.0268 44.1133 51.323 44.3802 51.5573C44.6471 51.7916 45.2004 52.0488 46.0402 52.3287C46.9905 52.6607 47.6285 53.0219 47.954 53.4125C48.2859 53.8031 48.4519 54.3434 48.4519 55.0334C48.4519 55.8276 48.1688 56.4622 47.6024 56.9374C47.0361 57.4126 46.2745 57.6502 45.3176 57.6502C44.582 57.6502 43.9473 57.4842 43.4136 57.1522C42.8863 56.8137 42.5055 56.3386 42.2711 55.7267Z" fill="black"/>
<path d="M50.7309 45.23C50.7309 44.9762 50.8221 44.7614 51.0043 44.5856C51.1866 44.4033 51.4047 44.3122 51.6585 44.3122C51.9124 44.3122 52.1305 44.4033 52.3127 44.5856C52.5015 44.7614 52.5959 44.9762 52.5959 45.23C52.5959 45.4904 52.5048 45.7085 52.3225 45.8843C52.1467 46.06 51.9254 46.1479 51.6585 46.1479C51.3981 46.1479 51.1768 46.06 50.9946 45.8843C50.8188 45.7085 50.7309 45.4904 50.7309 45.23ZM51.0336 57.2694V48.6085H52.2737V57.2694H51.0336Z" fill="black"/>
<path d="M59.6008 56.5273C60.5512 56.5273 61.3551 56.1856 62.0126 55.5021C62.6766 54.8121 63.0085 53.9691 63.0085 52.9731C63.0085 51.9641 62.6798 51.1179 62.0223 50.4344C61.3649 49.7509 60.5577 49.4092 59.6008 49.4092C58.6504 49.4092 57.8465 49.7509 57.189 50.4344C56.5316 51.1179 56.2028 51.9641 56.2028 52.9731C56.2028 53.9691 56.5316 54.8121 57.189 55.5021C57.8465 56.1856 58.6504 56.5273 59.6008 56.5273ZM59.5617 57.6502C58.9433 57.6502 58.351 57.5265 57.7846 57.2792C57.2183 57.0383 56.7041 56.6901 56.2419 56.2344C55.8057 55.8048 55.4738 55.31 55.2459 54.7502C55.0181 54.1904 54.9042 53.5915 54.9042 52.9536C54.9042 52.3222 55.0214 51.7233 55.2557 51.157C55.49 50.5906 55.8253 50.0894 56.2614 49.6533C56.7041 49.2106 57.2086 48.8721 57.7749 48.6378C58.3412 48.4034 58.9368 48.2863 59.5617 48.2863C60.1997 48.2863 60.8051 48.4034 61.3779 48.6378C61.9572 48.8721 62.4715 49.2106 62.9207 49.6533C63.3698 50.0959 63.7116 50.6004 63.9459 51.1667C64.1868 51.7331 64.3072 52.3287 64.3072 52.9536C64.3072 53.5785 64.19 54.1741 63.9557 54.7405C63.7213 55.3003 63.3828 55.7983 62.9402 56.2344C62.4845 56.6901 61.9638 57.0383 61.3779 57.2792C60.7986 57.5265 60.1932 57.6502 59.5617 57.6502Z" fill="black"/>
<path d="M66.8596 57.2694V48.6085H68.002V49.9462C68.3535 49.3929 68.7831 48.9795 69.2909 48.7061C69.8051 48.4262 70.3943 48.2863 71.0582 48.2863C72.0412 48.2863 72.806 48.5597 73.3528 49.1065C73.8996 49.6533 74.173 50.4149 74.173 51.3913V57.2694H72.9525V51.9283C72.9525 51.0626 72.7702 50.4214 72.4057 50.0048C72.0477 49.5817 71.4911 49.3701 70.736 49.3701C69.8182 49.3701 69.1412 49.6435 68.705 50.1903C68.2754 50.7306 68.0606 51.5833 68.0606 52.7485V57.2694H66.8596Z" fill="black"/>
<path d="M77.9069 53.0317C77.9069 54.1514 78.1575 55.0139 78.6587 55.6192C79.1665 56.2246 79.889 56.5273 80.8264 56.5273C81.7377 56.5273 82.4538 56.1986 82.9745 55.5411C83.5018 54.8772 83.7655 53.9658 83.7655 52.8071C83.7655 51.7461 83.5051 50.9129 82.9843 50.3075C82.4636 49.6956 81.7508 49.3896 80.8459 49.3896C79.9411 49.3896 79.2251 49.7151 78.6978 50.3661C78.1705 51.0105 77.9069 51.8991 77.9069 53.0317ZM83.7459 57.2694V55.6876C83.4595 56.3255 83.0559 56.8137 82.5352 57.1522C82.0209 57.4842 81.4123 57.6502 80.7092 57.6502C79.4659 57.6502 78.4635 57.2238 77.7018 56.3711C76.9467 55.5184 76.5692 54.3922 76.5692 52.9927C76.5692 51.6061 76.9435 50.4767 77.6921 49.6044C78.4407 48.7257 79.4073 48.2863 80.5921 48.2863C81.3276 48.2863 81.9623 48.449 82.4961 48.7745C83.0364 49.0934 83.453 49.5654 83.7459 50.1903V48.6085H84.9469V57.2694H83.7459Z" fill="black"/>
<path d="M89.4327 50.3465C89.8753 49.5979 90.3082 49.0674 90.7313 48.755C91.1609 48.4425 91.6589 48.2863 92.2253 48.2863C92.3945 48.2863 92.5637 48.3025 92.733 48.3351C92.9087 48.3676 93.0813 48.4132 93.2505 48.4718L92.8599 49.6044C92.7297 49.5654 92.593 49.5328 92.4498 49.5068C92.3131 49.4808 92.1797 49.4677 92.0495 49.4677C91.3269 49.4677 90.7085 49.8062 90.1943 50.4832C89.6865 51.1602 89.4327 52.0032 89.4327 53.0122V57.2694H88.2316V48.6085H89.4327V50.3465Z" fill="black"/>
<path d="M94.3773 45.23C94.3773 44.9762 94.4684 44.7614 94.6507 44.5856C94.833 44.4033 95.051 44.3122 95.3049 44.3122C95.5588 44.3122 95.7768 44.4033 95.9591 44.5856C96.1479 44.7614 96.2423 44.9762 96.2423 45.23C96.2423 45.4904 96.1511 45.7085 95.9689 45.8843C95.7931 46.06 95.5718 46.1479 95.3049 46.1479C95.0445 46.1479 94.8232 46.06 94.6409 45.8843C94.4652 45.7085 94.3773 45.4904 94.3773 45.23ZM94.68 57.2694V48.6085H95.92V57.2694H94.68Z" fill="black"/>
<path d="M105.288 51.9479C105.229 51.1537 104.966 50.5386 104.497 50.1024C104.028 49.6663 103.394 49.4482 102.593 49.4482C101.864 49.4482 101.252 49.6761 100.757 50.1317C100.269 50.5874 99.9859 51.1928 99.9078 51.9479H105.288ZM106.713 52.9731H99.8297C99.8622 54.0928 100.142 54.9716 100.669 55.6095C101.197 56.2474 101.903 56.5664 102.788 56.5664C103.426 56.5664 103.986 56.3939 104.468 56.0489C104.949 55.7039 105.35 55.1831 105.669 54.4866L106.772 55.092C106.329 55.9708 105.786 56.6185 105.141 57.0351C104.504 57.4452 103.719 57.6502 102.788 57.6502C101.519 57.6502 100.49 57.2271 99.7027 56.3809C98.9216 55.5281 98.531 54.4117 98.531 53.0317C98.531 51.6126 98.9183 50.467 99.693 49.5947C100.474 48.7224 101.493 48.2863 102.749 48.2863C103.947 48.2863 104.907 48.6899 105.63 49.497C106.352 50.2977 106.713 51.3685 106.713 52.7095V52.9731Z" fill="black"/>
<path d="M108.289 55.7267L109.432 55.0724C109.621 55.5542 109.894 55.9187 110.252 56.166C110.61 56.4069 111.049 56.5273 111.57 56.5273C112.078 56.5273 112.482 56.4004 112.781 56.1465C113.08 55.8861 113.23 55.5411 113.23 55.1115C113.23 54.4475 112.641 53.8845 111.463 53.4223C111.339 53.3767 111.242 53.3377 111.17 53.3051C110.259 52.9471 109.621 52.5793 109.256 52.2017C108.892 51.8177 108.709 51.3457 108.709 50.7859C108.709 50.0503 108.97 49.4482 109.49 48.9795C110.011 48.5043 110.685 48.2667 111.512 48.2667C112.215 48.2667 112.814 48.4197 113.308 48.7257C113.803 49.0316 114.164 49.4677 114.392 50.0341L113.289 50.6492C113.152 50.2391 112.924 49.9267 112.605 49.7119C112.286 49.497 111.896 49.3896 111.434 49.3896C111.017 49.3896 110.672 49.5133 110.399 49.7607C110.132 50.0015 109.998 50.3042 109.998 50.6688C109.998 51.0268 110.132 51.323 110.399 51.5573C110.665 51.7916 111.219 52.0488 112.058 52.3287C113.009 52.6607 113.647 53.0219 113.972 53.4125C114.304 53.8031 114.47 54.3434 114.47 55.0334C114.47 55.8276 114.187 56.4622 113.621 56.9374C113.054 57.4126 112.293 57.6502 111.336 57.6502C110.6 57.6502 109.966 57.4842 109.432 57.1522C108.905 56.8137 108.524 56.3386 108.289 55.7267Z" fill="black"/>
<path d="M123.354 53.0317C123.354 54.1514 123.604 55.0139 124.106 55.6192C124.613 56.2246 125.336 56.5273 126.273 56.5273C127.185 56.5273 127.901 56.1986 128.421 55.5411C128.949 54.8772 129.212 53.9658 129.212 52.8071C129.212 51.7461 128.952 50.9129 128.431 50.3075C127.91 49.6956 127.198 49.3896 126.293 49.3896C125.388 49.3896 124.672 49.7151 124.145 50.3661C123.617 51.0105 123.354 51.8991 123.354 53.0317ZM129.193 57.2694V55.6876C128.906 56.3255 128.503 56.8137 127.982 57.1522C127.468 57.4842 126.859 57.6502 126.156 57.6502C124.913 57.6502 123.91 57.2238 123.149 56.3711C122.394 55.5184 122.016 54.3922 122.016 52.9927C122.016 51.6061 122.39 50.4767 123.139 49.6044C123.888 48.7257 124.854 48.2863 126.039 48.2863C126.775 48.2863 127.409 48.449 127.943 48.7745C128.483 49.0934 128.9 49.5654 129.193 50.1903V48.6085H130.394V57.2694H129.193Z" fill="black"/>
<path d="M133.679 57.2694V48.6085H134.821V49.9462C135.172 49.3929 135.602 48.9795 136.11 48.7061C136.624 48.4262 137.213 48.2863 137.877 48.2863C138.86 48.2863 139.625 48.5597 140.172 49.1065C140.719 49.6533 140.992 50.4149 140.992 51.3913V57.2694H139.771V51.9283C139.771 51.0626 139.589 50.4214 139.225 50.0048C138.867 49.5817 138.31 49.3701 137.555 49.3701C136.637 49.3701 135.96 49.6435 135.524 50.1903C135.094 50.7306 134.88 51.5833 134.88 52.7485V57.2694H133.679Z" fill="black"/>
<path d="M144.765 53.0317C144.765 54.1514 145.016 55.0139 145.517 55.6192C146.025 56.2246 146.747 56.5273 147.684 56.5273C148.589 56.5273 149.302 56.1986 149.823 55.5411C150.344 54.8772 150.604 53.9658 150.604 52.8071C150.604 51.7461 150.347 50.9129 149.833 50.3075C149.318 49.6956 148.609 49.3896 147.704 49.3896C146.799 49.3896 146.083 49.7151 145.556 50.3661C145.029 51.0105 144.765 51.8991 144.765 53.0317ZM150.584 57.2694V55.6876C150.298 56.332 149.898 56.8203 149.383 57.1522C148.869 57.4842 148.264 57.6502 147.567 57.6502C146.324 57.6502 145.322 57.2238 144.56 56.3711C143.805 55.5184 143.427 54.3922 143.427 52.9927C143.427 51.6061 143.802 50.4767 144.55 49.6044C145.299 48.7257 146.265 48.2863 147.45 48.2863C148.186 48.2863 148.817 48.449 149.344 48.7745C149.878 49.0934 150.292 49.5654 150.584 50.1903V42.1348H151.805V57.2694H150.584Z" fill="black"/>
<path d="M162.075 57.2694H160.874V48.6085H162.075V49.9657C162.361 49.4189 162.739 49.0023 163.208 48.7159C163.676 48.4295 164.217 48.2863 164.829 48.2863C165.46 48.2863 165.997 48.4327 166.44 48.7257C166.889 49.0121 167.234 49.4352 167.475 49.995C167.82 49.4222 168.243 48.9958 168.744 48.7159C169.245 48.4295 169.828 48.2863 170.492 48.2863C171.41 48.2863 172.132 48.5662 172.66 49.126C173.187 49.6793 173.45 50.4409 173.45 51.4108V57.2694H172.249V51.8893C172.249 51.0431 172.074 50.4051 171.722 49.9755C171.377 49.5459 170.86 49.331 170.17 49.331C169.343 49.331 168.734 49.6012 168.344 50.1415C167.96 50.6818 167.768 51.5378 167.768 52.7095V57.2694H166.576V51.8893C166.576 51.004 166.41 50.3563 166.078 49.9462C165.746 49.5361 165.232 49.331 164.536 49.331C163.689 49.331 163.068 49.6044 162.671 50.1512C162.274 50.698 162.075 51.5508 162.075 52.7095V57.2694Z" fill="black"/>
<path d="M177.272 53.0317C177.272 54.1514 177.523 55.0139 178.024 55.6192C178.532 56.2246 179.254 56.5273 180.192 56.5273C181.103 56.5273 181.819 56.1986 182.34 55.5411C182.867 54.8772 183.131 53.9658 183.131 52.8071C183.131 51.7461 182.87 50.9129 182.35 50.3075C181.829 49.6956 181.116 49.3896 180.211 49.3896C179.306 49.3896 178.59 49.7151 178.063 50.3661C177.536 51.0105 177.272 51.8991 177.272 53.0317ZM183.111 57.2694V55.6876C182.825 56.3255 182.421 56.8137 181.9 57.1522C181.386 57.4842 180.778 57.6502 180.075 57.6502C178.831 57.6502 177.829 57.2238 177.067 56.3711C176.312 55.5184 175.934 54.3922 175.934 52.9927C175.934 51.6061 176.309 50.4767 177.057 49.6044C177.806 48.7257 178.773 48.2863 179.957 48.2863C180.693 48.2863 181.328 48.449 181.861 48.7745C182.402 49.0934 182.818 49.5654 183.111 50.1903V48.6085H184.312V57.2694H183.111Z" fill="black"/>
<path d="M187.597 57.2694V42.1348H188.798V52.4459L193.114 48.6085H194.774L190.136 52.4947L195.115 57.2694H193.456L188.798 52.7876V57.2694H187.597Z" fill="black"/>
<path d="M202.833 51.9479C202.775 51.1537 202.511 50.5386 202.042 50.1024C201.574 49.6663 200.939 49.4482 200.138 49.4482C199.409 49.4482 198.797 49.6761 198.303 50.1317C197.814 50.5874 197.531 51.1928 197.453 51.9479H202.833ZM204.259 52.9731H197.375C197.407 54.0928 197.687 54.9716 198.215 55.6095C198.742 56.2474 199.448 56.5664 200.333 56.5664C200.971 56.5664 201.531 56.3939 202.013 56.0489C202.495 55.7039 202.895 55.1831 203.214 54.4866L204.317 55.092C203.875 55.9708 203.331 56.6185 202.687 57.0351C202.049 57.4452 201.264 57.6502 200.333 57.6502C199.064 57.6502 198.036 57.2271 197.248 56.3809C196.467 55.5281 196.076 54.4117 196.076 53.0317C196.076 51.6126 196.464 50.467 197.238 49.5947C198.019 48.7224 199.038 48.2863 200.294 48.2863C201.492 48.2863 202.452 48.6899 203.175 49.497C203.897 50.2977 204.259 51.3685 204.259 52.7095V52.9731Z" fill="black"/>
<path d="M208.022 50.3465C208.465 49.5979 208.897 49.0674 209.321 48.755C209.75 48.4425 210.248 48.2863 210.814 48.2863C210.984 48.2863 211.153 48.3025 211.322 48.3351C211.498 48.3676 211.67 48.4132 211.84 48.4718L211.449 49.6044C211.319 49.5654 211.182 49.5328 211.039 49.5068C210.902 49.4808 210.769 49.4677 210.639 49.4677C209.916 49.4677 209.298 49.8062 208.784 50.4832C208.276 51.1602 208.022 52.0032 208.022 53.0122V57.2694H206.821V48.6085H208.022V50.3465Z" fill="black"/>
<path d="M212.205 55.7267L213.347 55.0724C213.536 55.5542 213.81 55.9187 214.168 56.166C214.526 56.4069 214.965 56.5273 215.486 56.5273C215.993 56.5273 216.397 56.4004 216.696 56.1465C216.996 55.8861 217.146 55.5411 217.146 55.1115C217.146 54.4475 216.557 53.8845 215.378 53.4223C215.255 53.3767 215.157 53.3377 215.085 53.3051C214.174 52.9471 213.536 52.5793 213.172 52.2017C212.807 51.8177 212.625 51.3457 212.625 50.7859C212.625 50.0503 212.885 49.4482 213.406 48.9795C213.927 48.5043 214.6 48.2667 215.427 48.2667C216.13 48.2667 216.729 48.4197 217.224 48.7257C217.718 49.0316 218.08 49.4677 218.308 50.0341L217.204 50.6492C217.068 50.2391 216.84 49.9267 216.521 49.7119C216.202 49.497 215.811 49.3896 215.349 49.3896C214.932 49.3896 214.587 49.5133 214.314 49.7607C214.047 50.0015 213.914 50.3042 213.914 50.6688C213.914 51.0268 214.047 51.323 214.314 51.5573C214.581 51.7916 215.134 52.0488 215.974 52.3287C216.924 52.6607 217.562 53.0219 217.888 53.4125C218.22 53.8031 218.386 54.3434 218.386 55.0334C218.386 55.8276 218.103 56.4622 217.536 56.9374C216.97 57.4126 216.208 57.6502 215.251 57.6502C214.516 57.6502 213.881 57.4842 213.347 57.1522C212.82 56.8137 212.439 56.3386 212.205 55.7267Z" fill="black"/>
<path d="M226.996 56.4492C226.996 56.1693 227.09 55.935 227.279 55.7462C227.474 55.5509 227.712 55.4533 227.992 55.4533C228.272 55.4533 228.506 55.5509 228.695 55.7462C228.89 55.935 228.988 56.1693 228.988 56.4492C228.988 56.7291 228.89 56.9667 228.695 57.162C228.506 57.3508 228.272 57.4452 227.992 57.4452C227.712 57.4452 227.474 57.3508 227.279 57.162C227.09 56.9667 226.996 56.7291 226.996 56.4492Z" fill="black"/>
<path d="M237.96 42.8397H239.239V52.1744C239.239 53.587 239.561 54.6382 240.206 55.3283C240.85 56.0118 241.836 56.3535 243.164 56.3535C244.473 56.3535 245.449 56.0118 246.094 55.3283C246.738 54.6382 247.06 53.587 247.06 52.1744V42.8397H248.359V51.7545C248.359 53.6879 247.929 55.133 247.07 56.0899C246.211 57.0403 244.909 57.5155 243.164 57.5155C241.413 57.5155 240.108 57.0403 239.249 56.0899C238.39 55.133 237.96 53.6879 237.96 51.7545V42.8397Z" fill="black"/>
<path d="M251.751 57.1346V48.4737H252.893V49.8114C253.245 49.2581 253.675 48.8448 254.182 48.5714C254.697 48.2915 255.286 48.1515 255.95 48.1515C256.933 48.1515 257.697 48.4249 258.244 48.9717C258.791 49.5185 259.064 50.2801 259.064 51.2565V57.1346H257.844V51.7936C257.844 50.9278 257.662 50.2866 257.297 49.87C256.939 49.4469 256.383 49.2353 255.627 49.2353C254.71 49.2353 254.033 49.5087 253.596 50.0555C253.167 50.5958 252.952 51.4486 252.952 52.6138V57.1346H251.751Z" fill="black"/>
<path d="M262.017 45.0953C262.017 44.8414 262.108 44.6266 262.291 44.4508C262.473 44.2686 262.691 44.1774 262.945 44.1774C263.199 44.1774 263.417 44.2686 263.599 44.4508C263.788 44.6266 263.882 44.8414 263.882 45.0953C263.882 45.3557 263.791 45.5737 263.609 45.7495C263.433 45.9252 263.212 46.0131 262.945 46.0131C262.684 46.0131 262.463 45.9252 262.281 45.7495C262.105 45.5737 262.017 45.3557 262.017 45.0953ZM262.32 57.1346V48.4737H263.56V57.1346H262.32Z" fill="black"/>
<path d="M267.167 49.499H265.575V48.4737H267.167V44.9195H268.348V48.4737H270.086V49.499H268.348V57.1346H267.167V49.499Z" fill="black"/>
<path d="M271.711 45.0953C271.711 44.8414 271.802 44.6266 271.985 44.4508C272.167 44.2686 272.385 44.1774 272.639 44.1774C272.893 44.1774 273.111 44.2686 273.293 44.4508C273.482 44.6266 273.576 44.8414 273.576 45.0953C273.576 45.3557 273.485 45.5737 273.303 45.7495C273.127 45.9252 272.906 46.0131 272.639 46.0131C272.378 46.0131 272.157 45.9252 271.975 45.7495C271.799 45.5737 271.711 45.3557 271.711 45.0953ZM272.014 57.1346V48.4737H273.254V57.1346H272.014Z" fill="black"/>
<path d="M276.607 57.1346V48.4737H277.749V49.8114C278.101 49.2581 278.531 48.8448 279.038 48.5714C279.553 48.2915 280.142 48.1515 280.806 48.1515C281.789 48.1515 282.553 48.4249 283.1 48.9717C283.647 49.5185 283.92 50.2801 283.92 51.2565V57.1346H282.7V51.7936C282.7 50.9278 282.518 50.2866 282.153 49.87C281.795 49.4469 281.239 49.2353 280.483 49.2353C279.566 49.2353 278.889 49.5087 278.452 50.0555C278.023 50.5958 277.808 51.4486 277.808 52.6138V57.1346H276.607Z" fill="black"/>
<path d="M294.714 48.4737V55.6309C294.714 56.7701 294.681 57.6391 294.616 58.238C294.558 58.8369 294.457 59.2828 294.314 59.5757C294.014 60.2202 293.555 60.6986 292.937 61.0111C292.318 61.33 291.537 61.4895 290.593 61.4895C289.441 61.4895 288.543 61.2649 287.898 60.8158C287.261 60.3731 286.873 59.6994 286.736 58.7946H288.24C288.338 59.3284 288.592 59.7319 289.002 60.0053C289.418 60.2787 289.981 60.4154 290.691 60.4154C291.225 60.4154 291.703 60.3211 292.126 60.1323C292.556 59.9435 292.878 59.6831 293.093 59.3511C293.236 59.1363 293.337 58.8857 293.396 58.5993C293.461 58.3194 293.493 57.8832 293.493 57.2909V55.5333C293.226 56.1517 292.816 56.6367 292.263 56.9882C291.716 57.3397 291.088 57.5155 290.379 57.5155C289.161 57.5155 288.188 57.0923 287.459 56.2461C286.736 55.3999 286.375 54.2639 286.375 52.8384C286.375 51.4258 286.746 50.2931 287.488 49.4404C288.23 48.5811 289.213 48.1515 290.437 48.1515C291.121 48.1515 291.739 48.3305 292.292 48.6885C292.852 49.0401 293.253 49.5087 293.493 50.0946V48.4737H294.714ZM290.574 49.2549C289.676 49.2549 288.966 49.5771 288.445 50.2215C287.931 50.8595 287.674 51.7383 287.674 52.8579C287.674 53.971 287.918 54.84 288.406 55.465C288.901 56.0834 289.584 56.3926 290.457 56.3926C291.381 56.3926 292.12 56.0638 292.673 55.4064C293.233 54.7489 293.513 53.8636 293.513 52.7505C293.513 51.6569 293.253 50.8009 292.732 50.1825C292.211 49.5641 291.492 49.2549 290.574 49.2549Z" fill="black"/>
<path d="M307.62 57.6912L302.025 42.8397H303.519L307.64 54.4788L311.975 42.8397H313.401L307.62 57.6912Z" fill="black"/>
<path d="M314.655 45.0953C314.655 44.8414 314.746 44.6266 314.928 44.4508C315.11 44.2686 315.328 44.1774 315.582 44.1774C315.836 44.1774 316.054 44.2686 316.236 44.4508C316.425 44.6266 316.52 44.8414 316.52 45.0953C316.52 45.3557 316.428 45.5737 316.246 45.7495C316.07 45.9252 315.849 46.0131 315.582 46.0131C315.322 46.0131 315.1 45.9252 314.918 45.7495C314.742 45.5737 314.655 45.3557 314.655 45.0953ZM314.957 57.1346V48.4737H316.197V57.1346H314.957Z" fill="black"/>
<path d="M318.564 55.5919L319.707 54.9377C319.895 55.4194 320.169 55.7839 320.527 56.0313C320.885 56.2721 321.324 56.3926 321.845 56.3926C322.353 56.3926 322.756 56.2656 323.056 56.0118C323.355 55.7514 323.505 55.4064 323.505 54.9767C323.505 54.3128 322.916 53.7497 321.738 53.2875C321.614 53.242 321.516 53.2029 321.445 53.1703C320.533 52.8123 319.895 52.4445 319.531 52.067C319.166 51.6829 318.984 51.211 318.984 50.6512C318.984 49.9156 319.244 49.3135 319.765 48.8448C320.286 48.3696 320.96 48.132 321.786 48.132C322.489 48.132 323.088 48.2849 323.583 48.5909C324.078 48.8968 324.439 49.333 324.667 49.8993L323.563 50.5145C323.427 50.1044 323.199 49.7919 322.88 49.5771C322.561 49.3623 322.17 49.2549 321.708 49.2549C321.292 49.2549 320.947 49.3785 320.673 49.6259C320.406 49.8668 320.273 50.1695 320.273 50.534C320.273 50.892 320.406 51.1882 320.673 51.4225C320.94 51.6569 321.493 51.914 322.333 52.1939C323.284 52.5259 323.922 52.8872 324.247 53.2778C324.579 53.6683 324.745 54.2086 324.745 54.8986C324.745 55.6928 324.462 56.3275 323.895 56.8027C323.329 57.2779 322.568 57.5155 321.611 57.5155C320.875 57.5155 320.24 57.3495 319.707 57.0175C319.179 56.679 318.799 56.2038 318.564 55.5919Z" fill="black"/>
<path d="M327.024 45.0953C327.024 44.8414 327.115 44.6266 327.297 44.4508C327.48 44.2686 327.698 44.1774 327.952 44.1774C328.205 44.1774 328.423 44.2686 328.606 44.4508C328.795 44.6266 328.889 44.8414 328.889 45.0953C328.889 45.3557 328.798 45.5737 328.616 45.7495C328.44 45.9252 328.218 46.0131 327.952 46.0131C327.691 46.0131 327.47 45.9252 327.288 45.7495C327.112 45.5737 327.024 45.3557 327.024 45.0953ZM327.327 57.1346V48.4737H328.567V57.1346H327.327Z" fill="black"/>
<path d="M335.894 56.3926C336.844 56.3926 337.648 56.0508 338.306 55.3673C338.97 54.6773 339.302 53.8343 339.302 52.8384C339.302 51.8294 338.973 50.9831 338.315 50.2996C337.658 49.6161 336.851 49.2744 335.894 49.2744C334.943 49.2744 334.14 49.6161 333.482 50.2996C332.825 50.9831 332.496 51.8294 332.496 52.8384C332.496 53.8343 332.825 54.6773 333.482 55.3673C334.14 56.0508 334.943 56.3926 335.894 56.3926ZM335.855 57.5155C335.236 57.5155 334.644 57.3918 334.078 57.1444C333.511 56.9036 332.997 56.5553 332.535 56.0996C332.099 55.67 331.767 55.1753 331.539 54.6155C331.311 54.0556 331.197 53.4568 331.197 52.8188C331.197 52.1874 331.314 51.5885 331.549 51.0222C331.783 50.4559 332.118 49.9546 332.554 49.5185C332.997 49.0759 333.502 48.7374 334.068 48.503C334.634 48.2687 335.23 48.1515 335.855 48.1515C336.493 48.1515 337.098 48.2687 337.671 48.503C338.25 48.7374 338.765 49.0759 339.214 49.5185C339.663 49.9611 340.005 50.4656 340.239 51.032C340.48 51.5983 340.6 52.1939 340.6 52.8188C340.6 53.4437 340.483 54.0394 340.249 54.6057C340.014 55.1655 339.676 55.6635 339.233 56.0996C338.778 56.5553 338.257 56.9036 337.671 57.1444C337.092 57.3918 336.486 57.5155 335.855 57.5155Z" fill="black"/>
<path d="M343.153 57.1346V48.4737H344.295V49.8114C344.647 49.2581 345.076 48.8448 345.584 48.5714C346.098 48.2915 346.687 48.1515 347.351 48.1515C348.334 48.1515 349.099 48.4249 349.646 48.9717C350.193 49.5185 350.466 50.2801 350.466 51.2565V57.1346H349.246V51.7936C349.246 50.9278 349.063 50.2866 348.699 49.87C348.341 49.4469 347.784 49.2353 347.029 49.2353C346.111 49.2353 345.434 49.5087 344.998 50.0555C344.568 50.5958 344.354 51.4486 344.354 52.6138V57.1346H343.153Z" fill="black"/>
<path d="M354.2 52.8969C354.2 54.0166 354.451 54.8791 354.952 55.4845C355.46 56.0899 356.182 56.3926 357.119 56.3926C358.031 56.3926 358.747 56.0638 359.268 55.4064C359.795 54.7424 360.058 53.8311 360.058 52.6724C360.058 51.6113 359.798 50.7781 359.277 50.1727C358.757 49.5608 358.044 49.2549 357.139 49.2549C356.234 49.2549 355.518 49.5803 354.991 50.2313C354.464 50.8757 354.2 51.7643 354.2 52.8969ZM360.039 57.1346V55.5528C359.753 56.1908 359.349 56.679 358.828 57.0175C358.314 57.3495 357.705 57.5155 357.002 57.5155C355.759 57.5155 354.756 57.0891 353.995 56.2363C353.24 55.3836 352.862 54.2574 352.862 52.8579C352.862 51.4714 353.236 50.342 353.985 49.4697C354.734 48.5909 355.7 48.1515 356.885 48.1515C357.621 48.1515 358.255 48.3142 358.789 48.6397C359.329 48.9587 359.746 49.4306 360.039 50.0555V48.4737H361.24V57.1346H360.039Z" fill="black"/>
<path d="M365.726 50.2118C366.168 49.4632 366.601 48.9326 367.024 48.6202C367.454 48.3077 367.952 48.1515 368.518 48.1515C368.688 48.1515 368.857 48.1678 369.026 48.2003C369.202 48.2329 369.374 48.2784 369.544 48.337L369.153 49.4697C369.023 49.4306 368.886 49.3981 368.743 49.372C368.606 49.346 368.473 49.333 368.342 49.333C367.62 49.333 367.002 49.6715 366.487 50.3485C365.98 51.0255 365.726 51.8684 365.726 52.8774V57.1346H364.525V48.4737H365.726V50.2118Z" fill="black"/>
<path d="M370.67 45.0953C370.67 44.8414 370.761 44.6266 370.944 44.4508C371.126 44.2686 371.344 44.1774 371.598 44.1774C371.852 44.1774 372.07 44.2686 372.252 44.4508C372.441 44.6266 372.535 44.8414 372.535 45.0953C372.535 45.3557 372.444 45.5737 372.262 45.7495C372.086 45.9252 371.865 46.0131 371.598 46.0131C371.338 46.0131 371.116 45.9252 370.934 45.7495C370.758 45.5737 370.67 45.3557 370.67 45.0953ZM370.973 57.1346V48.4737H372.213V57.1346H370.973Z" fill="black"/>
<path d="M381.581 51.8131C381.522 51.0189 381.259 50.4038 380.79 49.9677C380.321 49.5315 379.687 49.3135 378.886 49.3135C378.157 49.3135 377.545 49.5413 377.05 49.997C376.562 50.4526 376.279 51.058 376.201 51.8131H381.581ZM383.007 52.8384H376.123C376.155 53.958 376.435 54.8368 376.962 55.4747C377.49 56.1127 378.196 56.4316 379.081 56.4316C379.719 56.4316 380.279 56.2591 380.761 55.9141C381.242 55.5691 381.643 55.0483 381.962 54.3518L383.065 54.9572C382.622 55.836 382.079 56.4837 381.434 56.9003C380.797 57.3104 380.012 57.5155 379.081 57.5155C377.812 57.5155 376.783 57.0923 375.996 56.2461C375.215 55.3933 374.824 54.277 374.824 52.8969C374.824 51.4779 375.211 50.3322 375.986 49.4599C376.767 48.5876 377.786 48.1515 379.042 48.1515C380.24 48.1515 381.2 48.5551 381.923 49.3623C382.645 50.1629 383.007 51.2338 383.007 52.5747V52.8384Z" fill="black"/>
<path d="M384.582 55.5919L385.725 54.9377C385.914 55.4194 386.187 55.7839 386.545 56.0313C386.903 56.2721 387.343 56.3926 387.863 56.3926C388.371 56.3926 388.775 56.2656 389.074 56.0118C389.373 55.7514 389.523 55.4064 389.523 54.9767C389.523 54.3128 388.934 53.7497 387.756 53.2875C387.632 53.242 387.535 53.2029 387.463 53.1703C386.552 52.8123 385.914 52.4445 385.549 52.067C385.185 51.6829 385.002 51.211 385.002 50.6512C385.002 49.9156 385.263 49.3135 385.783 48.8448C386.304 48.3696 386.978 48.132 387.805 48.132C388.508 48.132 389.107 48.2849 389.601 48.5909C390.096 48.8968 390.457 49.333 390.685 49.8993L389.582 50.5145C389.445 50.1044 389.217 49.7919 388.898 49.5771C388.579 49.3623 388.189 49.2549 387.727 49.2549C387.31 49.2549 386.965 49.3785 386.692 49.6259C386.425 49.8668 386.291 50.1695 386.291 50.534C386.291 50.892 386.425 51.1882 386.692 51.4225C386.958 51.6569 387.512 51.914 388.351 52.1939C389.302 52.5259 389.94 52.8872 390.265 53.2778C390.597 53.6683 390.763 54.2086 390.763 54.8986C390.763 55.6928 390.48 56.3275 389.914 56.8027C389.347 57.2779 388.586 57.5155 387.629 57.5155C386.893 57.5155 386.259 57.3495 385.725 57.0175C385.198 56.679 384.817 56.2038 384.582 55.5919Z" fill="black"/>
<path d="M399.647 52.8969C399.647 54.0166 399.897 54.8791 400.399 55.4845C400.906 56.0899 401.629 56.3926 402.566 56.3926C403.478 56.3926 404.194 56.0638 404.714 55.4064C405.242 54.7424 405.505 53.8311 405.505 52.6724C405.505 51.6113 405.245 50.7781 404.724 50.1727C404.203 49.5608 403.491 49.2549 402.586 49.2549C401.681 49.2549 400.965 49.5803 400.438 50.2313C399.91 50.8757 399.647 51.7643 399.647 52.8969ZM405.486 57.1346V55.5528C405.199 56.1908 404.796 56.679 404.275 57.0175C403.761 57.3495 403.152 57.5155 402.449 57.5155C401.206 57.5155 400.203 57.0891 399.442 56.2363C398.687 55.3836 398.309 54.2574 398.309 52.8579C398.309 51.4714 398.683 50.342 399.432 49.4697C400.181 48.5909 401.147 48.1515 402.332 48.1515C403.068 48.1515 403.702 48.3142 404.236 48.6397C404.776 48.9587 405.193 49.4306 405.486 50.0555V48.4737H406.687V57.1346H405.486Z" fill="black"/>
<path d="M409.972 57.1346V48.4737H411.114V49.8114C411.466 49.2581 411.895 48.8448 412.403 48.5714C412.917 48.2915 413.506 48.1515 414.17 48.1515C415.153 48.1515 415.918 48.4249 416.465 48.9717C417.012 49.5185 417.285 50.2801 417.285 51.2565V57.1346H416.064V51.7936C416.064 50.9278 415.882 50.2866 415.518 49.87C415.16 49.4469 414.603 49.2353 413.848 49.2353C412.93 49.2353 412.253 49.5087 411.817 50.0555C411.387 50.5958 411.173 51.4486 411.173 52.6138V57.1346H409.972Z" fill="black"/>
<path d="M421.058 52.8969C421.058 54.0166 421.309 54.8791 421.81 55.4845C422.318 56.0899 423.04 56.3926 423.977 56.3926C424.882 56.3926 425.595 56.0638 426.116 55.4064C426.637 54.7424 426.897 53.8311 426.897 52.6724C426.897 51.6113 426.64 50.7781 426.126 50.1727C425.611 49.5608 424.902 49.2549 423.997 49.2549C423.092 49.2549 422.376 49.5803 421.849 50.2313C421.322 50.8757 421.058 51.7643 421.058 52.8969ZM426.877 57.1346V55.5528C426.591 56.1973 426.191 56.6855 425.676 57.0175C425.162 57.3495 424.557 57.5155 423.86 57.5155C422.617 57.5155 421.615 57.0891 420.853 56.2363C420.098 55.3836 419.72 54.2574 419.72 52.8579C419.72 51.4714 420.095 50.342 420.843 49.4697C421.592 48.5909 422.558 48.1515 423.743 48.1515C424.479 48.1515 425.11 48.3142 425.637 48.6397C426.171 48.9587 426.585 49.4306 426.877 50.0555V42H428.098V57.1346H426.877Z" fill="black"/>
<path d="M438.368 57.1346H437.167V48.4737H438.368V49.831C438.654 49.2842 439.032 48.8675 439.501 48.5811C439.969 48.2947 440.51 48.1515 441.122 48.1515C441.753 48.1515 442.29 48.298 442.733 48.5909C443.182 48.8773 443.527 49.3004 443.768 49.8603C444.113 49.2874 444.536 48.861 445.037 48.5811C445.538 48.2947 446.121 48.1515 446.785 48.1515C447.703 48.1515 448.425 48.4314 448.953 48.9912C449.48 49.5445 449.743 50.3062 449.743 51.2761V57.1346H448.542V51.7545C448.542 50.9083 448.367 50.2704 448.015 49.8407C447.67 49.4111 447.153 49.1963 446.463 49.1963C445.636 49.1963 445.027 49.4664 444.637 50.0067C444.253 50.547 444.061 51.403 444.061 52.5747V57.1346H442.869V51.7545C442.869 50.8692 442.703 50.2215 442.371 49.8114C442.039 49.4013 441.525 49.1963 440.829 49.1963C439.982 49.1963 439.361 49.4697 438.964 50.0165C438.567 50.5633 438.368 51.416 438.368 52.5747V57.1346Z" fill="black"/>
<path d="M453.565 52.8969C453.565 54.0166 453.816 54.8791 454.317 55.4845C454.825 56.0899 455.547 56.3926 456.485 56.3926C457.396 56.3926 458.112 56.0638 458.633 55.4064C459.16 54.7424 459.424 53.8311 459.424 52.6724C459.424 51.6113 459.163 50.7781 458.643 50.1727C458.122 49.5608 457.409 49.2549 456.504 49.2549C455.599 49.2549 454.883 49.5803 454.356 50.2313C453.829 50.8757 453.565 51.7643 453.565 52.8969ZM459.404 57.1346V55.5528C459.118 56.1908 458.714 56.679 458.193 57.0175C457.679 57.3495 457.071 57.5155 456.368 57.5155C455.124 57.5155 454.122 57.0891 453.36 56.2363C452.605 55.3836 452.228 54.2574 452.228 52.8579C452.228 51.4714 452.602 50.342 453.35 49.4697C454.099 48.5909 455.066 48.1515 456.25 48.1515C456.986 48.1515 457.621 48.3142 458.154 48.6397C458.695 48.9587 459.111 49.4306 459.404 50.0555V48.4737H460.605V57.1346H459.404Z" fill="black"/>
<path d="M463.89 57.1346V42H465.091V52.3111L469.407 48.4737H471.067L466.429 52.3599L471.408 57.1346H469.749L465.091 52.6528V57.1346H463.89Z" fill="black"/>
<path d="M479.126 51.8131C479.068 51.0189 478.804 50.4038 478.335 49.9677C477.867 49.5315 477.232 49.3135 476.431 49.3135C475.702 49.3135 475.09 49.5413 474.596 49.997C474.107 50.4526 473.824 51.058 473.746 51.8131H479.126ZM480.552 52.8384H473.668C473.7 53.958 473.98 54.8368 474.508 55.4747C475.035 56.1127 475.741 56.4316 476.627 56.4316C477.264 56.4316 477.824 56.2591 478.306 55.9141C478.788 55.5691 479.188 55.0483 479.507 54.3518L480.61 54.9572C480.168 55.836 479.624 56.4837 478.98 56.9003C478.342 57.3104 477.557 57.5155 476.627 57.5155C475.357 57.5155 474.329 57.0923 473.541 56.2461C472.76 55.3933 472.369 54.277 472.369 52.8969C472.369 51.4779 472.757 50.3322 473.531 49.4599C474.312 48.5876 475.331 48.1515 476.587 48.1515C477.785 48.1515 478.745 48.5551 479.468 49.3623C480.19 50.1629 480.552 51.2338 480.552 52.5747V52.8384Z" fill="black"/>
<path d="M484.315 50.2118C484.758 49.4632 485.19 48.9326 485.614 48.6202C486.043 48.3077 486.541 48.1515 487.107 48.1515C487.277 48.1515 487.446 48.1678 487.615 48.2003C487.791 48.2329 487.964 48.2784 488.133 48.337L487.742 49.4697C487.612 49.4306 487.475 49.3981 487.332 49.372C487.195 49.346 487.062 49.333 486.932 49.333C486.209 49.333 485.591 49.6715 485.077 50.3485C484.569 51.0255 484.315 51.8684 484.315 52.8774V57.1346H483.114V48.4737H484.315V50.2118Z" fill="black"/>
<path d="M488.498 55.5919L489.64 54.9377C489.829 55.4194 490.103 55.7839 490.461 56.0313C490.819 56.2721 491.258 56.3926 491.779 56.3926C492.286 56.3926 492.69 56.2656 492.99 56.0118C493.289 55.7514 493.439 55.4064 493.439 54.9767C493.439 54.3128 492.85 53.7497 491.671 53.2875C491.548 53.242 491.45 53.2029 491.378 53.1703C490.467 52.8123 489.829 52.4445 489.465 52.067C489.1 51.6829 488.918 51.211 488.918 50.6512C488.918 49.9156 489.178 49.3135 489.699 48.8448C490.22 48.3696 490.893 48.132 491.72 48.132C492.423 48.132 493.022 48.2849 493.517 48.5909C494.011 48.8968 494.373 49.333 494.601 49.8993L493.497 50.5145C493.361 50.1044 493.133 49.7919 492.814 49.5771C492.495 49.3623 492.104 49.2549 491.642 49.2549C491.225 49.2549 490.88 49.3785 490.607 49.6259C490.34 49.8668 490.207 50.1695 490.207 50.534C490.207 50.892 490.34 51.1882 490.607 51.4225C490.874 51.6569 491.427 51.914 492.267 52.1939C493.217 52.5259 493.855 52.8872 494.181 53.2778C494.513 53.6683 494.679 54.2086 494.679 54.8986C494.679 55.6928 494.396 56.3275 493.829 56.8027C493.263 57.2779 492.501 57.5155 491.544 57.5155C490.809 57.5155 490.174 57.3495 489.64 57.0175C489.113 56.679 488.732 56.2038 488.498 55.5919Z" fill="black"/>
<path d="M503.289 56.3144C503.289 56.0345 503.383 55.8002 503.572 55.6114C503.767 55.4161 504.005 55.3185 504.285 55.3185C504.565 55.3185 504.799 55.4161 504.988 55.6114C505.183 55.8002 505.281 56.0345 505.281 56.3144C505.281 56.5944 505.183 56.832 504.988 57.0272C504.799 57.216 504.565 57.3104 504.285 57.3104C504.005 57.3104 503.767 57.216 503.572 57.0272C503.383 56.832 503.289 56.5944 503.289 56.3144Z" fill="black"/>
<path d="M514.77 42.8397H516.049V52.1744C516.049 53.587 516.371 54.6382 517.016 55.3283C517.66 56.0118 518.646 56.3535 519.974 56.3535C521.283 56.3535 522.259 56.0118 522.903 55.3283C523.548 54.6382 523.87 53.587 523.87 52.1744V42.8397H525.169V51.7545C525.169 53.6879 524.739 55.133 523.88 56.0899C523.021 57.0403 521.719 57.5155 519.974 57.5155C518.223 57.5155 516.918 57.0403 516.059 56.0899C515.199 55.133 514.77 53.6879 514.77 51.7545V42.8397Z" fill="black"/>
<path d="M528.561 57.1346V48.4737H529.703V49.8114C530.055 49.2581 530.484 48.8448 530.992 48.5714C531.506 48.2915 532.095 48.1515 532.759 48.1515C533.742 48.1515 534.507 48.4249 535.054 48.9717C535.601 49.5185 535.874 50.2801 535.874 51.2565V57.1346H534.654V51.7936C534.654 50.9278 534.471 50.2866 534.107 49.87C533.749 49.4469 533.192 49.2353 532.437 49.2353C531.519 49.2353 530.842 49.5087 530.406 50.0555C529.977 50.5958 529.762 51.4486 529.762 52.6138V57.1346H528.561Z" fill="black"/>
<path d="M538.827 45.0953C538.827 44.8414 538.918 44.6266 539.1 44.4508C539.283 44.2686 539.501 44.1774 539.755 44.1774C540.008 44.1774 540.227 44.2686 540.409 44.4508C540.598 44.6266 540.692 44.8414 540.692 45.0953C540.692 45.3557 540.601 45.5737 540.419 45.7495C540.243 45.9252 540.021 46.0131 539.755 46.0131C539.494 46.0131 539.273 45.9252 539.091 45.7495C538.915 45.5737 538.827 45.3557 538.827 45.0953ZM539.13 57.1346V48.4737H540.37V57.1346H539.13Z" fill="black"/>
<path d="M543.977 49.499H542.385V48.4737H543.977V44.9195H545.158V48.4737H546.896V49.499H545.158V57.1346H543.977V49.499Z" fill="black"/>
<path d="M548.521 45.0953C548.521 44.8414 548.612 44.6266 548.794 44.4508C548.977 44.2686 549.195 44.1774 549.449 44.1774C549.702 44.1774 549.92 44.2686 550.103 44.4508C550.292 44.6266 550.386 44.8414 550.386 45.0953C550.386 45.3557 550.295 45.5737 550.113 45.7495C549.937 45.9252 549.715 46.0131 549.449 46.0131C549.188 46.0131 548.967 45.9252 548.785 45.7495C548.609 45.5737 548.521 45.3557 548.521 45.0953ZM548.824 57.1346V48.4737H550.064V57.1346H548.824Z" fill="black"/>
<path d="M553.417 57.1346V48.4737H554.559V49.8114C554.911 49.2581 555.34 48.8448 555.848 48.5714C556.362 48.2915 556.951 48.1515 557.615 48.1515C558.598 48.1515 559.363 48.4249 559.91 48.9717C560.457 49.5185 560.73 50.2801 560.73 51.2565V57.1346H559.51V51.7936C559.51 50.9278 559.327 50.2866 558.963 49.87C558.605 49.4469 558.048 49.2353 557.293 49.2353C556.375 49.2353 555.698 49.5087 555.262 50.0555C554.833 50.5958 554.618 51.4486 554.618 52.6138V57.1346H553.417Z" fill="black"/>
<path d="M571.524 48.4737V55.6309C571.524 56.7701 571.491 57.6391 571.426 58.238C571.367 58.8369 571.267 59.2828 571.123 59.5757C570.824 60.2202 570.365 60.6986 569.747 61.0111C569.128 61.33 568.347 61.4895 567.403 61.4895C566.251 61.4895 565.353 61.2649 564.708 60.8158C564.07 60.3731 563.683 59.6994 563.546 58.7946H565.05C565.148 59.3284 565.401 59.7319 565.812 60.0053C566.228 60.2787 566.791 60.4154 567.501 60.4154C568.035 60.4154 568.513 60.3211 568.936 60.1323C569.366 59.9435 569.688 59.6831 569.903 59.3511C570.046 59.1363 570.147 58.8857 570.205 58.5993C570.271 58.3194 570.303 57.8832 570.303 57.2909V55.5333C570.036 56.1517 569.626 56.6367 569.073 56.9882C568.526 57.3397 567.898 57.5155 567.188 57.5155C565.971 57.5155 564.998 57.0923 564.269 56.2461C563.546 55.3999 563.185 54.2639 563.185 52.8384C563.185 51.4258 563.556 50.2931 564.298 49.4404C565.04 48.5811 566.023 48.1515 567.247 48.1515C567.93 48.1515 568.549 48.3305 569.102 48.6885C569.662 49.0401 570.062 49.5087 570.303 50.0946V48.4737H571.524ZM567.384 49.2549C566.485 49.2549 565.776 49.5771 565.255 50.2215C564.741 50.8595 564.484 51.7383 564.484 52.8579C564.484 53.971 564.728 54.84 565.216 55.465C565.711 56.0834 566.394 56.3926 567.266 56.3926C568.191 56.3926 568.93 56.0638 569.483 55.4064C570.043 54.7489 570.323 53.8636 570.323 52.7505C570.323 51.6569 570.062 50.8009 569.542 50.1825C569.021 49.5641 568.301 49.2549 567.384 49.2549Z" fill="black"/>
<path d="M584.43 57.6912L578.835 42.8397H580.329L584.45 54.4788L588.785 42.8397H590.211L584.43 57.6912Z" fill="black"/>
<path d="M591.464 45.0953C591.464 44.8414 591.555 44.6266 591.738 44.4508C591.92 44.2686 592.138 44.1774 592.392 44.1774C592.646 44.1774 592.864 44.2686 593.046 44.4508C593.235 44.6266 593.329 44.8414 593.329 45.0953C593.329 45.3557 593.238 45.5737 593.056 45.7495C592.88 45.9252 592.659 46.0131 592.392 46.0131C592.132 46.0131 591.91 45.9252 591.728 45.7495C591.552 45.5737 591.464 45.3557 591.464 45.0953ZM591.767 57.1346V48.4737H593.007V57.1346H591.767Z" fill="black"/>
<path d="M595.374 55.5919L596.516 54.9377C596.705 55.4194 596.979 55.7839 597.337 56.0313C597.695 56.2721 598.134 56.3926 598.655 56.3926C599.162 56.3926 599.566 56.2656 599.866 56.0118C600.165 55.7514 600.315 55.4064 600.315 54.9767C600.315 54.3128 599.726 53.7497 598.547 53.2875C598.424 53.242 598.326 53.2029 598.254 53.1703C597.343 52.8123 596.705 52.4445 596.341 52.067C595.976 51.6829 595.794 51.211 595.794 50.6512C595.794 49.9156 596.054 49.3135 596.575 48.8448C597.096 48.3696 597.769 48.132 598.596 48.132C599.299 48.132 599.898 48.2849 600.393 48.5909C600.887 48.8968 601.249 49.333 601.477 49.8993L600.373 50.5145C600.237 50.1044 600.009 49.7919 599.69 49.5771C599.371 49.3623 598.98 49.2549 598.518 49.2549C598.101 49.2549 597.756 49.3785 597.483 49.6259C597.216 49.8668 597.083 50.1695 597.083 50.534C597.083 50.892 597.216 51.1882 597.483 51.4225C597.75 51.6569 598.303 51.914 599.143 52.1939C600.093 52.5259 600.731 52.8872 601.057 53.2778C601.389 53.6683 601.555 54.2086 601.555 54.8986C601.555 55.6928 601.272 56.3275 600.705 56.8027C600.139 57.2779 599.377 57.5155 598.42 57.5155C597.685 57.5155 597.05 57.3495 596.516 57.0175C595.989 56.679 595.608 56.2038 595.374 55.5919Z" fill="black"/>
<path d="M603.834 45.0953C603.834 44.8414 603.925 44.6266 604.107 44.4508C604.289 44.2686 604.507 44.1774 604.761 44.1774C605.015 44.1774 605.233 44.2686 605.415 44.4508C605.604 44.6266 605.699 44.8414 605.699 45.0953C605.699 45.3557 605.608 45.5737 605.425 45.7495C605.25 45.9252 605.028 46.0131 604.761 46.0131C604.501 46.0131 604.28 45.9252 604.097 45.7495C603.922 45.5737 603.834 45.3557 603.834 45.0953ZM604.136 57.1346V48.4737H605.376V57.1346H604.136Z" fill="black"/>
<path d="M612.704 56.3926C613.654 56.3926 614.458 56.0508 615.115 55.3673C615.779 54.6773 616.111 53.8343 616.111 52.8384C616.111 51.8294 615.783 50.9831 615.125 50.2996C614.468 49.6161 613.66 49.2744 612.704 49.2744C611.753 49.2744 610.949 49.6161 610.292 50.2996C609.634 50.9831 609.306 51.8294 609.306 52.8384C609.306 53.8343 609.634 54.6773 610.292 55.3673C610.949 56.0508 611.753 56.3926 612.704 56.3926ZM612.665 57.5155C612.046 57.5155 611.454 57.3918 610.887 57.1444C610.321 56.9036 609.807 56.5553 609.345 56.0996C608.909 55.67 608.577 55.1753 608.349 54.6155C608.121 54.0556 608.007 53.4568 608.007 52.8188C608.007 52.1874 608.124 51.5885 608.358 51.0222C608.593 50.4559 608.928 49.9546 609.364 49.5185C609.807 49.0759 610.311 48.7374 610.878 48.503C611.444 48.2687 612.04 48.1515 612.665 48.1515C613.302 48.1515 613.908 48.2687 614.481 48.503C615.06 48.7374 615.574 49.0759 616.023 49.5185C616.473 49.9611 616.814 50.4656 617.049 51.032C617.29 51.5983 617.41 52.1939 617.41 52.8188C617.41 53.4437 617.293 54.0394 617.058 54.6057C616.824 55.1655 616.486 55.6635 616.043 56.0996C615.587 56.5553 615.067 56.9036 614.481 57.1444C613.901 57.3918 613.296 57.5155 612.665 57.5155Z" fill="black"/>
<path d="M619.962 57.1346V48.4737H621.105V49.8114C621.456 49.2581 621.886 48.8448 622.394 48.5714C622.908 48.2915 623.497 48.1515 624.161 48.1515C625.144 48.1515 625.909 48.4249 626.456 48.9717C627.002 49.5185 627.276 50.2801 627.276 51.2565V57.1346H626.055V51.7936C626.055 50.9278 625.873 50.2866 625.508 49.87C625.15 49.4469 624.594 49.2353 623.839 49.2353C622.921 49.2353 622.244 49.5087 621.808 50.0555C621.378 50.5958 621.163 51.4486 621.163 52.6138V57.1346H619.962Z" fill="black"/>
<path d="M631.01 52.8969C631.01 54.0166 631.26 54.8791 631.762 55.4845C632.269 56.0899 632.992 56.3926 633.929 56.3926C634.841 56.3926 635.557 56.0638 636.077 55.4064C636.605 54.7424 636.868 53.8311 636.868 52.6724C636.868 51.6113 636.608 50.7781 636.087 50.1727C635.566 49.5608 634.854 49.2549 633.949 49.2549C633.044 49.2549 632.328 49.5803 631.801 50.2313C631.273 50.8757 631.01 51.7643 631.01 52.8969ZM636.849 57.1346V55.5528C636.562 56.1908 636.159 56.679 635.638 57.0175C635.124 57.3495 634.515 57.5155 633.812 57.5155C632.569 57.5155 631.566 57.0891 630.805 56.2363C630.05 55.3836 629.672 54.2574 629.672 52.8579C629.672 51.4714 630.046 50.342 630.795 49.4697C631.543 48.5909 632.51 48.1515 633.695 48.1515C634.43 48.1515 635.065 48.3142 635.599 48.6397C636.139 48.9587 636.556 49.4306 636.849 50.0555V48.4737H638.05V57.1346H636.849Z" fill="black"/>
<path d="M642.535 50.2118C642.978 49.4632 643.411 48.9326 643.834 48.6202C644.264 48.3077 644.762 48.1515 645.328 48.1515C645.497 48.1515 645.667 48.1678 645.836 48.2003C646.012 48.2329 646.184 48.2784 646.353 48.337L645.963 49.4697C645.833 49.4306 645.696 49.3981 645.553 49.372C645.416 49.346 645.282 49.333 645.152 49.333C644.43 49.333 643.811 49.6715 643.297 50.3485C642.789 51.0255 642.535 51.8684 642.535 52.8774V57.1346H641.334V48.4737H642.535V50.2118Z" fill="black"/>
<path d="M647.48 45.0953C647.48 44.8414 647.571 44.6266 647.753 44.4508C647.936 44.2686 648.154 44.1774 648.408 44.1774C648.662 44.1774 648.88 44.2686 649.062 44.4508C649.251 44.6266 649.345 44.8414 649.345 45.0953C649.345 45.3557 649.254 45.5737 649.072 45.7495C648.896 45.9252 648.675 46.0131 648.408 46.0131C648.147 46.0131 647.926 45.9252 647.744 45.7495C647.568 45.5737 647.48 45.3557 647.48 45.0953ZM647.783 57.1346V48.4737H649.023V57.1346H647.783Z" fill="black"/>
<path d="M658.391 51.8131C658.332 51.0189 658.068 50.4038 657.6 49.9677C657.131 49.5315 656.496 49.3135 655.696 49.3135C654.967 49.3135 654.355 49.5413 653.86 49.997C653.372 50.4526 653.089 51.058 653.011 51.8131H658.391ZM659.816 52.8384H652.932C652.965 53.958 653.245 54.8368 653.772 55.4747C654.299 56.1127 655.006 56.4316 655.891 56.4316C656.529 56.4316 657.089 56.2591 657.57 55.9141C658.052 55.5691 658.453 55.0483 658.772 54.3518L659.875 54.9572C659.432 55.836 658.889 56.4837 658.244 56.9003C657.606 57.3104 656.822 57.5155 655.891 57.5155C654.622 57.5155 653.593 57.0923 652.806 56.2461C652.024 55.3933 651.634 54.277 651.634 52.8969C651.634 51.4779 652.021 50.3322 652.796 49.4599C653.577 48.5876 654.596 48.1515 655.852 48.1515C657.05 48.1515 658.01 48.5551 658.732 49.3623C659.455 50.1629 659.816 51.2338 659.816 52.5747V52.8384Z" fill="black"/>
<path d="M661.392 55.5919L662.535 54.9377C662.723 55.4194 662.997 55.7839 663.355 56.0313C663.713 56.2721 664.152 56.3926 664.673 56.3926C665.181 56.3926 665.584 56.2656 665.884 56.0118C666.183 55.7514 666.333 55.4064 666.333 54.9767C666.333 54.3128 665.744 53.7497 664.566 53.2875C664.442 53.242 664.344 53.2029 664.273 53.1703C663.361 52.8123 662.723 52.4445 662.359 52.067C661.994 51.6829 661.812 51.211 661.812 50.6512C661.812 49.9156 662.072 49.3135 662.593 48.8448C663.114 48.3696 663.788 48.132 664.614 48.132C665.317 48.132 665.916 48.2849 666.411 48.5909C666.906 48.8968 667.267 49.333 667.495 49.8993L666.392 50.5145C666.255 50.1044 666.027 49.7919 665.708 49.5771C665.389 49.3623 664.999 49.2549 664.536 49.2549C664.12 49.2549 663.775 49.3785 663.501 49.6259C663.234 49.8668 663.101 50.1695 663.101 50.534C663.101 50.892 663.234 51.1882 663.501 51.4225C663.768 51.6569 664.322 51.914 665.161 52.1939C666.112 52.5259 666.75 52.8872 667.075 53.2778C667.407 53.6683 667.573 54.2086 667.573 54.8986C667.573 55.6928 667.29 56.3275 666.724 56.8027C666.157 57.2779 665.396 57.5155 664.439 57.5155C663.703 57.5155 663.068 57.3495 662.535 57.0175C662.007 56.679 661.627 56.2038 661.392 55.5919Z" fill="black"/>
<path d="M676.457 52.8969C676.457 54.0166 676.707 54.8791 677.208 55.4845C677.716 56.0899 678.439 56.3926 679.376 56.3926C680.287 56.3926 681.003 56.0638 681.524 55.4064C682.052 54.7424 682.315 53.8311 682.315 52.6724C682.315 51.6113 682.055 50.7781 681.534 50.1727C681.013 49.5608 680.3 49.2549 679.396 49.2549C678.491 49.2549 677.775 49.5803 677.247 50.2313C676.72 50.8757 676.457 51.7643 676.457 52.8969ZM682.296 57.1346V55.5528C682.009 56.1908 681.606 56.679 681.085 57.0175C680.571 57.3495 679.962 57.5155 679.259 57.5155C678.016 57.5155 677.013 57.0891 676.252 56.2363C675.496 55.3836 675.119 54.2574 675.119 52.8579C675.119 51.4714 675.493 50.342 676.242 49.4697C676.99 48.5909 677.957 48.1515 679.142 48.1515C679.877 48.1515 680.512 48.3142 681.046 48.6397C681.586 48.9587 682.003 49.4306 682.296 50.0555V48.4737H683.497V57.1346H682.296Z" fill="black"/>
<path d="M686.781 57.1346V48.4737H687.924V49.8114C688.275 49.2581 688.705 48.8448 689.213 48.5714C689.727 48.2915 690.316 48.1515 690.98 48.1515C691.963 48.1515 692.728 48.4249 693.275 48.9717C693.821 49.5185 694.095 50.2801 694.095 51.2565V57.1346H692.874V51.7936C692.874 50.9278 692.692 50.2866 692.327 49.87C691.969 49.4469 691.413 49.2353 690.658 49.2353C689.74 49.2353 689.063 49.5087 688.627 50.0555C688.197 50.5958 687.982 51.4486 687.982 52.6138V57.1346H686.781Z" fill="black"/>
<path d="M697.868 52.8969C697.868 54.0166 698.118 54.8791 698.62 55.4845C699.127 56.0899 699.85 56.3926 700.787 56.3926C701.692 56.3926 702.405 56.0638 702.926 55.4064C703.446 54.7424 703.707 53.8311 703.707 52.6724C703.707 51.6113 703.45 50.7781 702.935 50.1727C702.421 49.5608 701.712 49.2549 700.807 49.2549C699.902 49.2549 699.186 49.5803 698.659 50.2313C698.131 50.8757 697.868 51.7643 697.868 52.8969ZM703.687 57.1346V55.5528C703.401 56.1973 703 56.6855 702.486 57.0175C701.972 57.3495 701.367 57.5155 700.67 57.5155C699.427 57.5155 698.424 57.0891 697.663 56.2363C696.908 55.3836 696.53 54.2574 696.53 52.8579C696.53 51.4714 696.904 50.342 697.653 49.4697C698.401 48.5909 699.368 48.1515 700.553 48.1515C701.288 48.1515 701.92 48.3142 702.447 48.6397C702.981 48.9587 703.394 49.4306 703.687 50.0555V42H704.908V57.1346H703.687Z" fill="black"/>
<path d="M715.178 57.1346H713.977V48.4737H715.178V49.831C715.464 49.2842 715.842 48.8675 716.31 48.5811C716.779 48.2947 717.319 48.1515 717.931 48.1515C718.563 48.1515 719.1 48.298 719.542 48.5909C719.992 48.8773 720.337 49.3004 720.577 49.8603C720.922 49.2874 721.346 48.861 721.847 48.5811C722.348 48.2947 722.931 48.1515 723.595 48.1515C724.512 48.1515 725.235 48.4314 725.762 48.9912C726.29 49.5445 726.553 50.3062 726.553 51.2761V57.1346H725.352V51.7545C725.352 50.9083 725.176 50.2704 724.825 49.8407C724.48 49.4111 723.962 49.1963 723.272 49.1963C722.446 49.1963 721.837 49.4664 721.447 50.0067C721.062 50.547 720.87 51.403 720.87 52.5747V57.1346H719.679V51.7545C719.679 50.8692 719.513 50.2215 719.181 49.8114C718.849 49.4013 718.335 49.1963 717.638 49.1963C716.792 49.1963 716.171 49.4697 715.773 50.0165C715.376 50.5633 715.178 51.416 715.178 52.5747V57.1346Z" fill="black"/>
<path d="M730.375 52.8969C730.375 54.0166 730.626 54.8791 731.127 55.4845C731.635 56.0899 732.357 56.3926 733.294 56.3926C734.206 56.3926 734.922 56.0638 735.443 55.4064C735.97 54.7424 736.234 53.8311 736.234 52.6724C736.234 51.6113 735.973 50.7781 735.452 50.1727C734.932 49.5608 734.219 49.2549 733.314 49.2549C732.409 49.2549 731.693 49.5803 731.166 50.2313C730.639 50.8757 730.375 51.7643 730.375 52.8969ZM736.214 57.1346V55.5528C735.928 56.1908 735.524 56.679 735.003 57.0175C734.489 57.3495 733.88 57.5155 733.177 57.5155C731.934 57.5155 730.932 57.0891 730.17 56.2363C729.415 55.3836 729.037 54.2574 729.037 52.8579C729.037 51.4714 729.412 50.342 730.16 49.4697C730.909 48.5909 731.875 48.1515 733.06 48.1515C733.796 48.1515 734.43 48.3142 734.964 48.6397C735.504 48.9587 735.921 49.4306 736.214 50.0555V48.4737H737.415V57.1346H736.214Z" fill="black"/>
<path d="M740.7 57.1346V42H741.901V52.3111L746.217 48.4737H747.876L743.238 52.3599L748.218 57.1346H746.558L741.901 52.6528V57.1346H740.7Z" fill="black"/>
<path d="M755.936 51.8131C755.877 51.0189 755.614 50.4038 755.145 49.9677C754.676 49.5315 754.042 49.3135 753.241 49.3135C752.512 49.3135 751.9 49.5413 751.405 49.997C750.917 50.4526 750.634 51.058 750.556 51.8131H755.936ZM757.362 52.8384H750.478C750.51 53.958 750.79 54.8368 751.317 55.4747C751.845 56.1127 752.551 56.4316 753.436 56.4316C754.074 56.4316 754.634 56.2591 755.116 55.9141C755.597 55.5691 755.998 55.0483 756.317 54.3518L757.42 54.9572C756.977 55.836 756.434 56.4837 755.789 56.9003C755.152 57.3104 754.367 57.5155 753.436 57.5155C752.167 57.5155 751.138 57.0923 750.351 56.2461C749.57 55.3933 749.179 54.277 749.179 52.8969C749.179 51.4779 749.566 50.3322 750.341 49.4599C751.122 48.5876 752.141 48.1515 753.397 48.1515C754.595 48.1515 755.555 48.5551 756.278 49.3623C757 50.1629 757.362 51.2338 757.362 52.5747V52.8384Z" fill="black"/>
<path d="M761.125 50.2118C761.567 49.4632 762 48.9326 762.423 48.6202C762.853 48.3077 763.351 48.1515 763.917 48.1515C764.086 48.1515 764.256 48.1678 764.425 48.2003C764.601 48.2329 764.773 48.2784 764.943 48.337L764.552 49.4697C764.422 49.4306 764.285 49.3981 764.142 49.372C764.005 49.346 763.872 49.333 763.742 49.333C763.019 49.333 762.401 49.6715 761.886 50.3485C761.379 51.0255 761.125 51.8684 761.125 52.8774V57.1346H759.924V48.4737H761.125V50.2118Z" fill="black"/>
<path d="M765.308 55.5919L766.45 54.9377C766.639 55.4194 766.912 55.7839 767.27 56.0313C767.628 56.2721 768.068 56.3926 768.589 56.3926C769.096 56.3926 769.5 56.2656 769.799 56.0118C770.099 55.7514 770.248 55.4064 770.248 54.9767C770.248 54.3128 769.659 53.7497 768.481 53.2875C768.357 53.242 768.26 53.2029 768.188 53.1703C767.277 52.8123 766.639 52.4445 766.274 52.067C765.91 51.6829 765.728 51.211 765.728 50.6512C765.728 49.9156 765.988 49.3135 766.509 48.8448C767.029 48.3696 767.703 48.132 768.53 48.132C769.233 48.132 769.832 48.2849 770.327 48.5909C770.821 48.8968 771.183 49.333 771.41 49.8993L770.307 50.5145C770.17 50.1044 769.943 49.7919 769.624 49.5771C769.305 49.3623 768.914 49.2549 768.452 49.2549C768.035 49.2549 767.69 49.3785 767.417 49.6259C767.15 49.8668 767.016 50.1695 767.016 50.534C767.016 50.892 767.15 51.1882 767.417 51.4225C767.684 51.6569 768.237 51.914 769.077 52.1939C770.027 52.5259 770.665 52.8872 770.991 53.2778C771.323 53.6683 771.489 54.2086 771.489 54.8986C771.489 55.6928 771.205 56.3275 770.639 56.8027C770.073 57.2779 769.311 57.5155 768.354 57.5155C767.619 57.5155 766.984 57.3495 766.45 57.0175C765.923 56.679 765.542 56.2038 765.308 55.5919Z" fill="black"/>
</g>
<defs>
<clipPath id="clip0_869_459">
<rect width="768" height="103" fill="white"/>
</clipPath>
</defs>
</svg>
