<?xml version="1.0" encoding="utf-8"?>
<!-- Generator: Adobe Illustrator 27.9.0, SVG Export Plug-In . SVG Version: 6.00 Build 0)  -->
<svg version="1.1" id="Layer_1" xmlns="http://www.w3.org/2000/svg" xmlns:xlink="http://www.w3.org/1999/xlink" x="0px" y="0px"
	 viewBox="0 0 1280 103" style="enable-background:new 0 0 1920 103;" xml:space="preserve" height="50px">
<style type="text/css">
	.st0{fill:#D9E167;}
</style>
<g>
	<path class="st0" d="M0,22.2v53.1h1920V22.2H0z"/>
	<g>
		<path d="M3.5,46.5v2c-0.3-0.8-0.8-1.4-1.6-1.8c-0.6-0.3-1.2-0.5-2-0.6v2.5c0.1,0,0.2,0,0.3,0c1.1,0,1.9,0.4,2.5,1.1
			c0.6,0.7,0.9,1.7,0.9,3c0,1.2-0.3,2.3-1,3c-0.6,0.8-1.5,1.2-2.5,1.2c-0.1,0-0.1,0-0.2,0v2.5c0.7-0.1,1.3-0.2,1.8-0.5
			c0.7-0.3,1.2-0.9,1.8-1.6v1.6h2.8V46.5H3.5z"/>
		<path d="M16.2,46.2c-0.4-0.1-0.8-0.1-1.2-0.1c-0.7,0-1.3,0.2-1.8,0.6c-0.5,0.4-0.9,1-1.2,1.8v-2H9.2v12.3H12v-5.4
			c0-1.8,0.2-3,0.6-3.8c0.4-0.8,1.1-1.1,2-1.1c0.3,0,0.7,0,0.9,0.1c0.3,0.1,0.5,0.2,0.8,0.4l1-2.4C17,46.5,16.6,46.3,16.2,46.2z"/>
		<path d="M20.7,39.9c-0.3-0.3-0.8-0.5-1.2-0.5c-0.5,0-0.9,0.2-1.3,0.5c-0.3,0.3-0.5,0.8-0.5,1.2c0,0.5,0.2,0.9,0.5,1.3
			c0.3,0.3,0.8,0.5,1.3,0.5s0.9-0.2,1.2-0.5c0.3-0.3,0.5-0.8,0.5-1.3C21.2,40.7,21,40.3,20.7,39.9z M18,46.5v12.3h2.8V46.5H18z"/>
		<path d="M35.7,52.5c0-2-0.5-3.6-1.7-4.8c-1.1-1.1-2.7-1.7-4.6-1.7c-1.9,0-3.5,0.6-4.7,1.9c-1.2,1.2-1.8,2.8-1.8,4.8
			c0,2,0.6,3.6,1.8,4.8c1.2,1.2,2.7,1.8,4.7,1.8c1.4,0,2.6-0.3,3.6-0.9c1-0.6,1.9-1.5,2.6-2.8l-2.4-1.3c-0.4,0.8-1,1.5-1.6,1.8
			c-0.6,0.4-1.4,0.6-2.3,0.6c-1,0-1.8-0.3-2.5-1c-0.6-0.7-1-1.6-1-2.7h9.8V52.5z M26,51.2c0.2-0.9,0.6-1.6,1.2-2
			c0.6-0.5,1.3-0.7,2.2-0.7c1,0,1.8,0.2,2.3,0.7c0.6,0.5,0.9,1.1,1,2H26z"/>
		<path d="M45.3,53.3c-0.5-0.6-1.3-1.1-2.4-1.5c-0.2-0.1-0.6-0.2-1.1-0.4c-1.5-0.5-2.2-1.1-2.2-1.8c0-0.4,0.2-0.8,0.5-1
			c0.3-0.2,0.8-0.4,1.3-0.4c0.5,0,0.9,0.1,1.3,0.3c0.4,0.2,0.6,0.5,0.8,0.9l2-1.4c-0.3-0.7-0.8-1.2-1.5-1.5
			c-0.7-0.4-1.5-0.5-2.5-0.5c-1.4,0-2.6,0.3-3.4,1c-0.9,0.7-1.3,1.6-1.3,2.7c0,0.8,0.3,1.5,0.8,2c0.5,0.6,1.4,1.1,2.8,1.7
			c0.2,0.1,0.6,0.2,1,0.4c1.3,0.5,1.9,1,1.9,1.7c0,0.5-0.2,0.9-0.5,1.2c-0.4,0.3-0.9,0.4-1.5,0.4c-0.7,0-1.3-0.2-1.8-0.5
			c-0.5-0.3-0.8-0.8-1-1.4l-2.3,1.3c0.5,0.9,1.1,1.6,1.9,2.1c0.8,0.4,1.8,0.7,3,0.7c1.6,0,2.8-0.4,3.7-1c0.9-0.7,1.3-1.7,1.3-2.9
			C46,54.5,45.8,53.8,45.3,53.3z"/>
		<path d="M63.5,46.5v2c-0.3-0.8-0.9-1.4-1.6-1.8c-0.7-0.4-1.6-0.6-2.6-0.6c-1.7,0-3,0.6-4,1.8c-1,1.2-1.5,2.8-1.5,4.8
			c0,2.1,0.5,3.7,1.5,4.9s2.4,1.8,4.1,1.8c0.9,0,1.6-0.2,2.3-0.5c0.7-0.3,1.3-0.9,1.8-1.6v1.6h2.8V46.5H63.5z M62.7,55.7
			c-0.6,0.8-1.5,1.2-2.5,1.2c-1.1,0-1.9-0.4-2.5-1.1c-0.6-0.7-0.9-1.7-0.9-3c0-1.3,0.3-2.3,0.9-3c0.6-0.7,1.5-1.1,2.5-1.1
			c1.1,0,1.9,0.4,2.5,1.1c0.6,0.7,0.9,1.7,0.9,3C63.6,53.9,63.3,54.9,62.7,55.7z"/>
		<path d="M80.9,49c-0.1-0.5-0.2-0.8-0.5-1.2c-0.4-0.6-0.9-1-1.5-1.3c-0.6-0.3-1.4-0.4-2.3-0.4c-1.1,0-2,0.2-2.8,0.6
			c-0.8,0.4-1.4,1-2,1.9v-2h-2.6v12.3H72v-5.6c0-1,0-1.8,0.1-2.2c0.1-0.5,0.2-0.8,0.4-1.1c0.3-0.4,0.7-0.8,1.2-1
			c0.5-0.2,1.1-0.4,1.8-0.4c1,0,1.7,0.3,2.1,0.8c0.4,0.5,0.6,1.6,0.6,3.2v6.3H81v-7.5C81,50.2,81,49.4,80.9,49z"/>
		<path d="M92.5,38.7v9.8c-0.3-0.8-0.8-1.4-1.6-1.8c-0.7-0.4-1.6-0.6-2.6-0.6c-1.6,0-3,0.6-4,1.8c-1,1.2-1.5,2.8-1.5,4.8
			c0,2.1,0.5,3.7,1.5,4.9s2.4,1.8,4.1,1.8c0.9,0,1.6-0.2,2.3-0.5c0.7-0.3,1.3-0.9,1.8-1.6v1.6h2.8V38.7H92.5z M91.6,55.7
			c-0.6,0.8-1.5,1.2-2.5,1.2c-1.1,0-1.9-0.4-2.5-1.1c-0.6-0.7-0.9-1.7-0.9-3c0-1.3,0.3-2.3,0.9-3s1.5-1.1,2.5-1.1
			c1.1,0,1.9,0.4,2.5,1.1c0.6,0.7,0.9,1.7,0.9,3C92.6,53.9,92.3,54.9,91.6,55.7z"/>
		<path d="M121.2,39l-5.5,12c-0.1,0.1-0.1,0.3-0.2,0.5c-0.4,0.8-0.7,1.5-0.8,2.1c-0.2-0.7-0.5-1.2-0.7-1.6c-0.2-0.4-0.3-0.8-0.4-0.9
			L108,39l-4.5,19.8h2.8l2-9.4c0.1-0.5,0.2-0.9,0.2-1.4c0.1-0.4,0.1-0.9,0.1-1.2c0.1,0.4,0.2,0.8,0.4,1.2c0.2,0.4,0.3,0.8,0.5,1.2
			l5,10.3l5-10.1c0.2-0.5,0.4-0.9,0.5-1.3c0.1-0.4,0.2-0.9,0.3-1.3c0.1,0.4,0.1,0.8,0.2,1.4c0.1,0.7,0.1,1.1,0.2,1.2l2.1,9.4h2.9
			L121.2,39z"/>
		<path d="M135.7,46.5v2c-0.3-0.8-0.8-1.4-1.6-1.8c-0.7-0.4-1.6-0.6-2.6-0.6c-1.6,0-3,0.6-4,1.8c-1,1.2-1.5,2.8-1.5,4.8
			c0,2.1,0.5,3.7,1.5,4.9s2.4,1.8,4.1,1.8c0.9,0,1.6-0.2,2.3-0.5c0.7-0.3,1.3-0.9,1.8-1.6v1.6h2.8V46.5H135.7z M134.9,55.7
			c-0.6,0.8-1.5,1.2-2.5,1.2c-1.1,0-1.9-0.4-2.5-1.1c-0.6-0.7-0.9-1.7-0.9-3c0-1.3,0.3-2.3,0.9-3c0.6-0.7,1.5-1.1,2.5-1.1
			c1.1,0,1.9,0.4,2.5,1.1c0.6,0.7,0.9,1.7,0.9,3C135.8,53.9,135.5,54.9,134.9,55.7z"/>
		<path d="M147.2,51.9l5.6-5.4h-3.5l-5.2,5.1V38.7h-2.8v20.1h2.8v-6.4l5.5,6.4h3.6L147.2,51.9z"/>
		<path d="M165.9,52.5c0-2-0.5-3.6-1.7-4.8c-1.1-1.1-2.7-1.7-4.6-1.7c-1.9,0-3.5,0.6-4.7,1.9c-1.2,1.2-1.8,2.8-1.8,4.8
			c0,2,0.6,3.6,1.8,4.8c1.2,1.2,2.7,1.8,4.7,1.8c1.4,0,2.6-0.3,3.6-0.9c1-0.6,1.9-1.5,2.6-2.8l-2.4-1.3c-0.5,0.8-1,1.5-1.6,1.8
			c-0.6,0.4-1.4,0.6-2.3,0.6c-1,0-1.8-0.3-2.5-1c-0.6-0.7-1-1.6-1-2.7h9.8V52.5z M156.2,51.2c0.2-0.9,0.6-1.6,1.2-2
			c0.6-0.5,1.3-0.7,2.2-0.7c1,0,1.8,0.2,2.3,0.7c0.6,0.5,0.9,1.1,1,2H156.2z"/>
		<path d="M174.8,46.2c-0.4-0.1-0.8-0.1-1.2-0.1c-0.7,0-1.3,0.2-1.8,0.6c-0.5,0.4-0.9,1-1.2,1.8v-2h-2.8v12.3h2.8v-5.4
			c0-1.8,0.2-3,0.6-3.8c0.4-0.8,1.1-1.1,2-1.1c0.3,0,0.7,0,0.9,0.1c0.3,0.1,0.5,0.2,0.8,0.4l1-2.4C175.6,46.5,175.2,46.3,174.8,46.2
			z"/>
		<path d="M184.2,53.3c-0.5-0.6-1.3-1.1-2.4-1.5c-0.2-0.1-0.6-0.2-1.1-0.4c-1.5-0.5-2.2-1.1-2.2-1.8c0-0.4,0.2-0.8,0.5-1
			c0.3-0.2,0.8-0.4,1.3-0.4c0.5,0,0.9,0.1,1.3,0.3c0.4,0.2,0.6,0.5,0.8,0.9l2-1.4c-0.3-0.7-0.8-1.2-1.5-1.5
			c-0.7-0.4-1.5-0.5-2.4-0.5c-1.4,0-2.6,0.3-3.4,1c-0.9,0.7-1.3,1.6-1.3,2.7c0,0.8,0.3,1.5,0.8,2s1.4,1.1,2.8,1.7
			c0.2,0.1,0.6,0.2,1,0.4c1.3,0.5,1.9,1,1.9,1.7c0,0.5-0.2,0.9-0.5,1.2c-0.4,0.3-0.9,0.4-1.5,0.4c-0.7,0-1.3-0.2-1.8-0.5
			c-0.5-0.3-0.8-0.8-1-1.4l-2.3,1.3c0.5,0.9,1.1,1.6,1.9,2.1c0.8,0.4,1.8,0.7,3,0.7c1.6,0,2.8-0.4,3.7-1c0.9-0.7,1.3-1.7,1.3-2.9
			C185,54.5,184.7,53.8,184.2,53.3z"/>
		<path d="M202.3,50.2c-0.8-0.7-1.6-1.1-2.7-1.1s-2,0.4-2.7,1.1c-0.8,0.7-1.1,1.7-1.1,2.7s0.4,2,1.1,2.7c0.7,0.8,1.6,1.1,2.7,1.1
			c1,0,2-0.4,2.7-1.1c0.8-0.8,1.1-1.7,1.1-2.7S203,51,202.3,50.2z"/>
		<path d="M227.9,39.8v11.5c0,1.7-0.4,3-1.2,3.9c-0.8,0.9-2,1.3-3.5,1.3c-1.6,0-2.8-0.4-3.5-1.3c-0.8-0.9-1.2-2.1-1.2-3.9V39.8h-3.1
			v11.8c0,2.6,0.7,4.5,1.9,5.8c1.3,1.3,3.2,1.9,5.9,1.9c2.6,0,4.6-0.6,5.9-1.9c1.3-1.3,1.9-3.2,1.9-5.8V39.8H227.9z"/>
		<path d="M245.7,49c-0.1-0.5-0.2-0.8-0.5-1.2c-0.4-0.6-0.9-1-1.5-1.3c-0.6-0.3-1.4-0.4-2.3-0.4c-1.1,0-2,0.2-2.8,0.6
			c-0.8,0.4-1.4,1-2,1.9v-2H234v12.3h2.8v-5.6c0-1,0-1.8,0.1-2.2c0.1-0.5,0.2-0.8,0.4-1.1c0.3-0.4,0.7-0.8,1.2-1
			c0.5-0.2,1.1-0.4,1.8-0.4c1,0,1.7,0.3,2.1,0.8c0.4,0.5,0.6,1.6,0.6,3.2v6.3h2.8v-7.5C245.9,50.2,245.8,49.4,245.7,49z"/>
		<path d="M251.3,39.9c-0.3-0.3-0.8-0.5-1.2-0.5c-0.5,0-0.9,0.2-1.2,0.5c-0.4,0.3-0.5,0.8-0.5,1.2c0,0.5,0.2,0.9,0.5,1.3
			c0.3,0.3,0.8,0.5,1.2,0.5s0.9-0.2,1.2-0.5c0.3-0.3,0.5-0.8,0.5-1.3C251.8,40.7,251.7,40.3,251.3,39.9z M248.7,46.5v12.3h2.8V46.5
			H248.7z"/>
		<path d="M257.9,46.5v-4.7h-2.8v4.7H253V49h2.2v9.8h2.8V49h2.2v-2.5H257.9z"/>
		<path d="M264.2,39.9c-0.3-0.3-0.8-0.5-1.3-0.5c-0.5,0-0.9,0.2-1.2,0.5c-0.3,0.3-0.5,0.8-0.5,1.2c0,0.5,0.2,0.9,0.5,1.3
			c0.4,0.3,0.8,0.5,1.2,0.5c0.5,0,0.9-0.2,1.2-0.5c0.3-0.3,0.5-0.8,0.5-1.3C264.8,40.7,264.6,40.3,264.2,39.9z M261.6,46.5v12.3h2.8
			V46.5H261.6z"/>
		<path d="M279.1,49c-0.1-0.5-0.2-0.8-0.5-1.2c-0.4-0.6-0.9-1-1.5-1.3c-0.6-0.3-1.4-0.4-2.3-0.4c-1.1,0-2,0.2-2.8,0.6
			c-0.8,0.4-1.4,1-2,1.9v-2h-2.7v12.3h2.8v-5.6c0-1,0-1.8,0.1-2.2c0.1-0.5,0.2-0.8,0.4-1.1c0.3-0.4,0.7-0.8,1.2-1
			c0.5-0.2,1.1-0.4,1.8-0.4c1,0,1.7,0.3,2.1,0.8c0.4,0.5,0.6,1.6,0.6,3.2v6.3h2.8v-7.5C279.2,50.2,279.2,49.4,279.1,49z"/>
		<path d="M290.7,46.5v2c-0.3-0.8-0.8-1.4-1.6-1.8c-0.7-0.4-1.6-0.6-2.6-0.6c-1.6,0-3,0.6-4,1.8c-1,1.2-1.5,2.8-1.5,4.8
			c0,2.1,0.5,3.7,1.5,4.9s2.4,1.8,4.1,1.8c0.9,0,1.6-0.2,2.3-0.5c0.7-0.3,1.2-0.9,1.8-1.6l0,1.6c0,1.2-0.3,2.1-0.8,2.7
			c-0.5,0.5-1.4,0.8-2.6,0.8c-0.8,0-1.5-0.1-1.9-0.4c-0.4-0.3-0.7-0.7-0.7-1.2l-3,0c0,1.2,0.5,2.1,1.5,2.8c1,0.7,2.4,1.1,4.1,1.1
			c2.3,0,3.9-0.5,4.8-1.5c1-1,1.4-2.7,1.4-5.1V46.5H290.7z M289.8,55.7c-0.6,0.8-1.5,1.2-2.5,1.2c-1.1,0-1.9-0.4-2.5-1.1
			c-0.6-0.7-0.9-1.7-0.9-3c0-1.3,0.3-2.3,0.9-3s1.4-1.1,2.5-1.1c1.1,0,1.9,0.4,2.5,1.1c0.6,0.7,0.9,1.7,0.9,3
			C290.8,53.9,290.5,54.9,289.8,55.7z"/>
		<path d="M314.9,39.8l-4.2,10.1c-0.2,0.5-0.4,1.1-0.6,1.6c-0.2,0.5-0.3,1-0.4,1.5c-0.1-0.5-0.2-0.9-0.4-1.4c-0.2-0.5-0.4-1-0.6-1.6
			l-4.3-10.1h-3.2l8.5,19.7l8.5-19.7H314.9z"/>
		<path d="M321.5,39.9c-0.3-0.3-0.8-0.5-1.2-0.5c-0.5,0-0.9,0.2-1.2,0.5c-0.3,0.3-0.5,0.8-0.5,1.2c0,0.5,0.2,0.9,0.5,1.3
			c0.3,0.3,0.8,0.5,1.2,0.5c0.5,0,0.9-0.2,1.2-0.5c0.3-0.3,0.5-0.8,0.5-1.3C322,40.7,321.8,40.3,321.5,39.9z M318.8,46.5v12.3h2.8
			V46.5H318.8z"/>
		<path d="M332.3,53.3c-0.5-0.6-1.3-1.1-2.4-1.5c-0.3-0.1-0.6-0.2-1.1-0.4c-1.5-0.5-2.2-1.1-2.2-1.8c0-0.4,0.2-0.8,0.5-1
			c0.3-0.2,0.8-0.4,1.3-0.4c0.5,0,0.9,0.1,1.3,0.3c0.4,0.2,0.6,0.5,0.8,0.9l2-1.4c-0.3-0.7-0.8-1.2-1.5-1.5
			c-0.7-0.4-1.5-0.5-2.4-0.5c-1.4,0-2.6,0.3-3.4,1c-0.9,0.7-1.3,1.6-1.3,2.7c0,0.8,0.3,1.5,0.8,2c0.5,0.6,1.4,1.1,2.8,1.7
			c0.2,0.1,0.6,0.2,1,0.4c1.3,0.5,1.9,1,1.9,1.7c0,0.5-0.2,0.9-0.5,1.2c-0.4,0.3-0.9,0.4-1.5,0.4c-0.7,0-1.3-0.2-1.8-0.5
			c-0.5-0.3-0.8-0.8-1-1.4l-2.3,1.3c0.4,0.9,1.1,1.6,1.9,2.1c0.8,0.4,1.8,0.7,3,0.7c1.6,0,2.8-0.4,3.7-1c0.9-0.7,1.3-1.7,1.3-2.9
			C333,54.5,332.8,53.8,332.3,53.3z"/>
		<path d="M337.6,39.9c-0.3-0.3-0.8-0.5-1.3-0.5c-0.5,0-0.9,0.2-1.2,0.5c-0.3,0.3-0.5,0.8-0.5,1.2c0,0.5,0.2,0.9,0.5,1.3
			c0.4,0.3,0.8,0.5,1.2,0.5c0.5,0,0.9-0.2,1.2-0.5c0.3-0.3,0.5-0.8,0.5-1.3C338.1,40.7,338,40.3,337.6,39.9z M335,46.5v12.3h2.8
			V46.5H335z"/>
		<path d="M352.9,50.2c-0.3-0.8-0.8-1.5-1.5-2.1c-0.7-0.6-1.4-1.1-2.2-1.5c-0.8-0.3-1.7-0.5-2.6-0.5c-0.9,0-1.8,0.2-2.6,0.5
			c-0.8,0.3-1.5,0.8-2.2,1.4c-0.6,0.6-1.1,1.3-1.5,2.1c-0.3,0.8-0.5,1.7-0.5,2.5c0,0.9,0.2,1.8,0.5,2.5c0.3,0.8,0.8,1.5,1.5,2.2
			c0.6,0.6,1.4,1.1,2.2,1.5c0.8,0.3,1.7,0.5,2.6,0.5c0.9,0,1.8-0.2,2.6-0.5c0.8-0.3,1.6-0.8,2.2-1.5c0.6-0.6,1.1-1.3,1.5-2.1
			c0.3-0.8,0.5-1.6,0.5-2.6C353.4,51.8,353.2,51,352.9,50.2z M349.3,55.6c-0.7,0.8-1.6,1.2-2.7,1.2c-1.1,0-2-0.4-2.7-1.2
			c-0.7-0.8-1.1-1.8-1.1-2.9c0-1.2,0.4-2.1,1.1-2.9c0.7-0.8,1.6-1.2,2.7-1.2c1.1,0,2,0.4,2.7,1.2c0.7,0.8,1.1,1.8,1.1,2.9
			C350.4,53.8,350,54.8,349.3,55.6z"/>
		<path d="M367,49c-0.1-0.5-0.2-0.8-0.5-1.2c-0.4-0.6-0.9-1-1.5-1.3c-0.6-0.3-1.4-0.4-2.3-0.4c-1.1,0-2,0.2-2.8,0.6
			c-0.8,0.4-1.4,1-2,1.9v-2h-2.7v12.3h2.8v-5.6c0-1,0-1.8,0.1-2.2c0.1-0.5,0.2-0.8,0.4-1.1c0.3-0.4,0.7-0.8,1.2-1
			c0.5-0.2,1.1-0.4,1.8-0.4c1,0,1.7,0.3,2.1,0.8c0.4,0.5,0.6,1.6,0.6,3.2v6.3h2.8v-7.5C367.2,50.2,367.1,49.4,367,49z"/>
		<path d="M378.6,46.5v2c-0.3-0.8-0.8-1.4-1.6-1.8c-0.7-0.4-1.6-0.6-2.6-0.6c-1.6,0-3,0.6-4,1.8c-1,1.2-1.5,2.8-1.5,4.8
			c0,2.1,0.5,3.7,1.5,4.9s2.4,1.8,4.1,1.8c0.9,0,1.6-0.2,2.3-0.5c0.7-0.3,1.3-0.9,1.8-1.6v1.6h2.8V46.5H378.6z M377.8,55.7
			c-0.6,0.8-1.5,1.2-2.5,1.2c-1.1,0-1.9-0.4-2.5-1.1c-0.6-0.7-0.9-1.7-0.9-3c0-1.3,0.3-2.3,0.9-3s1.5-1.1,2.5-1.1
			c1.1,0,1.9,0.4,2.5,1.1c0.6,0.7,0.9,1.7,0.9,3C378.7,53.9,378.4,54.9,377.8,55.7z"/>
		<path d="M391.3,46.2c-0.4-0.1-0.8-0.1-1.2-0.1c-0.7,0-1.3,0.2-1.8,0.6c-0.5,0.4-0.9,1-1.2,1.8v-2h-2.8v12.3h2.8v-5.4
			c0-1.8,0.2-3,0.6-3.8c0.4-0.8,1.1-1.1,2-1.1c0.3,0,0.7,0,0.9,0.1c0.3,0.1,0.5,0.2,0.8,0.4l1-2.4C392.1,46.5,391.7,46.3,391.3,46.2
			z"/>
		<path d="M395.8,39.9c-0.3-0.3-0.8-0.5-1.2-0.5c-0.5,0-0.9,0.2-1.2,0.5c-0.4,0.3-0.5,0.8-0.5,1.2c0,0.5,0.2,0.9,0.5,1.3
			c0.3,0.3,0.8,0.5,1.2,0.5c0.5,0,0.9-0.2,1.2-0.5c0.3-0.3,0.5-0.8,0.5-1.3C396.3,40.7,396.1,40.3,395.8,39.9z M393.1,46.5v12.3h2.8
			V46.5H393.1z"/>
		<path d="M410.8,52.5c0-2-0.6-3.6-1.7-4.8c-1.1-1.1-2.7-1.7-4.6-1.7c-1.9,0-3.4,0.6-4.7,1.9c-1.2,1.2-1.8,2.8-1.8,4.8
			c0,2,0.6,3.6,1.8,4.8c1.2,1.2,2.7,1.8,4.7,1.8c1.4,0,2.6-0.3,3.6-0.9c1-0.6,1.9-1.5,2.6-2.8l-2.4-1.3c-0.5,0.8-1,1.5-1.6,1.8
			c-0.6,0.4-1.4,0.6-2.3,0.6c-1,0-1.8-0.3-2.5-1c-0.6-0.7-1-1.6-1-2.7h9.8V52.5z M401.1,51.2c0.2-0.9,0.6-1.6,1.2-2
			c0.6-0.5,1.3-0.7,2.2-0.7c1,0,1.8,0.2,2.3,0.7c0.6,0.5,0.9,1.1,1,2H401.1z"/>
		<path d="M420.4,53.3c-0.5-0.6-1.3-1.1-2.4-1.5c-0.2-0.1-0.6-0.2-1.1-0.4c-1.4-0.5-2.2-1.1-2.2-1.8c0-0.4,0.2-0.8,0.5-1
			c0.3-0.2,0.8-0.4,1.3-0.4c0.5,0,0.9,0.1,1.3,0.3c0.4,0.2,0.6,0.5,0.8,0.9l2-1.4c-0.3-0.7-0.8-1.2-1.5-1.5
			c-0.7-0.4-1.5-0.5-2.4-0.5c-1.4,0-2.6,0.3-3.4,1c-0.9,0.7-1.3,1.6-1.3,2.7c0,0.8,0.3,1.5,0.8,2c0.5,0.6,1.4,1.1,2.8,1.7
			c0.2,0.1,0.6,0.2,1,0.4c1.3,0.5,1.9,1,1.9,1.7c0,0.5-0.2,0.9-0.5,1.2c-0.4,0.3-0.8,0.4-1.5,0.4c-0.7,0-1.3-0.2-1.8-0.5
			c-0.5-0.3-0.8-0.8-1-1.4l-2.3,1.3c0.5,0.9,1.1,1.6,1.9,2.1c0.8,0.4,1.8,0.7,3,0.7c1.6,0,2.8-0.4,3.7-1c0.9-0.7,1.3-1.7,1.3-2.9
			C421.1,54.5,420.9,53.8,420.4,53.3z"/>
		<path d="M438.6,46.5v2c-0.3-0.8-0.9-1.4-1.6-1.8c-0.7-0.4-1.6-0.6-2.6-0.6c-1.6,0-3,0.6-4,1.8c-1,1.2-1.5,2.8-1.5,4.8
			c0,2.1,0.5,3.7,1.5,4.9s2.4,1.8,4.1,1.8c0.9,0,1.6-0.2,2.3-0.5c0.7-0.3,1.3-0.9,1.8-1.6v1.6h2.8V46.5H438.6z M437.7,55.7
			c-0.6,0.8-1.5,1.2-2.5,1.2c-1.1,0-1.9-0.4-2.5-1.1c-0.6-0.7-0.9-1.7-0.9-3c0-1.3,0.3-2.3,0.9-3c0.6-0.7,1.4-1.1,2.5-1.1
			c1.1,0,1.9,0.4,2.5,1.1c0.6,0.7,0.9,1.7,0.9,3C438.7,53.9,438.4,54.9,437.7,55.7z"/>
		<path d="M456,49c-0.1-0.5-0.2-0.8-0.5-1.2c-0.4-0.6-0.9-1-1.5-1.3c-0.6-0.3-1.4-0.4-2.3-0.4c-1.1,0-2,0.2-2.8,0.6
			c-0.8,0.4-1.4,1-2,1.9v-2h-2.7v12.3h2.8v-5.6c0-1,0-1.8,0.1-2.2s0.2-0.8,0.4-1.1c0.3-0.4,0.7-0.8,1.2-1c0.5-0.2,1.1-0.4,1.8-0.4
			c1,0,1.7,0.3,2.1,0.8c0.4,0.5,0.6,1.6,0.6,3.2v6.3h2.8v-7.5C456.1,50.2,456.1,49.4,456,49z"/>
		<path d="M467.6,38.7v9.8c-0.3-0.8-0.8-1.4-1.6-1.8c-0.7-0.4-1.6-0.6-2.6-0.6c-1.6,0-3,0.6-4,1.8c-1,1.2-1.5,2.8-1.5,4.8
			c0,2.1,0.5,3.7,1.5,4.9c1,1.2,2.4,1.8,4.1,1.8c0.9,0,1.6-0.2,2.3-0.5c0.7-0.3,1.2-0.9,1.8-1.6v1.6h2.8V38.7H467.6z M466.7,55.7
			c-0.6,0.8-1.5,1.2-2.5,1.2c-1.1,0-1.9-0.4-2.5-1.1c-0.6-0.7-0.9-1.7-0.9-3c0-1.3,0.3-2.3,0.9-3s1.4-1.1,2.5-1.1
			c1.1,0,1.9,0.4,2.5,1.1c0.6,0.7,0.9,1.7,0.9,3C467.7,53.9,467.3,54.9,466.7,55.7z"/>
		<path d="M496.3,39l-5.5,12c0,0.1-0.1,0.3-0.2,0.5c-0.4,0.8-0.7,1.5-0.9,2.1c-0.2-0.7-0.5-1.2-0.6-1.6c-0.2-0.4-0.3-0.8-0.4-0.9
			l-5.6-12l-4.5,19.8h2.8l2-9.4c0.1-0.5,0.2-0.9,0.2-1.4c0-0.4,0.1-0.9,0.1-1.2c0.1,0.4,0.2,0.8,0.4,1.2c0.1,0.4,0.3,0.8,0.5,1.2
			l5,10.3l5-10.1c0.2-0.5,0.4-0.9,0.5-1.3c0.1-0.4,0.2-0.9,0.3-1.3c0,0.4,0.1,0.8,0.2,1.4c0.1,0.7,0.1,1.1,0.2,1.2l2.1,9.4h2.9
			L496.3,39z"/>
		<path d="M510.8,46.5v2c-0.3-0.8-0.8-1.4-1.6-1.8c-0.7-0.4-1.6-0.6-2.6-0.6c-1.6,0-3,0.6-4,1.8c-1,1.2-1.5,2.8-1.5,4.8
			c0,2.1,0.5,3.7,1.5,4.9s2.4,1.8,4.1,1.8c0.9,0,1.6-0.2,2.3-0.5c0.7-0.3,1.2-0.9,1.8-1.6v1.6h2.8V46.5H510.8z M509.9,55.7
			c-0.6,0.8-1.5,1.2-2.5,1.2c-1.1,0-1.9-0.4-2.5-1.1c-0.6-0.7-0.9-1.7-0.9-3c0-1.3,0.3-2.3,0.9-3s1.4-1.1,2.5-1.1
			c1.1,0,1.9,0.4,2.5,1.1c0.6,0.7,0.9,1.7,0.9,3C510.9,53.9,510.6,54.9,509.9,55.7z"/>
		<path d="M522.3,51.9l5.6-5.4h-3.5l-5.1,5.1V38.7h-2.8v20.1h2.8v-6.4l5.5,6.4h3.6L522.3,51.9z"/>
		<path d="M541,52.5c0-2-0.5-3.6-1.7-4.8c-1.1-1.1-2.6-1.7-4.6-1.7c-1.9,0-3.4,0.6-4.7,1.9s-1.8,2.8-1.8,4.8c0,2,0.6,3.6,1.8,4.8
			c1.2,1.2,2.7,1.8,4.7,1.8c1.4,0,2.6-0.3,3.6-0.9c1-0.6,1.9-1.5,2.6-2.8l-2.4-1.3c-0.5,0.8-1,1.5-1.6,1.8s-1.4,0.6-2.3,0.6
			c-1,0-1.8-0.3-2.4-1c-0.6-0.7-1-1.6-1-2.7h9.8V52.5z M531.3,51.2c0.2-0.9,0.6-1.6,1.2-2c0.6-0.5,1.3-0.7,2.2-0.7
			c1,0,1.7,0.2,2.3,0.7c0.6,0.5,0.9,1.1,1,2H531.3z"/>
		<path d="M549.9,46.2c-0.4-0.1-0.8-0.1-1.2-0.1c-0.7,0-1.4,0.2-1.9,0.6c-0.5,0.4-0.9,1-1.2,1.8v-2h-2.8v12.3h2.8v-5.4
			c0-1.8,0.2-3,0.6-3.8c0.4-0.8,1.1-1.1,2-1.1c0.3,0,0.7,0,0.9,0.1c0.3,0.1,0.5,0.2,0.8,0.4l1-2.4C550.6,46.5,550.3,46.3,549.9,46.2
			z"/>
		<path d="M559.3,53.3c-0.5-0.6-1.3-1.1-2.4-1.5c-0.2-0.1-0.6-0.2-1.1-0.4c-1.5-0.5-2.2-1.1-2.2-1.8c0-0.4,0.2-0.8,0.5-1
			c0.3-0.2,0.8-0.4,1.3-0.4c0.5,0,0.9,0.1,1.3,0.3c0.4,0.2,0.6,0.5,0.8,0.9l2-1.4c-0.3-0.7-0.8-1.2-1.5-1.5
			c-0.7-0.4-1.5-0.5-2.5-0.5c-1.4,0-2.6,0.3-3.4,1c-0.9,0.7-1.3,1.6-1.3,2.7c0,0.8,0.3,1.5,0.8,2c0.5,0.6,1.4,1.1,2.8,1.7
			c0.2,0.1,0.6,0.2,1,0.4c1.3,0.5,1.9,1,1.9,1.7c0,0.5-0.2,0.9-0.5,1.2c-0.4,0.3-0.9,0.4-1.5,0.4c-0.7,0-1.3-0.2-1.8-0.5
			c-0.5-0.3-0.8-0.8-1-1.4l-2.3,1.3c0.5,0.9,1.1,1.6,1.9,2.1c0.8,0.4,1.8,0.7,3,0.7c1.6,0,2.8-0.4,3.7-1c0.9-0.7,1.3-1.7,1.3-2.9
			C560,54.5,559.8,53.8,559.3,53.3z"/>
		<path d="M577.4,50.2c-0.8-0.7-1.6-1.1-2.7-1.1c-1.1,0-2,0.4-2.7,1.1c-0.8,0.7-1.1,1.7-1.1,2.7s0.4,2,1.1,2.7
			c0.7,0.8,1.7,1.1,2.7,1.1s2-0.4,2.7-1.1c0.8-0.8,1.1-1.7,1.1-2.7S578.1,51,577.4,50.2z"/>
		<path d="M603,39.8v11.5c0,1.7-0.4,3-1.2,3.9c-0.8,0.9-2,1.3-3.5,1.3s-2.8-0.4-3.5-1.3c-0.8-0.9-1.2-2.1-1.2-3.9V39.8h-3v11.8
			c0,2.6,0.6,4.5,1.9,5.8c1.3,1.3,3.2,1.9,5.8,1.9c2.6,0,4.6-0.6,5.9-1.9c1.3-1.3,2-3.2,2-5.8V39.8H603z"/>
		<path d="M620.8,49c-0.1-0.5-0.2-0.8-0.5-1.2c-0.4-0.6-0.9-1-1.5-1.3c-0.6-0.3-1.4-0.4-2.3-0.4c-1.1,0-2,0.2-2.8,0.6
			c-0.8,0.4-1.4,1-2,1.9v-2h-2.6v12.3h2.8v-5.6c0-1,0-1.8,0.1-2.2s0.2-0.8,0.4-1.1c0.3-0.4,0.7-0.8,1.2-1c0.5-0.2,1.1-0.4,1.8-0.4
			c1,0,1.7,0.3,2.1,0.8c0.4,0.5,0.6,1.6,0.6,3.2v6.3h2.9v-7.5C621,50.2,620.9,49.4,620.8,49z"/>
		<path d="M626.4,39.9c-0.3-0.3-0.8-0.5-1.2-0.5c-0.5,0-0.9,0.2-1.3,0.5c-0.3,0.3-0.5,0.8-0.5,1.2c0,0.5,0.2,0.9,0.5,1.3
			c0.4,0.3,0.8,0.5,1.3,0.5s0.9-0.2,1.2-0.5c0.3-0.3,0.5-0.8,0.5-1.3C626.9,40.7,626.8,40.3,626.4,39.9z M623.8,46.5v12.3h2.8V46.5
			H623.8z"/>
		<path d="M633,46.5v-4.7h-2.8v4.7H628V49h2.2v9.8h2.8V49h2.1v-2.5H633z"/>
		<path d="M639.3,39.9c-0.3-0.3-0.8-0.5-1.2-0.5c-0.5,0-0.9,0.2-1.2,0.5c-0.4,0.3-0.5,0.8-0.5,1.2c0,0.5,0.2,0.9,0.5,1.3
			c0.3,0.3,0.8,0.5,1.2,0.5s0.9-0.2,1.2-0.5c0.3-0.3,0.5-0.8,0.5-1.3C639.8,40.7,639.7,40.3,639.3,39.9z M636.7,46.5v12.3h2.8V46.5
			H636.7z"/>
		<path d="M654.2,49c-0.1-0.5-0.2-0.8-0.5-1.2c-0.4-0.6-0.9-1-1.5-1.3c-0.7-0.3-1.4-0.4-2.3-0.4c-1.1,0-2,0.2-2.8,0.6
			c-0.8,0.4-1.4,1-2,1.9v-2h-2.7v12.3h2.8v-5.6c0-1,0-1.8,0.1-2.2c0.1-0.5,0.2-0.8,0.4-1.1c0.3-0.4,0.7-0.8,1.2-1
			c0.5-0.2,1.1-0.4,1.8-0.4c1,0,1.7,0.3,2.1,0.8c0.4,0.5,0.6,1.6,0.6,3.2v6.3h2.8v-7.5C654.3,50.2,654.3,49.4,654.2,49z"/>
		<path d="M665.8,46.5v2c-0.3-0.8-0.9-1.4-1.6-1.8c-0.7-0.4-1.6-0.6-2.6-0.6c-1.6,0-3,0.6-4,1.8c-1,1.2-1.5,2.8-1.5,4.8
			c0,2.1,0.5,3.7,1.5,4.9s2.4,1.8,4.1,1.8c0.9,0,1.6-0.2,2.3-0.5c0.7-0.3,1.3-0.9,1.8-1.6l0,1.6c0,1.2-0.3,2.1-0.8,2.7
			c-0.5,0.5-1.4,0.8-2.6,0.8c-0.8,0-1.4-0.1-1.9-0.4c-0.5-0.3-0.7-0.7-0.7-1.2l-3,0c0,1.2,0.5,2.1,1.5,2.8c1,0.7,2.4,1.1,4.1,1.1
			c2.3,0,3.9-0.5,4.9-1.5c1-1,1.4-2.7,1.4-5.1V46.5H665.8z M664.9,55.7c-0.6,0.8-1.5,1.2-2.5,1.2c-1.1,0-1.9-0.4-2.5-1.1
			c-0.6-0.7-0.9-1.7-0.9-3c0-1.3,0.3-2.3,0.9-3c0.6-0.7,1.4-1.1,2.5-1.1c1.1,0,1.9,0.4,2.5,1.1c0.6,0.7,0.9,1.7,0.9,3
			C665.8,53.9,665.5,54.9,664.9,55.7z"/>
		<path d="M689.9,39.8l-4.2,10.1c-0.2,0.5-0.4,1.1-0.6,1.6c-0.2,0.5-0.3,1-0.4,1.5c-0.1-0.5-0.2-0.9-0.4-1.4c-0.2-0.5-0.4-1-0.6-1.6
			l-4.2-10.1h-3.2l8.5,19.7l8.5-19.7H689.9z"/>
		<path d="M696.5,39.9c-0.3-0.3-0.8-0.5-1.2-0.5c-0.5,0-0.9,0.2-1.3,0.5c-0.4,0.3-0.5,0.8-0.5,1.2c0,0.5,0.2,0.9,0.5,1.3
			c0.3,0.3,0.8,0.5,1.3,0.5c0.5,0,0.9-0.2,1.2-0.5c0.3-0.3,0.5-0.8,0.5-1.3C697,40.7,696.9,40.3,696.5,39.9z M693.9,46.5v12.3h2.8
			V46.5H693.9z"/>
		<path d="M707.4,53.3c-0.5-0.6-1.3-1.1-2.4-1.5c-0.2-0.1-0.6-0.2-1.1-0.4c-1.5-0.5-2.2-1.1-2.2-1.8c0-0.4,0.2-0.8,0.5-1
			c0.3-0.2,0.8-0.4,1.3-0.4c0.5,0,0.9,0.1,1.3,0.3c0.4,0.2,0.6,0.5,0.8,0.9l2-1.4c-0.3-0.7-0.8-1.2-1.5-1.5
			c-0.7-0.4-1.5-0.5-2.5-0.5c-1.4,0-2.6,0.3-3.4,1c-0.9,0.7-1.3,1.6-1.3,2.7c0,0.8,0.3,1.5,0.8,2c0.5,0.6,1.5,1.1,2.8,1.7
			c0.2,0.1,0.6,0.2,1,0.4c1.3,0.5,1.9,1,1.9,1.7c0,0.5-0.2,0.9-0.5,1.2c-0.4,0.3-0.9,0.4-1.5,0.4c-0.7,0-1.3-0.2-1.8-0.5
			c-0.5-0.3-0.8-0.8-1-1.4l-2.3,1.3c0.5,0.9,1.1,1.6,1.9,2.1c0.8,0.4,1.8,0.7,3,0.7c1.6,0,2.8-0.4,3.7-1c0.9-0.7,1.3-1.7,1.3-2.9
			C708.1,54.5,707.9,53.8,707.4,53.3z"/>
		<path d="M712.7,39.9c-0.3-0.3-0.8-0.5-1.2-0.5c-0.5,0-0.9,0.2-1.2,0.5c-0.3,0.3-0.5,0.8-0.5,1.2c0,0.5,0.2,0.9,0.5,1.3
			c0.3,0.3,0.8,0.5,1.2,0.5s0.9-0.2,1.2-0.5c0.3-0.3,0.5-0.8,0.5-1.3C713.2,40.7,713,40.3,712.7,39.9z M710,46.5v12.3h2.8V46.5H710z
			"/>
		<path d="M728,50.2c-0.3-0.8-0.8-1.5-1.5-2.1c-0.6-0.6-1.4-1.1-2.2-1.5c-0.8-0.3-1.7-0.5-2.6-0.5c-0.9,0-1.8,0.2-2.6,0.5
			c-0.8,0.3-1.5,0.8-2.2,1.4c-0.6,0.6-1.1,1.3-1.5,2.1c-0.3,0.8-0.5,1.7-0.5,2.5c0,0.9,0.2,1.8,0.5,2.5c0.3,0.8,0.8,1.5,1.5,2.2
			c0.6,0.6,1.4,1.1,2.2,1.5c0.8,0.3,1.7,0.5,2.6,0.5c0.9,0,1.8-0.2,2.6-0.5c0.8-0.3,1.6-0.8,2.2-1.5c0.6-0.6,1.1-1.3,1.5-2.1
			c0.3-0.8,0.5-1.6,0.5-2.6C728.5,51.8,728.3,51,728,50.2z M724.4,55.6c-0.7,0.8-1.6,1.2-2.7,1.2s-2-0.4-2.7-1.2
			c-0.7-0.8-1.1-1.8-1.1-2.9c0-1.2,0.4-2.1,1.1-2.9c0.7-0.8,1.6-1.2,2.7-1.2c1.1,0,2,0.4,2.7,1.2c0.7,0.8,1.1,1.8,1.1,2.9
			C725.5,53.8,725.1,54.8,724.4,55.6z"/>
		<path d="M742.1,49c-0.1-0.5-0.2-0.8-0.5-1.2c-0.4-0.6-0.9-1-1.5-1.3c-0.6-0.3-1.4-0.4-2.3-0.4c-1.1,0-2,0.2-2.8,0.6
			c-0.8,0.4-1.4,1-2,1.9v-2h-2.7v12.3h2.8v-5.6c0-1,0-1.8,0.1-2.2s0.2-0.8,0.4-1.1c0.3-0.4,0.7-0.8,1.2-1c0.5-0.2,1.1-0.4,1.8-0.4
			c1,0,1.7,0.3,2.1,0.8c0.4,0.5,0.6,1.6,0.6,3.2v6.3h2.8v-7.5C742.2,50.2,742.2,49.4,742.1,49z"/>
		<path d="M753.7,46.5v2c-0.3-0.8-0.9-1.4-1.6-1.8c-0.7-0.4-1.6-0.6-2.6-0.6c-1.6,0-3,0.6-4,1.8c-1,1.2-1.5,2.8-1.5,4.8
			c0,2.1,0.5,3.7,1.5,4.9s2.4,1.8,4.1,1.8c0.9,0,1.6-0.2,2.3-0.5c0.7-0.3,1.2-0.9,1.8-1.6v1.6h2.8V46.5H753.7z M752.8,55.7
			c-0.6,0.8-1.5,1.2-2.5,1.2c-1.1,0-1.9-0.4-2.5-1.1c-0.6-0.7-0.9-1.7-0.9-3c0-1.3,0.3-2.3,0.9-3c0.6-0.7,1.4-1.1,2.5-1.1
			c1.1,0,1.9,0.4,2.5,1.1c0.6,0.7,0.9,1.7,0.9,3C753.8,53.9,753.5,54.9,752.8,55.7z"/>
		<path d="M766.4,46.2c-0.4-0.1-0.8-0.1-1.2-0.1c-0.7,0-1.3,0.2-1.8,0.6c-0.5,0.4-0.9,1-1.2,1.8v-2h-2.8v12.3h2.8v-5.4
			c0-1.8,0.2-3,0.6-3.8c0.4-0.8,1.1-1.1,2-1.1c0.4,0,0.7,0,0.9,0.1c0.3,0.1,0.5,0.2,0.8,0.4l1-2.4C767.2,46.5,766.8,46.3,766.4,46.2
			z"/>
		<path d="M770.9,39.9c-0.3-0.3-0.8-0.5-1.2-0.5c-0.5,0-0.9,0.2-1.3,0.5c-0.3,0.3-0.5,0.8-0.5,1.2c0,0.5,0.2,0.9,0.5,1.3
			c0.4,0.3,0.8,0.5,1.3,0.5s0.9-0.2,1.2-0.5c0.3-0.3,0.5-0.8,0.5-1.3C771.4,40.7,771.2,40.3,770.9,39.9z M768.2,46.5v12.3h2.8V46.5
			H768.2z"/>
		<path d="M785.8,52.5c0-2-0.5-3.6-1.7-4.8c-1.1-1.1-2.6-1.7-4.6-1.7c-1.9,0-3.4,0.6-4.7,1.9c-1.2,1.2-1.8,2.8-1.8,4.8
			c0,2,0.6,3.6,1.8,4.8c1.2,1.2,2.7,1.8,4.7,1.8c1.4,0,2.6-0.3,3.6-0.9c1-0.6,1.9-1.5,2.6-2.8l-2.4-1.3c-0.5,0.8-1,1.5-1.6,1.8
			c-0.6,0.4-1.4,0.6-2.3,0.6c-1,0-1.8-0.3-2.4-1c-0.6-0.7-1-1.6-1-2.7h9.8V52.5z M776.2,51.2c0.2-0.9,0.6-1.6,1.2-2
			c0.6-0.5,1.3-0.7,2.2-0.7c1,0,1.8,0.2,2.3,0.7c0.6,0.5,0.9,1.1,1,2H776.2z"/>
		<path d="M795.5,53.3c-0.5-0.6-1.3-1.1-2.4-1.5c-0.2-0.1-0.6-0.2-1.1-0.4c-1.5-0.5-2.2-1.1-2.2-1.8c0-0.4,0.2-0.8,0.5-1
			c0.3-0.2,0.8-0.4,1.3-0.4c0.5,0,0.9,0.1,1.3,0.3c0.4,0.2,0.6,0.5,0.8,0.9l2-1.4c-0.3-0.7-0.8-1.2-1.5-1.5
			c-0.7-0.4-1.5-0.5-2.5-0.5c-1.4,0-2.6,0.3-3.4,1c-0.9,0.7-1.3,1.6-1.3,2.7c0,0.8,0.3,1.5,0.8,2c0.5,0.6,1.4,1.1,2.8,1.7
			c0.2,0.1,0.6,0.2,1,0.4c1.3,0.5,1.9,1,1.9,1.7c0,0.5-0.2,0.9-0.5,1.2c-0.4,0.3-0.9,0.4-1.5,0.4c-0.7,0-1.3-0.2-1.8-0.5
			c-0.5-0.3-0.8-0.8-1-1.4l-2.3,1.3c0.5,0.9,1.1,1.6,1.9,2.1c0.8,0.4,1.8,0.7,3,0.7c1.6,0,2.8-0.4,3.7-1c0.9-0.7,1.3-1.7,1.3-2.9
			C796.2,54.5,795.9,53.8,795.5,53.3z"/>
		<path d="M813.7,46.5v2c-0.3-0.8-0.8-1.4-1.6-1.8c-0.7-0.4-1.6-0.6-2.6-0.6c-1.6,0-3,0.6-4,1.8c-1,1.2-1.5,2.8-1.5,4.8
			c0,2.1,0.5,3.7,1.5,4.9s2.4,1.8,4.1,1.8c0.9,0,1.6-0.2,2.3-0.5c0.7-0.3,1.3-0.9,1.8-1.6v1.6h2.8V46.5H813.7z M812.8,55.7
			c-0.6,0.8-1.5,1.2-2.5,1.2c-1.1,0-1.9-0.4-2.5-1.1c-0.6-0.7-0.9-1.7-0.9-3c0-1.3,0.3-2.3,0.9-3s1.5-1.1,2.5-1.1
			c1.1,0,1.9,0.4,2.5,1.1c0.6,0.7,0.9,1.7,0.9,3C813.8,53.9,813.4,54.9,812.8,55.7z"/>
		<path d="M831.1,49c-0.1-0.5-0.2-0.8-0.5-1.2c-0.4-0.6-0.9-1-1.5-1.3c-0.7-0.3-1.4-0.4-2.3-0.4c-1.1,0-2,0.2-2.8,0.6
			c-0.8,0.4-1.4,1-2,1.9v-2h-2.6v12.3h2.8v-5.6c0-1,0-1.8,0.1-2.2c0.1-0.5,0.2-0.8,0.4-1.1c0.3-0.4,0.7-0.8,1.2-1
			c0.5-0.2,1.1-0.4,1.8-0.4c1,0,1.7,0.3,2.1,0.8c0.4,0.5,0.6,1.6,0.6,3.2v6.3h2.8v-7.5C831.2,50.2,831.2,49.4,831.1,49z"/>
		<path d="M842.7,38.7v9.8c-0.3-0.8-0.9-1.4-1.6-1.8c-0.7-0.4-1.6-0.6-2.6-0.6c-1.6,0-3,0.6-4,1.8c-1,1.2-1.5,2.8-1.5,4.8
			c0,2.1,0.5,3.7,1.5,4.9s2.4,1.8,4.1,1.8c0.9,0,1.6-0.2,2.3-0.5c0.7-0.3,1.3-0.9,1.8-1.6v1.6h2.8V38.7H842.7z M841.8,55.7
			c-0.6,0.8-1.5,1.2-2.5,1.2c-1.1,0-1.9-0.4-2.5-1.1c-0.6-0.7-0.9-1.7-0.9-3c0-1.3,0.3-2.3,0.9-3c0.6-0.7,1.4-1.1,2.5-1.1
			c1.1,0,1.9,0.4,2.5,1.1c0.6,0.7,0.9,1.7,0.9,3C842.7,53.9,842.4,54.9,841.8,55.7z"/>
		<path d="M871.4,39l-5.5,12c-0.1,0.1-0.1,0.3-0.2,0.5c-0.4,0.8-0.7,1.5-0.9,2.1c-0.2-0.7-0.5-1.2-0.6-1.6c-0.2-0.4-0.3-0.8-0.4-0.9
			l-5.6-12l-4.5,19.8h2.8l2-9.4c0.1-0.5,0.2-0.9,0.2-1.4c0.1-0.4,0.1-0.9,0.1-1.2c0.1,0.4,0.2,0.8,0.4,1.2c0.2,0.4,0.3,0.8,0.5,1.2
			l5,10.3l5-10.1c0.2-0.5,0.4-0.9,0.5-1.3c0.1-0.4,0.2-0.9,0.3-1.3c0,0.4,0.1,0.8,0.2,1.4c0.1,0.7,0.1,1.1,0.2,1.2l2.1,9.4h2.9
			L871.4,39z"/>
		<path d="M885.9,46.5v2c-0.3-0.8-0.9-1.4-1.6-1.8c-0.7-0.4-1.6-0.6-2.6-0.6c-1.6,0-3,0.6-4,1.8c-1,1.2-1.5,2.8-1.5,4.8
			c0,2.1,0.5,3.7,1.5,4.9s2.4,1.8,4.1,1.8c0.9,0,1.6-0.2,2.3-0.5c0.7-0.3,1.3-0.9,1.8-1.6v1.6h2.8V46.5H885.9z M885,55.7
			c-0.6,0.8-1.5,1.2-2.5,1.2c-1.1,0-1.9-0.4-2.5-1.1c-0.6-0.7-0.9-1.7-0.9-3c0-1.3,0.3-2.3,0.9-3c0.6-0.7,1.5-1.1,2.5-1.1
			c1.1,0,1.9,0.4,2.5,1.1c0.6,0.7,0.9,1.7,0.9,3C886,53.9,885.7,54.9,885,55.7z"/>
		<path d="M897.4,51.9l5.6-5.4h-3.5l-5.2,5.1V38.7h-2.8v20.1h2.8v-6.4l5.5,6.4h3.6L897.4,51.9z"/>
		<path d="M916,52.5c0-2-0.5-3.6-1.7-4.8c-1.1-1.1-2.7-1.7-4.6-1.7c-1.9,0-3.5,0.6-4.7,1.9c-1.2,1.2-1.8,2.8-1.8,4.8
			c0,2,0.6,3.6,1.8,4.8c1.2,1.2,2.7,1.8,4.7,1.8c1.4,0,2.6-0.3,3.6-0.9c1-0.6,1.9-1.5,2.6-2.8l-2.4-1.3c-0.4,0.8-1,1.5-1.6,1.8
			c-0.6,0.4-1.4,0.6-2.3,0.6c-1,0-1.8-0.3-2.5-1c-0.6-0.7-0.9-1.6-1-2.7h9.8V52.5z M906.4,51.2c0.2-0.9,0.6-1.6,1.2-2
			c0.6-0.5,1.3-0.7,2.2-0.7c1,0,1.8,0.2,2.3,0.7c0.6,0.5,0.9,1.1,1,2H906.4z"/>
		<path d="M925,46.2c-0.4-0.1-0.8-0.1-1.2-0.1c-0.7,0-1.4,0.2-1.9,0.6c-0.5,0.4-0.9,1-1.2,1.8v-2h-2.8v12.3h2.8v-5.4
			c0-1.8,0.2-3,0.6-3.8c0.4-0.8,1.1-1.1,2-1.1c0.4,0,0.7,0,0.9,0.1c0.3,0.1,0.6,0.2,0.8,0.4l1-2.4C925.7,46.5,925.3,46.3,925,46.2z"
			/>
		<path d="M934.4,53.3c-0.5-0.6-1.3-1.1-2.4-1.5c-0.2-0.1-0.6-0.2-1.1-0.4c-1.5-0.5-2.2-1.1-2.2-1.8c0-0.4,0.2-0.8,0.5-1
			c0.3-0.2,0.8-0.4,1.3-0.4c0.5,0,0.9,0.1,1.3,0.3c0.4,0.2,0.6,0.5,0.8,0.9l2-1.4c-0.3-0.7-0.8-1.2-1.5-1.5
			c-0.7-0.4-1.5-0.5-2.4-0.5c-1.4,0-2.6,0.3-3.4,1c-0.9,0.7-1.3,1.6-1.3,2.7c0,0.8,0.3,1.5,0.8,2c0.5,0.6,1.4,1.1,2.8,1.7
			c0.2,0.1,0.6,0.2,1,0.4c1.3,0.5,1.9,1,1.9,1.7c0,0.5-0.2,0.9-0.5,1.2c-0.4,0.3-0.8,0.4-1.5,0.4c-0.7,0-1.3-0.2-1.8-0.5
			c-0.5-0.3-0.8-0.8-1-1.4l-2.3,1.3c0.5,0.9,1.1,1.6,1.9,2.1c0.8,0.4,1.8,0.7,3,0.7c1.6,0,2.8-0.4,3.7-1c0.9-0.7,1.3-1.7,1.3-2.9
			C935.1,54.5,934.9,53.8,934.4,53.3z"/>
		<path d="M952.5,50.2c-0.8-0.7-1.7-1.1-2.7-1.1s-2,0.4-2.7,1.1c-0.8,0.7-1.1,1.7-1.1,2.7s0.4,2,1.1,2.7c0.7,0.8,1.6,1.1,2.7,1.1
			c1.1,0,2-0.4,2.7-1.1c0.8-0.8,1.1-1.7,1.1-2.7S953.2,51,952.5,50.2z"/>
		<path d="M978.1,39.8v11.5c0,1.7-0.4,3-1.2,3.9c-0.8,0.9-2,1.3-3.5,1.3c-1.6,0-2.8-0.4-3.5-1.3c-0.8-0.9-1.2-2.1-1.2-3.9V39.8h-3
			v11.8c0,2.6,0.6,4.5,1.9,5.8c1.3,1.3,3.2,1.9,5.8,1.9s4.6-0.6,5.9-1.9c1.3-1.3,1.9-3.2,1.9-5.8V39.8H978.1z"/>
		<path d="M995.9,49c-0.1-0.5-0.2-0.8-0.5-1.2c-0.4-0.6-0.9-1-1.5-1.3c-0.7-0.3-1.4-0.4-2.3-0.4c-1.1,0-2,0.2-2.8,0.6
			c-0.8,0.4-1.4,1-2,1.9v-2h-2.6v12.3h2.8v-5.6c0-1,0-1.8,0.1-2.2c0.1-0.5,0.2-0.8,0.4-1.1c0.3-0.4,0.7-0.8,1.2-1
			c0.5-0.2,1.1-0.4,1.8-0.4c1,0,1.7,0.3,2.1,0.8c0.4,0.5,0.6,1.6,0.6,3.2v6.3h2.8v-7.5C996,50.2,996,49.4,995.9,49z"/>
		<path d="M1001.5,39.9c-0.3-0.3-0.8-0.5-1.2-0.5c-0.5,0-0.9,0.2-1.2,0.5c-0.3,0.3-0.5,0.8-0.5,1.2c0,0.5,0.2,0.9,0.5,1.3
			c0.4,0.3,0.8,0.5,1.2,0.5c0.5,0,0.9-0.2,1.2-0.5c0.3-0.3,0.5-0.8,0.5-1.3C1002,40.7,1001.8,40.3,1001.5,39.9z M998.8,46.5v12.3
			h2.8V46.5H998.8z"/>
		<path d="M1008.1,46.5v-4.7h-2.8v4.7h-2.2V49h2.2v9.8h2.8V49h2.2v-2.5H1008.1z"/>
		<path d="M1014.4,39.9c-0.3-0.3-0.8-0.5-1.3-0.5c-0.5,0-0.9,0.2-1.2,0.5c-0.4,0.3-0.5,0.8-0.5,1.2c0,0.5,0.2,0.9,0.5,1.3
			c0.3,0.3,0.8,0.5,1.2,0.5c0.5,0,0.9-0.2,1.2-0.5c0.3-0.3,0.5-0.8,0.5-1.3C1014.9,40.7,1014.7,40.3,1014.4,39.9z M1011.7,46.5v12.3
			h2.8V46.5H1011.7z"/>
		<path d="M1029.2,49c-0.1-0.5-0.2-0.8-0.5-1.2c-0.4-0.6-0.9-1-1.5-1.3c-0.6-0.3-1.4-0.4-2.3-0.4c-1.1,0-2,0.2-2.8,0.6
			c-0.8,0.4-1.4,1-2,1.9v-2h-2.6v12.3h2.8v-5.6c0-1,0-1.8,0.1-2.2c0.1-0.5,0.2-0.8,0.4-1.1c0.3-0.4,0.7-0.8,1.2-1
			c0.5-0.2,1.1-0.4,1.8-0.4c1,0,1.7,0.3,2.1,0.8c0.4,0.5,0.6,1.6,0.6,3.2v6.3h2.8v-7.5C1029.4,50.2,1029.3,49.4,1029.2,49z"/>
		<path d="M1040.8,46.5v2c-0.3-0.8-0.8-1.4-1.6-1.8c-0.7-0.4-1.6-0.6-2.6-0.6c-1.6,0-3,0.6-4,1.8c-1,1.2-1.5,2.8-1.5,4.8
			c0,2.1,0.5,3.7,1.5,4.9c1,1.2,2.4,1.8,4.1,1.8c0.9,0,1.6-0.2,2.3-0.5c0.7-0.3,1.2-0.9,1.8-1.6l0,1.6c0,1.2-0.3,2.1-0.8,2.7
			c-0.5,0.5-1.4,0.8-2.6,0.8c-0.8,0-1.4-0.1-1.9-0.4c-0.4-0.3-0.7-0.7-0.7-1.2l-3,0c0,1.2,0.5,2.1,1.5,2.8c1,0.7,2.4,1.1,4.1,1.1
			c2.3,0,3.9-0.5,4.8-1.5c1-1,1.4-2.7,1.4-5.1V46.5H1040.8z M1040,55.7c-0.6,0.8-1.5,1.2-2.5,1.2c-1.1,0-1.9-0.4-2.5-1.1
			c-0.6-0.7-0.9-1.7-0.9-3c0-1.3,0.3-2.3,0.9-3c0.6-0.7,1.4-1.1,2.5-1.1c1.1,0,1.9,0.4,2.5,1.1c0.6,0.7,0.9,1.7,0.9,3
			C1040.9,53.9,1040.6,54.9,1040,55.7z"/>
		<path d="M1065,39.8l-4.2,10.1c-0.2,0.5-0.4,1.1-0.6,1.6s-0.3,1-0.4,1.5c-0.1-0.5-0.2-0.9-0.4-1.4c-0.2-0.5-0.4-1-0.6-1.6
			l-4.3-10.1h-3.2l8.5,19.7l8.5-19.7H1065z"/>
		<path d="M1071.6,39.9c-0.3-0.3-0.8-0.5-1.3-0.5c-0.5,0-0.9,0.2-1.2,0.5c-0.3,0.3-0.5,0.8-0.5,1.2c0,0.5,0.2,0.9,0.5,1.3
			c0.3,0.3,0.8,0.5,1.2,0.5c0.5,0,0.9-0.2,1.2-0.5c0.3-0.3,0.5-0.8,0.5-1.3C1072.1,40.7,1071.9,40.3,1071.6,39.9z M1068.9,46.5v12.3
			h2.8V46.5H1068.9z"/>
		<path d="M1082.5,53.3c-0.5-0.6-1.3-1.1-2.4-1.5c-0.2-0.1-0.6-0.2-1.1-0.4c-1.4-0.5-2.2-1.1-2.2-1.8c0-0.4,0.2-0.8,0.5-1
			c0.3-0.2,0.8-0.4,1.3-0.4c0.5,0,0.9,0.1,1.3,0.3c0.4,0.2,0.6,0.5,0.8,0.9l2-1.4c-0.3-0.7-0.8-1.2-1.5-1.5
			c-0.7-0.4-1.5-0.5-2.4-0.5c-1.4,0-2.6,0.3-3.4,1c-0.9,0.7-1.3,1.6-1.3,2.7c0,0.8,0.3,1.5,0.8,2s1.4,1.1,2.8,1.7
			c0.2,0.1,0.6,0.2,1,0.4c1.3,0.5,1.9,1,1.9,1.7c0,0.5-0.2,0.9-0.5,1.2c-0.4,0.3-0.9,0.4-1.5,0.4c-0.7,0-1.3-0.2-1.8-0.5
			c-0.5-0.3-0.8-0.8-1-1.4l-2.3,1.3c0.4,0.9,1.1,1.6,1.9,2.1c0.8,0.4,1.8,0.7,3,0.7c1.6,0,2.8-0.4,3.7-1c0.9-0.7,1.3-1.7,1.3-2.9
			C1083.2,54.5,1083,53.8,1082.5,53.3z"/>
		<path d="M1087.8,39.9c-0.3-0.3-0.8-0.5-1.3-0.5c-0.5,0-0.9,0.2-1.2,0.5c-0.4,0.3-0.5,0.8-0.5,1.2c0,0.5,0.2,0.9,0.5,1.3
			c0.3,0.3,0.8,0.5,1.2,0.5c0.5,0,0.9-0.2,1.2-0.5c0.3-0.3,0.5-0.8,0.5-1.3C1088.3,40.7,1088.1,40.3,1087.8,39.9z M1085.1,46.5v12.3
			h2.8V46.5H1085.1z"/>
		<path d="M1103,50.2c-0.3-0.8-0.8-1.5-1.5-2.1c-0.7-0.6-1.4-1.1-2.2-1.5c-0.8-0.3-1.7-0.5-2.6-0.5c-0.9,0-1.8,0.2-2.6,0.5
			c-0.8,0.3-1.6,0.8-2.2,1.4c-0.6,0.6-1.1,1.3-1.5,2.1c-0.3,0.8-0.5,1.7-0.5,2.5c0,0.9,0.2,1.8,0.5,2.5c0.3,0.8,0.8,1.5,1.5,2.2
			c0.6,0.6,1.4,1.1,2.2,1.5c0.8,0.3,1.7,0.5,2.6,0.5c0.9,0,1.8-0.2,2.6-0.5c0.8-0.3,1.6-0.8,2.2-1.5c0.6-0.6,1.1-1.3,1.5-2.1
			c0.3-0.8,0.5-1.6,0.5-2.6C1103.5,51.8,1103.4,51,1103,50.2z M1099.4,55.6c-0.7,0.8-1.6,1.2-2.7,1.2c-1.1,0-2-0.4-2.7-1.2
			c-0.7-0.8-1.1-1.8-1.1-2.9c0-1.2,0.4-2.1,1.1-2.9c0.7-0.8,1.6-1.2,2.7-1.2s2,0.4,2.7,1.2c0.7,0.8,1.1,1.8,1.1,2.9
			C1100.6,53.8,1100.2,54.8,1099.4,55.6z"/>
		<path d="M1117.2,49c-0.1-0.5-0.2-0.8-0.5-1.2c-0.4-0.6-0.9-1-1.5-1.3c-0.6-0.3-1.4-0.4-2.3-0.4c-1.1,0-2,0.2-2.8,0.6
			c-0.8,0.4-1.4,1-2,1.9v-2h-2.7v12.3h2.8v-5.6c0-1,0-1.8,0.1-2.2c0.1-0.5,0.2-0.8,0.4-1.1c0.3-0.4,0.7-0.8,1.2-1
			c0.5-0.2,1.1-0.4,1.8-0.4c1,0,1.7,0.3,2.1,0.8c0.4,0.5,0.6,1.6,0.6,3.2v6.3h2.8v-7.5C1117.3,50.2,1117.3,49.4,1117.2,49z"/>
		<path d="M1128.8,46.5v2c-0.3-0.8-0.9-1.4-1.6-1.8c-0.7-0.4-1.6-0.6-2.6-0.6c-1.6,0-3,0.6-4,1.8c-1,1.2-1.5,2.8-1.5,4.8
			c0,2.1,0.5,3.7,1.5,4.9s2.4,1.8,4.1,1.8c0.9,0,1.6-0.2,2.3-0.5c0.7-0.3,1.3-0.9,1.8-1.6v1.6h2.8V46.5H1128.8z M1127.9,55.7
			c-0.6,0.8-1.5,1.2-2.5,1.2c-1.1,0-1.9-0.4-2.5-1.1c-0.6-0.7-0.9-1.7-0.9-3c0-1.3,0.3-2.3,0.9-3c0.6-0.7,1.4-1.1,2.5-1.1
			c1.1,0,1.9,0.4,2.5,1.1c0.6,0.7,0.9,1.7,0.9,3C1128.9,53.9,1128.5,54.9,1127.9,55.7z"/>
		<path d="M1141.5,46.2c-0.4-0.1-0.8-0.1-1.2-0.1c-0.7,0-1.4,0.2-1.9,0.6c-0.5,0.4-0.9,1-1.2,1.8v-2h-2.8v12.3h2.8v-5.4
			c0-1.8,0.2-3,0.6-3.8c0.4-0.8,1.1-1.1,2-1.1c0.3,0,0.7,0,0.9,0.1c0.3,0.1,0.5,0.2,0.8,0.4l1-2.4
			C1142.2,46.5,1141.8,46.3,1141.5,46.2z"/>
		<path d="M1145.9,39.9c-0.3-0.3-0.8-0.5-1.2-0.5c-0.5,0-0.9,0.2-1.2,0.5c-0.3,0.3-0.5,0.8-0.5,1.2c0,0.5,0.2,0.9,0.5,1.3
			c0.4,0.3,0.8,0.5,1.2,0.5c0.5,0,0.9-0.2,1.2-0.5c0.3-0.3,0.5-0.8,0.5-1.3C1146.4,40.7,1146.3,40.3,1145.9,39.9z M1143.3,46.5v12.3
			h2.8V46.5H1143.3z"/>
		<path d="M1160.9,52.5c0-2-0.6-3.6-1.7-4.8c-1.1-1.1-2.7-1.7-4.6-1.7c-1.9,0-3.4,0.6-4.7,1.9s-1.8,2.8-1.8,4.8c0,2,0.6,3.6,1.8,4.8
			c1.2,1.2,2.7,1.8,4.7,1.8c1.4,0,2.6-0.3,3.6-0.9c1-0.6,1.9-1.5,2.6-2.8l-2.4-1.3c-0.5,0.8-1,1.5-1.6,1.8c-0.6,0.4-1.4,0.6-2.3,0.6
			c-1,0-1.8-0.3-2.5-1c-0.6-0.7-1-1.6-1-2.7h9.8V52.5z M1151.2,51.2c0.2-0.9,0.6-1.6,1.2-2c0.6-0.5,1.3-0.7,2.2-0.7
			c1,0,1.7,0.2,2.3,0.7c0.6,0.5,0.9,1.1,1,2H1151.2z"/>
		<path d="M1170.5,53.3c-0.5-0.6-1.3-1.1-2.4-1.5c-0.2-0.1-0.6-0.2-1.1-0.4c-1.4-0.5-2.2-1.1-2.2-1.8c0-0.4,0.2-0.8,0.5-1
			c0.3-0.2,0.8-0.4,1.3-0.4c0.5,0,0.9,0.1,1.3,0.3c0.4,0.2,0.6,0.5,0.8,0.9l2-1.4c-0.3-0.7-0.8-1.2-1.5-1.5
			c-0.7-0.4-1.5-0.5-2.4-0.5c-1.4,0-2.6,0.3-3.4,1c-0.9,0.7-1.3,1.6-1.3,2.7c0,0.8,0.3,1.5,0.8,2s1.4,1.1,2.8,1.7
			c0.2,0.1,0.6,0.2,1,0.4c1.3,0.5,1.9,1,1.9,1.7c0,0.5-0.2,0.9-0.5,1.2c-0.4,0.3-0.8,0.4-1.5,0.4c-0.7,0-1.3-0.2-1.8-0.5
			c-0.5-0.3-0.8-0.8-1-1.4l-2.3,1.3c0.5,0.9,1.1,1.6,1.9,2.1c0.8,0.4,1.8,0.7,3,0.7c1.6,0,2.8-0.4,3.7-1c0.9-0.7,1.3-1.7,1.3-2.9
			C1171.2,54.5,1171,53.8,1170.5,53.3z"/>
		<path d="M1188.8,46.5v2c-0.3-0.8-0.8-1.4-1.6-1.8c-0.7-0.4-1.6-0.6-2.6-0.6c-1.6,0-3,0.6-4,1.8c-1,1.2-1.5,2.8-1.5,4.8
			c0,2.1,0.5,3.7,1.5,4.9s2.4,1.8,4.1,1.8c0.9,0,1.6-0.2,2.3-0.5c0.7-0.3,1.3-0.9,1.8-1.6v1.6h2.8V46.5H1188.8z M1187.9,55.7
			c-0.6,0.8-1.5,1.2-2.5,1.2c-1.1,0-1.9-0.4-2.5-1.1c-0.6-0.7-0.9-1.7-0.9-3c0-1.3,0.3-2.3,0.9-3c0.6-0.7,1.4-1.1,2.5-1.1
			c1.1,0,1.9,0.4,2.5,1.1c0.6,0.7,0.9,1.7,0.9,3C1188.8,53.9,1188.5,54.9,1187.9,55.7z"/>
		<path d="M1206.1,49c-0.1-0.5-0.2-0.8-0.5-1.2c-0.4-0.6-0.9-1-1.5-1.3c-0.6-0.3-1.4-0.4-2.3-0.4c-1.1,0-2,0.2-2.8,0.6
			c-0.8,0.4-1.4,1-2,1.9v-2h-2.7v12.3h2.8v-5.6c0-1,0-1.8,0.1-2.2c0.1-0.5,0.2-0.8,0.4-1.1c0.3-0.4,0.7-0.8,1.2-1
			c0.5-0.2,1.1-0.4,1.8-0.4c1,0,1.7,0.3,2.1,0.8c0.4,0.5,0.6,1.6,0.6,3.2v6.3h2.9v-7.5C1206.3,50.2,1206.2,49.4,1206.1,49z"/>
		<path d="M1217.7,38.7v9.8c-0.3-0.8-0.8-1.4-1.6-1.8c-0.7-0.4-1.6-0.6-2.6-0.6c-1.6,0-3,0.6-4,1.8c-1,1.2-1.5,2.8-1.5,4.8
			c0,2.1,0.5,3.7,1.5,4.9c1,1.2,2.4,1.8,4.1,1.8c0.9,0,1.6-0.2,2.3-0.5c0.7-0.3,1.2-0.9,1.8-1.6v1.6h2.8V38.7H1217.7z M1216.9,55.7
			c-0.6,0.8-1.5,1.2-2.5,1.2c-1.1,0-1.9-0.4-2.5-1.1c-0.6-0.7-0.9-1.7-0.9-3c0-1.3,0.3-2.3,0.9-3c0.6-0.7,1.4-1.1,2.5-1.1
			c1.1,0,1.9,0.4,2.5,1.1c0.6,0.7,0.9,1.7,0.9,3C1217.8,53.9,1217.5,54.9,1216.9,55.7z"/>
		<path d="M1246.4,39l-5.5,12c-0.1,0.1-0.1,0.3-0.2,0.5c-0.4,0.8-0.7,1.5-0.9,2.1c-0.2-0.7-0.5-1.2-0.6-1.6
			c-0.2-0.4-0.3-0.8-0.4-0.9l-5.6-12l-4.5,19.8h2.8l2-9.4c0.1-0.5,0.2-0.9,0.2-1.4c0-0.4,0.1-0.9,0.1-1.2c0.1,0.4,0.2,0.8,0.4,1.2
			c0.2,0.4,0.3,0.8,0.5,1.2l5,10.3l5-10.1c0.2-0.5,0.4-0.9,0.5-1.3s0.2-0.9,0.3-1.3c0.1,0.4,0.1,0.8,0.2,1.4
			c0.1,0.7,0.1,1.1,0.2,1.2l2.1,9.4h2.9L1246.4,39z"/>
		<path d="M1261,46.5v2c-0.3-0.8-0.8-1.4-1.6-1.8c-0.7-0.4-1.6-0.6-2.6-0.6c-1.6,0-3,0.6-4,1.8c-1,1.2-1.5,2.8-1.5,4.8
			c0,2.1,0.5,3.7,1.5,4.9s2.4,1.8,4.1,1.8c0.9,0,1.6-0.2,2.3-0.5c0.7-0.3,1.2-0.9,1.8-1.6v1.6h2.8V46.5H1261z M1260.1,55.7
			c-0.6,0.8-1.5,1.2-2.5,1.2c-1.1,0-1.9-0.4-2.5-1.1c-0.6-0.7-0.9-1.7-0.9-3c0-1.3,0.3-2.3,0.9-3c0.6-0.7,1.4-1.1,2.5-1.1
			c1.1,0,1.9,0.4,2.5,1.1c0.6,0.7,0.9,1.7,0.9,3C1261,53.9,1260.7,54.9,1260.1,55.7z"/>
		<path d="M1272.5,51.9l5.6-5.4h-3.5l-5.2,5.1V38.7h-2.8v20.1h2.8v-6.4l5.5,6.4h3.6L1272.5,51.9z"/>
		<path d="M1291.1,52.5c0-2-0.5-3.6-1.7-4.8c-1.1-1.1-2.6-1.7-4.6-1.7c-1.9,0-3.4,0.6-4.7,1.9c-1.2,1.2-1.8,2.8-1.8,4.8
			c0,2,0.6,3.6,1.8,4.8c1.2,1.2,2.7,1.8,4.7,1.8c1.4,0,2.6-0.3,3.6-0.9c1-0.6,1.9-1.5,2.6-2.8l-2.4-1.3c-0.5,0.8-1,1.5-1.6,1.8
			c-0.6,0.4-1.4,0.6-2.3,0.6c-1,0-1.8-0.3-2.4-1c-0.6-0.7-1-1.6-1-2.7h9.8V52.5z M1281.5,51.2c0.2-0.9,0.6-1.6,1.2-2
			c0.6-0.5,1.3-0.7,2.2-0.7c1,0,1.7,0.2,2.3,0.7c0.6,0.5,0.9,1.1,1,2H1281.5z"/>
		<path d="M1300,46.2c-0.4-0.1-0.8-0.1-1.2-0.1c-0.7,0-1.4,0.2-1.8,0.6c-0.5,0.4-0.9,1-1.2,1.8v-2h-2.8v12.3h2.8v-5.4
			c0-1.8,0.2-3,0.6-3.8c0.4-0.8,1.1-1.1,2-1.1c0.3,0,0.7,0,0.9,0.1c0.3,0.1,0.5,0.2,0.8,0.4l1-2.4
			C1300.8,46.5,1300.4,46.3,1300,46.2z"/>
		<path d="M1309.5,53.3c-0.5-0.6-1.3-1.1-2.4-1.5c-0.2-0.1-0.6-0.2-1.1-0.4c-1.5-0.5-2.2-1.1-2.2-1.8c0-0.4,0.2-0.8,0.5-1
			c0.3-0.2,0.8-0.4,1.3-0.4c0.5,0,0.9,0.1,1.3,0.3c0.4,0.2,0.6,0.5,0.8,0.9l2-1.4c-0.3-0.7-0.8-1.2-1.5-1.5
			c-0.7-0.4-1.5-0.5-2.5-0.5c-1.4,0-2.6,0.3-3.4,1c-0.9,0.7-1.3,1.6-1.3,2.7c0,0.8,0.3,1.5,0.8,2c0.5,0.6,1.4,1.1,2.8,1.7
			c0.2,0.1,0.6,0.2,1,0.4c1.3,0.5,1.9,1,1.9,1.7c0,0.5-0.2,0.9-0.5,1.2c-0.4,0.3-0.9,0.4-1.5,0.4c-0.7,0-1.3-0.2-1.8-0.5
			c-0.5-0.3-0.8-0.8-1-1.4l-2.3,1.3c0.4,0.9,1.1,1.6,1.9,2.1c0.8,0.4,1.8,0.7,3,0.7c1.6,0,2.8-0.4,3.7-1c0.9-0.7,1.3-1.7,1.3-2.9
			C1310.2,54.5,1309.9,53.8,1309.5,53.3z"/>
		<path d="M1327.5,50.2c-0.8-0.7-1.7-1.1-2.7-1.1c-1.1,0-2,0.4-2.7,1.1c-0.8,0.7-1.1,1.7-1.1,2.7s0.4,2,1.1,2.7
			c0.7,0.8,1.6,1.1,2.7,1.1c1.1,0,2-0.4,2.7-1.1c0.8-0.8,1.1-1.7,1.1-2.7S1328.3,51,1327.5,50.2z"/>
		<path d="M1353.2,39.8v11.5c0,1.7-0.4,3-1.2,3.9c-0.8,0.9-2,1.3-3.5,1.3c-1.6,0-2.8-0.4-3.5-1.3c-0.8-0.9-1.2-2.1-1.2-3.9V39.8
			h-3.1v11.8c0,2.6,0.6,4.5,1.9,5.8c1.3,1.3,3.2,1.9,5.8,1.9c2.6,0,4.6-0.6,5.9-1.9c1.3-1.3,1.9-3.2,1.9-5.8V39.8H1353.2z"/>
		<path d="M1370.9,49c-0.1-0.5-0.2-0.8-0.5-1.2c-0.4-0.6-0.9-1-1.5-1.3c-0.6-0.3-1.4-0.4-2.3-0.4c-1.1,0-2,0.2-2.8,0.6
			c-0.8,0.4-1.4,1-2,1.9v-2h-2.7v12.3h2.8v-5.6c0-1,0-1.8,0.1-2.2c0.1-0.5,0.2-0.8,0.4-1.1c0.3-0.4,0.7-0.8,1.2-1
			c0.5-0.2,1.1-0.4,1.8-0.4c1,0,1.7,0.3,2.1,0.8c0.4,0.5,0.6,1.6,0.6,3.2v6.3h2.8v-7.5C1371.1,50.2,1371.1,49.4,1370.9,49z"/>
		<path d="M1376.6,39.9c-0.3-0.3-0.8-0.5-1.3-0.5c-0.5,0-0.9,0.2-1.2,0.5c-0.4,0.3-0.5,0.8-0.5,1.2c0,0.5,0.2,0.9,0.5,1.3
			c0.3,0.3,0.8,0.5,1.2,0.5c0.5,0,0.9-0.2,1.2-0.5c0.3-0.3,0.5-0.8,0.5-1.3C1377.1,40.7,1376.9,40.3,1376.6,39.9z M1373.9,46.5v12.3
			h2.8V46.5H1373.9z"/>
		<path d="M1383.2,46.5v-4.7h-2.8v4.7h-2.2V49h2.2v9.8h2.8V49h2.2v-2.5H1383.2z"/>
		<path d="M1389.5,39.9c-0.3-0.3-0.8-0.5-1.2-0.5c-0.5,0-0.9,0.2-1.2,0.5c-0.3,0.3-0.5,0.8-0.5,1.2c0,0.5,0.2,0.9,0.5,1.3
			c0.4,0.3,0.8,0.5,1.2,0.5s0.9-0.2,1.2-0.5c0.3-0.3,0.5-0.8,0.5-1.3C1390,40.7,1389.8,40.3,1389.5,39.9z M1386.8,46.5v12.3h2.8
			V46.5H1386.8z"/>
		<path d="M1404.3,49c-0.1-0.5-0.2-0.8-0.5-1.2c-0.4-0.6-0.9-1-1.5-1.3c-0.7-0.3-1.4-0.4-2.3-0.4c-1.1,0-2,0.2-2.8,0.6
			c-0.8,0.4-1.4,1-2,1.9v-2h-2.6v12.3h2.8v-5.6c0-1,0-1.8,0.1-2.2c0.1-0.5,0.2-0.8,0.4-1.1c0.3-0.4,0.7-0.8,1.2-1
			c0.5-0.2,1.1-0.4,1.8-0.4c1,0,1.7,0.3,2.1,0.8c0.4,0.5,0.6,1.6,0.6,3.2v6.3h2.8v-7.5C1404.5,50.2,1404.4,49.4,1404.3,49z"/>
		<path d="M1415.9,46.5v2c-0.3-0.8-0.8-1.4-1.6-1.8c-0.7-0.4-1.6-0.6-2.6-0.6c-1.6,0-3,0.6-4,1.8c-1,1.2-1.5,2.8-1.5,4.8
			c0,2.1,0.5,3.7,1.5,4.9s2.4,1.8,4.1,1.8c0.9,0,1.6-0.2,2.3-0.5c0.7-0.3,1.3-0.9,1.8-1.6l0,1.6c0,1.2-0.3,2.1-0.8,2.7
			c-0.5,0.5-1.4,0.8-2.6,0.8c-0.8,0-1.4-0.1-1.9-0.4c-0.4-0.3-0.7-0.7-0.7-1.2l-3,0c0,1.2,0.5,2.1,1.5,2.8c1,0.7,2.4,1.1,4.1,1.1
			c2.3,0,3.9-0.5,4.9-1.5c1-1,1.4-2.7,1.4-5.1V46.5H1415.9z M1415,55.7c-0.6,0.8-1.5,1.2-2.5,1.2c-1.1,0-1.9-0.4-2.5-1.1
			c-0.6-0.7-0.9-1.7-0.9-3c0-1.3,0.3-2.3,0.9-3s1.5-1.1,2.5-1.1c1.1,0,1.9,0.4,2.5,1.1c0.6,0.7,0.9,1.7,0.9,3
			C1416,53.9,1415.7,54.9,1415,55.7z"/>
		<path d="M1440.1,39.8l-4.2,10.1c-0.2,0.5-0.4,1.1-0.6,1.6c-0.2,0.5-0.3,1-0.4,1.5c-0.1-0.5-0.2-0.9-0.4-1.4
			c-0.2-0.5-0.4-1-0.6-1.6l-4.3-10.1h-3.2l8.5,19.7l8.5-19.7H1440.1z"/>
		<path d="M1446.7,39.9c-0.3-0.3-0.8-0.5-1.2-0.5c-0.5,0-0.9,0.2-1.3,0.5c-0.3,0.3-0.5,0.8-0.5,1.2c0,0.5,0.2,0.9,0.5,1.3
			c0.4,0.3,0.8,0.5,1.3,0.5s0.9-0.2,1.2-0.5c0.3-0.3,0.5-0.8,0.5-1.3C1447.2,40.7,1447,40.3,1446.7,39.9z M1444,46.5v12.3h2.8V46.5
			H1444z"/>
		<path d="M1457.5,53.3c-0.5-0.6-1.3-1.1-2.4-1.5c-0.2-0.1-0.6-0.2-1.1-0.4c-1.5-0.5-2.2-1.1-2.2-1.8c0-0.4,0.2-0.8,0.5-1
			c0.3-0.2,0.8-0.4,1.3-0.4c0.5,0,0.9,0.1,1.3,0.3c0.4,0.2,0.6,0.5,0.8,0.9l2-1.4c-0.3-0.7-0.8-1.2-1.5-1.5
			c-0.7-0.4-1.5-0.5-2.4-0.5c-1.4,0-2.6,0.3-3.4,1c-0.9,0.7-1.3,1.6-1.3,2.7c0,0.8,0.3,1.5,0.8,2c0.5,0.6,1.4,1.1,2.8,1.7
			c0.2,0.1,0.6,0.2,1,0.4c1.3,0.5,1.9,1,1.9,1.7c0,0.5-0.2,0.9-0.5,1.2c-0.3,0.3-0.8,0.4-1.5,0.4c-0.7,0-1.3-0.2-1.8-0.5
			c-0.5-0.3-0.8-0.8-1-1.4l-2.3,1.3c0.5,0.9,1.1,1.6,1.9,2.1c0.8,0.4,1.8,0.7,3,0.7c1.6,0,2.8-0.4,3.7-1c0.9-0.7,1.3-1.7,1.3-2.9
			C1458.3,54.5,1458,53.8,1457.5,53.3z"/>
		<path d="M1462.8,39.9c-0.3-0.3-0.8-0.5-1.2-0.5c-0.5,0-0.9,0.2-1.3,0.5c-0.3,0.3-0.5,0.8-0.5,1.2c0,0.5,0.2,0.9,0.5,1.3
			c0.4,0.3,0.8,0.5,1.3,0.5c0.5,0,0.9-0.2,1.2-0.5c0.3-0.3,0.5-0.8,0.5-1.3C1463.3,40.7,1463.2,40.3,1462.8,39.9z M1460.2,46.5v12.3
			h2.8V46.5H1460.2z"/>
		<path d="M1478.1,50.2c-0.3-0.8-0.8-1.5-1.5-2.1c-0.7-0.6-1.4-1.1-2.2-1.5c-0.8-0.3-1.7-0.5-2.6-0.5c-0.9,0-1.8,0.2-2.6,0.5
			c-0.8,0.3-1.6,0.8-2.2,1.4c-0.6,0.6-1.1,1.3-1.5,2.1c-0.3,0.8-0.5,1.7-0.5,2.5c0,0.9,0.2,1.8,0.5,2.5c0.3,0.8,0.8,1.5,1.5,2.2
			c0.6,0.6,1.4,1.1,2.2,1.5c0.8,0.3,1.7,0.5,2.6,0.5c0.9,0,1.8-0.2,2.6-0.5c0.8-0.3,1.6-0.8,2.2-1.5c0.6-0.6,1.1-1.3,1.5-2.1
			c0.3-0.8,0.5-1.6,0.5-2.6C1478.6,51.8,1478.4,51,1478.1,50.2z M1474.5,55.6c-0.7,0.8-1.6,1.2-2.7,1.2c-1.1,0-2-0.4-2.7-1.2
			c-0.7-0.8-1.1-1.8-1.1-2.9c0-1.2,0.4-2.1,1.1-2.9c0.7-0.8,1.6-1.2,2.7-1.2c1.1,0,2,0.4,2.7,1.2c0.7,0.8,1.1,1.8,1.1,2.9
			C1475.6,53.8,1475.3,54.8,1474.5,55.6z"/>
		<path d="M1492.3,49c-0.1-0.5-0.2-0.8-0.5-1.2c-0.4-0.6-0.9-1-1.5-1.3c-0.6-0.3-1.4-0.4-2.3-0.4c-1.1,0-2,0.2-2.8,0.6
			c-0.8,0.4-1.4,1-2,1.9v-2h-2.6v12.3h2.8v-5.6c0-1,0-1.8,0.1-2.2c0.1-0.5,0.2-0.8,0.4-1.1c0.3-0.4,0.7-0.8,1.2-1
			c0.5-0.2,1.1-0.4,1.8-0.4c1,0,1.7,0.3,2.1,0.8c0.4,0.5,0.6,1.6,0.6,3.2v6.3h2.8v-7.5C1492.4,50.2,1492.4,49.4,1492.3,49z"/>
		<path d="M1503.8,46.5v2c-0.3-0.8-0.8-1.4-1.6-1.8c-0.7-0.4-1.6-0.6-2.6-0.6c-1.6,0-3,0.6-4,1.8c-1,1.2-1.5,2.8-1.5,4.8
			c0,2.1,0.5,3.7,1.5,4.9s2.4,1.8,4.1,1.8c0.9,0,1.6-0.2,2.3-0.5c0.7-0.3,1.3-0.9,1.8-1.6v1.6h2.8V46.5H1503.8z M1503,55.7
			c-0.6,0.8-1.5,1.2-2.5,1.2c-1.1,0-1.9-0.4-2.5-1.1c-0.6-0.7-0.9-1.7-0.9-3c0-1.3,0.3-2.3,0.9-3c0.6-0.7,1.4-1.1,2.5-1.1
			c1.1,0,1.9,0.4,2.5,1.1c0.6,0.7,0.9,1.7,0.9,3C1503.9,53.9,1503.6,54.9,1503,55.7z"/>
		<path d="M1516.5,46.2c-0.4-0.1-0.8-0.1-1.2-0.1c-0.7,0-1.3,0.2-1.8,0.6c-0.5,0.4-0.9,1-1.2,1.8v-2h-2.8v12.3h2.8v-5.4
			c0-1.8,0.2-3,0.6-3.8c0.4-0.8,1.1-1.1,2-1.1c0.4,0,0.7,0,0.9,0.1c0.3,0.1,0.5,0.2,0.8,0.4l1-2.4
			C1517.3,46.5,1516.9,46.3,1516.5,46.2z"/>
		<path d="M1521,39.9c-0.3-0.3-0.8-0.5-1.2-0.5c-0.5,0-0.9,0.2-1.3,0.5c-0.3,0.3-0.5,0.8-0.5,1.2c0,0.5,0.2,0.9,0.5,1.3
			c0.3,0.3,0.8,0.5,1.3,0.5s0.9-0.2,1.2-0.5c0.3-0.3,0.5-0.8,0.5-1.3C1521.5,40.7,1521.3,40.3,1521,39.9z M1518.4,46.5v12.3h2.8
			V46.5H1518.4z"/>
		<path d="M1536,52.5c0-2-0.6-3.6-1.7-4.8c-1.1-1.1-2.7-1.7-4.6-1.7c-1.9,0-3.4,0.6-4.7,1.9c-1.2,1.2-1.8,2.8-1.8,4.8
			c0,2,0.6,3.6,1.8,4.8c1.2,1.2,2.7,1.8,4.7,1.8c1.4,0,2.6-0.3,3.6-0.9c1-0.6,1.9-1.5,2.6-2.8l-2.4-1.3c-0.4,0.8-1,1.5-1.6,1.8
			c-0.6,0.4-1.4,0.6-2.3,0.6c-1,0-1.8-0.3-2.5-1c-0.6-0.7-1-1.6-1-2.7h9.8V52.5z M1526.3,51.2c0.2-0.9,0.6-1.6,1.2-2
			c0.6-0.5,1.3-0.7,2.2-0.7c1,0,1.8,0.2,2.3,0.7c0.6,0.5,0.9,1.1,1,2H1526.3z"/>
		<path d="M1545.6,53.3c-0.5-0.6-1.3-1.1-2.4-1.5c-0.2-0.1-0.6-0.2-1.1-0.4c-1.5-0.5-2.2-1.1-2.2-1.8c0-0.4,0.2-0.8,0.5-1
			c0.3-0.2,0.8-0.4,1.3-0.4c0.5,0,0.9,0.1,1.3,0.3c0.4,0.2,0.6,0.5,0.8,0.9l2-1.4c-0.3-0.7-0.8-1.2-1.5-1.5
			c-0.7-0.4-1.5-0.5-2.4-0.5c-1.4,0-2.6,0.3-3.4,1c-0.9,0.7-1.3,1.6-1.3,2.7c0,0.8,0.3,1.5,0.8,2c0.5,0.6,1.5,1.1,2.8,1.7
			c0.2,0.1,0.6,0.2,1,0.4c1.3,0.5,1.9,1,1.9,1.7c0,0.5-0.2,0.9-0.5,1.2c-0.4,0.3-0.9,0.4-1.5,0.4c-0.7,0-1.3-0.2-1.8-0.5
			c-0.5-0.3-0.8-0.8-1-1.4l-2.3,1.3c0.5,0.9,1.1,1.6,1.9,2.1c0.8,0.4,1.8,0.7,3,0.7c1.6,0,2.8-0.4,3.7-1c0.9-0.7,1.3-1.7,1.3-2.9
			C1546.3,54.5,1546.1,53.8,1545.6,53.3z"/>
		<path d="M1563.8,46.5v2c-0.3-0.8-0.9-1.4-1.6-1.8c-0.7-0.4-1.6-0.6-2.6-0.6c-1.6,0-3,0.6-4,1.8c-1,1.2-1.5,2.8-1.5,4.8
			c0,2.1,0.5,3.7,1.5,4.9s2.4,1.8,4.1,1.8c0.9,0,1.6-0.2,2.3-0.5c0.7-0.3,1.3-0.9,1.8-1.6v1.6h2.8V46.5H1563.8z M1562.9,55.7
			c-0.6,0.8-1.5,1.2-2.5,1.2c-1.1,0-1.9-0.4-2.5-1.1c-0.6-0.7-0.9-1.7-0.9-3c0-1.3,0.3-2.3,0.9-3c0.6-0.7,1.4-1.1,2.5-1.1
			s1.9,0.4,2.5,1.1c0.6,0.7,0.9,1.7,0.9,3C1563.9,53.9,1563.6,54.9,1562.9,55.7z"/>
		<path d="M1581.2,49c-0.1-0.5-0.2-0.8-0.5-1.2c-0.4-0.6-0.9-1-1.5-1.3c-0.6-0.3-1.4-0.4-2.3-0.4c-1.1,0-2,0.2-2.8,0.6
			c-0.8,0.4-1.4,1-2,1.9v-2h-2.7v12.3h2.8v-5.6c0-1,0-1.8,0.1-2.2c0.1-0.5,0.2-0.8,0.4-1.1c0.3-0.4,0.7-0.8,1.2-1
			c0.5-0.2,1.1-0.4,1.8-0.4c1,0,1.7,0.3,2.1,0.8c0.4,0.5,0.6,1.6,0.6,3.2v6.3h2.8v-7.5C1581.3,50.2,1581.3,49.4,1581.2,49z"/>
		<path d="M1592.8,38.7v9.8c-0.3-0.8-0.9-1.4-1.6-1.8c-0.7-0.4-1.6-0.6-2.6-0.6c-1.6,0-3,0.6-4,1.8c-1,1.2-1.5,2.8-1.5,4.8
			c0,2.1,0.5,3.7,1.5,4.9s2.4,1.8,4.1,1.8c0.9,0,1.6-0.2,2.3-0.5c0.7-0.3,1.3-0.9,1.8-1.6v1.6h2.8V38.7H1592.8z M1591.9,55.7
			c-0.6,0.8-1.5,1.2-2.5,1.2c-1.1,0-1.9-0.4-2.5-1.1c-0.6-0.7-0.9-1.7-0.9-3c0-1.3,0.3-2.3,0.9-3s1.4-1.1,2.5-1.1
			c1.1,0,1.9,0.4,2.5,1.1c0.6,0.7,0.9,1.7,0.9,3C1592.9,53.9,1592.6,54.9,1591.9,55.7z"/>
		<path d="M1621.5,39l-5.5,12c-0.1,0.1-0.1,0.3-0.2,0.5c-0.4,0.8-0.7,1.5-0.9,2.1c-0.2-0.7-0.5-1.2-0.6-1.6
			c-0.2-0.4-0.3-0.8-0.4-0.9l-5.6-12l-4.5,19.8h2.8l2-9.4c0.1-0.5,0.2-0.9,0.2-1.4c0.1-0.4,0.1-0.9,0.1-1.2c0.1,0.4,0.2,0.8,0.4,1.2
			c0.2,0.4,0.3,0.8,0.5,1.2l5,10.3l5-10.1c0.2-0.5,0.4-0.9,0.5-1.3c0.1-0.4,0.2-0.9,0.3-1.3c0.1,0.4,0.1,0.8,0.2,1.4
			c0.1,0.7,0.1,1.1,0.2,1.2l2.1,9.4h2.9L1621.5,39z"/>
		<path d="M1636,46.5v2c-0.3-0.8-0.9-1.4-1.6-1.8c-0.7-0.4-1.6-0.6-2.6-0.6c-1.7,0-3,0.6-4,1.8c-1,1.2-1.5,2.8-1.5,4.8
			c0,2.1,0.5,3.7,1.5,4.9s2.4,1.8,4.1,1.8c0.9,0,1.6-0.2,2.3-0.5c0.7-0.3,1.3-0.9,1.8-1.6v1.6h2.8V46.5H1636z M1635.2,55.7
			c-0.6,0.8-1.5,1.2-2.5,1.2c-1.1,0-1.9-0.4-2.5-1.1c-0.6-0.7-0.9-1.7-0.9-3c0-1.3,0.3-2.3,0.9-3c0.6-0.7,1.4-1.1,2.5-1.1
			c1.1,0,1.9,0.4,2.5,1.1c0.6,0.7,0.9,1.7,0.9,3C1636.1,53.9,1635.8,54.9,1635.2,55.7z"/>
		<path d="M1647.6,51.9l5.6-5.4h-3.5l-5.2,5.1V38.7h-2.8v20.1h2.8v-6.4l5.5,6.4h3.6L1647.6,51.9z"/>
		<path d="M1666.2,52.5c0-2-0.5-3.6-1.7-4.8c-1.1-1.1-2.7-1.7-4.6-1.7c-1.9,0-3.5,0.6-4.7,1.9c-1.2,1.2-1.8,2.8-1.8,4.8
			c0,2,0.6,3.6,1.8,4.8c1.2,1.2,2.7,1.8,4.7,1.8c1.4,0,2.6-0.3,3.6-0.9c1-0.6,1.9-1.5,2.6-2.8l-2.4-1.3c-0.4,0.8-1,1.5-1.6,1.8
			c-0.6,0.4-1.4,0.6-2.3,0.6c-1,0-1.8-0.3-2.5-1c-0.6-0.7-1-1.6-1-2.7h9.8V52.5z M1656.5,51.2c0.2-0.9,0.6-1.6,1.2-2
			c0.6-0.5,1.3-0.7,2.2-0.7c1,0,1.8,0.2,2.3,0.7c0.6,0.5,0.9,1.1,1,2H1656.5z"/>
		<path d="M1675.1,46.2c-0.4-0.1-0.8-0.1-1.2-0.1c-0.7,0-1.3,0.2-1.8,0.6c-0.5,0.4-0.9,1-1.2,1.8v-2h-2.8v12.3h2.8v-5.4
			c0-1.8,0.2-3,0.6-3.8c0.4-0.8,1.1-1.1,2-1.1c0.3,0,0.7,0,0.9,0.1c0.3,0.1,0.6,0.2,0.8,0.4l1-2.4
			C1675.9,46.5,1675.5,46.3,1675.1,46.2z"/>
		<path d="M1684.5,53.3c-0.5-0.6-1.3-1.1-2.4-1.5c-0.2-0.1-0.6-0.2-1.1-0.4c-1.4-0.5-2.2-1.1-2.2-1.8c0-0.4,0.2-0.8,0.5-1
			c0.3-0.2,0.8-0.4,1.3-0.4c0.5,0,0.9,0.1,1.3,0.3c0.4,0.2,0.6,0.5,0.8,0.9l2-1.4c-0.3-0.7-0.8-1.2-1.5-1.5
			c-0.7-0.4-1.5-0.5-2.4-0.5c-1.4,0-2.6,0.3-3.4,1c-0.9,0.7-1.3,1.6-1.3,2.7c0,0.8,0.3,1.5,0.8,2s1.4,1.1,2.8,1.7
			c0.2,0.1,0.6,0.2,1,0.4c1.3,0.5,1.9,1,1.9,1.7c0,0.5-0.2,0.9-0.5,1.2c-0.4,0.3-0.8,0.4-1.5,0.4c-0.7,0-1.3-0.2-1.8-0.5
			c-0.5-0.3-0.8-0.8-1-1.4l-2.3,1.3c0.5,0.9,1.1,1.6,1.9,2.1c0.8,0.4,1.8,0.7,3,0.7c1.6,0,2.8-0.4,3.7-1c0.9-0.7,1.3-1.7,1.3-2.9
			C1685.3,54.5,1685,53.8,1684.5,53.3z"/>
		<path d="M1702.6,50.2c-0.8-0.7-1.7-1.1-2.7-1.1s-2,0.4-2.7,1.1c-0.8,0.7-1.1,1.7-1.1,2.7s0.4,2,1.1,2.7c0.7,0.8,1.6,1.1,2.7,1.1
			c1,0,2-0.4,2.7-1.1c0.8-0.8,1.1-1.7,1.1-2.7S1703.3,51,1702.6,50.2z"/>
		<path d="M1728.2,39.8v11.5c0,1.7-0.4,3-1.2,3.9c-0.8,0.9-2,1.3-3.5,1.3c-1.6,0-2.8-0.4-3.6-1.3c-0.8-0.9-1.2-2.1-1.2-3.9V39.8
			h-3.1v11.8c0,2.6,0.7,4.5,1.9,5.8c1.3,1.3,3.2,1.9,5.9,1.9c2.6,0,4.6-0.6,5.9-1.9c1.3-1.3,1.9-3.2,1.9-5.8V39.8H1728.2z"/>
		<path d="M1746,49c-0.1-0.5-0.2-0.8-0.5-1.2c-0.4-0.6-0.9-1-1.5-1.3c-0.7-0.3-1.4-0.4-2.3-0.4c-1.1,0-2,0.2-2.8,0.6
			c-0.8,0.4-1.4,1-2,1.9v-2h-2.6v12.3h2.8v-5.6c0-1,0-1.8,0.1-2.2c0.1-0.5,0.2-0.8,0.4-1.1c0.3-0.4,0.7-0.8,1.2-1
			c0.5-0.2,1.1-0.4,1.8-0.4c1,0,1.7,0.3,2.1,0.8c0.4,0.5,0.6,1.6,0.6,3.2v6.3h2.8v-7.5C1746.2,50.2,1746.1,49.4,1746,49z"/>
		<path d="M1751.6,39.9c-0.3-0.3-0.8-0.5-1.2-0.5c-0.5,0-0.9,0.2-1.2,0.5c-0.3,0.3-0.5,0.8-0.5,1.2c0,0.5,0.2,0.9,0.5,1.3
			c0.3,0.3,0.8,0.5,1.2,0.5c0.5,0,0.9-0.2,1.2-0.5c0.3-0.3,0.5-0.8,0.5-1.3C1752.1,40.7,1752,40.3,1751.6,39.9z M1749,46.5v12.3h2.8
			V46.5H1749z"/>
		<path d="M1758.2,46.5v-4.7h-2.8v4.7h-2.2V49h2.2v9.8h2.8V49h2.2v-2.5H1758.2z"/>
		<path d="M1764.6,39.9c-0.3-0.3-0.8-0.5-1.3-0.5c-0.5,0-0.9,0.2-1.2,0.5c-0.4,0.3-0.5,0.8-0.5,1.2c0,0.5,0.2,0.9,0.5,1.3
			c0.3,0.3,0.8,0.5,1.2,0.5c0.5,0,0.9-0.2,1.2-0.5c0.3-0.3,0.5-0.8,0.5-1.3C1765.1,40.7,1764.9,40.3,1764.6,39.9z M1761.9,46.5v12.3
			h2.8V46.5H1761.9z"/>
		<path d="M1779.4,49c-0.1-0.5-0.2-0.8-0.5-1.2c-0.4-0.6-0.9-1-1.5-1.3c-0.6-0.3-1.4-0.4-2.3-0.4c-1.1,0-2,0.2-2.8,0.6
			c-0.8,0.4-1.4,1-2,1.9v-2h-2.7v12.3h2.8v-5.6c0-1,0-1.8,0.1-2.2s0.2-0.8,0.4-1.1c0.3-0.4,0.7-0.8,1.2-1c0.5-0.2,1.1-0.4,1.8-0.4
			c1,0,1.7,0.3,2.1,0.8c0.4,0.5,0.6,1.6,0.6,3.2v6.3h2.8v-7.5C1779.5,50.2,1779.5,49.4,1779.4,49z"/>
		<path d="M1791,46.5v2c-0.3-0.8-0.8-1.4-1.6-1.8c-0.7-0.4-1.6-0.6-2.6-0.6c-1.6,0-3,0.6-4,1.8c-1,1.2-1.5,2.8-1.5,4.8
			c0,2.1,0.5,3.7,1.5,4.9s2.4,1.8,4.1,1.8c0.9,0,1.6-0.2,2.3-0.5c0.7-0.3,1.2-0.9,1.8-1.6l0,1.6c0,1.2-0.3,2.1-0.8,2.7
			c-0.5,0.5-1.4,0.8-2.6,0.8c-0.8,0-1.5-0.1-1.9-0.4c-0.4-0.3-0.7-0.7-0.7-1.2l-3,0c0,1.2,0.5,2.1,1.5,2.8c1,0.7,2.4,1.1,4.1,1.1
			c2.3,0,3.9-0.5,4.8-1.5c1-1,1.4-2.7,1.4-5.1V46.5H1791z M1790.1,55.7c-0.6,0.8-1.5,1.2-2.5,1.2c-1.1,0-1.9-0.4-2.5-1.1
			c-0.6-0.7-0.9-1.7-0.9-3c0-1.3,0.3-2.3,0.9-3c0.6-0.7,1.4-1.1,2.5-1.1c1.1,0,1.9,0.4,2.5,1.1c0.6,0.7,0.9,1.7,0.9,3
			C1791.1,53.9,1790.8,54.9,1790.1,55.7z"/>
		<path d="M1815.2,39.8l-4.2,10.1c-0.2,0.5-0.4,1.1-0.6,1.6c-0.2,0.5-0.3,1-0.4,1.5c-0.1-0.5-0.2-0.9-0.4-1.4
			c-0.2-0.5-0.4-1-0.6-1.6l-4.3-10.1h-3.2l8.5,19.7l8.5-19.7H1815.2z"/>
		<path d="M1821.8,39.9c-0.3-0.3-0.8-0.5-1.2-0.5c-0.5,0-0.9,0.2-1.2,0.5c-0.3,0.3-0.5,0.8-0.5,1.2c0,0.5,0.2,0.9,0.5,1.3
			c0.3,0.3,0.8,0.5,1.2,0.5c0.5,0,0.9-0.2,1.2-0.5c0.3-0.3,0.5-0.8,0.5-1.3C1822.2,40.7,1822.1,40.3,1821.8,39.9z M1819.1,46.5v12.3
			h2.8V46.5H1819.1z"/>
		<path d="M1832.6,53.3c-0.5-0.6-1.3-1.1-2.4-1.5c-0.3-0.1-0.6-0.2-1.1-0.4c-1.5-0.5-2.2-1.1-2.2-1.8c0-0.4,0.2-0.8,0.5-1
			c0.3-0.2,0.8-0.4,1.3-0.4c0.5,0,0.9,0.1,1.3,0.3c0.4,0.2,0.6,0.5,0.8,0.9l2-1.4c-0.3-0.7-0.8-1.2-1.5-1.5
			c-0.7-0.4-1.5-0.5-2.4-0.5c-1.4,0-2.6,0.3-3.4,1c-0.9,0.7-1.3,1.6-1.3,2.7c0,0.8,0.3,1.5,0.8,2c0.5,0.6,1.4,1.1,2.8,1.7
			c0.2,0.1,0.6,0.2,1,0.4c1.3,0.5,1.9,1,1.9,1.7c0,0.5-0.2,0.9-0.5,1.2c-0.4,0.3-0.9,0.4-1.5,0.4c-0.7,0-1.3-0.2-1.8-0.5
			c-0.5-0.3-0.8-0.8-1-1.4l-2.3,1.3c0.4,0.9,1.1,1.6,1.9,2.1c0.8,0.4,1.8,0.7,3,0.7c1.6,0,2.8-0.4,3.7-1c0.9-0.7,1.3-1.7,1.3-2.9
			C1833.3,54.5,1833.1,53.8,1832.6,53.3z"/>
		<path d="M1837.9,39.9c-0.3-0.3-0.8-0.5-1.3-0.5c-0.5,0-0.9,0.2-1.2,0.5c-0.3,0.3-0.5,0.8-0.5,1.2c0,0.5,0.2,0.9,0.5,1.3
			c0.4,0.3,0.8,0.5,1.2,0.5c0.5,0,0.9-0.2,1.2-0.5c0.3-0.3,0.5-0.8,0.5-1.3C1838.4,40.7,1838.2,40.3,1837.9,39.9z M1835.3,46.5v12.3
			h2.8V46.5H1835.3z"/>
		<path d="M1853.2,50.2c-0.3-0.8-0.8-1.5-1.5-2.1c-0.6-0.6-1.4-1.1-2.2-1.5c-0.8-0.3-1.7-0.5-2.6-0.5c-0.9,0-1.8,0.2-2.6,0.5
			c-0.8,0.3-1.6,0.8-2.2,1.4c-0.6,0.6-1.1,1.3-1.5,2.1s-0.5,1.7-0.5,2.5c0,0.9,0.2,1.8,0.5,2.5c0.3,0.8,0.8,1.5,1.5,2.2
			c0.6,0.6,1.4,1.1,2.2,1.5c0.8,0.3,1.7,0.5,2.6,0.5c0.9,0,1.8-0.2,2.6-0.5c0.8-0.3,1.6-0.8,2.2-1.5c0.6-0.6,1.1-1.3,1.5-2.1
			c0.3-0.8,0.5-1.6,0.5-2.6C1853.7,51.8,1853.5,51,1853.2,50.2z M1849.6,55.6c-0.7,0.8-1.6,1.2-2.7,1.2c-1.1,0-2-0.4-2.7-1.2
			c-0.7-0.8-1.1-1.8-1.1-2.9c0-1.2,0.4-2.1,1.1-2.9c0.7-0.8,1.6-1.2,2.7-1.2c1.1,0,2,0.4,2.7,1.2c0.7,0.8,1.1,1.8,1.1,2.9
			C1850.7,53.8,1850.3,54.8,1849.6,55.6z"/>
		<path d="M1867.3,49c-0.1-0.5-0.2-0.8-0.5-1.2c-0.4-0.6-0.9-1-1.5-1.3c-0.7-0.3-1.4-0.4-2.3-0.4c-1.1,0-2,0.2-2.8,0.6
			c-0.8,0.4-1.4,1-2,1.9v-2h-2.7v12.3h2.8v-5.6c0-1,0-1.8,0.1-2.2c0.1-0.5,0.2-0.8,0.4-1.1c0.3-0.4,0.7-0.8,1.2-1
			c0.5-0.2,1.1-0.4,1.8-0.4c1,0,1.7,0.3,2.1,0.8c0.4,0.5,0.6,1.6,0.6,3.2v6.3h2.8v-7.5C1867.5,50.2,1867.4,49.4,1867.3,49z"/>
		<path d="M1878.9,46.5v2c-0.3-0.8-0.8-1.4-1.6-1.8c-0.7-0.4-1.6-0.6-2.6-0.6c-1.7,0-3,0.6-4,1.8c-1,1.2-1.5,2.8-1.5,4.8
			c0,2.1,0.5,3.7,1.5,4.9s2.4,1.8,4.1,1.8c0.9,0,1.6-0.2,2.3-0.5c0.7-0.3,1.3-0.9,1.8-1.6v1.6h2.8V46.5H1878.9z M1878.1,55.7
			c-0.6,0.8-1.5,1.2-2.5,1.2c-1.1,0-1.9-0.4-2.5-1.1c-0.6-0.7-0.9-1.7-0.9-3c0-1.3,0.3-2.3,0.9-3s1.5-1.1,2.5-1.1
			c1.1,0,1.9,0.4,2.5,1.1c0.6,0.7,0.9,1.7,0.9,3C1879,53.9,1878.7,54.9,1878.1,55.7z"/>
		<path d="M1891.6,46.2c-0.4-0.1-0.8-0.1-1.2-0.1c-0.7,0-1.3,0.2-1.8,0.6c-0.5,0.4-0.9,1-1.2,1.8v-2h-2.8v12.3h2.8v-5.4
			c0-1.8,0.2-3,0.6-3.8c0.4-0.8,1.1-1.1,2-1.1c0.3,0,0.6,0,0.9,0.1c0.3,0.1,0.5,0.2,0.8,0.4l1-2.4
			C1892.4,46.5,1892,46.3,1891.6,46.2z"/>
		<path d="M1896.1,39.9c-0.3-0.3-0.8-0.5-1.2-0.5c-0.5,0-0.9,0.2-1.2,0.5c-0.4,0.3-0.5,0.8-0.5,1.2c0,0.5,0.2,0.9,0.5,1.3
			c0.3,0.3,0.8,0.5,1.2,0.5c0.5,0,0.9-0.2,1.2-0.5c0.3-0.3,0.5-0.8,0.5-1.3C1896.6,40.7,1896.4,40.3,1896.1,39.9z M1893.4,46.5v12.3
			h2.8V46.5H1893.4z"/>
		<path d="M1911.1,52.5c0-2-0.6-3.6-1.7-4.8c-1.1-1.1-2.7-1.7-4.6-1.7c-1.9,0-3.4,0.6-4.7,1.9c-1.2,1.2-1.8,2.8-1.8,4.8
			c0,2,0.6,3.6,1.8,4.8c1.2,1.2,2.7,1.8,4.7,1.8c1.4,0,2.6-0.3,3.6-0.9c1-0.6,1.9-1.5,2.6-2.8l-2.4-1.3c-0.5,0.8-1,1.5-1.6,1.8
			c-0.6,0.4-1.4,0.6-2.3,0.6c-1,0-1.8-0.3-2.5-1c-0.6-0.7-0.9-1.6-1-2.7h9.8V52.5z M1901.4,51.2c0.2-0.9,0.6-1.6,1.2-2
			c0.6-0.5,1.3-0.7,2.2-0.7c1,0,1.8,0.2,2.3,0.7c0.6,0.5,0.9,1.1,1,2H1901.4z"/>
		<path d="M1915.5,48.6c0.3-0.2,0.8-0.4,1.3-0.4c0.5,0,0.9,0.1,1.3,0.3c0.4,0.2,0.6,0.5,0.8,0.9l1.2-0.8V47
			c-0.2-0.2-0.4-0.3-0.7-0.5c-0.7-0.4-1.5-0.5-2.4-0.5c-1.4,0-2.6,0.3-3.4,1c-0.9,0.7-1.3,1.6-1.3,2.7c0,0.8,0.3,1.5,0.8,2
			s1.4,1.1,2.8,1.7c0.2,0.1,0.6,0.2,1,0.4c1.3,0.5,1.9,1,1.9,1.7c0,0.5-0.2,0.9-0.5,1.2c-0.4,0.3-0.8,0.4-1.5,0.4
			c-0.7,0-1.3-0.2-1.8-0.5c-0.5-0.3-0.8-0.8-1-1.4l-2.3,1.3c0.4,0.9,1.1,1.6,1.9,2.1c0.8,0.4,1.8,0.7,3,0.7c1.5,0,2.7-0.3,3.6-1
			v-5.7c-0.4-0.3-1-0.6-1.8-0.9c-0.2-0.1-0.6-0.2-1.1-0.4c-1.4-0.5-2.2-1.1-2.2-1.8C1915,49.2,1915.2,48.8,1915.5,48.6z"/>
	</g>
</g>
</svg>
