<?xml version="1.0" encoding="utf-8"?>
<!-- Generator: Adobe Illustrator 27.9.0, SVG Export Plug-In . SVG Version: 6.00 Build 0)  -->
<svg version="1.1" id="Layer_1" xmlns="http://www.w3.org/2000/svg" xmlns:xlink="http://www.w3.org/1999/xlink" x="0px" y="0px"
	 viewBox="0 0 601 415" style="enable-background:new 0 0 601 415;" xml:space="preserve">
<style type="text/css">
	.st0{fill:#D9E167;}
</style>
<g>
	<path class="st0" d="M450,401.5H151c-75.8,0-137.5-61.7-137.5-137.5V0h59v264c0,43.3,35.2,78.5,78.5,78.5h299
		c43.3,0,78.5-35.2,78.5-78.5V0h59v264C587.5,339.8,525.8,401.5,450,401.5z"/>
</g>
<g>
	<g>
		<path d="M53.8,45.7v2.7H43.6c-1.5,0-2.7,0.3-3.4,1c-0.8,0.7-1.1,1.7-1.1,3.1c0,1.4,0.4,2.4,1.1,3.1c0.8,0.7,1.9,1,3.4,1h10.2v2.7
			H43.3c-2.3,0-4-0.6-5.1-1.7c-1.1-1.1-1.7-2.9-1.7-5.2s0.6-4,1.7-5.2c1.1-1.1,2.8-1.7,5.1-1.7h10.5V45.7z"/>
		<path d="M37,63.1h10.9v2.3h-1.8c0.7,0.5,1.3,1.1,1.6,1.8c0.3,0.7,0.5,1.5,0.5,2.5c0,0.8-0.1,1.5-0.4,2.1s-0.6,1-1.1,1.3
			c-0.3,0.2-0.6,0.3-1,0.4s-1.1,0.1-2.1,0.1H37v-2.5h5.6c1.4,0,2.4-0.2,2.9-0.5s0.7-1,0.7-1.9c0-0.6-0.1-1.1-0.3-1.6
			S45.4,66.3,45,66c-0.3-0.2-0.6-0.3-1-0.4s-1.1-0.1-2-0.1h-5V63.1z"/>
		<path d="M37,77h10.9v2.5H37V77z M52.6,76.7c0.4,0,0.8,0.2,1.1,0.5s0.5,0.7,0.5,1.1s-0.1,0.8-0.4,1.1c-0.3,0.3-0.7,0.4-1.1,0.4
			c-0.4,0-0.8-0.1-1.1-0.4s-0.5-0.7-0.5-1.1s0.2-0.8,0.5-1.1C51.8,76.9,52.2,76.7,52.6,76.7z"/>
		<path d="M37,83.7h8.7v-1.9h2.2v1.9H52v2.5h-4.1v1.9h-2.2v-1.9H37V83.7z"/>
		<path d="M37,90.3h10.9v2.5H37V90.3z M52.6,90c0.4,0,0.8,0.2,1.1,0.5s0.5,0.7,0.5,1.1s-0.1,0.8-0.4,1.1c-0.3,0.3-0.7,0.4-1.1,0.4
			c-0.4,0-0.8-0.1-1.1-0.4C51.2,92.3,51,92,51,91.5c0-0.4,0.2-0.8,0.5-1.1C51.8,90.1,52.2,90,52.6,90z"/>
		<path d="M37,96.4h10.9v2.3h-1.8c0.7,0.5,1.3,1.1,1.6,1.8c0.3,0.7,0.5,1.5,0.5,2.5c0,0.8-0.1,1.5-0.4,2.1s-0.6,1-1.1,1.3
			c-0.3,0.2-0.6,0.3-1,0.4s-1.1,0.1-2.1,0.1H37v-2.5h5.6c1.4,0,2.4-0.2,2.9-0.5s0.7-1,0.7-1.9c0-0.6-0.1-1.1-0.3-1.6
			s-0.5-0.8-0.9-1.1c-0.3-0.2-0.6-0.3-1-0.4s-1.1-0.1-2-0.1h-5V96.4z"/>
		<path d="M37.7,120.4c-2.1,0-3.6-0.4-4.5-1.3c-0.9-0.8-1.3-2.3-1.3-4.3c0-1.5,0.3-2.7,0.9-3.6c0.6-0.9,1.5-1.4,2.5-1.4v2.7
			c-0.5,0-0.8,0.3-1.1,0.7c-0.2,0.4-0.4,1-0.4,1.7c0,1.1,0.2,1.8,0.7,2.3s1.2,0.7,2.3,0.7h1.4c-0.6-0.4-1.1-1-1.4-1.6
			c-0.3-0.6-0.5-1.3-0.5-2c0-1.5,0.5-2.7,1.6-3.6s2.5-1.3,4.3-1.3c1.7,0,3.1,0.5,4.2,1.4c1.1,0.9,1.6,2.1,1.6,3.5
			c0,0.9-0.2,1.6-0.6,2.3c-0.4,0.6-0.9,1.1-1.6,1.4h1.8v2.5L37.7,120.4L37.7,120.4z M42.5,118c1.1,0,2-0.3,2.6-0.8s0.9-1.3,0.9-2.2
			s-0.3-1.7-1-2.2c-0.6-0.5-1.5-0.8-2.7-0.8s-2,0.3-2.7,0.8c-0.6,0.5-0.9,1.3-0.9,2.2c0,0.9,0.3,1.6,1,2.2
			C40.5,117.7,41.4,118,42.5,118z"/>
		<path d="M36.3,136.5l17.5-7.5v2.8l-9,3.8c-0.5,0.2-1,0.4-1.4,0.6c-0.4,0.1-0.9,0.3-1.3,0.3c0.4,0.1,0.9,0.2,1.3,0.4
			c0.5,0.2,0.9,0.3,1.4,0.5l9,3.8v2.8L36.3,136.5z"/>
		<path d="M37,145.6h10.9v2.5H37V145.6z M52.6,145.3c0.4,0,0.8,0.2,1.1,0.5s0.5,0.7,0.5,1.1c0,0.4-0.1,0.8-0.4,1.1
			c-0.3,0.3-0.7,0.4-1.1,0.4c-0.4,0-0.8-0.1-1.1-0.4c-0.3-0.3-0.5-0.7-0.5-1.1c0-0.4,0.2-0.8,0.5-1.1
			C51.8,145.4,52.2,145.3,52.6,145.3z"/>
		<path d="M39,150.4l1.1,2.1c-0.5,0.2-1,0.4-1.2,0.8c-0.3,0.4-0.4,0.9-0.4,1.6c0,0.6,0.1,1,0.4,1.3c0.3,0.3,0.6,0.5,1,0.5
			c0.6,0,1.1-0.6,1.5-1.7c0.1-0.4,0.3-0.7,0.3-0.9c0.5-1.2,1-2,1.5-2.4c0.5-0.5,1.1-0.7,1.8-0.7c1,0,1.8,0.4,2.4,1.1
			c0.6,0.8,0.9,1.8,0.9,3c0,0.8-0.2,1.6-0.5,2.2c-0.3,0.6-0.8,1-1.3,1.3l-1.2-1.8c0.3-0.1,0.6-0.4,0.8-0.7s0.3-0.7,0.3-1.1
			c0-0.5-0.1-0.9-0.3-1.1c-0.2-0.3-0.5-0.4-0.9-0.4c-0.6,0-1.1,0.6-1.5,1.9c-0.1,0.4-0.3,0.7-0.4,0.9c-0.4,1-0.8,1.7-1.3,2.2
			c-0.5,0.4-1.1,0.6-1.9,0.6c-1.1,0-1.9-0.4-2.6-1.2c-0.6-0.8-0.9-1.9-0.9-3.3c0-1.1,0.2-1.9,0.6-2.7
			C37.5,151.3,38.2,150.8,39,150.4z"/>
		<path d="M37,161.8h10.9v2.5H37V161.8z M52.6,161.4c0.4,0,0.8,0.2,1.1,0.5s0.5,0.7,0.5,1.1c0,0.4-0.1,0.8-0.4,1.1
			c-0.3,0.3-0.7,0.4-1.1,0.4c-0.4,0-0.8-0.1-1.1-0.4c-0.3-0.3-0.5-0.7-0.5-1.1c0-0.4,0.2-0.8,0.5-1.1
			C51.8,161.6,52.2,161.4,52.6,161.4z"/>
		<path d="M42.4,167c0.8,0,1.5,0.2,2.3,0.5s1.3,0.7,1.9,1.3c0.5,0.6,1,1.2,1.3,1.9s0.4,1.5,0.4,2.3s-0.1,1.6-0.4,2.3
			c-0.3,0.7-0.7,1.4-1.3,1.9c-0.6,0.6-1.2,1-1.9,1.3s-1.4,0.4-2.2,0.4s-1.6-0.1-2.3-0.4c-0.7-0.3-1.3-0.7-1.9-1.3
			c-0.6-0.6-1-1.3-1.3-2s-0.4-1.5-0.4-2.3s0.1-1.5,0.4-2.3c0.3-0.7,0.7-1.4,1.3-1.9c0.6-0.6,1.2-1,1.9-1.3
			C40.9,167.2,41.6,167,42.4,167z M42.4,176.4c1,0,1.9-0.3,2.6-1c0.7-0.7,1-1.4,1-2.4c0-0.9-0.4-1.7-1-2.4c-0.7-0.7-1.6-1-2.6-1
			s-1.9,0.3-2.6,1c-0.7,0.7-1,1.4-1,2.4c0,0.9,0.4,1.7,1,2.4C40.5,176.1,41.4,176.4,42.4,176.4z"/>
		<path d="M37,181.6h10.9v2.3h-1.8c0.7,0.5,1.3,1.1,1.6,1.8s0.5,1.5,0.5,2.5c0,0.8-0.1,1.5-0.4,2.1s-0.6,1-1.1,1.3
			c-0.3,0.2-0.6,0.3-1,0.4c-0.4,0.1-1.1,0.1-2.1,0.1H37v-2.5h5.6c1.4,0,2.4-0.2,2.9-0.5s0.7-1,0.7-1.9c0-0.6-0.1-1.1-0.3-1.6
			s-0.5-0.8-0.9-1.1c-0.3-0.2-0.6-0.3-1-0.4c-0.4-0.1-1.1-0.1-2-0.1h-5V181.6z"/>
		<path d="M37,205.7v-2.5h1.4c-0.6-0.4-1.1-1-1.4-1.6c-0.3-0.6-0.5-1.3-0.5-2c0-1.5,0.5-2.7,1.6-3.6c1.1-0.9,2.5-1.3,4.3-1.3
			c1.7,0,3.1,0.5,4.2,1.4c1.1,0.9,1.6,2.1,1.6,3.5c0,0.9-0.2,1.6-0.6,2.3c-0.4,0.6-0.9,1.1-1.6,1.4h1.8v2.5L37,205.7L37,205.7z
			 M42.5,203.3c1.1,0,2-0.3,2.6-0.8s0.9-1.3,0.9-2.2s-0.3-1.7-1-2.2c-0.6-0.5-1.5-0.8-2.7-0.8s-2,0.3-2.7,0.8
			c-0.6,0.5-0.9,1.3-0.9,2.2s0.3,1.6,1,2.2C40.5,203,41.4,203.3,42.5,203.3z"/>
		<path d="M46.1,211.6c0.7,0.3,1.3,0.6,1.6,1.1s0.5,1,0.5,1.6c0,0.4,0,0.7-0.1,1s-0.2,0.7-0.4,1l-2.1-0.9c0.2-0.2,0.3-0.4,0.3-0.7
			c0.1-0.2,0.1-0.5,0.1-0.8c0-0.8-0.3-1.4-1-1.8c-0.7-0.4-1.8-0.5-3.3-0.5H37v-2.5h10.9v2.5L46.1,211.6L46.1,211.6z"/>
		<path d="M37,217.9h10.9v2.5H37V217.9z M52.6,217.6c0.4,0,0.8,0.2,1.1,0.5s0.5,0.7,0.5,1.1c0,0.4-0.1,0.8-0.4,1.1
			c-0.3,0.3-0.7,0.4-1.1,0.4c-0.4,0-0.8-0.1-1.1-0.4c-0.3-0.3-0.5-0.7-0.5-1.1c0-0.4,0.2-0.8,0.5-1.1
			C51.8,217.7,52.2,217.6,52.6,217.6z"/>
		<path d="M42.1,234.4v-8.7c-1,0.1-1.8,0.4-2.4,0.9c-0.6,0.5-0.9,1.3-0.9,2.2c0,0.8,0.2,1.5,0.5,2s0.9,1,1.6,1.4l-1.2,2.1
			c-1.1-0.6-1.9-1.4-2.4-2.3c-0.5-0.9-0.8-2-0.8-3.2c0-1.7,0.5-3.1,1.6-4.2c1.1-1,2.5-1.5,4.3-1.5c1.7,0,3.1,0.5,4.2,1.6
			s1.6,2.4,1.6,4.1c0,1.8-0.5,3.1-1.5,4.1s-2.4,1.5-4.2,1.5L42.1,234.4L42.1,234.4z M43.7,231.8c0.8-0.1,1.4-0.4,1.8-0.9
			s0.6-1.2,0.6-2s-0.2-1.5-0.6-2c-0.4-0.5-1-0.8-1.8-1V231.8z"/>
		<path d="M39,235.8l1.1,2.1c-0.5,0.2-1,0.4-1.2,0.8c-0.3,0.4-0.4,0.9-0.4,1.6c0,0.6,0.1,1,0.4,1.3c0.3,0.3,0.6,0.5,1,0.5
			c0.6,0,1.1-0.6,1.5-1.7c0.1-0.4,0.3-0.7,0.3-0.9c0.5-1.2,1-2,1.5-2.4c0.5-0.5,1.1-0.7,1.8-0.7c1,0,1.8,0.4,2.4,1.1
			c0.6,0.8,0.9,1.8,0.9,3c0,0.8-0.2,1.6-0.5,2.2c-0.3,0.6-0.8,1-1.3,1.3l-1.2-1.8c0.3-0.1,0.6-0.4,0.8-0.7s0.3-0.7,0.3-1.1
			c0-0.5-0.1-0.9-0.3-1.1c-0.2-0.3-0.5-0.4-0.9-0.4c-0.6,0-1.1,0.6-1.5,1.9c-0.1,0.4-0.3,0.7-0.4,0.9c-0.4,1-0.8,1.7-1.3,2.2
			c-0.5,0.4-1.1,0.6-1.9,0.6c-1.1,0-1.9-0.4-2.6-1.2s-0.9-1.9-0.9-3.3c0-1.1,0.2-1.9,0.6-2.7C37.5,236.7,38.2,236.2,39,235.8z"/>
		<path d="M37,264.4v-2.5h1.4c-0.6-0.4-1.1-1-1.4-1.6c-0.3-0.6-0.5-1.3-0.5-2c0-1.5,0.5-2.7,1.6-3.6c1.1-0.9,2.5-1.3,4.3-1.3
			c1.7,0,3.1,0.5,4.2,1.4c1.1,0.9,1.6,2.1,1.6,3.5c0,0.9-0.2,1.6-0.6,2.3c-0.4,0.6-0.9,1.1-1.6,1.4h1.8v2.5L37,264.4L37,264.4z
			 M42.5,261.9c1.1,0,2-0.3,2.6-0.8s0.9-1.3,0.9-2.2c0-0.9-0.3-1.7-1-2.2c-0.6-0.5-1.5-0.8-2.7-0.8s-2,0.3-2.7,0.8
			c-0.6,0.5-0.9,1.3-0.9,2.2c0,0.9,0.3,1.6,1,2.2C40.5,261.7,41.4,261.9,42.5,261.9z"/>
		<path d="M36.9,268.2l10.9-0.5l0.1,2.3l-1.8,0.1c0.8,0.5,1.3,1,1.7,1.7s0.6,1.5,0.6,2.4c0,0.8-0.1,1.5-0.3,2.1s-0.6,1-1.1,1.4
			c-0.3,0.2-0.6,0.4-1,0.5s-1.1,0.2-2.1,0.2l-6.6,0.3l-0.1-2.5l5.6-0.3c1.4-0.1,2.4-0.3,2.8-0.7s0.7-1,0.6-1.9
			c0-0.6-0.2-1.1-0.4-1.5s-0.6-0.8-1-1c-0.3-0.2-0.6-0.3-1-0.3c-0.4-0.1-1.1-0.1-2,0l-5,0.2L36.9,268.2z"/>
		<path d="M56.9,287.7l0.5,2.4l-17.5,3.4l-0.5-2.4l1.4-0.3c-0.7-0.3-1.3-0.7-1.7-1.3s-0.7-1.2-0.8-1.9c-0.3-1.5,0-2.8,0.9-3.9
			s2.2-1.8,4-2.1c1.7-0.3,3.2-0.1,4.4,0.5s2,1.7,2.2,3.2c0.2,0.9,0.1,1.7-0.1,2.3c-0.2,0.7-0.7,1.2-1.3,1.7L56.9,287.7z M44.8,290.1
			c1.1-0.2,1.9-0.6,2.4-1.3c0.5-0.6,0.7-1.4,0.5-2.3s-0.6-1.6-1.4-2c-0.7-0.4-1.7-0.5-2.8-0.3s-2,0.6-2.5,1.3
			c-0.5,0.6-0.7,1.4-0.5,2.3s0.6,1.5,1.4,2S43.7,290.3,44.8,290.1z"/>
		<path d="M57,315.2c0.1-0.1,0.4-0.3,0.9-0.6c0.4-0.3,0.8-0.5,1-0.7c-0.4,0.1-0.8,0.2-1.2,0.2s-0.8,0.1-1.3,0.1l-10-0.2l6.4-7.9
			c0.3-0.3,0.5-0.6,0.8-0.9s0.5-0.5,0.8-0.8c-0.3,0.1-0.7,0.3-1,0.4c-0.4,0.1-0.8,0.2-1.2,0.3l-8.3,1.9l-1.1-2.3l17.5-3.8l-7.5,9
			c-0.1,0.1-0.3,0.4-0.6,0.7c-0.3,0.3-0.6,0.7-1.1,1.1c0.5-0.1,1.2-0.1,2-0.1c0.2,0,0.4,0,0.5,0l11.6-0.1l-14.1,11.1l-1.1-2.3
			L57,315.2z"/>
		<path d="M59.4,334.1l-1.4-2l1.2-0.8c-0.8,0-1.4-0.2-2-0.5s-1.1-0.8-1.5-1.4c-0.9-1.3-1.1-2.6-0.8-3.9s1.3-2.5,2.8-3.6
			c1.4-1,2.8-1.4,4.2-1.3s2.5,0.8,3.3,2c0.5,0.7,0.8,1.5,0.9,2.2s-0.1,1.4-0.5,2.1l1.5-1l1.4,2L59.4,334.1z M62.5,329
			c0.9-0.6,1.5-1.4,1.7-2.2c0.2-0.8,0-1.6-0.5-2.3c-0.5-0.8-1.2-1.2-2.1-1.3c-0.8-0.1-1.7,0.2-2.7,0.9c-0.9,0.7-1.5,1.4-1.7,2.2
			c-0.2,0.8-0.1,1.6,0.5,2.3c0.5,0.7,1.2,1.1,2.1,1.2C60.7,329.9,61.6,329.6,62.5,329z"/>
		<path d="M62.5,337.8l13.1-12l1.7,1.8l-8.4,7.7l6.4,0.3l2.1,2.3l-6.9-0.4l-0.8,8.1l-2.2-2.4l0.8-7.4l-4.1,3.8L62.5,337.8z"/>
		<path d="M83,350.4l-6.6-5.6c-0.6,0.8-0.9,1.6-0.8,2.4s0.4,1.5,1.1,2.1c0.6,0.5,1.2,0.8,1.9,0.9c0.6,0.1,1.3,0,2.1-0.3l0.9,2.2
			c-1.2,0.4-2.3,0.6-3.3,0.4s-2-0.7-2.9-1.4c-1.3-1.1-2.1-2.4-2.2-3.9s0.4-2.9,1.6-4.3c1.1-1.3,2.4-2,3.9-2.2s2.9,0.3,4.2,1.4
			c1.3,1.1,2.1,2.4,2.2,3.8s-0.4,2.8-1.6,4.2L83,350.4z M82.1,347.4c0.4-0.7,0.6-1.3,0.5-1.9s-0.5-1.2-1.2-1.8
			c-0.6-0.5-1.3-0.8-1.9-0.8s-1.3,0.2-2,0.7L82.1,347.4z"/>
		<path d="M90,350.2c0.6-0.4,1.2-0.7,1.8-0.7c0.6,0,1.1,0.1,1.6,0.5c0.3,0.2,0.6,0.4,0.8,0.7c0.2,0.3,0.4,0.5,0.6,0.9l-1.9,1.3
			c-0.1-0.2-0.2-0.5-0.4-0.7c-0.2-0.2-0.4-0.4-0.6-0.6c-0.7-0.5-1.4-0.5-2-0.2c-0.7,0.3-1.4,1.2-2.3,2.5l-2.7,4l-2.1-1.4l6.1-9.1
			l2.1,1.4L90,350.2z"/>
		<path d="M90.8,359.2h2.4c-0.1,0.6-0.1,1,0.2,1.5c0.2,0.4,0.6,0.8,1.2,1.1c0.5,0.3,0.9,0.4,1.3,0.3s0.7-0.3,0.9-0.7
			c0.3-0.5,0-1.2-0.8-2.1c-0.3-0.3-0.5-0.5-0.6-0.7c-0.8-1-1.3-1.8-1.4-2.5c-0.2-0.7-0.1-1.3,0.2-1.9c0.5-0.9,1.2-1.4,2.1-1.5
			c1-0.2,2,0,3.1,0.6c0.7,0.4,1.3,0.9,1.7,1.4c0.4,0.6,0.6,1.2,0.5,1.8l-2.1,0.2c0-0.4,0-0.7-0.2-1s-0.5-0.6-0.9-0.8
			c-0.4-0.2-0.8-0.3-1.2-0.2c-0.4,0.1-0.6,0.3-0.8,0.6c-0.3,0.5,0.1,1.3,1,2.3c0.3,0.3,0.5,0.6,0.7,0.8c0.7,0.8,1.1,1.6,1.3,2.2
			s0,1.3-0.3,2c-0.5,1-1.3,1.5-2.3,1.7s-2.1-0.1-3.3-0.7c-0.9-0.5-1.6-1.1-2-1.8C90.9,360.9,90.7,360.2,90.8,359.2z"/>
		<path d="M112.5,361.9c0.3-0.9,0.8-1.6,1.7-2c0.8-0.4,1.7-0.5,2.6-0.2s1.6,0.8,2,1.7c0.4,0.8,0.5,1.7,0.2,2.6s-0.8,1.6-1.7,2
			c-0.8,0.4-1.7,0.5-2.6,0.3c-0.9-0.3-1.6-0.8-2-1.7C112.3,363.6,112.2,362.8,112.5,361.9z"/>
		<path d="M132.1,358.6l2.7,0.2l-0.7,10.2c-0.1,1.5,0.2,2.7,0.8,3.5s1.7,1.3,3.1,1.3c1.4,0.1,2.4-0.2,3.2-0.9
			c0.7-0.7,1.2-1.8,1.3-3.3l0.7-10.2l2.7,0.2l-0.7,10.4c-0.1,2.3-0.8,3.9-2.1,5c-1.2,1.1-3,1.5-5.3,1.3s-4-0.8-5.1-2
			s-1.5-2.9-1.4-5.2L132.1,358.6z"/>
		<path d="M148.9,376v-10.9h2.3v1.8c0.5-0.7,1.1-1.3,1.8-1.6c0.7-0.3,1.5-0.5,2.5-0.5c0.8,0,1.5,0.1,2.1,0.4s1,0.6,1.3,1.1
			c0.2,0.3,0.3,0.6,0.4,1c0.1,0.4,0.1,1.1,0.1,2.1v6.6h-2.5v-5.6c0-1.4-0.2-2.4-0.5-2.9s-1-0.7-1.9-0.7c-0.6,0-1.1,0.1-1.6,0.3
			c-0.5,0.2-0.8,0.5-1.1,0.9c-0.2,0.3-0.3,0.6-0.4,1c-0.1,0.4-0.1,1.1-0.1,2v5L148.9,376L148.9,376z"/>
		<path d="M162.6,360.4c0-0.4,0.2-0.8,0.5-1.1c0.3-0.3,0.7-0.5,1.1-0.5c0.4,0,0.8,0.1,1.1,0.4s0.4,0.7,0.4,1.1s-0.1,0.8-0.4,1.1
			c-0.3,0.3-0.7,0.5-1.1,0.5c-0.4,0-0.8-0.2-1.1-0.5C162.7,361.2,162.6,360.8,162.6,360.4z M162.9,376v-10.9h2.5V376H162.9z"/>
		<path d="M169.5,376v-8.7h-1.9v-2.2h1.9V361h2.5v4.1h1.9v2.2H172v8.7L169.5,376L169.5,376z"/>
		<path d="M175.8,360.4c0-0.4,0.2-0.8,0.5-1.1c0.3-0.3,0.7-0.5,1.1-0.5c0.4,0,0.8,0.1,1.1,0.4s0.4,0.7,0.4,1.1s-0.1,0.8-0.4,1.1
			c-0.3,0.3-0.7,0.5-1.1,0.5c-0.4,0-0.8-0.2-1.1-0.5C176,361.2,175.8,360.8,175.8,360.4z M176.2,376v-10.9h2.5V376H176.2z"/>
		<path d="M182.2,376v-10.9h2.3v1.8c0.5-0.7,1.1-1.3,1.8-1.6c0.7-0.3,1.5-0.5,2.5-0.5c0.8,0,1.5,0.1,2.1,0.4s1,0.6,1.3,1.1
			c0.2,0.3,0.3,0.6,0.4,1c0.1,0.4,0.1,1.1,0.1,2.1v6.6h-2.5v-5.6c0-1.4-0.2-2.4-0.5-2.9s-1-0.7-1.9-0.7c-0.6,0-1.1,0.1-1.6,0.3
			c-0.5,0.2-0.8,0.5-1.1,0.9c-0.2,0.3-0.3,0.6-0.4,1c-0.1,0.4-0.1,1.1-0.1,2v5L182.2,376L182.2,376z"/>
		<path d="M206.3,375.3c0,2.1-0.4,3.6-1.3,4.5c-0.8,0.9-2.3,1.3-4.3,1.3c-1.5,0-2.7-0.3-3.6-0.9s-1.4-1.5-1.4-2.5h2.7
			c0,0.5,0.3,0.8,0.7,1.1c0.4,0.2,1,0.4,1.7,0.4c1.1,0,1.8-0.2,2.3-0.7s0.7-1.2,0.7-2.3v-1.4c-0.4,0.6-1,1.1-1.6,1.4s-1.3,0.5-2,0.5
			c-1.5,0-2.7-0.5-3.6-1.6c-0.9-1.1-1.3-2.5-1.3-4.3c0-1.7,0.5-3.1,1.4-4.2s2.1-1.6,3.5-1.6c0.9,0,1.6,0.2,2.3,0.6
			c0.6,0.4,1.1,0.9,1.4,1.6v-1.8h2.5L206.3,375.3L206.3,375.3z M203.9,370.5c0-1.1-0.3-2-0.8-2.6s-1.3-0.9-2.2-0.9s-1.7,0.3-2.2,1
			c-0.5,0.6-0.8,1.5-0.8,2.7s0.3,2,0.8,2.7c0.5,0.6,1.3,0.9,2.2,0.9s1.6-0.3,2.2-1C203.6,372.5,203.9,371.6,203.9,370.5z"/>
		<path d="M222.4,376.7l-7.5-17.5h2.8l3.8,9c0.2,0.5,0.4,1,0.6,1.4c0.1,0.4,0.3,0.9,0.3,1.3c0.1-0.4,0.2-0.9,0.4-1.3
			c0.2-0.5,0.3-0.9,0.5-1.4l3.8-9h2.8L222.4,376.7z"/>
		<path d="M231.1,360.4c0-0.4,0.2-0.8,0.5-1.1c0.3-0.3,0.7-0.5,1.1-0.5c0.4,0,0.8,0.1,1.1,0.4s0.4,0.7,0.4,1.1s-0.1,0.8-0.4,1.1
			c-0.3,0.3-0.7,0.5-1.1,0.5c-0.4,0-0.8-0.2-1.1-0.5C231.3,361.2,231.1,360.8,231.1,360.4z M231.4,376v-10.9h2.5V376H231.4z"/>
		<path d="M236.3,374l2.1-1.1c0.2,0.5,0.4,1,0.8,1.2c0.4,0.3,0.9,0.4,1.6,0.4c0.6,0,1-0.1,1.3-0.4s0.5-0.6,0.5-1.1
			c0-0.6-0.6-1.1-1.7-1.5c-0.4-0.1-0.7-0.3-0.9-0.3c-1.2-0.5-2-1-2.4-1.5c-0.5-0.5-0.7-1.1-0.7-1.8c0-1,0.4-1.8,1.1-2.4
			s1.8-0.9,3-0.9c0.8,0,1.6,0.2,2.2,0.5c0.6,0.3,1,0.8,1.3,1.3l-1.8,1.2c-0.1-0.3-0.4-0.6-0.7-0.8c-0.3-0.2-0.7-0.3-1.1-0.3
			c-0.5,0-0.9,0.1-1.1,0.3c-0.3,0.2-0.4,0.5-0.4,0.9c0,0.6,0.6,1.1,1.9,1.5c0.4,0.1,0.7,0.3,0.9,0.4c1,0.4,1.7,0.8,2.2,1.3
			c0.4,0.5,0.6,1.1,0.6,1.9c0,1.1-0.4,1.9-1.2,2.6c-0.8,0.6-1.9,0.9-3.3,0.9c-1.1,0-1.9-0.2-2.7-0.6
			C237.2,375.5,236.7,374.8,236.3,374z"/>
		<path d="M247.3,360.4c0-0.4,0.2-0.8,0.5-1.1c0.3-0.3,0.7-0.5,1.1-0.5c0.4,0,0.8,0.1,1.1,0.4s0.4,0.7,0.4,1.1s-0.1,0.8-0.4,1.1
			c-0.3,0.3-0.7,0.5-1.1,0.5c-0.4,0-0.8-0.2-1.1-0.5C247.4,361.2,247.3,360.8,247.3,360.4z M247.6,376v-10.9h2.5V376H247.6z"/>
		<path d="M252.9,370.6c0-0.8,0.2-1.5,0.5-2.3c0.3-0.7,0.7-1.3,1.3-1.9c0.6-0.5,1.2-1,1.9-1.2c0.7-0.3,1.5-0.4,2.3-0.4
			s1.6,0.1,2.3,0.4c0.7,0.3,1.4,0.7,1.9,1.3c0.6,0.6,1,1.2,1.3,1.9c0.3,0.7,0.4,1.4,0.4,2.2c0,0.8-0.1,1.6-0.4,2.3s-0.7,1.3-1.3,1.9
			c-0.6,0.6-1.3,1-2,1.3s-1.5,0.4-2.3,0.4s-1.5-0.1-2.3-0.4c-0.7-0.3-1.4-0.7-1.9-1.3c-0.6-0.6-1-1.2-1.3-1.9
			C253,372.1,252.9,371.4,252.9,370.6z M262.2,370.6c0-1-0.3-1.9-1-2.6s-1.4-1.1-2.4-1.1c-0.9,0-1.7,0.4-2.4,1.1
			c-0.7,0.7-1,1.6-1,2.6s0.3,1.9,1,2.6c0.7,0.7,1.4,1,2.4,1c0.9,0,1.7-0.3,2.4-1S262.2,371.6,262.2,370.6z"/>
		<path d="M267.5,376v-10.9h2.3v1.8c0.5-0.7,1.1-1.3,1.8-1.6c0.7-0.3,1.5-0.5,2.5-0.5c0.8,0,1.5,0.1,2.1,0.4s1,0.6,1.3,1.1
			c0.2,0.3,0.3,0.6,0.4,1s0.1,1.1,0.1,2.1v6.6h-2.5v-5.6c0-1.4-0.2-2.4-0.5-2.9s-1-0.7-1.9-0.7c-0.6,0-1.1,0.1-1.6,0.3
			c-0.5,0.2-0.8,0.5-1.1,0.9c-0.2,0.3-0.3,0.6-0.4,1s-0.1,1.1-0.1,2v5L267.5,376L267.5,376z"/>
		<path d="M291.6,376h-2.5v-1.4c-0.4,0.6-1,1.1-1.6,1.4s-1.3,0.5-2,0.5c-1.5,0-2.7-0.5-3.6-1.6s-1.3-2.5-1.3-4.3
			c0-1.7,0.5-3.1,1.4-4.2s2.1-1.6,3.5-1.6c0.9,0,1.6,0.2,2.3,0.6c0.6,0.4,1.1,0.9,1.4,1.6v-1.8h2.5L291.6,376L291.6,376z
			 M289.1,370.5c0-1.1-0.3-2-0.8-2.6s-1.3-0.9-2.2-0.9c-0.9,0-1.7,0.3-2.2,1c-0.5,0.6-0.8,1.5-0.8,2.7s0.3,2,0.8,2.7
			c0.5,0.6,1.3,0.9,2.2,0.9c0.9,0,1.6-0.3,2.2-1C288.9,372.5,289.1,371.6,289.1,370.5z"/>
		<path d="M297.5,366.9c0.3-0.7,0.6-1.3,1.1-1.6s1-0.5,1.6-0.5c0.4,0,0.7,0,1,0.1s0.7,0.2,1,0.4l-0.9,2.1c-0.2-0.2-0.4-0.3-0.7-0.3
			s-0.5-0.1-0.8-0.1c-0.8,0-1.4,0.3-1.8,1s-0.5,1.8-0.5,3.3v4.8H295v-10.9h2.5V366.9z"/>
		<path d="M303.4,360.4c0-0.4,0.2-0.8,0.5-1.1c0.3-0.3,0.7-0.5,1.1-0.5s0.8,0.1,1.1,0.4c0.3,0.3,0.4,0.7,0.4,1.1s-0.1,0.8-0.4,1.1
			c-0.3,0.3-0.7,0.5-1.1,0.5s-0.8-0.2-1.1-0.5C303.6,361.2,303.4,360.8,303.4,360.4z M303.8,376v-10.9h2.5V376H303.8z"/>
		<path d="M320.3,370.9h-8.7c0.1,1,0.4,1.8,0.9,2.4s1.3,0.9,2.2,0.9c0.8,0,1.5-0.2,2-0.5s1-0.9,1.4-1.6l2.1,1.2
			c-0.6,1.1-1.4,1.9-2.3,2.4s-2,0.8-3.2,0.8c-1.7,0-3.1-0.5-4.2-1.6c-1-1.1-1.5-2.5-1.5-4.3c0-1.7,0.5-3.1,1.6-4.2s2.4-1.6,4.1-1.6
			c1.8,0,3.1,0.5,4.1,1.5s1.5,2.4,1.5,4.2V370.9z M317.7,369.3c-0.1-0.8-0.4-1.4-0.9-1.8s-1.2-0.6-2-0.6s-1.5,0.2-2,0.6
			s-0.8,1-1,1.8H317.7z"/>
		<path d="M321.6,374l2.1-1.1c0.2,0.5,0.4,1,0.8,1.2c0.4,0.3,0.9,0.4,1.6,0.4c0.6,0,1-0.1,1.3-0.4s0.5-0.6,0.5-1.1
			c0-0.6-0.6-1.1-1.7-1.5c-0.4-0.1-0.7-0.3-0.9-0.3c-1.2-0.5-2-1-2.4-1.5s-0.7-1.1-0.7-1.8c0-1,0.4-1.8,1.1-2.4s1.8-0.9,3-0.9
			c0.8,0,1.6,0.2,2.2,0.5s1,0.8,1.3,1.3l-1.8,1.2c-0.1-0.3-0.4-0.6-0.7-0.8c-0.3-0.2-0.7-0.3-1.1-0.3c-0.5,0-0.9,0.1-1.1,0.3
			c-0.3,0.2-0.4,0.5-0.4,0.9c0,0.6,0.6,1.1,1.9,1.5c0.4,0.1,0.7,0.3,0.9,0.4c1,0.4,1.7,0.8,2.2,1.3c0.4,0.5,0.6,1.1,0.6,1.9
			c0,1.1-0.4,1.9-1.2,2.6c-0.8,0.6-1.9,0.9-3.3,0.9c-1.1,0-1.9-0.2-2.7-0.6C322.6,375.5,322,374.8,321.6,374z"/>
		<path d="M350.2,376h-2.5v-1.4c-0.4,0.6-1,1.1-1.6,1.4s-1.3,0.5-2,0.5c-1.5,0-2.7-0.5-3.6-1.6s-1.3-2.5-1.3-4.3
			c0-1.7,0.5-3.1,1.4-4.2s2.1-1.6,3.5-1.6c0.9,0,1.6,0.2,2.3,0.6s1.1,0.9,1.4,1.6v-1.8h2.5L350.2,376L350.2,376z M347.8,370.5
			c0-1.1-0.3-2-0.8-2.6s-1.3-0.9-2.2-0.9c-0.9,0-1.7,0.3-2.2,1c-0.5,0.6-0.8,1.5-0.8,2.7s0.3,2,0.8,2.7s1.3,0.9,2.2,0.9
			c0.9,0,1.6-0.3,2.2-1C347.5,372.5,347.8,371.6,347.8,370.5z"/>
		<path d="M353.7,376v-10.9h2.3v1.8c0.5-0.7,1.1-1.3,1.8-1.6s1.5-0.5,2.5-0.5c0.8,0,1.5,0.1,2.1,0.4s1,0.6,1.3,1.1
			c0.2,0.3,0.3,0.6,0.4,1s0.1,1.1,0.1,2.1v6.6h-2.5v-5.6c0-1.4-0.2-2.4-0.5-2.9s-1-0.7-1.9-0.7c-0.6,0-1.1,0.1-1.6,0.3
			c-0.5,0.2-0.8,0.5-1.1,0.9c-0.2,0.3-0.3,0.6-0.4,1s-0.1,1.1-0.1,2v5L353.7,376L353.7,376z"/>
		<path d="M375.2,358.2h2.5V376h-2.5v-1.4c-0.4,0.6-1,1.1-1.6,1.4s-1.3,0.5-2,0.5c-1.5,0-2.7-0.5-3.6-1.6s-1.3-2.5-1.3-4.3
			c0-1.7,0.5-3.1,1.4-4.2s2.1-1.6,3.5-1.6c0.9,0,1.6,0.2,2.3,0.6s1.1,0.9,1.4,1.6L375.2,358.2L375.2,358.2z M375.3,370.5
			c0-1.1-0.3-2-0.8-2.6s-1.3-0.9-2.2-0.9c-0.9,0-1.7,0.3-2.2,1c-0.5,0.6-0.8,1.5-0.8,2.7s0.3,2,0.8,2.7s1.3,0.9,2.2,0.9
			c0.9,0,1.6-0.3,2.2-1C375,372.5,375.3,371.6,375.3,370.5z"/>
		<path d="M402.2,367.7c0-0.1-0.1-0.5-0.1-1.1c-0.1-0.5-0.1-0.9-0.2-1.2c-0.1,0.4-0.2,0.8-0.3,1.1c-0.1,0.4-0.3,0.8-0.5,1.2l-4.4,9
			l-4.4-9.1c-0.2-0.4-0.3-0.7-0.5-1.1s-0.3-0.7-0.4-1c0,0.4,0,0.7-0.1,1.1c0,0.4-0.1,0.8-0.2,1.2l-1.8,8.3h-2.5l4-17.5l5,10.6
			c0.1,0.2,0.2,0.4,0.3,0.8c0.2,0.4,0.3,0.9,0.6,1.4c0.2-0.5,0.4-1.1,0.8-1.8c0.1-0.2,0.2-0.4,0.2-0.5l4.8-10.6l4.1,17.5H404
			L402.2,367.7z"/>
		<path d="M418.8,376h-2.5v-1.4c-0.4,0.6-1,1.1-1.6,1.4s-1.3,0.5-2,0.5c-1.5,0-2.7-0.5-3.6-1.6s-1.3-2.5-1.3-4.3
			c0-1.7,0.5-3.1,1.4-4.2s2.1-1.6,3.5-1.6c0.9,0,1.6,0.2,2.3,0.6s1.1,0.9,1.4,1.6v-1.8h2.5L418.8,376L418.8,376z M416.4,370.5
			c0-1.1-0.3-2-0.8-2.6s-1.3-0.9-2.2-0.9c-0.9,0-1.7,0.3-2.2,1c-0.5,0.6-0.8,1.5-0.8,2.7s0.3,2,0.8,2.7s1.3,0.9,2.2,0.9
			c0.9,0,1.6-0.3,2.2-1C416.1,372.5,416.4,371.6,416.4,370.5z"/>
		<path d="M422.2,376v-17.8h2.5v11.4l4.6-4.5h3.1l-4.9,4.8l5.4,6.1h-3.2l-4.9-5.6v5.6H422.2z"/>
		<path d="M444.8,370.9h-8.7c0.1,1,0.4,1.8,0.9,2.4s1.3,0.9,2.2,0.9c0.8,0,1.5-0.2,2-0.5s1-0.9,1.4-1.6l2.1,1.2
			c-0.6,1.1-1.4,1.9-2.3,2.4s-2,0.8-3.2,0.8c-1.7,0-3.1-0.5-4.2-1.6c-1-1.1-1.5-2.5-1.5-4.3c0-1.7,0.5-3.1,1.6-4.2s2.4-1.6,4.1-1.6
			c1.8,0,3.1,0.5,4.1,1.5s1.5,2.4,1.5,4.2V370.9z M442.2,369.3c-0.1-0.8-0.4-1.4-0.9-1.8s-1.2-0.6-2-0.6s-1.5,0.2-2,0.6
			s-0.8,1-1,1.8H442.2z"/>
		<path d="M449.9,366.9c0.3-0.7,0.6-1.3,1.1-1.6s1-0.5,1.6-0.5c0.4,0,0.7,0,1,0.1s0.7,0.2,1,0.4l-0.9,2.1c-0.2-0.2-0.4-0.3-0.7-0.3
			c-0.2-0.1-0.5-0.1-0.8-0.1c-0.8,0-1.4,0.3-1.8,1s-0.5,1.8-0.5,3.3v4.8h-2.5v-10.9h2.5L449.9,366.9L449.9,366.9z"/>
		<path d="M455.4,374.1l2-1.3c0.2,0.5,0.5,0.9,0.9,1.2c0.4,0.3,1,0.4,1.6,0.3c0.6,0,1-0.2,1.3-0.5s0.4-0.6,0.4-1.1
			c0-0.6-0.6-1.1-1.8-1.4c-0.4-0.1-0.7-0.2-0.9-0.3c-1.2-0.4-2-0.8-2.5-1.3s-0.8-1.1-0.8-1.8c-0.1-1,0.3-1.8,1-2.4
			c0.7-0.7,1.7-1,3-1.1c0.8-0.1,1.6,0.1,2.2,0.3c0.6,0.3,1.1,0.7,1.4,1.2l-1.7,1.3c-0.2-0.3-0.4-0.6-0.7-0.8
			c-0.3-0.2-0.7-0.3-1.1-0.2c-0.5,0-0.8,0.2-1.1,0.4c-0.3,0.2-0.4,0.6-0.4,0.9c0,0.6,0.7,1,2,1.4c0.4,0.1,0.7,0.2,1,0.3
			c1,0.3,1.8,0.7,2.2,1.2c0.5,0.5,0.7,1.1,0.8,1.8c0.1,1.1-0.3,2-1,2.6s-1.8,1-3.2,1.1c-1.1,0.1-2-0.1-2.7-0.4
			C456.4,375.5,455.8,374.9,455.4,374.1z"/>
		<path d="M475.2,364.8c-0.2-0.9-0.1-1.8,0.4-2.6c0.5-0.8,1.2-1.3,2.1-1.6c0.9-0.2,1.8-0.1,2.6,0.3c0.8,0.5,1.3,1.2,1.6,2.1
			c0.2,0.9,0.1,1.8-0.4,2.6s-1.2,1.3-2.1,1.6c-0.9,0.2-1.8,0.1-2.6-0.4C475.9,366.4,475.4,365.7,475.2,364.8z"/>
		<path d="M490,351.7l2.4-1.3l4.8,9c0.7,1.3,1.6,2.2,2.5,2.5c1,0.3,2.1,0.2,3.3-0.5c1.2-0.7,2-1.5,2.2-2.5c0.3-1,0-2.2-0.7-3.5
			l-4.8-9l2.4-1.3l4.9,9.2c1.1,2,1.4,3.8,0.9,5.3s-1.7,2.9-3.8,3.9c-2,1.1-3.8,1.4-5.4,1s-2.8-1.7-3.9-3.7L490,351.7z"/>
		<path d="M514.4,357l-6.6-8.6l1.9-1.4l1.1,1.4c-0.1-0.9,0.1-1.7,0.4-2.4c0.3-0.7,0.9-1.3,1.6-1.9c0.6-0.5,1.3-0.8,1.9-1
			s1.2-0.1,1.8,0.1c0.3,0.1,0.7,0.3,1,0.6c0.3,0.3,0.8,0.8,1.4,1.6l4,5.2l-2,1.5l-3.4-4.4c-0.9-1.1-1.6-1.8-2.1-1.9s-1.2,0-1.9,0.6
			c-0.5,0.4-0.8,0.8-1,1.2c-0.2,0.4-0.3,0.9-0.3,1.4c0,0.3,0.1,0.7,0.3,1c0.2,0.4,0.6,0.9,1.1,1.6l3,3.9L514.4,357z"/>
		<path d="M515.1,336.4c-0.3-0.3-0.4-0.7-0.4-1.1s0.2-0.8,0.5-1.1c0.3-0.3,0.7-0.4,1.1-0.4c0.4,0,0.8,0.2,1.1,0.5s0.5,0.7,0.4,1.1
			c0,0.4-0.2,0.8-0.5,1.1c-0.3,0.3-0.7,0.4-1.1,0.4S515.4,336.8,515.1,336.4z M526,347.6l-7.4-7.9l1.8-1.7l7.4,7.9L526,347.6z"/>
		<path d="M531.2,342.5l-6.4-5.9l-1.3,1.4l-1.6-1.5l1.3-1.4l-3-2.8l1.7-1.8l3,2.8l1.3-1.4l1.6,1.5l-1.3,1.4l6.4,5.9L531.2,342.5z"/>
		<path d="M523.8,327.4c-0.3-0.3-0.5-0.6-0.6-1c0-0.4,0.1-0.8,0.3-1.1c0.3-0.3,0.6-0.5,1-0.6s0.8,0.1,1.1,0.4s0.5,0.6,0.6,1.1
			c0,0.4-0.1,0.8-0.3,1.1c-0.3,0.3-0.6,0.5-1.1,0.6C524.5,327.8,524.2,327.7,523.8,327.4z M536.1,337l-8.4-6.9l1.6-1.9l8.4,6.9
			L536.1,337z"/>
		<path d="M540.6,331.4l-9.1-6l1.3-2l1.5,1c-0.4-0.8-0.5-1.6-0.4-2.4s0.4-1.5,0.9-2.3c0.4-0.7,0.9-1.2,1.5-1.5
			c0.5-0.3,1.1-0.5,1.7-0.5c0.4,0,0.7,0.1,1.1,0.2c0.4,0.1,1,0.5,1.8,1l5.5,3.6l-1.4,2.1l-4.7-3.1c-1.2-0.8-2.1-1.2-2.7-1.1
			s-1.1,0.4-1.6,1.2c-0.3,0.5-0.5,1-0.6,1.5s0,1,0.2,1.4c0.1,0.3,0.3,0.6,0.6,0.9s0.8,0.7,1.6,1.2l4.1,2.7L540.6,331.4z"/>
		<path d="M552.4,308.9c1.9,0.9,3.1,1.9,3.5,3.1c0.4,1.1,0.2,2.6-0.6,4.4c-0.6,1.4-1.4,2.3-2.4,2.8s-1.9,0.6-2.9,0.2l1.1-2.4
			c0.4,0.2,0.9,0.1,1.2-0.1c0.4-0.3,0.7-0.7,1-1.4c0.5-1,0.6-1.8,0.3-2.4c-0.2-0.6-0.8-1.2-1.8-1.6l-1.3-0.6c0.4,0.7,0.6,1.3,0.6,2
			s-0.1,1.3-0.4,2c-0.7,1.4-1.6,2.3-3,2.6c-1.3,0.4-2.8,0.1-4.5-0.6c-1.6-0.7-2.6-1.7-3.2-3c-0.6-1.3-0.6-2.6,0.1-3.9
			c0.4-0.8,0.9-1.4,1.5-1.8s1.3-0.6,2-0.6l-1.6-0.8l1.1-2.3L552.4,308.9z M547,309.1c-1-0.5-1.9-0.6-2.7-0.4s-1.4,0.7-1.8,1.6
			c-0.4,0.9-0.4,1.7-0.1,2.4c0.4,0.8,1.1,1.4,2.1,1.9s2,0.6,2.8,0.4s1.4-0.7,1.8-1.6c0.4-0.8,0.4-1.6,0-2.4
			C548.7,310.2,548,309.6,547,309.1z"/>
		<path d="M559,291.9l-18.7,3.5l0.6-2.8l9.6-1.7c0.6-0.1,1.1-0.2,1.5-0.2c0.5,0,0.9-0.1,1.3-0.1c-0.4-0.2-0.8-0.4-1.2-0.7
			c-0.4-0.2-0.8-0.5-1.2-0.8l-7.9-5.6l0.6-2.8L559,291.9z"/>
		<path d="M544.6,280.3c-0.4,0-0.8-0.2-1-0.6s-0.4-0.7-0.3-1.2c0.1-0.4,0.2-0.8,0.6-1s0.7-0.4,1.2-0.3s0.8,0.2,1.1,0.6
			c0.3,0.3,0.4,0.7,0.3,1.1c0,0.4-0.2,0.8-0.6,1C545.4,280.2,545.1,280.3,544.6,280.3z M560.1,281.7l-10.8-1.2l0.3-2.5l10.8,1.2
			L560.1,281.7z"/>
		<path d="M558.8,276.1l-1.1-2.1c0.5-0.1,1-0.4,1.3-0.8s0.5-0.9,0.5-1.6c0-0.6-0.1-1-0.3-1.3s-0.6-0.5-1-0.5c-0.6,0-1.1,0.5-1.6,1.6
			c-0.1,0.4-0.3,0.7-0.4,0.9c-0.5,1.1-1,1.9-1.5,2.4s-1.1,0.7-1.8,0.6c-1,0-1.7-0.4-2.3-1.2c-0.6-0.8-0.8-1.8-0.8-3.1
			c0-0.8,0.2-1.6,0.5-2.1c0.3-0.6,0.8-1,1.4-1.3l1.2,1.8c-0.3,0.1-0.6,0.3-0.8,0.7s-0.3,0.7-0.3,1.1c0,0.5,0.1,0.9,0.3,1.2
			c0.2,0.3,0.5,0.4,0.9,0.5c0.6,0,1.1-0.6,1.6-1.9c0.2-0.4,0.3-0.7,0.4-0.9c0.4-1,0.9-1.7,1.4-2.1s1.1-0.6,1.9-0.6
			c1.1,0,1.9,0.5,2.5,1.3s0.9,1.9,0.8,3.3c0,1.1-0.3,1.9-0.7,2.6C560.3,275.2,559.7,275.7,558.8,276.1z"/>
		<path d="M545.4,264.8c-0.4,0-0.8-0.2-1.1-0.5s-0.5-0.7-0.5-1.1s0.1-0.8,0.4-1.1c0.3-0.3,0.7-0.4,1.1-0.4c0.4,0,0.8,0.1,1.1,0.4
			s0.5,0.7,0.5,1.1s-0.2,0.8-0.5,1.1C546.2,264.7,545.8,264.8,545.4,264.8z M561,264.5h-10.9V262H561V264.5z"/>
		<path d="M555.6,259.2c-0.8,0-1.5-0.2-2.3-0.5c-0.7-0.3-1.3-0.7-1.9-1.3c-0.5-0.6-1-1.2-1.2-1.9c-0.3-0.7-0.4-1.5-0.4-2.3
			s0.1-1.6,0.4-2.3c0.3-0.7,0.7-1.4,1.3-1.9c0.6-0.6,1.2-1,1.9-1.3s1.4-0.4,2.2-0.4s1.6,0.1,2.3,0.4c0.7,0.3,1.3,0.7,1.9,1.3
			c0.6,0.6,1,1.3,1.3,2s0.4,1.5,0.4,2.3s-0.1,1.5-0.4,2.3c-0.3,0.7-0.7,1.4-1.3,1.9c-0.6,0.6-1.2,1-1.9,1.3
			C557.1,259.1,556.4,259.2,555.6,259.2z M555.6,249.9c-1,0-1.9,0.3-2.6,1c-0.7,0.7-1.1,1.4-1.1,2.4c0,0.9,0.4,1.7,1.1,2.4
			c0.7,0.7,1.6,1,2.6,1s1.9-0.3,2.6-1c0.7-0.7,1-1.4,1-2.4c0-0.9-0.3-1.7-1-2.4C557.5,250.2,556.6,249.9,555.6,249.9z"/>
		<path d="M561,244.6h-10.9v-2.3h1.8c-0.7-0.5-1.3-1.1-1.6-1.8s-0.5-1.5-0.5-2.5c0-0.8,0.1-1.5,0.4-2.1c0.3-0.6,0.6-1,1.1-1.3
			c0.3-0.2,0.6-0.3,1-0.4c0.4-0.1,1.1-0.1,2.1-0.1h6.6v2.5h-5.6c-1.4,0-2.4,0.2-2.9,0.5s-0.7,1-0.7,1.9c0,0.6,0.1,1.1,0.3,1.6
			s0.5,0.8,0.9,1.1c0.3,0.2,0.6,0.3,1,0.4c0.4,0.1,1.1,0.1,2,0.1h5L561,244.6L561,244.6z"/>
		<path d="M561,220.6v2.5h-1.4c0.6,0.4,1.1,1,1.4,1.6c0.3,0.6,0.5,1.3,0.5,2c0,1.5-0.5,2.7-1.6,3.6s-2.5,1.3-4.3,1.3
			c-1.7,0-3.1-0.5-4.2-1.4c-1.1-0.9-1.6-2.1-1.6-3.5c0-0.9,0.2-1.6,0.6-2.3s0.9-1.1,1.6-1.4h-1.8v-2.5L561,220.6L561,220.6z
			 M555.5,223c-1.1,0-2,0.3-2.6,0.8s-0.9,1.3-0.9,2.2s0.3,1.7,1,2.2c0.6,0.5,1.5,0.8,2.7,0.8s2-0.3,2.7-0.8s0.9-1.3,0.9-2.2
			s-0.3-1.6-1-2.2C557.5,223.3,556.6,223,555.5,223z"/>
		<path d="M551.9,214.6c-0.7-0.3-1.3-0.6-1.6-1.1s-0.5-1-0.5-1.6c0-0.4,0-0.7,0.1-1s0.2-0.7,0.4-1l2.1,0.9c-0.2,0.2-0.3,0.4-0.3,0.7
			c-0.1,0.2-0.1,0.5-0.1,0.8c0,0.8,0.3,1.4,1,1.8c0.7,0.4,1.8,0.5,3.3,0.5h4.8v2.5h-10.9v-2.5L551.9,214.6L551.9,214.6z"/>
		<path d="M545.4,208.7c-0.4,0-0.8-0.2-1.1-0.5s-0.5-0.7-0.5-1.1c0-0.4,0.1-0.8,0.4-1.1c0.3-0.3,0.7-0.4,1.1-0.4
			c0.4,0,0.8,0.1,1.1,0.4c0.3,0.3,0.5,0.7,0.5,1.1c0,0.4-0.2,0.8-0.5,1.1C546.2,208.5,545.8,208.7,545.4,208.7z M561,208.4h-10.9
			v-2.5H561V208.4z"/>
		<path d="M555.9,191.8v8.7c1-0.1,1.8-0.4,2.4-0.9c0.6-0.5,0.9-1.3,0.9-2.2c0-0.8-0.2-1.5-0.5-2s-0.9-1-1.6-1.4l1.2-2.1
			c1.1,0.6,1.9,1.4,2.4,2.3c0.5,0.9,0.8,2,0.8,3.2c0,1.7-0.5,3.1-1.6,4.2c-1.1,1-2.5,1.5-4.3,1.5c-1.7,0-3.1-0.5-4.2-1.6
			c-1.1-1.1-1.6-2.4-1.6-4.1c0-1.8,0.5-3.1,1.5-4.1s2.4-1.5,4.2-1.5L555.9,191.8L555.9,191.8z M554.3,194.4
			c-0.8,0.1-1.4,0.4-1.8,0.9c-0.4,0.5-0.6,1.2-0.6,2s0.2,1.5,0.6,2c0.4,0.5,1,0.8,1.8,1V194.4z"/>
		<path d="M559,190.5l-1.1-2.1c0.5-0.2,1-0.4,1.2-0.8c0.3-0.4,0.4-0.9,0.4-1.6c0-0.6-0.1-1-0.4-1.3c-0.3-0.3-0.6-0.5-1.1-0.5
			c-0.6,0-1.1,0.6-1.5,1.7c-0.1,0.4-0.3,0.7-0.3,0.9c-0.5,1.2-1,2-1.5,2.4c-0.5,0.5-1.1,0.7-1.8,0.7c-1,0-1.8-0.4-2.4-1.1
			s-0.9-1.8-0.9-3c0-0.8,0.2-1.6,0.5-2.2c0.3-0.6,0.8-1,1.3-1.3l1.2,1.8c-0.3,0.1-0.6,0.4-0.8,0.7s-0.3,0.7-0.3,1.1
			c0,0.5,0.1,0.9,0.3,1.1c0.2,0.3,0.5,0.4,0.9,0.4c0.6,0,1.1-0.6,1.5-1.9c0.1-0.4,0.3-0.7,0.4-0.9c0.4-1,0.8-1.7,1.3-2.2
			c0.5-0.4,1.1-0.6,1.9-0.6c1.1,0,1.9,0.4,2.6,1.2c0.6,0.8,0.9,1.9,0.9,3.3c0,1.1-0.2,1.9-0.6,2.7
			C560.5,189.5,559.8,190.1,559,190.5z"/>
		<path d="M561,161.9v2.5h-1.4c0.6,0.4,1.1,1,1.4,1.6s0.5,1.3,0.5,2c0,1.5-0.5,2.7-1.6,3.6c-1.1,0.9-2.5,1.3-4.3,1.3
			c-1.7,0-3.1-0.5-4.2-1.4c-1.1-0.9-1.6-2.1-1.6-3.5c0-0.9,0.2-1.6,0.6-2.3c0.4-0.6,0.9-1.1,1.6-1.4h-1.8v-2.5L561,161.9L561,161.9z
			 M555.5,164.3c-1.1,0-2,0.3-2.6,0.8s-0.9,1.3-0.9,2.2s0.3,1.7,1,2.2c0.6,0.5,1.5,0.8,2.7,0.8s2-0.3,2.7-0.8
			c0.6-0.5,0.9-1.3,0.9-2.2s-0.3-1.6-1-2.2C557.5,164.6,556.6,164.3,555.5,164.3z"/>
		<path d="M561,158.5h-10.9v-2.3h1.8c-0.7-0.5-1.3-1.1-1.6-1.8s-0.5-1.5-0.5-2.5c0-0.8,0.1-1.5,0.4-2.1s0.6-1,1.1-1.3
			c0.3-0.2,0.6-0.3,1-0.4c0.4-0.1,1.1-0.1,2.1-0.1h6.6v2.5h-5.6c-1.4,0-2.4,0.2-2.9,0.5s-0.7,1-0.7,1.9c0,0.6,0.1,1.1,0.3,1.6
			s0.5,0.8,0.9,1.1c0.3,0.2,0.6,0.3,1,0.4c0.4,0.1,1.1,0.1,2,0.1h5L561,158.5L561,158.5z"/>
		<path d="M543.2,136.9v-2.5H561v2.5h-1.4c0.6,0.4,1.1,1,1.4,1.6s0.5,1.3,0.5,2c0,1.5-0.5,2.7-1.6,3.6c-1.1,0.9-2.5,1.3-4.3,1.3
			c-1.7,0-3.1-0.5-4.2-1.4c-1.1-0.9-1.6-2.1-1.6-3.5c0-0.9,0.2-1.6,0.6-2.3c0.4-0.6,0.9-1.1,1.6-1.4L543.2,136.9z M555.5,136.8
			c-1.1,0-2,0.3-2.6,0.8s-0.9,1.3-0.9,2.2s0.3,1.7,1,2.2c0.6,0.5,1.5,0.8,2.7,0.8s2-0.3,2.7-0.8c0.6-0.5,0.9-1.3,0.9-2.2
			s-0.3-1.6-1-2.2C557.5,137.1,556.6,136.8,555.5,136.8z"/>
		<path d="M552.7,109.9c-0.1,0-0.5,0.1-1.1,0.1c-0.5,0.1-0.9,0.1-1.2,0.2c0.4,0.1,0.8,0.2,1.1,0.3c0.4,0.1,0.8,0.3,1.2,0.5l9,4.4
			l-9.1,4.4c-0.4,0.2-0.7,0.3-1.1,0.5c-0.4,0.1-0.7,0.3-1,0.4c0.4,0,0.7,0,1.1,0.1c0.4,0,0.8,0.1,1.2,0.2l8.3,1.8v2.5l-17.5-4
			l10.6-5c0.2-0.1,0.4-0.2,0.8-0.3c0.4-0.2,0.9-0.3,1.4-0.6c-0.5-0.2-1.1-0.4-1.8-0.8c-0.2-0.1-0.4-0.2-0.5-0.2l-10.6-4.8l17.5-4.1
			v2.5L552.7,109.9z"/>
		<path d="M561,93.4v2.5h-1.4c0.6,0.4,1.1,1,1.4,1.6s0.5,1.3,0.5,2c0,1.5-0.5,2.7-1.6,3.6s-2.5,1.3-4.3,1.3c-1.7,0-3.1-0.5-4.2-1.4
			c-1.1-0.9-1.6-2.1-1.6-3.5c0-0.9,0.2-1.6,0.6-2.3c0.4-0.6,0.9-1.1,1.6-1.4h-1.8v-2.5H561V93.4z M555.5,95.8c-1.1,0-2,0.3-2.6,0.8
			s-0.9,1.3-0.9,2.2s0.3,1.7,1,2.2c0.6,0.5,1.5,0.8,2.7,0.8s2-0.3,2.7-0.8c0.6-0.5,0.9-1.3,0.9-2.2c0-0.9-0.3-1.6-1-2.2
			C557.5,96.1,556.6,95.8,555.5,95.8z"/>
		<path d="M561,89.9h-17.8v-2.5h11.4l-4.5-4.6v-3.1l4.8,4.9l6.1-5.4v3.2l-5.6,4.9h5.6V89.9z"/>
		<path d="M555.9,67.3V76c1-0.1,1.8-0.4,2.4-0.9c0.6-0.5,0.9-1.3,0.9-2.2c0-0.8-0.2-1.5-0.5-2s-0.9-1-1.6-1.4l1.2-2.1
			c1.1,0.6,1.9,1.4,2.4,2.3s0.8,2,0.8,3.2c0,1.7-0.5,3.1-1.6,4.2c-1.1,1-2.5,1.5-4.3,1.5c-1.7,0-3.1-0.5-4.2-1.6
			c-1.1-1.1-1.6-2.4-1.6-4.1c0-1.8,0.5-3.1,1.5-4.1s2.4-1.5,4.2-1.5H555.9z M554.3,69.9c-0.8,0.1-1.4,0.4-1.8,0.9
			c-0.4,0.5-0.6,1.2-0.6,2s0.2,1.5,0.6,2c0.4,0.5,1,0.8,1.8,1V69.9z"/>
		<path d="M551.9,62.2c-0.7-0.3-1.3-0.6-1.6-1.1s-0.5-1-0.5-1.6c0-0.4,0-0.7,0.1-1s0.2-0.7,0.4-1l2.1,0.9c-0.2,0.2-0.3,0.4-0.3,0.7
			s-0.1,0.5-0.1,0.8c0,0.8,0.3,1.4,1,1.8c0.7,0.4,1.8,0.5,3.3,0.5h4.8v2.5h-10.9v-2.5C550.2,62.2,551.9,62.2,551.9,62.2z"/>
		<path d="M559,57.3l-1.1-2.1c0.5-0.2,1-0.4,1.2-0.8c0.3-0.4,0.4-0.9,0.4-1.6c0-0.6-0.1-1-0.4-1.3c-0.3-0.3-0.6-0.5-1.1-0.5
			c-0.6,0-1.1,0.6-1.5,1.7c-0.1,0.4-0.3,0.7-0.3,0.9c-0.5,1.2-1,2-1.5,2.4c-0.5,0.5-1.1,0.7-1.8,0.7c-1,0-1.8-0.4-2.4-1.1
			s-0.9-1.8-0.9-3c0-0.8,0.2-1.6,0.5-2.2c0.3-0.6,0.8-1,1.3-1.3l1.2,1.8c-0.3,0.1-0.6,0.4-0.8,0.7s-0.3,0.7-0.3,1.1
			c0,0.5,0.1,0.9,0.3,1.1c0.2,0.3,0.5,0.4,0.9,0.4c0.6,0,1.1-0.6,1.5-1.9c0.1-0.4,0.3-0.7,0.4-0.9c0.4-1,0.8-1.7,1.3-2.2
			c0.5-0.4,1.1-0.6,1.9-0.6c1.1,0,1.9,0.4,2.6,1.2c0.6,0.8,0.9,1.9,0.9,3.3c0,1.1-0.2,1.9-0.6,2.7C560.5,56.4,559.8,56.9,559,57.3z"
			/>
	</g>
</g>
</svg>
