<?xml version="1.0" encoding="utf-8"?>
<!-- Generator: Adobe Illustrator 27.9.0, SVG Export Plug-In . SVG Version: 6.00 Build 0)  -->
<svg version="1.1" id="Layer_1" xmlns="http://www.w3.org/2000/svg" xmlns:xlink="http://www.w3.org/1999/xlink" x="0px" y="0px"
	 viewBox="0 0 1461 348" style="enable-background:new 0 0 1461 348;" xml:space="preserve">
<style type="text/css">
	.st0{fill:#D9E167;}
</style>
<g>
	<path class="st0" d="M470.8,338H0v-66h470.8c36.8,0,66.8-29.9,66.8-66.8v-62.5C537.5,69.6,597.1,10,670.2,10H1461v66H670.2
		c-36.8,0-66.8,29.9-66.8,66.8v62.5C603.5,278.4,543.9,338,470.8,338z"/>
</g>
<g>
	<g>
		<path d="M62.7,292.1h2.9V303c0,1.6,0.4,2.8,1.1,3.6c0.7,0.8,1.9,1.2,3.3,1.2c1.5,0,2.6-0.4,3.3-1.2c0.7-0.8,1.1-2,1.1-3.6v-10.9
			h2.9v11.1c0,2.4-0.6,4.2-1.8,5.4s-3.1,1.8-5.5,1.8c-2.5,0-4.3-0.6-5.5-1.8c-1.2-1.2-1.8-3-1.8-5.4V292.1z"/>
		<path d="M81.1,310v-11.6h2.5v1.9c0.5-0.8,1.2-1.4,1.9-1.7c0.7-0.4,1.6-0.5,2.6-0.5c0.9,0,1.6,0.1,2.2,0.4c0.6,0.3,1.1,0.7,1.4,1.2
			c0.2,0.3,0.3,0.7,0.4,1.1c0.1,0.4,0.1,1.2,0.1,2.2v7h-2.7v-5.9c0-1.5-0.2-2.5-0.6-3c-0.4-0.5-1-0.8-2-0.8c-0.6,0-1.2,0.1-1.7,0.3
			c-0.5,0.2-0.9,0.5-1.1,1c-0.2,0.3-0.3,0.6-0.4,1.1c-0.1,0.4-0.1,1.1-0.1,2.1v5.3H81.1z"/>
		<path d="M95.6,293.4c0-0.4,0.2-0.8,0.5-1.2c0.3-0.3,0.7-0.5,1.2-0.5c0.5,0,0.9,0.2,1.2,0.5c0.3,0.3,0.5,0.7,0.5,1.2
			s-0.2,0.9-0.5,1.2s-0.7,0.5-1.2,0.5c-0.5,0-0.8-0.2-1.2-0.5C95.7,294.3,95.6,293.9,95.6,293.4z M95.9,310v-11.6h2.6V310H95.9z"/>
		<path d="M103,310v-9.3h-2v-2.3h2V294h2.6v4.4h2v2.3h-2v9.3H103z"/>
		<path d="M109.7,293.4c0-0.4,0.2-0.8,0.5-1.2c0.3-0.3,0.7-0.5,1.2-0.5c0.5,0,0.9,0.2,1.2,0.5c0.3,0.3,0.5,0.7,0.5,1.2
			s-0.2,0.9-0.5,1.2s-0.7,0.5-1.2,0.5c-0.5,0-0.8-0.2-1.2-0.5C109.9,294.3,109.7,293.9,109.7,293.4z M110.1,310v-11.6h2.6V310H110.1
			z"/>
		<path d="M116.5,310v-11.6h2.5v1.9c0.5-0.8,1.2-1.4,1.9-1.7c0.7-0.4,1.6-0.5,2.6-0.5c0.9,0,1.6,0.1,2.2,0.4
			c0.6,0.3,1.1,0.7,1.4,1.2c0.2,0.3,0.3,0.7,0.4,1.1c0.1,0.4,0.1,1.2,0.1,2.2v7H125v-5.9c0-1.5-0.2-2.5-0.6-3c-0.4-0.5-1-0.8-2-0.8
			c-0.6,0-1.2,0.1-1.7,0.3c-0.5,0.2-0.9,0.5-1.1,1c-0.2,0.3-0.3,0.6-0.4,1.1c-0.1,0.4-0.1,1.1-0.1,2.1v5.3H116.5z"/>
		<path d="M142.1,309.3c0,2.3-0.5,3.9-1.4,4.8s-2.4,1.4-4.6,1.4c-1.6,0-2.9-0.3-3.8-1c-1-0.7-1.4-1.6-1.5-2.7l2.8,0
			c0,0.5,0.3,0.9,0.7,1.1c0.4,0.3,1,0.4,1.8,0.4c1.1,0,1.9-0.2,2.4-0.7c0.5-0.5,0.7-1.3,0.8-2.5l0-1.5c-0.5,0.7-1,1.2-1.7,1.5
			c-0.6,0.3-1.4,0.5-2.2,0.5c-1.6,0-2.9-0.6-3.9-1.7c-0.9-1.1-1.4-2.7-1.4-4.6c0-1.8,0.5-3.3,1.4-4.5c1-1.1,2.2-1.7,3.8-1.7
			c0.9,0,1.8,0.2,2.4,0.6c0.7,0.4,1.2,1,1.5,1.7v-1.9h2.6V309.3z M139.5,304.2c0-1.2-0.3-2.1-0.8-2.8c-0.6-0.7-1.3-1-2.3-1
			s-1.8,0.3-2.4,1c-0.6,0.7-0.9,1.6-0.9,2.9c0,1.2,0.3,2.2,0.8,2.8c0.6,0.7,1.3,1,2.3,1c1,0,1.7-0.4,2.3-1.1
			C139.2,306.3,139.5,305.4,139.5,304.2z"/>
		<path d="M159.2,310.7l-8-18.6h3l4,9.5c0.2,0.6,0.4,1.1,0.6,1.5c0.2,0.5,0.3,0.9,0.4,1.3c0.1-0.4,0.2-0.9,0.4-1.4
			c0.2-0.5,0.4-1,0.6-1.5l4-9.5h3L159.2,310.7z"/>
		<path d="M168.5,293.4c0-0.4,0.2-0.8,0.5-1.2c0.3-0.3,0.7-0.5,1.2-0.5c0.5,0,0.9,0.2,1.2,0.5c0.3,0.3,0.5,0.7,0.5,1.2
			s-0.2,0.9-0.5,1.2s-0.7,0.5-1.2,0.5c-0.5,0-0.8-0.2-1.2-0.5C168.7,294.3,168.5,293.9,168.5,293.4z M168.9,310v-11.6h2.6V310H168.9
			z"/>
		<path d="M174,307.9l2.2-1.2c0.2,0.6,0.5,1,0.9,1.3s1,0.5,1.7,0.5c0.6,0,1.1-0.1,1.4-0.4c0.3-0.3,0.5-0.6,0.5-1.1
			c0-0.6-0.6-1.2-1.8-1.6c-0.4-0.1-0.7-0.3-0.9-0.4c-1.2-0.5-2.1-1-2.6-1.6c-0.5-0.5-0.7-1.2-0.7-1.9c0-1,0.4-1.9,1.2-2.5
			c0.8-0.6,1.9-1,3.2-1c0.9,0,1.7,0.2,2.3,0.5c0.6,0.3,1.1,0.8,1.4,1.4l-1.9,1.3c-0.1-0.4-0.4-0.7-0.7-0.9c-0.3-0.2-0.7-0.3-1.2-0.3
			c-0.5,0-0.9,0.1-1.2,0.4c-0.3,0.2-0.5,0.6-0.5,1c0,0.6,0.7,1.2,2.1,1.6c0.4,0.2,0.8,0.3,1,0.4c1.1,0.4,1.8,0.9,2.3,1.4
			c0.5,0.5,0.7,1.2,0.7,2c0,1.2-0.4,2.1-1.3,2.7c-0.8,0.7-2,1-3.5,1c-1.1,0-2.1-0.2-2.8-0.6C175,309.4,174.4,308.8,174,307.9z"/>
		<path d="M185.7,293.4c0-0.4,0.2-0.8,0.5-1.2c0.3-0.3,0.7-0.5,1.2-0.5c0.5,0,0.9,0.2,1.2,0.5c0.3,0.3,0.5,0.7,0.5,1.2
			s-0.2,0.9-0.5,1.2s-0.7,0.5-1.2,0.5c-0.5,0-0.8-0.2-1.2-0.5C185.9,294.3,185.7,293.9,185.7,293.4z M186.1,310v-11.6h2.6V310H186.1
			z"/>
		<path d="M191.7,304.2c0-0.8,0.2-1.6,0.5-2.4c0.3-0.8,0.8-1.4,1.4-2c0.6-0.6,1.3-1,2.1-1.3c0.8-0.3,1.6-0.5,2.4-0.5
			c0.9,0,1.7,0.2,2.5,0.5c0.8,0.3,1.5,0.8,2.1,1.4c0.6,0.6,1.1,1.3,1.4,2s0.5,1.5,0.5,2.4c0,0.9-0.2,1.7-0.5,2.4
			c-0.3,0.7-0.8,1.4-1.4,2c-0.6,0.6-1.3,1.1-2.1,1.4c-0.8,0.3-1.6,0.5-2.4,0.5c-0.8,0-1.6-0.2-2.4-0.5c-0.8-0.3-1.5-0.8-2.1-1.4
			c-0.6-0.6-1.1-1.3-1.4-2C191.8,305.9,191.7,305.1,191.7,304.2z M201.6,304.2c0-1.1-0.3-2-1-2.7c-0.7-0.7-1.5-1.1-2.5-1.1
			c-1,0-1.8,0.4-2.5,1.1c-0.7,0.7-1,1.7-1,2.7s0.3,2,1,2.7c0.7,0.7,1.5,1.1,2.5,1.1c1,0,1.8-0.4,2.5-1.1
			C201.3,306.2,201.6,305.3,201.6,304.2z"/>
		<path d="M207.2,310v-11.6h2.5v1.9c0.5-0.8,1.2-1.4,1.9-1.7c0.7-0.4,1.6-0.5,2.6-0.5c0.9,0,1.6,0.1,2.2,0.4
			c0.6,0.3,1.1,0.7,1.4,1.2c0.2,0.3,0.3,0.7,0.4,1.1c0.1,0.4,0.1,1.2,0.1,2.2v7h-2.7v-5.9c0-1.5-0.2-2.5-0.6-3c-0.4-0.5-1-0.8-2-0.8
			c-0.6,0-1.2,0.1-1.7,0.3c-0.5,0.2-0.9,0.5-1.1,1c-0.2,0.3-0.3,0.6-0.4,1.1c-0.1,0.4-0.1,1.1-0.1,2.1v5.3H207.2z"/>
		<path d="M232.8,310h-2.6v-1.5c-0.5,0.7-1,1.2-1.7,1.5c-0.6,0.3-1.4,0.5-2.2,0.5c-1.6,0-2.9-0.6-3.9-1.7c-0.9-1.1-1.4-2.7-1.4-4.6
			c0-1.8,0.5-3.3,1.4-4.5c1-1.1,2.2-1.7,3.8-1.7c0.9,0,1.8,0.2,2.4,0.6c0.7,0.4,1.2,1,1.5,1.7v-1.9h2.6V310z M230.2,304.2
			c0-1.2-0.3-2.1-0.8-2.8c-0.6-0.7-1.3-1-2.3-1s-1.8,0.3-2.4,1c-0.6,0.7-0.9,1.6-0.9,2.9c0,1.2,0.3,2.2,0.8,2.8c0.6,0.7,1.3,1,2.3,1
			c1,0,1.7-0.4,2.3-1.1C229.9,306.3,230.2,305.4,230.2,304.2z"/>
		<path d="M239.1,300.3c0.3-0.8,0.7-1.3,1.1-1.7c0.5-0.4,1-0.5,1.7-0.5c0.4,0,0.7,0,1.1,0.1c0.4,0.1,0.7,0.2,1.1,0.4l-1,2.2
			c-0.2-0.2-0.5-0.3-0.7-0.4c-0.3-0.1-0.6-0.1-0.9-0.1c-0.9,0-1.5,0.4-1.9,1.1c-0.4,0.7-0.6,1.9-0.6,3.5v5.1h-2.6v-11.6h2.6V300.3z"
			/>
		<path d="M245.5,293.4c0-0.4,0.2-0.8,0.5-1.2c0.3-0.3,0.7-0.5,1.2-0.5c0.5,0,0.9,0.2,1.2,0.5c0.3,0.3,0.5,0.7,0.5,1.2
			s-0.2,0.9-0.5,1.2s-0.7,0.5-1.2,0.5c-0.5,0-0.8-0.2-1.2-0.5C245.6,294.3,245.5,293.9,245.5,293.4z M245.8,310v-11.6h2.6V310H245.8
			z"/>
		<path d="M263.4,304.6h-9.3c0.1,1.1,0.4,1.9,1,2.5c0.6,0.6,1.3,0.9,2.3,0.9c0.9,0,1.6-0.2,2.1-0.5c0.6-0.4,1.1-0.9,1.5-1.7l2.2,1.2
			c-0.7,1.2-1.5,2-2.4,2.6c-1,0.6-2.1,0.9-3.4,0.9c-1.9,0-3.3-0.6-4.4-1.7s-1.6-2.6-1.6-4.5c0-1.8,0.6-3.3,1.7-4.5
			c1.1-1.2,2.6-1.8,4.4-1.8c1.9,0,3.3,0.5,4.4,1.6c1,1.1,1.6,2.6,1.6,4.5V304.6z M260.6,302.8c-0.1-0.8-0.4-1.5-1-1.9
			c-0.5-0.4-1.3-0.7-2.2-0.7c-0.9,0-1.6,0.2-2.1,0.6c-0.5,0.4-0.9,1.1-1.1,1.9H260.6z"/>
		<path d="M264.8,307.9l2.2-1.2c0.2,0.6,0.5,1,0.9,1.3s1,0.5,1.7,0.5c0.6,0,1.1-0.1,1.4-0.4c0.3-0.3,0.5-0.6,0.5-1.1
			c0-0.6-0.6-1.2-1.8-1.6c-0.4-0.1-0.7-0.3-0.9-0.4c-1.2-0.5-2.1-1-2.6-1.6c-0.5-0.5-0.7-1.2-0.7-1.9c0-1,0.4-1.9,1.2-2.5
			c0.8-0.6,1.9-1,3.2-1c0.9,0,1.7,0.2,2.3,0.5c0.6,0.3,1.1,0.8,1.4,1.4l-1.9,1.3c-0.1-0.4-0.4-0.7-0.7-0.9c-0.3-0.2-0.7-0.3-1.2-0.3
			c-0.5,0-0.9,0.1-1.2,0.4c-0.3,0.2-0.5,0.6-0.5,1c0,0.6,0.7,1.2,2.1,1.6c0.4,0.2,0.8,0.3,1,0.4c1.1,0.4,1.8,0.9,2.3,1.4
			c0.5,0.5,0.7,1.2,0.7,2c0,1.2-0.4,2.1-1.3,2.7c-0.8,0.7-2,1-3.5,1c-1.1,0-2.1-0.2-2.8-0.6C265.8,309.4,265.2,308.8,264.8,307.9z"
			/>
		<path d="M295.2,310h-2.6v-1.5c-0.5,0.7-1,1.2-1.7,1.5c-0.6,0.3-1.4,0.5-2.2,0.5c-1.6,0-2.9-0.6-3.9-1.7c-0.9-1.1-1.4-2.7-1.4-4.6
			c0-1.8,0.5-3.3,1.4-4.5c1-1.1,2.2-1.7,3.8-1.7c0.9,0,1.8,0.2,2.4,0.6c0.7,0.4,1.2,1,1.5,1.7v-1.9h2.6V310z M292.7,304.2
			c0-1.2-0.3-2.1-0.8-2.8c-0.6-0.7-1.3-1-2.3-1s-1.8,0.3-2.4,1c-0.6,0.7-0.9,1.6-0.9,2.9c0,1.2,0.3,2.2,0.8,2.8c0.6,0.7,1.3,1,2.3,1
			c1,0,1.7-0.4,2.3-1.1C292.4,306.3,292.7,305.4,292.7,304.2z"/>
		<path d="M298.9,310v-11.6h2.5v1.9c0.5-0.8,1.2-1.4,1.9-1.7c0.7-0.4,1.6-0.5,2.6-0.5c0.9,0,1.6,0.1,2.2,0.4
			c0.6,0.3,1.1,0.7,1.4,1.2c0.2,0.3,0.3,0.7,0.4,1.1c0.1,0.4,0.1,1.2,0.1,2.2v7h-2.7v-5.9c0-1.5-0.2-2.5-0.6-3c-0.4-0.5-1-0.8-2-0.8
			c-0.6,0-1.2,0.1-1.7,0.3c-0.5,0.2-0.9,0.5-1.1,1c-0.2,0.3-0.3,0.6-0.4,1.1c-0.1,0.4-0.1,1.1-0.1,2.1v5.3H298.9z"/>
		<path d="M321.8,291.1h2.6V310h-2.6v-1.5c-0.5,0.7-1,1.2-1.7,1.5c-0.6,0.3-1.4,0.5-2.2,0.5c-1.6,0-2.9-0.6-3.9-1.7
			c-0.9-1.1-1.4-2.7-1.4-4.6c0-1.8,0.5-3.3,1.4-4.5c1-1.1,2.2-1.7,3.8-1.7c0.9,0,1.8,0.2,2.4,0.6c0.7,0.4,1.2,1,1.5,1.7V291.1z
			 M321.9,304.2c0-1.2-0.3-2.1-0.8-2.8c-0.6-0.7-1.3-1-2.3-1s-1.8,0.3-2.4,1c-0.6,0.7-0.9,1.6-0.9,2.9c0,1.2,0.3,2.2,0.8,2.8
			c0.6,0.7,1.3,1,2.3,1c1,0,1.7-0.4,2.3-1.1C321.6,306.3,321.9,305.4,321.9,304.2z"/>
		<path d="M350.5,301.2c0-0.1-0.1-0.5-0.2-1.1c-0.1-0.5-0.1-1-0.2-1.3c-0.1,0.4-0.2,0.8-0.3,1.2c-0.1,0.4-0.3,0.8-0.5,1.2l-4.7,9.5
			L340,301c-0.2-0.4-0.4-0.8-0.5-1.2c-0.1-0.4-0.3-0.7-0.4-1.1c0,0.4,0,0.8-0.1,1.2c-0.1,0.4-0.1,0.8-0.2,1.3l-1.9,8.8h-2.7
			l4.2-18.6l5.3,11.3c0.1,0.2,0.2,0.5,0.4,0.9c0.2,0.4,0.4,0.9,0.6,1.5c0.2-0.5,0.4-1.2,0.8-2c0.1-0.2,0.2-0.4,0.2-0.5l5.2-11.3
			l4.3,18.6h-2.7L350.5,301.2z"/>
		<path d="M368.1,310h-2.6v-1.5c-0.5,0.7-1,1.2-1.7,1.5c-0.6,0.3-1.4,0.5-2.2,0.5c-1.6,0-2.9-0.6-3.9-1.7c-0.9-1.1-1.4-2.7-1.4-4.6
			c0-1.8,0.5-3.3,1.4-4.5c1-1.1,2.2-1.7,3.8-1.7c0.9,0,1.8,0.2,2.4,0.6c0.7,0.4,1.2,1,1.5,1.7v-1.9h2.6V310z M365.6,304.2
			c0-1.2-0.3-2.1-0.8-2.8c-0.6-0.7-1.3-1-2.3-1s-1.8,0.3-2.4,1c-0.6,0.7-0.9,1.6-0.9,2.9c0,1.2,0.3,2.2,0.8,2.8c0.6,0.7,1.3,1,2.3,1
			c1,0,1.7-0.4,2.3-1.1C365.3,306.3,365.6,305.4,365.6,304.2z"/>
		<path d="M371.8,310v-18.9h2.6v12.1l4.8-4.8h3.3l-5.2,5.1l5.7,6.5h-3.4l-5.2-6v6H371.8z"/>
		<path d="M395.9,304.6h-9.3c0.1,1.1,0.4,1.9,1,2.5c0.6,0.6,1.3,0.9,2.3,0.9c0.9,0,1.6-0.2,2.1-0.5c0.6-0.4,1.1-0.9,1.5-1.7l2.2,1.2
			c-0.7,1.2-1.5,2-2.4,2.6c-1,0.6-2.1,0.9-3.4,0.9c-1.9,0-3.3-0.6-4.4-1.7s-1.6-2.6-1.6-4.5c0-1.8,0.6-3.3,1.7-4.5
			c1.1-1.2,2.6-1.8,4.4-1.8c1.9,0,3.3,0.5,4.4,1.6c1,1.1,1.6,2.6,1.6,4.5V304.6z M393.1,302.8c-0.1-0.8-0.4-1.5-1-1.9
			c-0.5-0.4-1.3-0.7-2.2-0.7c-0.9,0-1.6,0.2-2.1,0.6c-0.5,0.4-0.9,1.1-1.1,1.9H393.1z"/>
		<path d="M401.3,300.3c0.3-0.8,0.7-1.3,1.1-1.7c0.5-0.4,1-0.5,1.7-0.5c0.4,0,0.7,0,1.1,0.1c0.4,0.1,0.7,0.2,1.1,0.4l-1,2.2
			c-0.2-0.2-0.5-0.3-0.7-0.4c-0.3-0.1-0.6-0.1-0.9-0.1c-0.9,0-1.5,0.4-1.9,1.1c-0.4,0.7-0.6,1.9-0.6,3.5v5.1h-2.6v-11.6h2.6V300.3z"
			/>
		<path d="M406.5,307.9l2.2-1.2c0.2,0.6,0.5,1,0.9,1.3s1,0.5,1.7,0.5c0.6,0,1.1-0.1,1.4-0.4c0.3-0.3,0.5-0.6,0.5-1.1
			c0-0.6-0.6-1.2-1.8-1.6c-0.4-0.1-0.7-0.3-0.9-0.4c-1.2-0.5-2.1-1-2.6-1.6c-0.5-0.5-0.7-1.2-0.7-1.9c0-1,0.4-1.9,1.2-2.5
			c0.8-0.6,1.9-1,3.2-1c0.9,0,1.7,0.2,2.3,0.5c0.6,0.3,1.1,0.8,1.4,1.4l-1.9,1.3c-0.1-0.4-0.4-0.7-0.7-0.9c-0.3-0.2-0.7-0.3-1.2-0.3
			c-0.5,0-0.9,0.1-1.2,0.4c-0.3,0.2-0.5,0.6-0.5,1c0,0.6,0.7,1.2,2.1,1.6c0.4,0.2,0.8,0.3,1,0.4c1.1,0.4,1.8,0.9,2.3,1.4
			c0.5,0.5,0.7,1.2,0.7,2c0,1.2-0.4,2.1-1.3,2.7c-0.8,0.7-2,1-3.5,1c-1.1,0-2.1-0.2-2.8-0.6C407.5,309.4,406.9,308.8,406.5,307.9z"
			/>
		<path d="M427.9,300.7c0-1,0.4-1.9,1.1-2.6c0.7-0.7,1.6-1,2.6-1c1,0,1.8,0.4,2.5,1.1c0.7,0.7,1.1,1.6,1.1,2.5s-0.4,1.8-1.1,2.6
			c-0.7,0.7-1.6,1.1-2.6,1.1c-1,0-1.9-0.4-2.6-1.1C428.3,302.6,427.9,301.7,427.9,300.7z"/>
		<path d="M448.5,292.1h2.9V303c0,1.6,0.4,2.8,1.1,3.6c0.7,0.8,1.9,1.2,3.3,1.2c1.5,0,2.6-0.4,3.3-1.2c0.7-0.8,1.1-2,1.1-3.6v-10.9
			h2.9v11.1c0,2.4-0.6,4.2-1.8,5.4s-3.1,1.8-5.5,1.8c-2.5,0-4.3-0.6-5.5-1.8c-1.2-1.2-1.8-3-1.8-5.4V292.1z"/>
		<path d="M466.9,310v-11.6h2.5v1.9c0.5-0.8,1.2-1.4,1.9-1.7c0.7-0.4,1.6-0.5,2.6-0.5c0.9,0,1.6,0.1,2.2,0.4
			c0.6,0.3,1.1,0.7,1.4,1.2c0.2,0.3,0.3,0.7,0.4,1.1c0.1,0.4,0.1,1.2,0.1,2.2v7h-2.7v-5.9c0-1.5-0.2-2.5-0.6-3c-0.4-0.5-1-0.8-2-0.8
			c-0.6,0-1.2,0.1-1.7,0.3c-0.5,0.2-0.9,0.5-1.1,1c-0.2,0.3-0.3,0.6-0.4,1.1c-0.1,0.4-0.1,1.1-0.1,2.1v5.3H466.9z"/>
		<path d="M480.9,293.3c0-0.4,0.1-0.8,0.4-1.2c0.3-0.4,0.7-0.5,1.1-0.6c0.5,0,0.9,0.1,1.2,0.4s0.5,0.7,0.6,1.1
			c0,0.5-0.1,0.9-0.4,1.2c-0.3,0.3-0.7,0.5-1.1,0.6c-0.5,0-0.9-0.1-1.2-0.4S480.9,293.7,480.9,293.3z M482.6,309.8l-0.9-11.5
			l2.6-0.2l0.9,11.5L482.6,309.8z"/>
		<path d="M490.4,308.9l-1.5-9.1l-2,0.3l-0.4-2.3l2-0.3l-0.7-4.3l2.6-0.4l0.7,4.3l2-0.3l0.4,2.3l-2,0.3l1.5,9.1L490.4,308.9z"/>
		<path d="M494,291.5c-0.1-0.4,0-0.8,0.2-1.2c0.2-0.4,0.6-0.6,1-0.8c0.5-0.1,0.9-0.1,1.3,0.2c0.4,0.2,0.6,0.6,0.7,1
			c0.1,0.5,0.1,0.9-0.2,1.3s-0.6,0.6-1,0.7c-0.4,0.1-0.9,0-1.3-0.2S494.1,291.9,494,291.5z M498.2,307.5l-2.7-11.2l2.6-0.6l2.7,11.2
			L498.2,307.5z"/>
		<path d="M505.7,305.6l-4.1-10.8l2.3-0.9l0.7,1.8c0.2-0.9,0.6-1.7,1.1-2.3s1.3-1.1,2.3-1.4c0.8-0.3,1.5-0.4,2.2-0.4
			c0.7,0,1.2,0.3,1.8,0.6c0.3,0.2,0.6,0.5,0.8,0.9s0.5,1,0.9,2l2.5,6.6l-2.5,0.9l-2.1-5.6c-0.5-1.4-1.1-2.3-1.6-2.6
			c-0.5-0.3-1.2-0.3-2.1,0c-0.6,0.2-1.1,0.5-1.4,0.9s-0.6,0.8-0.7,1.3c-0.1,0.3-0.1,0.7,0,1.1c0.1,0.4,0.3,1.1,0.6,2l1.9,4.9
			L505.7,305.6z"/>
		<path d="M530.1,293.3c1.1,2,1.5,3.6,1.2,4.8c-0.3,1.3-1.4,2.4-3.3,3.5c-1.4,0.8-2.7,1.1-3.8,1c-1.2-0.1-2-0.6-2.6-1.6l2.5-1.4
			c0.3,0.4,0.7,0.6,1.2,0.6c0.5,0,1.1-0.2,1.7-0.6c1-0.6,1.6-1.2,1.7-1.9c0.2-0.7,0-1.5-0.6-2.5l-0.7-1.3c-0.1,0.8-0.3,1.5-0.7,2.1
			s-0.9,1.1-1.6,1.5c-1.4,0.8-2.8,1-4.2,0.5s-2.5-1.6-3.5-3.3c-0.9-1.6-1.3-3.1-1-4.6c0.3-1.5,1.1-2.6,2.4-3.4
			c0.8-0.5,1.6-0.7,2.4-0.7c0.8,0,1.5,0.3,2.1,0.7l-0.9-1.6l2.3-1.3L530.1,293.3z M525.3,290.2c-0.6-1-1.3-1.7-2.1-2
			c-0.8-0.3-1.7-0.2-2.5,0.3c-0.9,0.5-1.4,1.2-1.5,2.1c-0.2,0.9,0.1,1.9,0.7,2.9c0.6,1.1,1.3,1.7,2.1,2c0.8,0.3,1.7,0.2,2.5-0.3
			c0.8-0.5,1.3-1.2,1.5-2.1S525.9,291.2,525.3,290.2z"/>
		<path d="M546.2,281.9l-18.7-7.7l2.2-2.1l9.5,4c0.6,0.2,1.1,0.5,1.5,0.7c0.4,0.2,0.8,0.5,1.2,0.7c-0.2-0.4-0.5-0.8-0.7-1.3
			c-0.2-0.5-0.4-0.9-0.6-1.5l-3.8-9.6l2.1-2.1L546.2,281.9z"/>
		<path d="M540,263.2c-0.4-0.3-0.6-0.6-0.6-1.1c0-0.5,0.1-0.9,0.4-1.2c0.3-0.4,0.7-0.6,1.1-0.6c0.4,0,0.8,0.1,1.2,0.4
			c0.4,0.3,0.6,0.7,0.6,1.1c0.1,0.4-0.1,0.9-0.4,1.2c-0.3,0.4-0.7,0.6-1.1,0.6C540.7,263.6,540.3,263.5,540,263.2z M553.2,273.3
			l-9.1-7.2l1.6-2.1l9.1,7.2L553.2,273.3z"/>
		<path d="M555.2,267.3l0.2-2.5c0.6,0.2,1.1,0.2,1.6,0c0.5-0.2,0.9-0.6,1.3-1.2c0.3-0.5,0.5-1,0.4-1.4s-0.3-0.8-0.7-1
			c-0.5-0.3-1.3-0.1-2.3,0.6c-0.3,0.3-0.6,0.5-0.8,0.6c-1.1,0.8-2,1.2-2.7,1.3c-0.7,0.1-1.4,0-2-0.4c-0.9-0.6-1.4-1.4-1.4-2.4
			s0.2-2.1,0.9-3.2c0.5-0.8,1-1.3,1.7-1.7c0.6-0.4,1.3-0.5,1.9-0.4l0.1,2.3c-0.4-0.1-0.8,0-1.1,0.1s-0.7,0.5-0.9,0.8
			c-0.3,0.4-0.4,0.8-0.4,1.2s0.2,0.7,0.6,0.9c0.5,0.3,1.3,0.1,2.5-0.8c0.4-0.3,0.7-0.5,0.9-0.6c0.9-0.7,1.8-1,2.4-1.1
			c0.7-0.1,1.4,0.1,2,0.5c1,0.6,1.5,1.5,1.6,2.5c0.1,1.1-0.3,2.2-1.1,3.4c-0.6,0.9-1.3,1.6-2.1,2C557,267.3,556.2,267.4,555.2,267.3
			z"/>
		<path d="M549,249.9c-0.4-0.2-0.7-0.5-0.8-1s-0.1-0.9,0.1-1.3c0.2-0.4,0.5-0.7,1-0.8s0.8-0.1,1.3,0.1c0.4,0.2,0.7,0.5,0.8,1
			c0.1,0.4,0.1,0.9-0.1,1.3c-0.2,0.4-0.5,0.7-1,0.8C549.8,250.2,549.4,250.2,549,249.9z M563.8,257.3l-10.3-5.3l1.2-2.4l10.3,5.3
			L563.8,257.3z"/>
		<path d="M561.6,249.2c-0.8-0.3-1.5-0.7-2.1-1.3c-0.6-0.6-1.1-1.2-1.4-2c-0.3-0.8-0.5-1.6-0.5-2.4c0-0.8,0.1-1.6,0.4-2.4
			c0.3-0.8,0.7-1.5,1.3-2.1c0.6-0.6,1.2-1.1,2-1.5c0.8-0.4,1.6-0.6,2.4-0.6s1.6,0.1,2.4,0.4c0.8,0.3,1.5,0.7,2.1,1.3
			c0.6,0.6,1.1,1.2,1.4,2c0.3,0.8,0.5,1.6,0.6,2.5c0,0.8-0.1,1.7-0.4,2.5c-0.3,0.8-0.7,1.5-1.3,2.1c-0.6,0.6-1.2,1.1-2,1.5
			c-0.8,0.4-1.6,0.6-2.4,0.6S562.4,249.5,561.6,249.2z M565.1,239.9c-1-0.4-2-0.4-2.9,0c-0.9,0.4-1.6,1-1.9,2
			c-0.3,0.9-0.3,1.9,0.2,2.8c0.5,0.9,1.2,1.6,2.2,1.9s2,0.4,2.9,0c0.9-0.4,1.6-1,1.9-2c0.3-0.9,0.3-1.9-0.2-2.8
			C566.9,240.9,566.2,240.2,565.1,239.9z"/>
		<path d="M572.7,234.8l-11.4-2.2l0.5-2.4l1.9,0.4c-0.7-0.7-1.1-1.4-1.4-2.2c-0.2-0.8-0.2-1.7,0-2.7c0.2-0.8,0.4-1.5,0.8-2.1
			c0.4-0.5,0.9-0.9,1.5-1.2c0.4-0.1,0.7-0.2,1.2-0.2c0.4,0,1.2,0.1,2.2,0.3l6.9,1.3l-0.5,2.6l-5.8-1.1c-1.5-0.3-2.5-0.3-3.1,0
			c-0.6,0.3-0.9,0.9-1.1,1.8c-0.1,0.6-0.1,1.2,0,1.7s0.4,1,0.7,1.3c0.2,0.2,0.6,0.4,1,0.6s1.1,0.3,2,0.5l5.2,1L572.7,234.8z"/>
		<path d="M575.7,207.7l-0.1,2.6l-1.5,0c0.7,0.5,1.1,1.1,1.4,1.7c0.3,0.6,0.4,1.4,0.4,2.2c0,1.6-0.6,2.9-1.8,3.8s-2.7,1.3-4.6,1.3
			c-1.8-0.1-3.3-0.6-4.4-1.6c-1.1-1-1.6-2.3-1.6-3.8c0-0.9,0.2-1.7,0.7-2.4c0.4-0.7,1-1.1,1.7-1.4l-1.9-0.1l0.1-2.6L575.7,207.7z
			 M569.8,210.1c-1.2,0-2.1,0.2-2.8,0.8c-0.7,0.5-1,1.3-1.1,2.3c0,1,0.3,1.8,1,2.4s1.6,0.9,2.8,0.9c1.2,0,2.2-0.2,2.9-0.7
			c0.7-0.5,1-1.3,1.1-2.3c0-1-0.3-1.7-1-2.4C571.9,210.5,571,210.1,569.8,210.1z"/>
		<path d="M565.9,201.1c-0.8-0.3-1.3-0.7-1.7-1.1c-0.4-0.5-0.5-1-0.5-1.7c0-0.4,0-0.7,0.1-1.1c0.1-0.4,0.2-0.7,0.4-1.1l2.2,1
			c-0.2,0.2-0.3,0.5-0.4,0.7c-0.1,0.3-0.1,0.6-0.1,0.9c0,0.9,0.4,1.5,1.1,1.9c0.7,0.4,1.9,0.6,3.5,0.6h5.1v2.6H564v-2.6H565.9z"/>
		<path d="M559,194.7c-0.4,0-0.8-0.2-1.2-0.5c-0.3-0.3-0.5-0.7-0.5-1.2c0-0.5,0.2-0.9,0.5-1.2c0.3-0.3,0.7-0.5,1.2-0.5
			c0.5,0,0.9,0.2,1.2,0.5c0.3,0.3,0.5,0.7,0.5,1.2c0,0.5-0.2,0.8-0.5,1.2C559.9,194.6,559.5,194.7,559,194.7z M575.6,194.4H564v-2.6
			h11.6V194.4z"/>
		<path d="M570.2,176.8v9.3c1.1-0.1,1.9-0.4,2.5-1c0.6-0.6,0.9-1.3,0.9-2.3c0-0.9-0.2-1.6-0.5-2.1c-0.4-0.6-0.9-1.1-1.7-1.5l1.2-2.2
			c1.2,0.7,2,1.5,2.6,2.4c0.6,1,0.9,2.1,0.9,3.4c0,1.9-0.6,3.3-1.7,4.4c-1.1,1.1-2.6,1.6-4.5,1.6c-1.8,0-3.3-0.6-4.5-1.7
			c-1.2-1.1-1.8-2.6-1.8-4.4c0-1.9,0.5-3.3,1.6-4.4c1.1-1,2.6-1.6,4.5-1.6H570.2z M568.4,179.6c-0.8,0.1-1.5,0.4-1.9,1
			c-0.4,0.5-0.7,1.3-0.7,2.2c0,0.9,0.2,1.6,0.6,2.1c0.4,0.5,1.1,0.9,1.9,1.1V179.6z"/>
		<path d="M573.5,175.4l-1.2-2.2c0.6-0.2,1-0.5,1.3-0.9c0.3-0.4,0.5-1,0.5-1.7c0-0.6-0.1-1.1-0.4-1.4c-0.3-0.3-0.6-0.5-1.1-0.5
			c-0.6,0-1.2,0.6-1.6,1.8c-0.1,0.4-0.3,0.7-0.4,0.9c-0.5,1.2-1,2.1-1.6,2.6c-0.5,0.5-1.2,0.7-1.9,0.7c-1,0-1.9-0.4-2.5-1.2
			c-0.6-0.8-1-1.9-1-3.2c0-0.9,0.2-1.7,0.5-2.3c0.3-0.6,0.8-1.1,1.4-1.4l1.3,1.9c-0.4,0.1-0.7,0.4-0.9,0.7c-0.2,0.3-0.3,0.7-0.3,1.2
			c0,0.5,0.1,0.9,0.4,1.2c0.2,0.3,0.6,0.5,1,0.5c0.6,0,1.2-0.7,1.6-2.1c0.2-0.4,0.3-0.8,0.4-1c0.4-1.1,0.9-1.8,1.4-2.3
			c0.5-0.5,1.2-0.7,2-0.7c1.2,0,2.1,0.4,2.7,1.3c0.7,0.8,1,2,1,3.5c0,1.1-0.2,2.1-0.6,2.8C575,174.4,574.4,175,573.5,175.4z"/>
		<path d="M575.7,145l0,2.6l-1.5,0c0.7,0.5,1.1,1,1.5,1.7c0.3,0.6,0.5,1.4,0.5,2.2c0,1.6-0.6,2.9-1.7,3.8c-1.1,0.9-2.7,1.4-4.6,1.3
			c-1.8,0-3.3-0.5-4.5-1.5s-1.7-2.2-1.6-3.8c0-0.9,0.2-1.7,0.6-2.4c0.4-0.7,1-1.1,1.7-1.4l-1.9,0l0-2.6L575.7,145z M569.8,147.5
			c-1.2,0-2.1,0.2-2.8,0.8c-0.7,0.5-1,1.3-1,2.3c0,1,0.3,1.8,1,2.4s1.6,0.9,2.9,0.9c1.2,0,2.2-0.2,2.9-0.8c0.7-0.5,1-1.3,1-2.3
			c0-1-0.3-1.7-1.1-2.3S571,147.5,569.8,147.5z"/>
		<path d="M575.8,141.8l-11.5-1.4l0.3-2.5l1.9,0.2c-0.7-0.6-1.2-1.3-1.5-2.1c-0.3-0.8-0.3-1.6-0.2-2.7c0.1-0.9,0.3-1.6,0.7-2.1
			c0.3-0.6,0.8-1,1.4-1.3c0.3-0.2,0.7-0.3,1.2-0.3s1.2,0,2.2,0.1l7,0.9l-0.3,2.7l-5.9-0.7c-1.5-0.2-2.5-0.1-3.1,0.2
			c-0.5,0.3-0.9,0.9-1,1.9c-0.1,0.6,0,1.2,0.1,1.7c0.2,0.5,0.4,0.9,0.8,1.3c0.3,0.2,0.6,0.4,1,0.5c0.4,0.1,1.1,0.3,2.1,0.4l5.2,0.7
			L575.8,141.8z"/>
		<path d="M561.5,115.1l0.7-2.6l18.3,4.7l-0.7,2.6l-1.5-0.4c0.5,0.6,0.9,1.3,1,2c0.2,0.7,0.1,1.4-0.1,2.2c-0.4,1.6-1.3,2.7-2.6,3.3
			s-2.9,0.7-4.8,0.2c-1.8-0.5-3.1-1.3-4-2.5c-0.9-1.2-1.1-2.6-0.7-4.1c0.2-0.9,0.6-1.6,1.2-2.2c0.6-0.6,1.2-0.9,2-1L561.5,115.1z
			 M574.2,118.3c-1.2-0.3-2.1-0.3-2.9,0.1c-0.8,0.4-1.3,1-1.6,2c-0.3,1-0.1,1.8,0.4,2.5c0.5,0.7,1.4,1.2,2.6,1.6
			c1.2,0.3,2.2,0.3,3-0.1c0.8-0.4,1.3-1,1.6-2c0.2-0.9,0.1-1.8-0.5-2.5C576.2,119.1,575.4,118.6,574.2,118.3z"/>
		<path d="M583,90.4c-0.1,0-0.5-0.2-1.1-0.4c-0.5-0.2-0.9-0.3-1.2-0.5c0.3,0.3,0.6,0.5,0.9,0.9s0.6,0.7,0.9,1l6.2,8.6l-10.8-0.5
			c-0.4,0-0.9,0-1.3-0.1c-0.4-0.1-0.8-0.1-1.2-0.2c0.3,0.2,0.7,0.4,1,0.6c0.3,0.2,0.7,0.5,1,0.8l6.9,5.8l-1.3,2.4l-14.4-12.5
			l12.4,0.7c0.2,0,0.5,0,1,0.1c0.4,0,1,0.1,1.6,0.2c-0.4-0.4-0.8-0.9-1.3-1.6c-0.1-0.2-0.2-0.3-0.3-0.4l-7.5-9.9l18.5,5l-1.3,2.4
			L583,90.4z"/>
		<path d="M600.9,80.9l-1.6,2.1l-1.2-0.9c0.2,0.8,0.3,1.5,0.1,2.2s-0.5,1.4-1,2c-1,1.3-2.3,1.9-3.7,2c-1.5,0-3-0.5-4.5-1.8
			c-1.4-1.1-2.3-2.5-2.6-3.9c-0.3-1.5,0-2.8,1-4c0.6-0.7,1.2-1.2,2-1.5s1.5-0.3,2.2-0.1l-1.5-1.2l1.6-2.1L600.9,80.9z M594.7,79.3
			c-0.9-0.7-1.8-1.1-2.7-1.1c-0.9,0-1.6,0.4-2.2,1.2c-0.6,0.8-0.8,1.6-0.7,2.5s0.8,1.7,1.7,2.5c1,0.8,1.9,1.1,2.7,1.1
			s1.6-0.4,2.2-1.2c0.6-0.7,0.8-1.6,0.6-2.5C596.2,80.9,595.7,80.1,594.7,79.3z"/>
		<path d="M603,78.7L590,65l1.9-1.8l8.4,8.8l0.2-6.8l2.4-2.2l-0.3,7.3l8.6,0.7l-2.5,2.4l-7.9-0.8l4.1,4.3L603,78.7z"/>
		<path d="M618.1,59.5l-7.6,5.3c0.7,0.8,1.4,1.3,2.3,1.5s1.6,0,2.4-0.6c0.7-0.5,1.2-1.1,1.4-1.7s0.3-1.4,0.2-2.3l2.5-0.3
			c0.1,1.3,0,2.5-0.5,3.5c-0.5,1-1.2,1.9-2.3,2.7c-1.5,1.1-3,1.5-4.6,1.2s-2.9-1.2-4-2.7c-1-1.5-1.4-3-1.2-4.6s1.1-2.9,2.6-4
			c1.5-1.1,3-1.5,4.5-1.2c1.5,0.3,2.8,1.2,3.9,2.8L618.1,59.5z M614.8,59.7c-0.6-0.6-1.2-0.9-1.9-1c-0.7,0-1.4,0.2-2.2,0.7
			c-0.7,0.5-1.2,1.1-1.3,1.7c-0.2,0.7-0.1,1.4,0.2,2.2L614.8,59.7z"/>
		<path d="M620.9,53.1c-0.1-0.8,0-1.5,0.2-2c0.2-0.5,0.7-1,1.3-1.3c0.3-0.2,0.7-0.3,1-0.4c0.4-0.1,0.7-0.1,1.1-0.2l0.2,2.4
			c-0.3,0-0.6,0-0.8,0c-0.3,0.1-0.5,0.2-0.8,0.3c-0.8,0.4-1.2,1-1.2,1.8s0.4,1.9,1.2,3.4l2.4,4.5l-2.3,1.2l-5.5-10.2l2.3-1.3
			L620.9,53.1z"/>
		<path d="M629,57.5l1.6-1.9c0.4,0.5,0.8,0.8,1.3,0.9c0.5,0.1,1.1,0,1.7-0.2c0.6-0.2,0.9-0.5,1.1-0.9c0.2-0.4,0.2-0.8,0.1-1.2
			c-0.2-0.6-1-0.9-2.3-0.8c-0.4,0-0.8,0-1,0c-1.3,0-2.3-0.2-3-0.5c-0.7-0.3-1.1-0.8-1.4-1.5c-0.4-1-0.3-1.9,0.2-2.8
			c0.5-0.9,1.4-1.6,2.6-2.1c0.8-0.3,1.6-0.5,2.3-0.4s1.3,0.3,1.8,0.8l-1.3,1.9c-0.3-0.3-0.6-0.5-1-0.5c-0.4-0.1-0.8,0-1.2,0.2
			c-0.5,0.2-0.8,0.5-1,0.8c-0.2,0.3-0.2,0.7-0.1,1.1c0.2,0.6,1.1,0.8,2.5,0.8c0.5,0,0.8,0,1.1,0c1.1,0,2,0.1,2.7,0.5
			c0.6,0.3,1.1,0.9,1.4,1.6c0.4,1.1,0.4,2.1-0.1,3c-0.5,0.9-1.5,1.7-2.8,2.2c-1,0.4-2,0.6-2.9,0.5C630.5,58.5,629.7,58.1,629,57.5z"
			/>
		<path d="M647.6,43.8c-0.2-1,0-1.9,0.6-2.7c0.6-0.8,1.4-1.3,2.3-1.5c1-0.2,1.9,0,2.7,0.6c0.8,0.6,1.3,1.3,1.5,2.3
			c0.2,1,0,1.9-0.6,2.7c-0.6,0.8-1.4,1.3-2.3,1.5c-1,0.2-1.9,0-2.7-0.6C648.3,45.5,647.8,44.7,647.6,43.8z"/>
		<path d="M668.9,33h2.9v10.9c0,1.6,0.4,2.8,1.1,3.6c0.7,0.8,1.9,1.2,3.3,1.2c1.5,0,2.6-0.4,3.3-1.2c0.7-0.8,1.1-2,1.1-3.6V33h2.9
			v11.1c0,2.4-0.6,4.2-1.8,5.4c-1.2,1.2-3.1,1.8-5.5,1.8c-2.5,0-4.3-0.6-5.5-1.8c-1.2-1.2-1.8-3-1.8-5.4V33z"/>
		<path d="M687.3,50.9V39.3h2.5v1.9c0.5-0.8,1.2-1.4,1.9-1.7c0.7-0.4,1.6-0.5,2.6-0.5c0.9,0,1.6,0.1,2.2,0.4
			c0.6,0.3,1.1,0.7,1.4,1.2c0.2,0.3,0.3,0.7,0.4,1.1c0.1,0.4,0.1,1.2,0.1,2.2v7h-2.7V45c0-1.5-0.2-2.5-0.6-3c-0.4-0.5-1-0.8-2-0.8
			c-0.6,0-1.2,0.1-1.7,0.3c-0.5,0.2-0.9,0.5-1.1,1c-0.2,0.3-0.3,0.6-0.4,1.1c-0.1,0.4-0.1,1.1-0.1,2.1v5.3H687.3z"/>
		<path d="M701.8,34.3c0-0.4,0.2-0.8,0.5-1.2c0.3-0.3,0.7-0.5,1.2-0.5c0.5,0,0.9,0.2,1.2,0.5c0.3,0.3,0.5,0.7,0.5,1.2
			c0,0.5-0.2,0.9-0.5,1.2c-0.3,0.3-0.7,0.5-1.2,0.5c-0.5,0-0.8-0.2-1.2-0.5C702,35.2,701.8,34.8,701.8,34.3z M702.2,50.9V39.3h2.6
			v11.6H702.2z"/>
		<path d="M709.2,50.9v-9.3h-2v-2.3h2v-4.4h2.6v4.4h2v2.3h-2v9.3H709.2z"/>
		<path d="M716,34.3c0-0.4,0.2-0.8,0.5-1.2c0.3-0.3,0.7-0.5,1.2-0.5c0.5,0,0.9,0.2,1.2,0.5c0.3,0.3,0.5,0.7,0.5,1.2
			c0,0.5-0.2,0.9-0.5,1.2c-0.3,0.3-0.7,0.5-1.2,0.5c-0.5,0-0.8-0.2-1.2-0.5C716.1,35.2,716,34.8,716,34.3z M716.3,50.9V39.3h2.6
			v11.6H716.3z"/>
		<path d="M722.7,50.9V39.3h2.5v1.9c0.5-0.8,1.2-1.4,1.9-1.7c0.7-0.4,1.6-0.5,2.6-0.5c0.9,0,1.6,0.1,2.2,0.4
			c0.6,0.3,1.1,0.7,1.4,1.2c0.2,0.3,0.3,0.7,0.4,1.1c0.1,0.4,0.1,1.2,0.1,2.2v7h-2.7V45c0-1.5-0.2-2.5-0.6-3c-0.4-0.5-1-0.8-2-0.8
			c-0.6,0-1.2,0.1-1.7,0.3c-0.5,0.2-0.9,0.5-1.1,1c-0.2,0.3-0.3,0.6-0.4,1.1c-0.1,0.4-0.1,1.1-0.1,2.1v5.3H722.7z"/>
		<path d="M748.3,50.2c0,2.3-0.5,3.9-1.4,4.8c-0.9,0.9-2.4,1.4-4.6,1.4c-1.6,0-2.9-0.3-3.8-1c-1-0.7-1.4-1.6-1.5-2.7l2.8,0
			c0,0.5,0.3,0.9,0.7,1.1c0.4,0.3,1,0.4,1.8,0.4c1.1,0,1.9-0.2,2.4-0.7c0.5-0.5,0.7-1.3,0.8-2.5l0-1.5c-0.5,0.7-1,1.2-1.7,1.5
			c-0.6,0.3-1.4,0.5-2.2,0.5c-1.6,0-2.9-0.6-3.9-1.7c-0.9-1.1-1.4-2.7-1.4-4.6c0-1.8,0.5-3.3,1.4-4.5c1-1.1,2.2-1.7,3.8-1.7
			c0.9,0,1.8,0.2,2.4,0.6c0.7,0.4,1.2,1,1.5,1.7v-1.9h2.6V50.2z M745.8,45.1c0-1.2-0.3-2.1-0.8-2.8c-0.6-0.7-1.3-1-2.3-1
			c-1,0-1.8,0.3-2.4,1c-0.6,0.7-0.9,1.6-0.9,2.9c0,1.2,0.3,2.2,0.8,2.8c0.6,0.7,1.3,1,2.3,1c1,0,1.7-0.4,2.3-1.1
			C745.5,47.2,745.8,46.3,745.8,45.1z"/>
		<path d="M765.4,51.6l-8-18.6h3l4,9.5c0.2,0.6,0.4,1.1,0.6,1.5c0.2,0.5,0.3,0.9,0.4,1.3c0.1-0.4,0.2-0.9,0.4-1.4
			c0.2-0.5,0.4-1,0.6-1.5l4-9.5h3L765.4,51.6z"/>
		<path d="M774.8,34.3c0-0.4,0.2-0.8,0.5-1.2c0.3-0.3,0.7-0.5,1.2-0.5c0.5,0,0.9,0.2,1.2,0.5c0.3,0.3,0.5,0.7,0.5,1.2
			c0,0.5-0.2,0.9-0.5,1.2c-0.3,0.3-0.7,0.5-1.2,0.5c-0.5,0-0.8-0.2-1.2-0.5C774.9,35.2,774.8,34.8,774.8,34.3z M775.1,50.9V39.3h2.6
			v11.6H775.1z"/>
		<path d="M780.2,48.8l2.2-1.2c0.2,0.6,0.5,1,0.9,1.3c0.4,0.3,1,0.5,1.7,0.5c0.6,0,1.1-0.1,1.4-0.4c0.3-0.3,0.5-0.6,0.5-1.1
			c0-0.6-0.6-1.2-1.8-1.6c-0.4-0.1-0.7-0.3-0.9-0.4c-1.2-0.5-2.1-1-2.6-1.6c-0.5-0.5-0.7-1.2-0.7-1.9c0-1,0.4-1.9,1.2-2.5
			c0.8-0.6,1.9-1,3.2-1c0.9,0,1.7,0.2,2.3,0.5c0.6,0.3,1.1,0.8,1.4,1.4l-1.9,1.3c-0.1-0.4-0.4-0.7-0.7-0.9c-0.3-0.2-0.7-0.3-1.2-0.3
			c-0.5,0-0.9,0.1-1.2,0.4c-0.3,0.2-0.5,0.6-0.5,1c0,0.6,0.7,1.2,2.1,1.6c0.4,0.2,0.8,0.3,1,0.4c1.1,0.4,1.8,0.9,2.3,1.4
			c0.5,0.5,0.7,1.2,0.7,2c0,1.2-0.4,2.1-1.3,2.7c-0.8,0.7-2,1-3.5,1c-1.1,0-2.1-0.2-2.8-0.6C781.2,50.3,780.6,49.7,780.2,48.8z"/>
		<path d="M792,34.3c0-0.4,0.2-0.8,0.5-1.2c0.3-0.3,0.7-0.5,1.2-0.5c0.5,0,0.9,0.2,1.2,0.5c0.3,0.3,0.5,0.7,0.5,1.2
			c0,0.5-0.2,0.9-0.5,1.2c-0.3,0.3-0.7,0.5-1.2,0.5c-0.5,0-0.8-0.2-1.2-0.5C792.1,35.2,792,34.8,792,34.3z M792.3,50.9V39.3h2.6
			v11.6H792.3z"/>
		<path d="M797.9,45.1c0-0.8,0.2-1.6,0.5-2.4c0.3-0.8,0.8-1.4,1.4-2c0.6-0.6,1.3-1,2.1-1.3c0.8-0.3,1.6-0.5,2.4-0.5
			c0.9,0,1.7,0.2,2.5,0.5c0.8,0.3,1.5,0.8,2.1,1.4c0.6,0.6,1.1,1.3,1.4,2c0.3,0.7,0.5,1.5,0.5,2.4c0,0.9-0.2,1.7-0.5,2.4
			c-0.3,0.7-0.8,1.4-1.4,2c-0.6,0.6-1.3,1.1-2.1,1.4c-0.8,0.3-1.6,0.5-2.4,0.5c-0.8,0-1.6-0.2-2.4-0.5c-0.8-0.3-1.5-0.8-2.1-1.4
			c-0.6-0.6-1.1-1.3-1.4-2C798,46.8,797.9,46,797.9,45.1z M807.8,45.2c0-1.1-0.3-2-1-2.7c-0.7-0.7-1.5-1.1-2.5-1.1
			c-1,0-1.8,0.4-2.5,1.1c-0.7,0.7-1,1.7-1,2.7s0.3,2,1,2.7c0.7,0.7,1.5,1.1,2.5,1.1s1.8-0.4,2.5-1.1
			C807.5,47.1,807.8,46.2,807.8,45.2z"/>
		<path d="M813.4,50.9V39.3h2.5v1.9c0.5-0.8,1.2-1.4,1.9-1.7c0.7-0.4,1.6-0.5,2.6-0.5c0.9,0,1.6,0.1,2.2,0.4
			c0.6,0.3,1.1,0.7,1.4,1.2c0.2,0.3,0.3,0.7,0.4,1.1c0.1,0.4,0.1,1.2,0.1,2.2v7h-2.7V45c0-1.5-0.2-2.5-0.6-3c-0.4-0.5-1-0.8-2-0.8
			c-0.6,0-1.2,0.1-1.7,0.3c-0.5,0.2-0.9,0.5-1.1,1c-0.2,0.3-0.3,0.6-0.4,1.1c-0.1,0.4-0.1,1.1-0.1,2.1v5.3H813.4z"/>
		<path d="M839,50.9h-2.6v-1.5c-0.5,0.7-1,1.2-1.7,1.5c-0.6,0.3-1.4,0.5-2.2,0.5c-1.6,0-2.9-0.6-3.9-1.7c-0.9-1.1-1.4-2.7-1.4-4.6
			c0-1.8,0.5-3.3,1.4-4.5c1-1.1,2.2-1.7,3.8-1.7c0.9,0,1.8,0.2,2.4,0.6c0.7,0.4,1.2,1,1.5,1.7v-1.9h2.6V50.9z M836.5,45.1
			c0-1.2-0.3-2.1-0.8-2.8c-0.6-0.7-1.3-1-2.3-1c-1,0-1.8,0.3-2.4,1c-0.6,0.7-0.9,1.6-0.9,2.9c0,1.2,0.3,2.2,0.8,2.8
			c0.6,0.7,1.3,1,2.3,1c1,0,1.7-0.4,2.3-1.1C836.2,47.2,836.5,46.3,836.5,45.1z"/>
		<path d="M845.3,41.2c0.3-0.8,0.7-1.3,1.1-1.7c0.5-0.4,1-0.5,1.7-0.5c0.4,0,0.7,0,1.1,0.1c0.4,0.1,0.7,0.2,1.1,0.4l-1,2.2
			c-0.2-0.2-0.5-0.3-0.7-0.4c-0.3-0.1-0.6-0.1-0.9-0.1c-0.9,0-1.5,0.4-1.9,1.1c-0.4,0.7-0.6,1.9-0.6,3.5v5.1h-2.6V39.3h2.6V41.2z"/>
		<path d="M851.7,34.3c0-0.4,0.2-0.8,0.5-1.2c0.3-0.3,0.7-0.5,1.2-0.5c0.5,0,0.9,0.2,1.2,0.5c0.3,0.3,0.5,0.7,0.5,1.2
			c0,0.5-0.2,0.9-0.5,1.2c-0.3,0.3-0.7,0.5-1.2,0.5c-0.5,0-0.8-0.2-1.2-0.5C851.9,35.2,851.7,34.8,851.7,34.3z M852,50.9V39.3h2.6
			v11.6H852z"/>
		<path d="M869.6,45.5h-9.3c0.1,1.1,0.4,1.9,1,2.5c0.6,0.6,1.3,0.9,2.3,0.9c0.9,0,1.6-0.2,2.1-0.5c0.6-0.4,1.1-0.9,1.5-1.7l2.2,1.2
			c-0.7,1.2-1.5,2-2.4,2.6c-1,0.6-2.1,0.9-3.4,0.9c-1.9,0-3.3-0.6-4.4-1.7c-1.1-1.1-1.6-2.6-1.6-4.5c0-1.8,0.6-3.3,1.7-4.5
			c1.1-1.2,2.6-1.8,4.4-1.8c1.9,0,3.3,0.5,4.4,1.6c1,1.1,1.6,2.6,1.6,4.5V45.5z M866.9,43.7c-0.1-0.8-0.4-1.5-1-1.9
			c-0.5-0.4-1.3-0.7-2.2-0.7c-0.9,0-1.6,0.2-2.1,0.6c-0.5,0.4-0.9,1.1-1.1,1.9H866.9z"/>
		<path d="M871,48.8l2.2-1.2c0.2,0.6,0.5,1,0.9,1.3c0.4,0.3,1,0.5,1.7,0.5c0.6,0,1.1-0.1,1.4-0.4c0.3-0.3,0.5-0.6,0.5-1.1
			c0-0.6-0.6-1.2-1.8-1.6c-0.4-0.1-0.7-0.3-0.9-0.4c-1.2-0.5-2.1-1-2.6-1.6c-0.5-0.5-0.7-1.2-0.7-1.9c0-1,0.4-1.9,1.2-2.5
			c0.8-0.6,1.9-1,3.2-1c0.9,0,1.7,0.2,2.3,0.5c0.6,0.3,1.1,0.8,1.4,1.4l-1.9,1.3c-0.1-0.4-0.4-0.7-0.7-0.9c-0.3-0.2-0.7-0.3-1.2-0.3
			c-0.5,0-0.9,0.1-1.2,0.4c-0.3,0.2-0.5,0.6-0.5,1c0,0.6,0.7,1.2,2.1,1.6c0.4,0.2,0.8,0.3,1,0.4c1.1,0.4,1.8,0.9,2.3,1.4
			c0.5,0.5,0.7,1.2,0.7,2c0,1.2-0.4,2.1-1.3,2.7c-0.8,0.7-2,1-3.5,1c-1.1,0-2.1-0.2-2.8-0.6C872,50.3,871.5,49.7,871,48.8z"/>
		<path d="M901.4,50.9h-2.6v-1.5c-0.5,0.7-1,1.2-1.7,1.5c-0.6,0.3-1.4,0.5-2.2,0.5c-1.6,0-2.9-0.6-3.9-1.7c-0.9-1.1-1.4-2.7-1.4-4.6
			c0-1.8,0.5-3.3,1.4-4.5c1-1.1,2.2-1.7,3.8-1.7c0.9,0,1.8,0.2,2.4,0.6c0.7,0.4,1.2,1,1.5,1.7v-1.9h2.6V50.9z M898.9,45.1
			c0-1.2-0.3-2.1-0.8-2.8c-0.6-0.7-1.3-1-2.3-1c-1,0-1.8,0.3-2.4,1c-0.6,0.7-0.9,1.6-0.9,2.9c0,1.2,0.3,2.2,0.8,2.8
			c0.6,0.7,1.3,1,2.3,1c1,0,1.7-0.4,2.3-1.1C898.6,47.2,898.9,46.3,898.9,45.1z"/>
		<path d="M905.1,50.9V39.3h2.5v1.9c0.5-0.8,1.2-1.4,1.9-1.7c0.7-0.4,1.6-0.5,2.6-0.5c0.9,0,1.6,0.1,2.2,0.4
			c0.6,0.3,1.1,0.7,1.4,1.2c0.2,0.3,0.3,0.7,0.4,1.1c0.1,0.4,0.1,1.2,0.1,2.2v7h-2.7V45c0-1.5-0.2-2.5-0.6-3c-0.4-0.5-1-0.8-2-0.8
			c-0.6,0-1.2,0.1-1.7,0.3c-0.5,0.2-0.9,0.5-1.1,1c-0.2,0.3-0.3,0.6-0.4,1.1c-0.1,0.4-0.1,1.1-0.1,2.1v5.3H905.1z"/>
		<path d="M928,32h2.6v18.9H928v-1.5c-0.5,0.7-1,1.2-1.7,1.5c-0.6,0.3-1.4,0.5-2.2,0.5c-1.6,0-2.9-0.6-3.9-1.7
			c-0.9-1.1-1.4-2.7-1.4-4.6c0-1.8,0.5-3.3,1.4-4.5c1-1.1,2.2-1.7,3.8-1.7c0.9,0,1.8,0.2,2.4,0.6c0.7,0.4,1.2,1,1.5,1.7V32z
			 M928.1,45.1c0-1.2-0.3-2.1-0.8-2.8c-0.6-0.7-1.3-1-2.3-1c-1,0-1.8,0.3-2.4,1c-0.6,0.7-0.9,1.6-0.9,2.9c0,1.2,0.3,2.2,0.8,2.8
			c0.6,0.7,1.3,1,2.3,1c1,0,1.7-0.4,2.3-1.1C927.8,47.2,928.1,46.3,928.1,45.1z"/>
		<path d="M956.7,42.1c0-0.1-0.1-0.5-0.2-1.1c-0.1-0.5-0.1-1-0.2-1.3c-0.1,0.4-0.2,0.8-0.3,1.2c-0.1,0.4-0.3,0.8-0.5,1.2l-4.7,9.5
			l-4.7-9.7c-0.2-0.4-0.4-0.8-0.5-1.2c-0.1-0.4-0.3-0.7-0.4-1.1c0,0.4,0,0.8-0.1,1.2c-0.1,0.4-0.1,0.8-0.2,1.3l-1.9,8.8h-2.7
			l4.2-18.6l5.3,11.3c0.1,0.2,0.2,0.5,0.4,0.9c0.2,0.4,0.4,0.9,0.6,1.5c0.2-0.5,0.4-1.2,0.8-2c0.1-0.2,0.2-0.4,0.2-0.5l5.2-11.3
			l4.3,18.6h-2.7L956.7,42.1z"/>
		<path d="M974.4,50.9h-2.6v-1.5c-0.5,0.7-1,1.2-1.7,1.5c-0.6,0.3-1.4,0.5-2.2,0.5c-1.6,0-2.9-0.6-3.9-1.7c-0.9-1.1-1.4-2.7-1.4-4.6
			c0-1.8,0.5-3.3,1.4-4.5c1-1.1,2.2-1.7,3.8-1.7c0.9,0,1.8,0.2,2.4,0.6c0.7,0.4,1.2,1,1.5,1.7v-1.9h2.6V50.9z M971.8,45.1
			c0-1.2-0.3-2.1-0.8-2.8c-0.6-0.7-1.3-1-2.3-1c-1,0-1.8,0.3-2.4,1c-0.6,0.7-0.9,1.6-0.9,2.9c0,1.2,0.3,2.2,0.8,2.8
			c0.6,0.7,1.3,1,2.3,1c1,0,1.7-0.4,2.3-1.1C971.5,47.2,971.8,46.3,971.8,45.1z"/>
		<path d="M978,50.9V32h2.6v12.1l4.8-4.8h3.3l-5.2,5.1l5.7,6.5h-3.4l-5.2-6v6H978z"/>
		<path d="M1002.1,45.5h-9.3c0.1,1.1,0.4,1.9,1,2.5c0.6,0.6,1.3,0.9,2.3,0.9c0.9,0,1.6-0.2,2.1-0.5c0.6-0.4,1.1-0.9,1.5-1.7l2.2,1.2
			c-0.7,1.2-1.5,2-2.4,2.6c-1,0.6-2.1,0.9-3.4,0.9c-1.9,0-3.3-0.6-4.4-1.7c-1.1-1.1-1.6-2.6-1.6-4.5c0-1.8,0.6-3.3,1.7-4.5
			c1.1-1.2,2.6-1.8,4.4-1.8c1.9,0,3.3,0.5,4.4,1.6c1,1.1,1.6,2.6,1.6,4.5V45.5z M999.4,43.7c-0.1-0.8-0.4-1.5-1-1.9
			c-0.5-0.4-1.3-0.7-2.2-0.7c-0.9,0-1.6,0.2-2.1,0.6c-0.5,0.4-0.9,1.1-1.1,1.9H999.4z"/>
		<path d="M1007.5,41.2c0.3-0.8,0.7-1.3,1.1-1.7c0.5-0.4,1-0.5,1.7-0.5c0.4,0,0.7,0,1.1,0.1c0.4,0.1,0.7,0.2,1.1,0.4l-1,2.2
			c-0.2-0.2-0.5-0.3-0.7-0.4c-0.3-0.1-0.6-0.1-0.9-0.1c-0.9,0-1.5,0.4-1.9,1.1c-0.4,0.7-0.6,1.9-0.6,3.5v5.1h-2.6V39.3h2.6V41.2z"/>
		<path d="M1012.7,48.8l2.2-1.2c0.2,0.6,0.5,1,0.9,1.3c0.4,0.3,1,0.5,1.7,0.5c0.6,0,1.1-0.1,1.4-0.4c0.3-0.3,0.5-0.6,0.5-1.1
			c0-0.6-0.6-1.2-1.8-1.6c-0.4-0.1-0.7-0.3-0.9-0.4c-1.2-0.5-2.1-1-2.6-1.6c-0.5-0.5-0.7-1.2-0.7-1.9c0-1,0.4-1.9,1.2-2.5
			c0.8-0.6,1.9-1,3.2-1c0.9,0,1.7,0.2,2.3,0.5c0.6,0.3,1.1,0.8,1.4,1.4l-1.9,1.3c-0.1-0.4-0.4-0.7-0.7-0.9c-0.3-0.2-0.7-0.3-1.2-0.3
			c-0.5,0-0.9,0.1-1.2,0.4c-0.3,0.2-0.5,0.6-0.5,1c0,0.6,0.7,1.2,2.1,1.6c0.4,0.2,0.8,0.3,1,0.4c1.1,0.4,1.8,0.9,2.3,1.4
			c0.5,0.5,0.7,1.2,0.7,2c0,1.2-0.4,2.1-1.3,2.7c-0.8,0.7-2,1-3.5,1c-1.1,0-2.1-0.2-2.8-0.6C1013.7,50.3,1013.1,49.7,1012.7,48.8z"
			/>
		<path d="M1034.2,41.6c0-1,0.4-1.9,1.1-2.6c0.7-0.7,1.6-1,2.6-1c1,0,1.8,0.4,2.5,1.1c0.7,0.7,1.1,1.6,1.1,2.5c0,1-0.4,1.8-1.1,2.6
			c-0.7,0.7-1.6,1.1-2.6,1.1c-1,0-1.9-0.4-2.6-1.1C1034.5,43.5,1034.2,42.6,1034.2,41.6z"/>
		<path d="M1054.7,33h2.9v10.9c0,1.6,0.4,2.8,1.1,3.6c0.7,0.8,1.9,1.2,3.3,1.2c1.5,0,2.6-0.4,3.3-1.2c0.7-0.8,1.1-2,1.1-3.6V33h2.9
			v11.1c0,2.4-0.6,4.2-1.8,5.4c-1.2,1.2-3.1,1.8-5.5,1.8s-4.3-0.6-5.5-1.8c-1.2-1.2-1.8-3-1.8-5.4V33z"/>
		<path d="M1073.2,50.9V39.3h2.5v1.9c0.5-0.8,1.2-1.4,1.9-1.7c0.7-0.4,1.6-0.5,2.6-0.5c0.9,0,1.6,0.1,2.2,0.4
			c0.6,0.3,1.1,0.7,1.4,1.2c0.2,0.3,0.3,0.7,0.4,1.1c0.1,0.4,0.1,1.2,0.1,2.2v7h-2.7V45c0-1.5-0.2-2.5-0.6-3c-0.4-0.5-1-0.8-2-0.8
			c-0.6,0-1.2,0.1-1.7,0.3c-0.5,0.2-0.9,0.5-1.1,1c-0.2,0.3-0.3,0.6-0.4,1.1c-0.1,0.4-0.1,1.1-0.1,2.1v5.3H1073.2z"/>
		<path d="M1087.6,34.3c0-0.4,0.2-0.8,0.5-1.2c0.3-0.3,0.7-0.5,1.2-0.5c0.5,0,0.9,0.2,1.2,0.5c0.3,0.3,0.5,0.7,0.5,1.2
			c0,0.5-0.2,0.9-0.5,1.2c-0.3,0.3-0.7,0.5-1.2,0.5c-0.5,0-0.8-0.2-1.2-0.5C1087.8,35.2,1087.6,34.8,1087.6,34.3z M1088,50.9V39.3
			h2.6v11.6H1088z"/>
		<path d="M1095,50.9v-9.3h-2v-2.3h2v-4.4h2.6v4.4h2v2.3h-2v9.3H1095z"/>
		<path d="M1101.7,34.3c0-0.4,0.2-0.8,0.5-1.2c0.3-0.3,0.7-0.5,1.2-0.5c0.5,0,0.9,0.2,1.2,0.5c0.3,0.3,0.5,0.7,0.5,1.2
			c0,0.5-0.2,0.9-0.5,1.2c-0.3,0.3-0.7,0.5-1.2,0.5c-0.5,0-0.8-0.2-1.2-0.5C1101.9,35.2,1101.7,34.8,1101.7,34.3z M1102.1,50.9V39.3
			h2.6v11.6H1102.1z"/>
		<path d="M1108.6,50.9V39.3h2.5v1.9c0.5-0.8,1.2-1.4,1.9-1.7c0.7-0.4,1.6-0.5,2.6-0.5c0.9,0,1.6,0.1,2.2,0.4
			c0.6,0.3,1.1,0.7,1.4,1.2c0.2,0.3,0.3,0.7,0.4,1.1c0.1,0.4,0.1,1.2,0.1,2.2v7h-2.7V45c0-1.5-0.2-2.5-0.6-3c-0.4-0.5-1-0.8-2-0.8
			c-0.6,0-1.2,0.1-1.7,0.3c-0.5,0.2-0.9,0.5-1.1,1c-0.2,0.3-0.3,0.6-0.4,1.1c-0.1,0.4-0.1,1.1-0.1,2.1v5.3H1108.6z"/>
		<path d="M1134.1,50.2c0,2.3-0.5,3.9-1.4,4.8c-0.9,0.9-2.4,1.4-4.6,1.4c-1.6,0-2.9-0.3-3.8-1c-1-0.7-1.4-1.6-1.5-2.7l2.8,0
			c0,0.5,0.3,0.9,0.7,1.1c0.4,0.3,1,0.4,1.8,0.4c1.1,0,1.9-0.2,2.4-0.7c0.5-0.5,0.7-1.3,0.8-2.5l0-1.5c-0.5,0.7-1,1.2-1.7,1.5
			c-0.6,0.3-1.4,0.5-2.2,0.5c-1.6,0-2.9-0.6-3.9-1.7c-0.9-1.1-1.4-2.7-1.4-4.6c0-1.8,0.5-3.3,1.4-4.5c1-1.1,2.2-1.7,3.8-1.7
			c0.9,0,1.8,0.2,2.4,0.6c0.7,0.4,1.2,1,1.5,1.7v-1.9h2.6V50.2z M1131.6,45.1c0-1.2-0.3-2.1-0.8-2.8c-0.6-0.7-1.3-1-2.3-1
			c-1,0-1.8,0.3-2.4,1c-0.6,0.7-0.9,1.6-0.9,2.9c0,1.2,0.3,2.2,0.8,2.8c0.6,0.7,1.3,1,2.3,1c1,0,1.7-0.4,2.3-1.1
			C1131.3,47.2,1131.6,46.3,1131.6,45.1z"/>
		<path d="M1151.3,51.6l-8-18.6h3l4,9.5c0.2,0.6,0.4,1.1,0.6,1.5c0.2,0.5,0.3,0.9,0.4,1.3c0.1-0.4,0.2-0.9,0.4-1.4
			c0.2-0.5,0.4-1,0.6-1.5l4-9.5h3L1151.3,51.6z"/>
		<path d="M1160.6,34.3c0-0.4,0.2-0.8,0.5-1.2c0.3-0.3,0.7-0.5,1.2-0.5c0.5,0,0.9,0.2,1.2,0.5c0.3,0.3,0.5,0.7,0.5,1.2
			c0,0.5-0.2,0.9-0.5,1.2c-0.3,0.3-0.7,0.5-1.2,0.5c-0.5,0-0.8-0.2-1.2-0.5C1160.7,35.2,1160.6,34.8,1160.6,34.3z M1160.9,50.9V39.3
			h2.6v11.6H1160.9z"/>
		<path d="M1166,48.8l2.2-1.2c0.2,0.6,0.5,1,0.9,1.3c0.4,0.3,1,0.5,1.7,0.5c0.6,0,1.1-0.1,1.4-0.4c0.3-0.3,0.5-0.6,0.5-1.1
			c0-0.6-0.6-1.2-1.8-1.6c-0.4-0.1-0.7-0.3-0.9-0.4c-1.2-0.5-2.1-1-2.6-1.6c-0.5-0.5-0.7-1.2-0.7-1.9c0-1,0.4-1.9,1.2-2.5
			c0.8-0.6,1.9-1,3.2-1c0.9,0,1.7,0.2,2.3,0.5c0.6,0.3,1.1,0.8,1.4,1.4l-1.9,1.3c-0.1-0.4-0.4-0.7-0.7-0.9c-0.3-0.2-0.7-0.3-1.2-0.3
			c-0.5,0-0.9,0.1-1.2,0.4c-0.3,0.2-0.5,0.6-0.5,1c0,0.6,0.7,1.2,2.1,1.6c0.4,0.2,0.8,0.3,1,0.4c1.1,0.4,1.8,0.9,2.3,1.4
			c0.5,0.5,0.7,1.2,0.7,2c0,1.2-0.4,2.1-1.3,2.7c-0.8,0.7-2,1-3.5,1c-1.1,0-2.1-0.2-2.8-0.6C1167,50.3,1166.5,49.7,1166,48.8z"/>
		<path d="M1177.8,34.3c0-0.4,0.2-0.8,0.5-1.2c0.3-0.3,0.7-0.5,1.2-0.5c0.5,0,0.9,0.2,1.2,0.5c0.3,0.3,0.5,0.7,0.5,1.2
			c0,0.5-0.2,0.9-0.5,1.2c-0.3,0.3-0.7,0.5-1.2,0.5c-0.5,0-0.8-0.2-1.2-0.5C1178,35.2,1177.8,34.8,1177.8,34.3z M1178.1,50.9V39.3
			h2.6v11.6H1178.1z"/>
		<path d="M1183.7,45.1c0-0.8,0.2-1.6,0.5-2.4c0.3-0.8,0.8-1.4,1.4-2c0.6-0.6,1.3-1,2.1-1.3c0.8-0.3,1.6-0.5,2.4-0.5
			c0.9,0,1.7,0.2,2.5,0.5c0.8,0.3,1.5,0.8,2.1,1.4c0.6,0.6,1.1,1.3,1.4,2c0.3,0.7,0.5,1.5,0.5,2.4c0,0.9-0.2,1.7-0.5,2.4
			c-0.3,0.7-0.8,1.4-1.4,2c-0.6,0.6-1.3,1.1-2.1,1.4c-0.8,0.3-1.6,0.5-2.4,0.5c-0.8,0-1.6-0.2-2.4-0.5c-0.8-0.3-1.5-0.8-2.1-1.4
			c-0.6-0.6-1.1-1.3-1.4-2C1183.9,46.8,1183.7,46,1183.7,45.1z M1193.6,45.2c0-1.1-0.3-2-1-2.7c-0.7-0.7-1.5-1.1-2.5-1.1
			c-1,0-1.8,0.4-2.5,1.1c-0.7,0.7-1,1.7-1,2.7s0.3,2,1,2.7c0.7,0.7,1.5,1.1,2.5,1.1s1.8-0.4,2.5-1.1
			C1193.3,47.1,1193.6,46.2,1193.6,45.2z"/>
		<path d="M1199.2,50.9V39.3h2.5v1.9c0.5-0.8,1.2-1.4,1.9-1.7c0.7-0.4,1.6-0.5,2.6-0.5c0.9,0,1.6,0.1,2.2,0.4
			c0.6,0.3,1.1,0.7,1.4,1.2c0.2,0.3,0.3,0.7,0.4,1.1c0.1,0.4,0.1,1.2,0.1,2.2v7h-2.7V45c0-1.5-0.2-2.5-0.6-3c-0.4-0.5-1-0.8-2-0.8
			c-0.6,0-1.2,0.1-1.7,0.3c-0.5,0.2-0.9,0.5-1.1,1c-0.2,0.3-0.3,0.6-0.4,1.1c-0.1,0.4-0.1,1.1-0.1,2.1v5.3H1199.2z"/>
		<path d="M1224.9,50.9h-2.6v-1.5c-0.5,0.7-1,1.2-1.7,1.5c-0.6,0.3-1.4,0.5-2.2,0.5c-1.6,0-2.9-0.6-3.9-1.7
			c-0.9-1.1-1.4-2.7-1.4-4.6c0-1.8,0.5-3.3,1.4-4.5c1-1.1,2.2-1.7,3.8-1.7c0.9,0,1.8,0.2,2.4,0.6c0.7,0.4,1.2,1,1.5,1.7v-1.9h2.6
			V50.9z M1222.3,45.1c0-1.2-0.3-2.1-0.8-2.8c-0.6-0.7-1.3-1-2.3-1c-1,0-1.8,0.3-2.4,1c-0.6,0.7-0.9,1.6-0.9,2.9
			c0,1.2,0.3,2.2,0.8,2.8c0.6,0.7,1.3,1,2.3,1c1,0,1.7-0.4,2.3-1.1C1222,47.2,1222.3,46.3,1222.3,45.1z"/>
		<path d="M1231.2,41.2c0.3-0.8,0.7-1.3,1.1-1.7c0.5-0.4,1-0.5,1.7-0.5c0.4,0,0.7,0,1.1,0.1c0.4,0.1,0.7,0.2,1.1,0.4l-1,2.2
			c-0.2-0.2-0.5-0.3-0.7-0.4c-0.3-0.1-0.6-0.1-0.9-0.1c-0.9,0-1.5,0.4-1.9,1.1c-0.4,0.7-0.6,1.9-0.6,3.5v5.1h-2.6V39.3h2.6V41.2z"/>
		<path d="M1237.5,34.3c0-0.4,0.2-0.8,0.5-1.2c0.3-0.3,0.7-0.5,1.2-0.5c0.5,0,0.9,0.2,1.2,0.5c0.3,0.3,0.5,0.7,0.5,1.2
			c0,0.5-0.2,0.9-0.5,1.2c-0.3,0.3-0.7,0.5-1.2,0.5c-0.5,0-0.8-0.2-1.2-0.5C1237.7,35.2,1237.5,34.8,1237.5,34.3z M1237.9,50.9V39.3
			h2.6v11.6H1237.9z"/>
		<path d="M1255.4,45.5h-9.3c0.1,1.1,0.4,1.9,1,2.5c0.6,0.6,1.3,0.9,2.3,0.9c0.9,0,1.6-0.2,2.1-0.5c0.6-0.4,1.1-0.9,1.5-1.7l2.2,1.2
			c-0.7,1.2-1.5,2-2.4,2.6c-1,0.6-2.1,0.9-3.4,0.9c-1.9,0-3.3-0.6-4.4-1.7c-1.1-1.1-1.6-2.6-1.6-4.5c0-1.8,0.6-3.3,1.7-4.5
			c1.1-1.2,2.6-1.8,4.4-1.8c1.9,0,3.3,0.5,4.4,1.6c1,1.1,1.6,2.6,1.6,4.5V45.5z M1252.7,43.7c-0.1-0.8-0.4-1.5-1-1.9
			c-0.5-0.4-1.3-0.7-2.2-0.7c-0.9,0-1.6,0.2-2.1,0.6c-0.5,0.4-0.9,1.1-1.1,1.9H1252.7z"/>
		<path d="M1256.9,48.8l2.2-1.2c0.2,0.6,0.5,1,0.9,1.3c0.4,0.3,1,0.5,1.7,0.5c0.6,0,1.1-0.1,1.4-0.4c0.3-0.3,0.5-0.6,0.5-1.1
			c0-0.6-0.6-1.2-1.8-1.6c-0.4-0.1-0.7-0.3-0.9-0.4c-1.2-0.5-2.1-1-2.6-1.6c-0.5-0.5-0.7-1.2-0.7-1.9c0-1,0.4-1.9,1.2-2.5
			c0.8-0.6,1.9-1,3.2-1c0.9,0,1.7,0.2,2.3,0.5c0.6,0.3,1.1,0.8,1.4,1.4l-1.9,1.3c-0.1-0.4-0.4-0.7-0.7-0.9c-0.3-0.2-0.7-0.3-1.2-0.3
			c-0.5,0-0.9,0.1-1.2,0.4c-0.3,0.2-0.5,0.6-0.5,1c0,0.6,0.7,1.2,2.1,1.6c0.4,0.2,0.8,0.3,1,0.4c1.1,0.4,1.8,0.9,2.3,1.4
			c0.5,0.5,0.7,1.2,0.7,2c0,1.2-0.4,2.1-1.3,2.7c-0.8,0.7-2,1-3.5,1c-1.1,0-2.1-0.2-2.8-0.6C1257.9,50.3,1257.3,49.7,1256.9,48.8z"
			/>
		<path d="M1287.2,50.9h-2.6v-1.5c-0.5,0.7-1,1.2-1.7,1.5c-0.6,0.3-1.4,0.5-2.2,0.5c-1.6,0-2.9-0.6-3.9-1.7
			c-0.9-1.1-1.4-2.7-1.4-4.6c0-1.8,0.5-3.3,1.4-4.5c1-1.1,2.2-1.7,3.8-1.7c0.9,0,1.8,0.2,2.4,0.6c0.7,0.4,1.2,1,1.5,1.7v-1.9h2.6
			V50.9z M1284.7,45.1c0-1.2-0.3-2.1-0.8-2.8c-0.6-0.7-1.3-1-2.3-1c-1,0-1.8,0.3-2.4,1c-0.6,0.7-0.9,1.6-0.9,2.9
			c0,1.2,0.3,2.2,0.8,2.8c0.6,0.7,1.3,1,2.3,1c1,0,1.7-0.4,2.3-1.1C1284.4,47.2,1284.7,46.3,1284.7,45.1z"/>
		<path d="M1290.9,50.9V39.3h2.5v1.9c0.5-0.8,1.2-1.4,1.9-1.7c0.7-0.4,1.6-0.5,2.6-0.5c0.9,0,1.6,0.1,2.2,0.4
			c0.6,0.3,1.1,0.7,1.4,1.2c0.2,0.3,0.3,0.7,0.4,1.1c0.1,0.4,0.1,1.2,0.1,2.2v7h-2.7V45c0-1.5-0.2-2.5-0.6-3c-0.4-0.5-1-0.8-2-0.8
			c-0.6,0-1.2,0.1-1.7,0.3c-0.5,0.2-0.9,0.5-1.1,1c-0.2,0.3-0.3,0.6-0.4,1.1c-0.1,0.4-0.1,1.1-0.1,2.1v5.3H1290.9z"/>
		<path d="M1313.9,32h2.6v18.9h-2.6v-1.5c-0.5,0.7-1,1.2-1.7,1.5c-0.6,0.3-1.4,0.5-2.2,0.5c-1.6,0-2.9-0.6-3.9-1.7
			c-0.9-1.1-1.4-2.7-1.4-4.6c0-1.8,0.5-3.3,1.4-4.5c1-1.1,2.2-1.7,3.8-1.7c0.9,0,1.8,0.2,2.4,0.6c0.7,0.4,1.2,1,1.5,1.7V32z
			 M1313.9,45.1c0-1.2-0.3-2.1-0.8-2.8c-0.6-0.7-1.3-1-2.3-1c-1,0-1.8,0.3-2.4,1c-0.6,0.7-0.9,1.6-0.9,2.9c0,1.2,0.3,2.2,0.8,2.8
			c0.6,0.7,1.3,1,2.3,1c1,0,1.7-0.4,2.3-1.1C1313.6,47.2,1313.9,46.3,1313.9,45.1z"/>
		<path d="M1342.5,42.1c0-0.1-0.1-0.5-0.2-1.1c-0.1-0.5-0.1-1-0.2-1.3c-0.1,0.4-0.2,0.8-0.3,1.2c-0.1,0.4-0.3,0.8-0.5,1.2l-4.7,9.5
			l-4.7-9.7c-0.2-0.4-0.4-0.8-0.5-1.2c-0.1-0.4-0.3-0.7-0.4-1.1c0,0.4,0,0.8-0.1,1.2c-0.1,0.4-0.1,0.8-0.2,1.3l-1.9,8.8h-2.7
			l4.2-18.6l5.3,11.3c0.1,0.2,0.2,0.5,0.4,0.9c0.2,0.4,0.4,0.9,0.6,1.5c0.2-0.5,0.4-1.2,0.8-2c0.1-0.2,0.2-0.4,0.2-0.5l5.2-11.3
			l4.3,18.6h-2.7L1342.5,42.1z"/>
		<path d="M1360.2,50.9h-2.6v-1.5c-0.5,0.7-1,1.2-1.7,1.5c-0.6,0.3-1.4,0.5-2.2,0.5c-1.6,0-2.9-0.6-3.9-1.7
			c-0.9-1.1-1.4-2.7-1.4-4.6c0-1.8,0.5-3.3,1.4-4.5c1-1.1,2.2-1.7,3.8-1.7c0.9,0,1.8,0.2,2.4,0.6c0.7,0.4,1.2,1,1.5,1.7v-1.9h2.6
			V50.9z M1357.6,45.1c0-1.2-0.3-2.1-0.8-2.8c-0.6-0.7-1.3-1-2.3-1c-1,0-1.8,0.3-2.4,1c-0.6,0.7-0.9,1.6-0.9,2.9
			c0,1.2,0.3,2.2,0.8,2.8c0.6,0.7,1.3,1,2.3,1c1,0,1.7-0.4,2.3-1.1C1357.3,47.2,1357.6,46.3,1357.6,45.1z"/>
		<path d="M1363.8,50.9V32h2.6v12.1l4.8-4.8h3.3l-5.2,5.1l5.7,6.5h-3.4l-5.2-6v6H1363.8z"/>
		<path d="M1387.9,45.5h-9.3c0.1,1.1,0.4,1.9,1,2.5c0.6,0.6,1.3,0.9,2.3,0.9c0.9,0,1.6-0.2,2.1-0.5c0.6-0.4,1.1-0.9,1.5-1.7l2.2,1.2
			c-0.7,1.2-1.5,2-2.4,2.6c-1,0.6-2.1,0.9-3.4,0.9c-1.9,0-3.3-0.6-4.4-1.7c-1.1-1.1-1.6-2.6-1.6-4.5c0-1.8,0.6-3.3,1.7-4.5
			c1.1-1.2,2.6-1.8,4.4-1.8c1.9,0,3.3,0.5,4.4,1.6c1,1.1,1.6,2.6,1.6,4.5V45.5z M1385.2,43.7c-0.1-0.8-0.4-1.5-1-1.9
			c-0.5-0.4-1.3-0.7-2.2-0.7c-0.9,0-1.6,0.2-2.1,0.6c-0.5,0.4-0.9,1.1-1.1,1.9H1385.2z"/>
		<path d="M1393.3,41.2c0.3-0.8,0.7-1.3,1.1-1.7c0.5-0.4,1-0.5,1.7-0.5c0.4,0,0.7,0,1.1,0.1c0.4,0.1,0.7,0.2,1.1,0.4l-1,2.2
			c-0.2-0.2-0.5-0.3-0.7-0.4c-0.3-0.1-0.6-0.1-0.9-0.1c-0.9,0-1.5,0.4-1.9,1.1c-0.4,0.7-0.6,1.9-0.6,3.5v5.1h-2.6V39.3h2.6V41.2z"/>
		<path d="M1398.5,48.8l2.2-1.2c0.2,0.6,0.5,1,0.9,1.3c0.4,0.3,1,0.5,1.7,0.5c0.6,0,1.1-0.1,1.4-0.4c0.3-0.3,0.5-0.6,0.5-1.1
			c0-0.6-0.6-1.2-1.8-1.6c-0.4-0.1-0.7-0.3-0.9-0.4c-1.2-0.5-2.1-1-2.6-1.6c-0.5-0.5-0.7-1.2-0.7-1.9c0-1,0.4-1.9,1.2-2.5
			c0.8-0.6,1.9-1,3.2-1c0.9,0,1.7,0.2,2.3,0.5c0.6,0.3,1.1,0.8,1.4,1.4l-1.9,1.3c-0.1-0.4-0.4-0.7-0.7-0.9c-0.3-0.2-0.7-0.3-1.2-0.3
			c-0.5,0-0.9,0.1-1.2,0.4c-0.3,0.2-0.5,0.6-0.5,1c0,0.6,0.7,1.2,2.1,1.6c0.4,0.2,0.8,0.3,1,0.4c1.1,0.4,1.8,0.9,2.3,1.4
			c0.5,0.5,0.7,1.2,0.7,2c0,1.2-0.4,2.1-1.3,2.7c-0.8,0.7-2,1-3.5,1c-1.1,0-2.1-0.2-2.8-0.6C1399.6,50.3,1399,49.7,1398.5,48.8z"/>
	</g>
</g>
</svg>
