<svg width="1440" height="264" viewBox="0 0 1440 264" fill="none" xmlns="http://www.w3.org/2000/svg">
<path d="M-208 43H-47.6758V221L1348.07 221V43H1489" stroke="#D9E167" stroke-width="85" stroke-linejoin="round"/>
<path d="M36.75 209.125H38.7969V224.062C38.7969 226.323 39.3125 228.005 40.3438 229.109C41.375 230.203 42.9531 230.75 45.0781 230.75C47.1719 230.75 48.7344 230.203 49.7656 229.109C50.7969 228.005 51.3125 226.323 51.3125 224.062V209.125H53.3906V223.391C53.3906 226.484 52.7031 228.797 51.3281 230.328C49.9531 231.849 47.8698 232.609 45.0781 232.609C42.276 232.609 40.1875 231.849 38.8125 230.328C37.4375 228.797 36.75 226.484 36.75 223.391V209.125ZM58.8188 232V218.141H60.6469V220.281C61.2094 219.396 61.8969 218.734 62.7094 218.297C63.5323 217.849 64.475 217.625 65.5375 217.625C67.1104 217.625 68.3344 218.062 69.2094 218.938C70.0844 219.812 70.5219 221.031 70.5219 222.594V232H68.5688V223.453C68.5688 222.068 68.2771 221.042 67.6938 220.375C67.1208 219.698 66.2302 219.359 65.0219 219.359C63.5531 219.359 62.4698 219.797 61.7719 220.672C61.0844 221.536 60.7406 222.901 60.7406 224.766V232H58.8188ZM75.2469 212.734C75.2469 212.328 75.3927 211.984 75.6844 211.703C75.976 211.411 76.325 211.266 76.7313 211.266C77.1375 211.266 77.4865 211.411 77.7781 211.703C78.0802 211.984 78.2313 212.328 78.2313 212.734C78.2313 213.151 78.0854 213.5 77.7938 213.781C77.5125 214.062 77.1583 214.203 76.7313 214.203C76.3146 214.203 75.9604 214.062 75.6688 213.781C75.3875 213.5 75.2469 213.151 75.2469 212.734ZM75.7313 232V218.141H77.7156V232H75.7313ZM83.4875 219.781H80.9406V218.141H83.4875V212.453H85.3781V218.141H88.1594V219.781H85.3781V232H83.4875V219.781ZM90.7594 212.734C90.7594 212.328 90.9052 211.984 91.1969 211.703C91.4885 211.411 91.8375 211.266 92.2438 211.266C92.65 211.266 92.999 211.411 93.2906 211.703C93.5927 211.984 93.7438 212.328 93.7438 212.734C93.7438 213.151 93.5979 213.5 93.3063 213.781C93.025 214.062 92.6708 214.203 92.2438 214.203C91.8271 214.203 91.4729 214.062 91.1813 213.781C90.9 213.5 90.7594 213.151 90.7594 212.734ZM91.2438 232V218.141H93.2281V232H91.2438ZM98.5938 232V218.141H100.422V220.281C100.984 219.396 101.672 218.734 102.484 218.297C103.307 217.849 104.25 217.625 105.312 217.625C106.885 217.625 108.109 218.062 108.984 218.938C109.859 219.812 110.297 221.031 110.297 222.594V232H108.344V223.453C108.344 222.068 108.052 221.042 107.469 220.375C106.896 219.698 106.005 219.359 104.797 219.359C103.328 219.359 102.245 219.797 101.547 220.672C100.859 221.536 100.516 222.901 100.516 224.766V232H98.5938ZM127.569 218.141V229.594C127.569 231.417 127.517 232.807 127.412 233.766C127.319 234.724 127.157 235.438 126.928 235.906C126.449 236.938 125.715 237.703 124.725 238.203C123.735 238.714 122.485 238.969 120.975 238.969C119.131 238.969 117.694 238.609 116.662 237.891C115.642 237.182 115.022 236.104 114.803 234.656H117.209C117.366 235.51 117.772 236.156 118.428 236.594C119.095 237.031 119.996 237.25 121.131 237.25C121.985 237.25 122.751 237.099 123.428 236.797C124.116 236.495 124.631 236.078 124.975 235.547C125.204 235.203 125.366 234.802 125.459 234.344C125.564 233.896 125.616 233.198 125.616 232.25V231.516V229.438C125.189 230.427 124.532 231.203 123.647 231.766C122.772 232.328 121.767 232.609 120.631 232.609C118.683 232.609 117.126 231.932 115.959 230.578C114.803 229.224 114.225 227.406 114.225 225.125C114.225 222.865 114.819 221.052 116.006 219.688C117.194 218.312 118.767 217.625 120.725 217.625C121.819 217.625 122.808 217.911 123.694 218.484C124.59 219.047 125.23 219.797 125.616 220.734V218.141H127.569ZM120.944 219.391C119.506 219.391 118.371 219.906 117.537 220.938C116.715 221.958 116.303 223.365 116.303 225.156C116.303 226.938 116.694 228.328 117.475 229.328C118.267 230.318 119.36 230.812 120.756 230.812C122.235 230.812 123.418 230.286 124.303 229.234C125.199 228.182 125.647 226.766 125.647 224.984C125.647 223.234 125.23 221.865 124.397 220.875C123.564 219.885 122.412 219.391 120.944 219.391ZM148.222 232.891L139.269 209.125H141.659L148.253 227.75L155.191 209.125H157.472L148.222 232.891ZM159.478 212.734C159.478 212.328 159.624 211.984 159.916 211.703C160.207 211.411 160.556 211.266 160.963 211.266C161.369 211.266 161.718 211.411 162.009 211.703C162.311 211.984 162.463 212.328 162.463 212.734C162.463 213.151 162.317 213.5 162.025 213.781C161.744 214.062 161.39 214.203 160.963 214.203C160.546 214.203 160.192 214.062 159.9 213.781C159.619 213.5 159.478 213.151 159.478 212.734ZM159.963 232V218.141H161.947V232H159.963ZM165.734 229.531L167.562 228.484C167.865 229.255 168.302 229.839 168.875 230.234C169.448 230.62 170.151 230.812 170.984 230.812C171.797 230.812 172.443 230.609 172.922 230.203C173.401 229.786 173.641 229.234 173.641 228.547C173.641 227.484 172.698 226.583 170.812 225.844C170.615 225.771 170.458 225.708 170.344 225.656C168.885 225.083 167.865 224.495 167.281 223.891C166.698 223.276 166.406 222.521 166.406 221.625C166.406 220.448 166.823 219.484 167.656 218.734C168.49 217.974 169.568 217.594 170.891 217.594C172.016 217.594 172.974 217.839 173.766 218.328C174.557 218.818 175.135 219.516 175.5 220.422L173.734 221.406C173.516 220.75 173.151 220.25 172.641 219.906C172.13 219.562 171.505 219.391 170.766 219.391C170.099 219.391 169.547 219.589 169.109 219.984C168.682 220.37 168.469 220.854 168.469 221.438C168.469 222.01 168.682 222.484 169.109 222.859C169.536 223.234 170.422 223.646 171.766 224.094C173.286 224.625 174.307 225.203 174.828 225.828C175.359 226.453 175.625 227.318 175.625 228.422C175.625 229.693 175.172 230.708 174.266 231.469C173.359 232.229 172.141 232.609 170.609 232.609C169.432 232.609 168.417 232.344 167.562 231.812C166.719 231.271 166.109 230.51 165.734 229.531ZM179.272 212.734C179.272 212.328 179.418 211.984 179.709 211.703C180.001 211.411 180.35 211.266 180.756 211.266C181.163 211.266 181.511 211.411 181.803 211.703C182.105 211.984 182.256 212.328 182.256 212.734C182.256 213.151 182.11 213.5 181.819 213.781C181.538 214.062 181.183 214.203 180.756 214.203C180.34 214.203 179.985 214.062 179.694 213.781C179.413 213.5 179.272 213.151 179.272 212.734ZM179.756 232V218.141H181.741V232H179.756ZM193.466 230.812C194.986 230.812 196.273 230.266 197.325 229.172C198.387 228.068 198.919 226.719 198.919 225.125C198.919 223.51 198.393 222.156 197.341 221.062C196.289 219.969 194.997 219.422 193.466 219.422C191.945 219.422 190.658 219.969 189.606 221.062C188.554 222.156 188.028 223.51 188.028 225.125C188.028 226.719 188.554 228.068 189.606 229.172C190.658 230.266 191.945 230.812 193.466 230.812ZM193.403 232.609C192.414 232.609 191.466 232.411 190.559 232.016C189.653 231.63 188.83 231.073 188.091 230.344C187.393 229.656 186.861 228.865 186.497 227.969C186.132 227.073 185.95 226.115 185.95 225.094C185.95 224.083 186.137 223.125 186.512 222.219C186.887 221.312 187.424 220.51 188.122 219.812C188.83 219.104 189.637 218.562 190.544 218.188C191.45 217.812 192.403 217.625 193.403 217.625C194.424 217.625 195.393 217.812 196.309 218.188C197.236 218.562 198.059 219.104 198.778 219.812C199.497 220.521 200.044 221.328 200.419 222.234C200.804 223.141 200.997 224.094 200.997 225.094C200.997 226.094 200.809 227.047 200.434 227.953C200.059 228.849 199.518 229.646 198.809 230.344C198.08 231.073 197.247 231.63 196.309 232.016C195.382 232.411 194.414 232.609 193.403 232.609ZM205.081 232V218.141H206.909V220.281C207.472 219.396 208.159 218.734 208.972 218.297C209.795 217.849 210.738 217.625 211.8 217.625C213.373 217.625 214.597 218.062 215.472 218.938C216.347 219.812 216.784 221.031 216.784 222.594V232H214.831V223.453C214.831 222.068 214.54 221.042 213.956 220.375C213.383 219.698 212.493 219.359 211.284 219.359C209.816 219.359 208.732 219.797 208.034 220.672C207.347 221.536 207.003 222.901 207.003 224.766V232H205.081ZM222.759 225.219C222.759 227.01 223.16 228.391 223.962 229.359C224.775 230.328 225.931 230.812 227.431 230.812C228.89 230.812 230.035 230.286 230.869 229.234C231.712 228.172 232.134 226.714 232.134 224.859C232.134 223.161 231.718 221.828 230.884 220.859C230.051 219.88 228.91 219.391 227.462 219.391C226.015 219.391 224.869 219.911 224.025 220.953C223.181 221.984 222.759 223.406 222.759 225.219ZM232.103 232V229.469C231.645 230.49 230.999 231.271 230.166 231.812C229.343 232.344 228.369 232.609 227.244 232.609C225.254 232.609 223.65 231.927 222.431 230.562C221.223 229.198 220.619 227.396 220.619 225.156C220.619 222.938 221.218 221.13 222.416 219.734C223.614 218.328 225.16 217.625 227.056 217.625C228.233 217.625 229.249 217.885 230.103 218.406C230.968 218.917 231.634 219.672 232.103 220.672V218.141H234.025V232H232.103ZM241.203 220.922C241.911 219.724 242.604 218.875 243.281 218.375C243.969 217.875 244.766 217.625 245.672 217.625C245.943 217.625 246.214 217.651 246.484 217.703C246.766 217.755 247.042 217.828 247.312 217.922L246.688 219.734C246.479 219.672 246.26 219.62 246.031 219.578C245.812 219.536 245.599 219.516 245.391 219.516C244.234 219.516 243.245 220.057 242.422 221.141C241.609 222.224 241.203 223.573 241.203 225.188V232H239.281V218.141H241.203V220.922ZM249.116 212.734C249.116 212.328 249.261 211.984 249.553 211.703C249.845 211.411 250.194 211.266 250.6 211.266C251.006 211.266 251.355 211.411 251.647 211.703C251.949 211.984 252.1 212.328 252.1 212.734C252.1 213.151 251.954 213.5 251.663 213.781C251.381 214.062 251.027 214.203 250.6 214.203C250.183 214.203 249.829 214.062 249.538 213.781C249.256 213.5 249.116 213.151 249.116 212.734ZM249.6 232V218.141H251.584V232H249.6ZM266.575 223.484C266.481 222.214 266.059 221.229 265.309 220.531C264.559 219.833 263.544 219.484 262.262 219.484C261.096 219.484 260.117 219.849 259.325 220.578C258.544 221.307 258.091 222.276 257.966 223.484H266.575ZM268.856 225.125H257.841C257.893 226.917 258.341 228.323 259.184 229.344C260.028 230.365 261.158 230.875 262.575 230.875C263.596 230.875 264.492 230.599 265.262 230.047C266.033 229.495 266.674 228.661 267.184 227.547L268.95 228.516C268.242 229.922 267.372 230.958 266.341 231.625C265.32 232.281 264.065 232.609 262.575 232.609C260.544 232.609 258.898 231.932 257.637 230.578C256.387 229.214 255.762 227.427 255.762 225.219C255.762 222.948 256.382 221.115 257.622 219.719C258.872 218.323 260.502 217.625 262.512 217.625C264.429 217.625 265.966 218.271 267.122 219.562C268.278 220.844 268.856 222.557 268.856 224.703V225.125ZM271.378 229.531L273.206 228.484C273.508 229.255 273.946 229.839 274.519 230.234C275.092 230.62 275.795 230.812 276.628 230.812C277.441 230.812 278.086 230.609 278.566 230.203C279.045 229.786 279.284 229.234 279.284 228.547C279.284 227.484 278.342 226.583 276.456 225.844C276.258 225.771 276.102 225.708 275.988 225.656C274.529 225.083 273.508 224.495 272.925 223.891C272.342 223.276 272.05 222.521 272.05 221.625C272.05 220.448 272.467 219.484 273.3 218.734C274.133 217.974 275.211 217.594 276.534 217.594C277.659 217.594 278.618 217.839 279.409 218.328C280.201 218.818 280.779 219.516 281.144 220.422L279.378 221.406C279.159 220.75 278.795 220.25 278.284 219.906C277.774 219.562 277.149 219.391 276.409 219.391C275.743 219.391 275.191 219.589 274.753 219.984C274.326 220.37 274.113 220.854 274.113 221.438C274.113 222.01 274.326 222.484 274.753 222.859C275.18 223.234 276.066 223.646 277.409 224.094C278.93 224.625 279.951 225.203 280.472 225.828C281.003 226.453 281.269 227.318 281.269 228.422C281.269 229.693 280.816 230.708 279.909 231.469C279.003 232.229 277.784 232.609 276.253 232.609C275.076 232.609 274.06 232.344 273.206 231.812C272.363 231.271 271.753 230.51 271.378 229.531ZM295.484 225.219C295.484 227.01 295.885 228.391 296.688 229.359C297.5 230.328 298.656 230.812 300.156 230.812C301.615 230.812 302.76 230.286 303.594 229.234C304.438 228.172 304.859 226.714 304.859 224.859C304.859 223.161 304.443 221.828 303.609 220.859C302.776 219.88 301.635 219.391 300.188 219.391C298.74 219.391 297.594 219.911 296.75 220.953C295.906 221.984 295.484 223.406 295.484 225.219ZM304.828 232V229.469C304.37 230.49 303.724 231.271 302.891 231.812C302.068 232.344 301.094 232.609 299.969 232.609C297.979 232.609 296.375 231.927 295.156 230.562C293.948 229.198 293.344 227.396 293.344 225.156C293.344 222.938 293.943 221.13 295.141 219.734C296.339 218.328 297.885 217.625 299.781 217.625C300.958 217.625 301.974 217.885 302.828 218.406C303.693 218.917 304.359 219.672 304.828 220.672V218.141H306.75V232H304.828ZM312.006 232V218.141H313.834V220.281C314.397 219.396 315.084 218.734 315.897 218.297C316.72 217.849 317.663 217.625 318.725 217.625C320.298 217.625 321.522 218.062 322.397 218.938C323.272 219.812 323.709 221.031 323.709 222.594V232H321.756V223.453C321.756 222.068 321.465 221.042 320.881 220.375C320.308 219.698 319.418 219.359 318.209 219.359C316.741 219.359 315.657 219.797 314.959 220.672C314.272 221.536 313.928 222.901 313.928 224.766V232H312.006ZM329.747 225.219C329.747 227.01 330.148 228.391 330.95 229.359C331.763 230.328 332.919 230.812 334.419 230.812C335.867 230.812 337.007 230.286 337.841 229.234C338.674 228.172 339.091 226.714 339.091 224.859C339.091 223.161 338.679 221.828 337.856 220.859C337.033 219.88 335.898 219.391 334.45 219.391C333.002 219.391 331.856 219.911 331.013 220.953C330.169 221.984 329.747 223.406 329.747 225.219ZM339.059 232V229.469C338.601 230.5 337.96 231.281 337.138 231.812C336.315 232.344 335.346 232.609 334.231 232.609C332.242 232.609 330.638 231.927 329.419 230.562C328.21 229.198 327.606 227.396 327.606 225.156C327.606 222.938 328.205 221.13 329.403 219.734C330.601 218.328 332.148 217.625 334.044 217.625C335.221 217.625 336.231 217.885 337.075 218.406C337.929 218.917 338.591 219.672 339.059 220.672V207.781H341.013V232H339.059ZM357.447 232H355.525V218.141H357.447V220.312C357.905 219.438 358.509 218.771 359.259 218.312C360.009 217.854 360.874 217.625 361.853 217.625C362.864 217.625 363.723 217.859 364.431 218.328C365.15 218.786 365.702 219.464 366.087 220.359C366.64 219.443 367.317 218.76 368.119 218.312C368.921 217.854 369.853 217.625 370.916 217.625C372.384 217.625 373.541 218.073 374.384 218.969C375.228 219.854 375.65 221.073 375.65 222.625V232H373.728V223.391C373.728 222.036 373.447 221.016 372.884 220.328C372.332 219.641 371.504 219.297 370.4 219.297C369.077 219.297 368.103 219.729 367.478 220.594C366.864 221.458 366.556 222.828 366.556 224.703V232H364.65V223.391C364.65 221.974 364.384 220.938 363.853 220.281C363.322 219.625 362.499 219.297 361.384 219.297C360.03 219.297 359.035 219.734 358.4 220.609C357.765 221.484 357.447 222.849 357.447 224.703V232ZM381.766 225.219C381.766 227.01 382.167 228.391 382.969 229.359C383.781 230.328 384.938 230.812 386.438 230.812C387.896 230.812 389.042 230.286 389.875 229.234C390.719 228.172 391.141 226.714 391.141 224.859C391.141 223.161 390.724 221.828 389.891 220.859C389.057 219.88 387.917 219.391 386.469 219.391C385.021 219.391 383.875 219.911 383.031 220.953C382.188 221.984 381.766 223.406 381.766 225.219ZM391.109 232V229.469C390.651 230.49 390.005 231.271 389.172 231.812C388.349 232.344 387.375 232.609 386.25 232.609C384.26 232.609 382.656 231.927 381.438 230.562C380.229 229.198 379.625 227.396 379.625 225.156C379.625 222.938 380.224 221.13 381.422 219.734C382.62 218.328 384.167 217.625 386.062 217.625C387.24 217.625 388.255 217.885 389.109 218.406C389.974 218.917 390.641 219.672 391.109 220.672V218.141H393.031V232H391.109ZM398.288 232V207.781H400.209V224.281L407.116 218.141H409.772L402.35 224.359L410.319 232H407.663L400.209 224.828V232H398.288ZM422.669 223.484C422.575 222.214 422.153 221.229 421.403 220.531C420.653 219.833 419.638 219.484 418.356 219.484C417.19 219.484 416.21 219.849 415.419 220.578C414.638 221.307 414.184 222.276 414.059 223.484H422.669ZM424.95 225.125H413.934C413.986 226.917 414.434 228.323 415.278 229.344C416.122 230.365 417.252 230.875 418.669 230.875C419.69 230.875 420.585 230.599 421.356 230.047C422.127 229.495 422.768 228.661 423.278 227.547L425.044 228.516C424.335 229.922 423.466 230.958 422.434 231.625C421.414 232.281 420.158 232.609 418.669 232.609C416.638 232.609 414.992 231.932 413.731 230.578C412.481 229.214 411.856 227.427 411.856 225.219C411.856 222.948 412.476 221.115 413.716 219.719C414.966 218.323 416.596 217.625 418.606 217.625C420.523 217.625 422.059 218.271 423.216 219.562C424.372 220.844 424.95 222.557 424.95 224.703V225.125ZM430.972 220.922C431.68 219.724 432.373 218.875 433.05 218.375C433.737 217.875 434.534 217.625 435.441 217.625C435.711 217.625 435.982 217.651 436.253 217.703C436.534 217.755 436.81 217.828 437.081 217.922L436.456 219.734C436.248 219.672 436.029 219.62 435.8 219.578C435.581 219.536 435.368 219.516 435.159 219.516C434.003 219.516 433.014 220.057 432.191 221.141C431.378 222.224 430.972 223.573 430.972 225.188V232H429.05V218.141H430.972V220.922ZM437.666 229.531L439.494 228.484C439.796 229.255 440.233 229.839 440.806 230.234C441.379 230.62 442.082 230.812 442.916 230.812C443.728 230.812 444.374 230.609 444.853 230.203C445.332 229.786 445.572 229.234 445.572 228.547C445.572 227.484 444.629 226.583 442.744 225.844C442.546 225.771 442.39 225.708 442.275 225.656C440.817 225.083 439.796 224.495 439.212 223.891C438.629 223.276 438.337 222.521 438.337 221.625C438.337 220.448 438.754 219.484 439.587 218.734C440.421 217.974 441.499 217.594 442.822 217.594C443.947 217.594 444.905 217.839 445.697 218.328C446.489 218.818 447.067 219.516 447.431 220.422L445.666 221.406C445.447 220.75 445.082 220.25 444.572 219.906C444.061 219.562 443.436 219.391 442.697 219.391C442.03 219.391 441.478 219.589 441.041 219.984C440.614 220.37 440.4 220.854 440.4 221.438C440.4 222.01 440.614 222.484 441.041 222.859C441.468 223.234 442.353 223.646 443.697 224.094C445.218 224.625 446.239 225.203 446.759 225.828C447.291 226.453 447.556 227.318 447.556 228.422C447.556 229.693 447.103 230.708 446.197 231.469C445.291 232.229 444.072 232.609 442.541 232.609C441.364 232.609 440.348 232.344 439.494 231.812C438.65 231.271 438.041 230.51 437.666 229.531ZM461.334 230.688C461.334 230.24 461.485 229.865 461.788 229.562C462.1 229.25 462.48 229.094 462.928 229.094C463.376 229.094 463.751 229.25 464.053 229.562C464.366 229.865 464.522 230.24 464.522 230.688C464.522 231.135 464.366 231.516 464.053 231.828C463.751 232.13 463.376 232.281 462.928 232.281C462.48 232.281 462.1 232.13 461.788 231.828C461.485 231.516 461.334 231.135 461.334 230.688ZM479.706 209.125H481.753V224.062C481.753 226.323 482.269 228.005 483.3 229.109C484.331 230.203 485.909 230.75 488.034 230.75C490.128 230.75 491.691 230.203 492.722 229.109C493.753 228.005 494.269 226.323 494.269 224.062V209.125H496.347V223.391C496.347 226.484 495.659 228.797 494.284 230.328C492.909 231.849 490.826 232.609 488.034 232.609C485.232 232.609 483.144 231.849 481.769 230.328C480.394 228.797 479.706 226.484 479.706 223.391V209.125ZM501.775 232V218.141H503.603V220.281C504.166 219.396 504.853 218.734 505.666 218.297C506.489 217.849 507.431 217.625 508.494 217.625C510.067 217.625 511.291 218.062 512.166 218.938C513.041 219.812 513.478 221.031 513.478 222.594V232H511.525V223.453C511.525 222.068 511.233 221.042 510.65 220.375C510.077 219.698 509.186 219.359 507.978 219.359C506.509 219.359 505.426 219.797 504.728 220.672C504.041 221.536 503.697 222.901 503.697 224.766V232H501.775ZM518.203 212.734C518.203 212.328 518.349 211.984 518.641 211.703C518.932 211.411 519.281 211.266 519.688 211.266C520.094 211.266 520.443 211.411 520.734 211.703C521.036 211.984 521.188 212.328 521.188 212.734C521.188 213.151 521.042 213.5 520.75 213.781C520.469 214.062 520.115 214.203 519.688 214.203C519.271 214.203 518.917 214.062 518.625 213.781C518.344 213.5 518.203 213.151 518.203 212.734ZM518.688 232V218.141H520.672V232H518.688ZM526.444 219.781H523.897V218.141H526.444V212.453H528.334V218.141H531.116V219.781H528.334V232H526.444V219.781ZM533.716 212.734C533.716 212.328 533.861 211.984 534.153 211.703C534.445 211.411 534.794 211.266 535.2 211.266C535.606 211.266 535.955 211.411 536.247 211.703C536.549 211.984 536.7 212.328 536.7 212.734C536.7 213.151 536.554 213.5 536.263 213.781C535.981 214.062 535.627 214.203 535.2 214.203C534.783 214.203 534.429 214.062 534.138 213.781C533.856 213.5 533.716 213.151 533.716 212.734ZM534.2 232V218.141H536.184V232H534.2ZM541.55 232V218.141H543.378V220.281C543.941 219.396 544.628 218.734 545.441 218.297C546.264 217.849 547.206 217.625 548.269 217.625C549.842 217.625 551.066 218.062 551.941 218.938C552.816 219.812 553.253 221.031 553.253 222.594V232H551.3V223.453C551.3 222.068 551.008 221.042 550.425 220.375C549.852 219.698 548.961 219.359 547.753 219.359C546.284 219.359 545.201 219.797 544.503 220.672C543.816 221.536 543.472 222.901 543.472 224.766V232H541.55ZM570.525 218.141V229.594C570.525 231.417 570.473 232.807 570.369 233.766C570.275 234.724 570.114 235.438 569.884 235.906C569.405 236.938 568.671 237.703 567.681 238.203C566.692 238.714 565.442 238.969 563.931 238.969C562.088 238.969 560.65 238.609 559.619 237.891C558.598 237.182 557.978 236.104 557.759 234.656H560.166C560.322 235.51 560.728 236.156 561.384 236.594C562.051 237.031 562.952 237.25 564.088 237.25C564.942 237.25 565.707 237.099 566.384 236.797C567.072 236.495 567.588 236.078 567.931 235.547C568.16 235.203 568.322 234.802 568.416 234.344C568.52 233.896 568.572 233.198 568.572 232.25V231.516V229.438C568.145 230.427 567.489 231.203 566.603 231.766C565.728 232.328 564.723 232.609 563.588 232.609C561.64 232.609 560.082 231.932 558.916 230.578C557.759 229.224 557.181 227.406 557.181 225.125C557.181 222.865 557.775 221.052 558.963 219.688C560.15 218.312 561.723 217.625 563.681 217.625C564.775 217.625 565.765 217.911 566.65 218.484C567.546 219.047 568.186 219.797 568.572 220.734V218.141H570.525ZM563.9 219.391C562.463 219.391 561.327 219.906 560.494 220.938C559.671 221.958 559.259 223.365 559.259 225.156C559.259 226.938 559.65 228.328 560.431 229.328C561.223 230.318 562.317 230.812 563.713 230.812C565.192 230.812 566.374 230.286 567.259 229.234C568.155 228.182 568.603 226.766 568.603 224.984C568.603 223.234 568.186 221.865 567.353 220.875C566.52 219.885 565.369 219.391 563.9 219.391ZM591.178 232.891L582.225 209.125H584.616L591.209 227.75L598.147 209.125H600.428L591.178 232.891ZM602.434 212.734C602.434 212.328 602.58 211.984 602.872 211.703C603.164 211.411 603.513 211.266 603.919 211.266C604.325 211.266 604.674 211.411 604.966 211.703C605.268 211.984 605.419 212.328 605.419 212.734C605.419 213.151 605.273 213.5 604.981 213.781C604.7 214.062 604.346 214.203 603.919 214.203C603.502 214.203 603.148 214.062 602.856 213.781C602.575 213.5 602.434 213.151 602.434 212.734ZM602.919 232V218.141H604.903V232H602.919ZM608.691 229.531L610.519 228.484C610.821 229.255 611.258 229.839 611.831 230.234C612.404 230.62 613.107 230.812 613.941 230.812C614.753 230.812 615.399 230.609 615.878 230.203C616.357 229.786 616.597 229.234 616.597 228.547C616.597 227.484 615.654 226.583 613.769 225.844C613.571 225.771 613.415 225.708 613.3 225.656C611.842 225.083 610.821 224.495 610.237 223.891C609.654 223.276 609.362 222.521 609.362 221.625C609.362 220.448 609.779 219.484 610.612 218.734C611.446 217.974 612.524 217.594 613.847 217.594C614.972 217.594 615.93 217.839 616.722 218.328C617.514 218.818 618.092 219.516 618.456 220.422L616.691 221.406C616.472 220.75 616.107 220.25 615.597 219.906C615.086 219.562 614.461 219.391 613.722 219.391C613.055 219.391 612.503 219.589 612.066 219.984C611.639 220.37 611.425 220.854 611.425 221.438C611.425 222.01 611.639 222.484 612.066 222.859C612.493 223.234 613.378 223.646 614.722 224.094C616.243 224.625 617.264 225.203 617.784 225.828C618.316 226.453 618.581 227.318 618.581 228.422C618.581 229.693 618.128 230.708 617.222 231.469C616.316 232.229 615.097 232.609 613.566 232.609C612.389 232.609 611.373 232.344 610.519 231.812C609.675 231.271 609.066 230.51 608.691 229.531ZM622.228 212.734C622.228 212.328 622.374 211.984 622.666 211.703C622.957 211.411 623.306 211.266 623.713 211.266C624.119 211.266 624.468 211.411 624.759 211.703C625.061 211.984 625.213 212.328 625.213 212.734C625.213 213.151 625.067 213.5 624.775 213.781C624.494 214.062 624.14 214.203 623.713 214.203C623.296 214.203 622.942 214.062 622.65 213.781C622.369 213.5 622.228 213.151 622.228 212.734ZM622.713 232V218.141H624.697V232H622.713ZM636.422 230.812C637.943 230.812 639.229 230.266 640.281 229.172C641.344 228.068 641.875 226.719 641.875 225.125C641.875 223.51 641.349 222.156 640.297 221.062C639.245 219.969 637.953 219.422 636.422 219.422C634.901 219.422 633.615 219.969 632.562 221.062C631.51 222.156 630.984 223.51 630.984 225.125C630.984 226.719 631.51 228.068 632.562 229.172C633.615 230.266 634.901 230.812 636.422 230.812ZM636.359 232.609C635.37 232.609 634.422 232.411 633.516 232.016C632.609 231.63 631.786 231.073 631.047 230.344C630.349 229.656 629.818 228.865 629.453 227.969C629.089 227.073 628.906 226.115 628.906 225.094C628.906 224.083 629.094 223.125 629.469 222.219C629.844 221.312 630.38 220.51 631.078 219.812C631.786 219.104 632.594 218.562 633.5 218.188C634.406 217.812 635.359 217.625 636.359 217.625C637.38 217.625 638.349 217.812 639.266 218.188C640.193 218.562 641.016 219.104 641.734 219.812C642.453 220.521 643 221.328 643.375 222.234C643.76 223.141 643.953 224.094 643.953 225.094C643.953 226.094 643.766 227.047 643.391 227.953C643.016 228.849 642.474 229.646 641.766 230.344C641.036 231.073 640.203 231.63 639.266 232.016C638.339 232.411 637.37 232.609 636.359 232.609ZM648.037 232V218.141H649.866V220.281C650.428 219.396 651.116 218.734 651.928 218.297C652.751 217.849 653.694 217.625 654.756 217.625C656.329 217.625 657.553 218.062 658.428 218.938C659.303 219.812 659.741 221.031 659.741 222.594V232H657.787V223.453C657.787 222.068 657.496 221.042 656.912 220.375C656.34 219.698 655.449 219.359 654.241 219.359C652.772 219.359 651.689 219.797 650.991 220.672C650.303 221.536 649.959 222.901 649.959 224.766V232H648.037ZM665.716 225.219C665.716 227.01 666.117 228.391 666.919 229.359C667.731 230.328 668.888 230.812 670.388 230.812C671.846 230.812 672.992 230.286 673.825 229.234C674.669 228.172 675.091 226.714 675.091 224.859C675.091 223.161 674.674 221.828 673.841 220.859C673.007 219.88 671.867 219.391 670.419 219.391C668.971 219.391 667.825 219.911 666.981 220.953C666.138 221.984 665.716 223.406 665.716 225.219ZM675.059 232V229.469C674.601 230.49 673.955 231.271 673.122 231.812C672.299 232.344 671.325 232.609 670.2 232.609C668.21 232.609 666.606 231.927 665.388 230.562C664.179 229.198 663.575 227.396 663.575 225.156C663.575 222.938 664.174 221.13 665.372 219.734C666.57 218.328 668.117 217.625 670.013 217.625C671.19 217.625 672.205 217.885 673.059 218.406C673.924 218.917 674.591 219.672 675.059 220.672V218.141H676.981V232H675.059ZM684.159 220.922C684.868 219.724 685.56 218.875 686.237 218.375C686.925 217.875 687.722 217.625 688.628 217.625C688.899 217.625 689.17 217.651 689.441 217.703C689.722 217.755 689.998 217.828 690.269 217.922L689.644 219.734C689.435 219.672 689.217 219.62 688.987 219.578C688.769 219.536 688.555 219.516 688.347 219.516C687.191 219.516 686.201 220.057 685.378 221.141C684.566 222.224 684.159 223.573 684.159 225.188V232H682.237V218.141H684.159V220.922ZM692.072 212.734C692.072 212.328 692.218 211.984 692.509 211.703C692.801 211.411 693.15 211.266 693.556 211.266C693.963 211.266 694.311 211.411 694.603 211.703C694.905 211.984 695.056 212.328 695.056 212.734C695.056 213.151 694.91 213.5 694.619 213.781C694.338 214.062 693.983 214.203 693.556 214.203C693.14 214.203 692.785 214.062 692.494 213.781C692.213 213.5 692.072 213.151 692.072 212.734ZM692.556 232V218.141H694.541V232H692.556ZM709.531 223.484C709.438 222.214 709.016 221.229 708.266 220.531C707.516 219.833 706.5 219.484 705.219 219.484C704.052 219.484 703.073 219.849 702.281 220.578C701.5 221.307 701.047 222.276 700.922 223.484H709.531ZM711.812 225.125H700.797C700.849 226.917 701.297 228.323 702.141 229.344C702.984 230.365 704.115 230.875 705.531 230.875C706.552 230.875 707.448 230.599 708.219 230.047C708.99 229.495 709.63 228.661 710.141 227.547L711.906 228.516C711.198 229.922 710.328 230.958 709.297 231.625C708.276 232.281 707.021 232.609 705.531 232.609C703.5 232.609 701.854 231.932 700.594 230.578C699.344 229.214 698.719 227.427 698.719 225.219C698.719 222.948 699.339 221.115 700.578 219.719C701.828 218.323 703.458 217.625 705.469 217.625C707.385 217.625 708.922 218.271 710.078 219.562C711.234 220.844 711.812 222.557 711.812 224.703V225.125ZM714.334 229.531L716.162 228.484C716.465 229.255 716.902 229.839 717.475 230.234C718.048 230.62 718.751 230.812 719.584 230.812C720.397 230.812 721.043 230.609 721.522 230.203C722.001 229.786 722.241 229.234 722.241 228.547C722.241 227.484 721.298 226.583 719.412 225.844C719.215 225.771 719.058 225.708 718.944 225.656C717.485 225.083 716.465 224.495 715.881 223.891C715.298 223.276 715.006 222.521 715.006 221.625C715.006 220.448 715.423 219.484 716.256 218.734C717.09 217.974 718.168 217.594 719.491 217.594C720.616 217.594 721.574 217.839 722.366 218.328C723.157 218.818 723.735 219.516 724.1 220.422L722.334 221.406C722.116 220.75 721.751 220.25 721.241 219.906C720.73 219.562 720.105 219.391 719.366 219.391C718.699 219.391 718.147 219.589 717.709 219.984C717.282 220.37 717.069 220.854 717.069 221.438C717.069 222.01 717.282 222.484 717.709 222.859C718.136 223.234 719.022 223.646 720.366 224.094C721.886 224.625 722.907 225.203 723.428 225.828C723.959 226.453 724.225 227.318 724.225 228.422C724.225 229.693 723.772 230.708 722.866 231.469C721.959 232.229 720.741 232.609 719.209 232.609C718.032 232.609 717.017 232.344 716.162 231.812C715.319 231.271 714.709 230.51 714.334 229.531ZM738.441 225.219C738.441 227.01 738.842 228.391 739.644 229.359C740.456 230.328 741.612 230.812 743.112 230.812C744.571 230.812 745.717 230.286 746.55 229.234C747.394 228.172 747.816 226.714 747.816 224.859C747.816 223.161 747.399 221.828 746.566 220.859C745.732 219.88 744.592 219.391 743.144 219.391C741.696 219.391 740.55 219.911 739.706 220.953C738.862 221.984 738.441 223.406 738.441 225.219ZM747.784 232V229.469C747.326 230.49 746.68 231.271 745.847 231.812C745.024 232.344 744.05 232.609 742.925 232.609C740.935 232.609 739.331 231.927 738.112 230.562C736.904 229.198 736.3 227.396 736.3 225.156C736.3 222.938 736.899 221.13 738.097 219.734C739.295 218.328 740.842 217.625 742.737 217.625C743.915 217.625 744.93 217.885 745.784 218.406C746.649 218.917 747.316 219.672 747.784 220.672V218.141H749.706V232H747.784ZM754.963 232V218.141H756.791V220.281C757.353 219.396 758.041 218.734 758.853 218.297C759.676 217.849 760.619 217.625 761.681 217.625C763.254 217.625 764.478 218.062 765.353 218.938C766.228 219.812 766.666 221.031 766.666 222.594V232H764.713V223.453C764.713 222.068 764.421 221.042 763.838 220.375C763.265 219.698 762.374 219.359 761.166 219.359C759.697 219.359 758.614 219.797 757.916 220.672C757.228 221.536 756.884 222.901 756.884 224.766V232H754.963ZM772.703 225.219C772.703 227.01 773.104 228.391 773.906 229.359C774.719 230.328 775.875 230.812 777.375 230.812C778.823 230.812 779.964 230.286 780.797 229.234C781.63 228.172 782.047 226.714 782.047 224.859C782.047 223.161 781.635 221.828 780.812 220.859C779.99 219.88 778.854 219.391 777.406 219.391C775.958 219.391 774.812 219.911 773.969 220.953C773.125 221.984 772.703 223.406 772.703 225.219ZM782.016 232V229.469C781.557 230.5 780.917 231.281 780.094 231.812C779.271 232.344 778.302 232.609 777.188 232.609C775.198 232.609 773.594 231.927 772.375 230.562C771.167 229.198 770.562 227.396 770.562 225.156C770.562 222.938 771.161 221.13 772.359 219.734C773.557 218.328 775.104 217.625 777 217.625C778.177 217.625 779.188 217.885 780.031 218.406C780.885 218.917 781.547 219.672 782.016 220.672V207.781H783.969V232H782.016ZM800.403 232H798.481V218.141H800.403V220.312C800.861 219.438 801.466 218.771 802.216 218.312C802.966 217.854 803.83 217.625 804.809 217.625C805.82 217.625 806.679 217.859 807.388 218.328C808.106 218.786 808.658 219.464 809.044 220.359C809.596 219.443 810.273 218.76 811.075 218.312C811.877 217.854 812.809 217.625 813.872 217.625C815.341 217.625 816.497 218.073 817.341 218.969C818.184 219.854 818.606 221.073 818.606 222.625V232H816.684V223.391C816.684 222.036 816.403 221.016 815.841 220.328C815.289 219.641 814.46 219.297 813.356 219.297C812.033 219.297 811.059 219.729 810.434 220.594C809.82 221.458 809.513 222.828 809.513 224.703V232H807.606V223.391C807.606 221.974 807.341 220.938 806.809 220.281C806.278 219.625 805.455 219.297 804.341 219.297C802.986 219.297 801.992 219.734 801.356 220.609C800.721 221.484 800.403 222.849 800.403 224.703V232ZM824.722 225.219C824.722 227.01 825.123 228.391 825.925 229.359C826.737 230.328 827.894 230.812 829.394 230.812C830.852 230.812 831.998 230.286 832.831 229.234C833.675 228.172 834.097 226.714 834.097 224.859C834.097 223.161 833.68 221.828 832.847 220.859C832.014 219.88 830.873 219.391 829.425 219.391C827.977 219.391 826.831 219.911 825.987 220.953C825.144 221.984 824.722 223.406 824.722 225.219ZM834.066 232V229.469C833.607 230.49 832.961 231.271 832.128 231.812C831.305 232.344 830.331 232.609 829.206 232.609C827.217 232.609 825.612 231.927 824.394 230.562C823.185 229.198 822.581 227.396 822.581 225.156C822.581 222.938 823.18 221.13 824.378 219.734C825.576 218.328 827.123 217.625 829.019 217.625C830.196 217.625 831.211 217.885 832.066 218.406C832.93 218.917 833.597 219.672 834.066 220.672V218.141H835.987V232H834.066ZM841.244 232V207.781H843.166V224.281L850.072 218.141H852.728L845.306 224.359L853.275 232H850.619L843.166 224.828V232H841.244ZM865.625 223.484C865.531 222.214 865.109 221.229 864.359 220.531C863.609 219.833 862.594 219.484 861.312 219.484C860.146 219.484 859.167 219.849 858.375 220.578C857.594 221.307 857.141 222.276 857.016 223.484H865.625ZM867.906 225.125H856.891C856.943 226.917 857.391 228.323 858.234 229.344C859.078 230.365 860.208 230.875 861.625 230.875C862.646 230.875 863.542 230.599 864.312 230.047C865.083 229.495 865.724 228.661 866.234 227.547L868 228.516C867.292 229.922 866.422 230.958 865.391 231.625C864.37 232.281 863.115 232.609 861.625 232.609C859.594 232.609 857.948 231.932 856.688 230.578C855.438 229.214 854.812 227.427 854.812 225.219C854.812 222.948 855.432 221.115 856.672 219.719C857.922 218.323 859.552 217.625 861.562 217.625C863.479 217.625 865.016 218.271 866.172 219.562C867.328 220.844 867.906 222.557 867.906 224.703V225.125ZM873.928 220.922C874.636 219.724 875.329 218.875 876.006 218.375C876.694 217.875 877.491 217.625 878.397 217.625C878.668 217.625 878.939 217.651 879.209 217.703C879.491 217.755 879.767 217.828 880.037 217.922L879.412 219.734C879.204 219.672 878.985 219.62 878.756 219.578C878.537 219.536 878.324 219.516 878.116 219.516C876.959 219.516 875.97 220.057 875.147 221.141C874.334 222.224 873.928 223.573 873.928 225.188V232H872.006V218.141H873.928V220.922ZM880.622 229.531L882.45 228.484C882.752 229.255 883.19 229.839 883.763 230.234C884.335 230.62 885.039 230.812 885.872 230.812C886.684 230.812 887.33 230.609 887.809 230.203C888.289 229.786 888.528 229.234 888.528 228.547C888.528 227.484 887.585 226.583 885.7 225.844C885.502 225.771 885.346 225.708 885.231 225.656C883.773 225.083 882.752 224.495 882.169 223.891C881.585 223.276 881.294 222.521 881.294 221.625C881.294 220.448 881.71 219.484 882.544 218.734C883.377 217.974 884.455 217.594 885.778 217.594C886.903 217.594 887.861 217.839 888.653 218.328C889.445 218.818 890.023 219.516 890.388 220.422L888.622 221.406C888.403 220.75 888.039 220.25 887.528 219.906C887.018 219.562 886.393 219.391 885.653 219.391C884.986 219.391 884.434 219.589 883.997 219.984C883.57 220.37 883.356 220.854 883.356 221.438C883.356 222.01 883.57 222.484 883.997 222.859C884.424 223.234 885.309 223.646 886.653 224.094C888.174 224.625 889.195 225.203 889.716 225.828C890.247 226.453 890.513 227.318 890.513 228.422C890.513 229.693 890.059 230.708 889.153 231.469C888.247 232.229 887.028 232.609 885.497 232.609C884.32 232.609 883.304 232.344 882.45 231.812C881.606 231.271 880.997 230.51 880.622 229.531ZM904.291 230.688C904.291 230.24 904.442 229.865 904.744 229.562C905.056 229.25 905.436 229.094 905.884 229.094C906.332 229.094 906.707 229.25 907.009 229.562C907.322 229.865 907.478 230.24 907.478 230.688C907.478 231.135 907.322 231.516 907.009 231.828C906.707 232.13 906.332 232.281 905.884 232.281C905.436 232.281 905.056 232.13 904.744 231.828C904.442 231.516 904.291 231.135 904.291 230.688ZM922.662 209.125H924.709V224.062C924.709 226.323 925.225 228.005 926.256 229.109C927.287 230.203 928.866 230.75 930.991 230.75C933.084 230.75 934.647 230.203 935.678 229.109C936.709 228.005 937.225 226.323 937.225 224.062V209.125H939.303V223.391C939.303 226.484 938.616 228.797 937.241 230.328C935.866 231.849 933.782 232.609 930.991 232.609C928.189 232.609 926.1 231.849 924.725 230.328C923.35 228.797 922.662 226.484 922.662 223.391V209.125ZM944.731 232V218.141H946.559V220.281C947.122 219.396 947.809 218.734 948.622 218.297C949.445 217.849 950.388 217.625 951.45 217.625C953.023 217.625 954.247 218.062 955.122 218.938C955.997 219.812 956.434 221.031 956.434 222.594V232H954.481V223.453C954.481 222.068 954.19 221.042 953.606 220.375C953.033 219.698 952.143 219.359 950.934 219.359C949.466 219.359 948.382 219.797 947.684 220.672C946.997 221.536 946.653 222.901 946.653 224.766V232H944.731ZM961.159 212.734C961.159 212.328 961.305 211.984 961.597 211.703C961.889 211.411 962.237 211.266 962.644 211.266C963.05 211.266 963.399 211.411 963.691 211.703C963.993 211.984 964.144 212.328 964.144 212.734C964.144 213.151 963.998 213.5 963.706 213.781C963.425 214.062 963.071 214.203 962.644 214.203C962.227 214.203 961.873 214.062 961.581 213.781C961.3 213.5 961.159 213.151 961.159 212.734ZM961.644 232V218.141H963.628V232H961.644ZM969.4 219.781H966.853V218.141H969.4V212.453H971.291V218.141H974.072V219.781H971.291V232H969.4V219.781ZM976.672 212.734C976.672 212.328 976.818 211.984 977.109 211.703C977.401 211.411 977.75 211.266 978.156 211.266C978.562 211.266 978.911 211.411 979.203 211.703C979.505 211.984 979.656 212.328 979.656 212.734C979.656 213.151 979.51 213.5 979.219 213.781C978.938 214.062 978.583 214.203 978.156 214.203C977.74 214.203 977.385 214.062 977.094 213.781C976.812 213.5 976.672 213.151 976.672 212.734ZM977.156 232V218.141H979.141V232H977.156ZM984.506 232V218.141H986.334V220.281C986.897 219.396 987.584 218.734 988.397 218.297C989.22 217.849 990.162 217.625 991.225 217.625C992.798 217.625 994.022 218.062 994.897 218.938C995.772 219.812 996.209 221.031 996.209 222.594V232H994.256V223.453C994.256 222.068 993.965 221.042 993.381 220.375C992.808 219.698 991.918 219.359 990.709 219.359C989.241 219.359 988.157 219.797 987.459 220.672C986.772 221.536 986.428 222.901 986.428 224.766V232H984.506ZM1013.48 218.141V229.594C1013.48 231.417 1013.43 232.807 1013.33 233.766C1013.23 234.724 1013.07 235.438 1012.84 235.906C1012.36 236.938 1011.63 237.703 1010.64 238.203C1009.65 238.714 1008.4 238.969 1006.89 238.969C1005.04 238.969 1003.61 238.609 1002.58 237.891C1001.55 237.182 1000.93 236.104 1000.72 234.656H1003.12C1003.28 235.51 1003.68 236.156 1004.34 236.594C1005.01 237.031 1005.91 237.25 1007.04 237.25C1007.9 237.25 1008.66 237.099 1009.34 236.797C1010.03 236.495 1010.54 236.078 1010.89 235.547C1011.12 235.203 1011.28 234.802 1011.37 234.344C1011.48 233.896 1011.53 233.198 1011.53 232.25V231.516V229.438C1011.1 230.427 1010.44 231.203 1009.56 231.766C1008.68 232.328 1007.68 232.609 1006.54 232.609C1004.6 232.609 1003.04 231.932 1001.87 230.578C1000.72 229.224 1000.14 227.406 1000.14 225.125C1000.14 222.865 1000.73 221.052 1001.92 219.688C1003.11 218.312 1004.68 217.625 1006.64 217.625C1007.73 217.625 1008.72 217.911 1009.61 218.484C1010.5 219.047 1011.14 219.797 1011.53 220.734V218.141H1013.48ZM1006.86 219.391C1005.42 219.391 1004.28 219.906 1003.45 220.938C1002.63 221.958 1002.22 223.365 1002.22 225.156C1002.22 226.938 1002.61 228.328 1003.39 229.328C1004.18 230.318 1005.27 230.812 1006.67 230.812C1008.15 230.812 1009.33 230.286 1010.22 229.234C1011.11 228.182 1011.56 226.766 1011.56 224.984C1011.56 223.234 1011.14 221.865 1010.31 220.875C1009.48 219.885 1008.33 219.391 1006.86 219.391ZM1034.13 232.891L1025.18 209.125H1027.57L1034.17 227.75L1041.1 209.125H1043.38L1034.13 232.891ZM1045.39 212.734C1045.39 212.328 1045.54 211.984 1045.83 211.703C1046.12 211.411 1046.47 211.266 1046.88 211.266C1047.28 211.266 1047.63 211.411 1047.92 211.703C1048.22 211.984 1048.38 212.328 1048.38 212.734C1048.38 213.151 1048.23 213.5 1047.94 213.781C1047.66 214.062 1047.3 214.203 1046.88 214.203C1046.46 214.203 1046.1 214.062 1045.81 213.781C1045.53 213.5 1045.39 213.151 1045.39 212.734ZM1045.88 232V218.141H1047.86V232H1045.88ZM1051.65 229.531L1053.47 228.484C1053.78 229.255 1054.21 229.839 1054.79 230.234C1055.36 230.62 1056.06 230.812 1056.9 230.812C1057.71 230.812 1058.36 230.609 1058.83 230.203C1059.31 229.786 1059.55 229.234 1059.55 228.547C1059.55 227.484 1058.61 226.583 1056.72 225.844C1056.53 225.771 1056.37 225.708 1056.26 225.656C1054.8 225.083 1053.78 224.495 1053.19 223.891C1052.61 223.276 1052.32 222.521 1052.32 221.625C1052.32 220.448 1052.74 219.484 1053.57 218.734C1054.4 217.974 1055.48 217.594 1056.8 217.594C1057.93 217.594 1058.89 217.839 1059.68 218.328C1060.47 218.818 1061.05 219.516 1061.41 220.422L1059.65 221.406C1059.43 220.75 1059.06 220.25 1058.55 219.906C1058.04 219.562 1057.42 219.391 1056.68 219.391C1056.01 219.391 1055.46 219.589 1055.02 219.984C1054.59 220.37 1054.38 220.854 1054.38 221.438C1054.38 222.01 1054.59 222.484 1055.02 222.859C1055.45 223.234 1056.33 223.646 1057.68 224.094C1059.2 224.625 1060.22 225.203 1060.74 225.828C1061.27 226.453 1061.54 227.318 1061.54 228.422C1061.54 229.693 1061.08 230.708 1060.18 231.469C1059.27 232.229 1058.05 232.609 1056.52 232.609C1055.34 232.609 1054.33 232.344 1053.47 231.812C1052.63 231.271 1052.02 230.51 1051.65 229.531ZM1065.18 212.734C1065.18 212.328 1065.33 211.984 1065.62 211.703C1065.91 211.411 1066.26 211.266 1066.67 211.266C1067.07 211.266 1067.42 211.411 1067.72 211.703C1068.02 211.984 1068.17 212.328 1068.17 212.734C1068.17 213.151 1068.02 213.5 1067.73 213.781C1067.45 214.062 1067.1 214.203 1066.67 214.203C1066.25 214.203 1065.9 214.062 1065.61 213.781C1065.32 213.5 1065.18 213.151 1065.18 212.734ZM1065.67 232V218.141H1067.65V232H1065.67ZM1079.38 230.812C1080.9 230.812 1082.19 230.266 1083.24 229.172C1084.3 228.068 1084.83 226.719 1084.83 225.125C1084.83 223.51 1084.31 222.156 1083.25 221.062C1082.2 219.969 1080.91 219.422 1079.38 219.422C1077.86 219.422 1076.57 219.969 1075.52 221.062C1074.47 222.156 1073.94 223.51 1073.94 225.125C1073.94 226.719 1074.47 228.068 1075.52 229.172C1076.57 230.266 1077.86 230.812 1079.38 230.812ZM1079.32 232.609C1078.33 232.609 1077.38 232.411 1076.47 232.016C1075.57 231.63 1074.74 231.073 1074 230.344C1073.31 229.656 1072.77 228.865 1072.41 227.969C1072.04 227.073 1071.86 226.115 1071.86 225.094C1071.86 224.083 1072.05 223.125 1072.43 222.219C1072.8 221.312 1073.34 220.51 1074.03 219.812C1074.74 219.104 1075.55 218.562 1076.46 218.188C1077.36 217.812 1078.32 217.625 1079.32 217.625C1080.34 217.625 1081.31 217.812 1082.22 218.188C1083.15 218.562 1083.97 219.104 1084.69 219.812C1085.41 220.521 1085.96 221.328 1086.33 222.234C1086.72 223.141 1086.91 224.094 1086.91 225.094C1086.91 226.094 1086.72 227.047 1086.35 227.953C1085.97 228.849 1085.43 229.646 1084.72 230.344C1083.99 231.073 1083.16 231.63 1082.22 232.016C1081.29 232.411 1080.33 232.609 1079.32 232.609ZM1090.99 232V218.141H1092.82V220.281C1093.38 219.396 1094.07 218.734 1094.88 218.297C1095.71 217.849 1096.65 217.625 1097.71 217.625C1099.29 217.625 1100.51 218.062 1101.38 218.938C1102.26 219.812 1102.7 221.031 1102.7 222.594V232H1100.74V223.453C1100.74 222.068 1100.45 221.042 1099.87 220.375C1099.3 219.698 1098.41 219.359 1097.2 219.359C1095.73 219.359 1094.64 219.797 1093.95 220.672C1093.26 221.536 1092.92 222.901 1092.92 224.766V232H1090.99ZM1108.67 225.219C1108.67 227.01 1109.07 228.391 1109.88 229.359C1110.69 230.328 1111.84 230.812 1113.34 230.812C1114.8 230.812 1115.95 230.286 1116.78 229.234C1117.62 228.172 1118.05 226.714 1118.05 224.859C1118.05 223.161 1117.63 221.828 1116.8 220.859C1115.96 219.88 1114.82 219.391 1113.38 219.391C1111.93 219.391 1110.78 219.911 1109.94 220.953C1109.09 221.984 1108.67 223.406 1108.67 225.219ZM1118.02 232V229.469C1117.56 230.49 1116.91 231.271 1116.08 231.812C1115.26 232.344 1114.28 232.609 1113.16 232.609C1111.17 232.609 1109.56 231.927 1108.34 230.562C1107.14 229.198 1106.53 227.396 1106.53 225.156C1106.53 222.938 1107.13 221.13 1108.33 219.734C1109.53 218.328 1111.07 217.625 1112.97 217.625C1114.15 217.625 1115.16 217.885 1116.02 218.406C1116.88 218.917 1117.55 219.672 1118.02 220.672V218.141H1119.94V232H1118.02ZM1127.12 220.922C1127.82 219.724 1128.52 218.875 1129.19 218.375C1129.88 217.875 1130.68 217.625 1131.58 217.625C1131.86 217.625 1132.13 217.651 1132.4 217.703C1132.68 217.755 1132.95 217.828 1133.22 217.922L1132.6 219.734C1132.39 219.672 1132.17 219.62 1131.94 219.578C1131.72 219.536 1131.51 219.516 1131.3 219.516C1130.15 219.516 1129.16 220.057 1128.33 221.141C1127.52 222.224 1127.12 223.573 1127.12 225.188V232H1125.19V218.141H1127.12V220.922ZM1135.03 212.734C1135.03 212.328 1135.17 211.984 1135.47 211.703C1135.76 211.411 1136.11 211.266 1136.51 211.266C1136.92 211.266 1137.27 211.411 1137.56 211.703C1137.86 211.984 1138.01 212.328 1138.01 212.734C1138.01 213.151 1137.87 213.5 1137.57 213.781C1137.29 214.062 1136.94 214.203 1136.51 214.203C1136.1 214.203 1135.74 214.062 1135.45 213.781C1135.17 213.5 1135.03 213.151 1135.03 212.734ZM1135.51 232V218.141H1137.5V232H1135.51ZM1152.49 223.484C1152.39 222.214 1151.97 221.229 1151.22 220.531C1150.47 219.833 1149.46 219.484 1148.18 219.484C1147.01 219.484 1146.03 219.849 1145.24 220.578C1144.46 221.307 1144 222.276 1143.88 223.484H1152.49ZM1154.77 225.125H1143.75C1143.81 226.917 1144.25 228.323 1145.1 229.344C1145.94 230.365 1147.07 230.875 1148.49 230.875C1149.51 230.875 1150.4 230.599 1151.18 230.047C1151.95 229.495 1152.59 228.661 1153.1 227.547L1154.86 228.516C1154.15 229.922 1153.28 230.958 1152.25 231.625C1151.23 232.281 1149.98 232.609 1148.49 232.609C1146.46 232.609 1144.81 231.932 1143.55 230.578C1142.3 229.214 1141.68 227.427 1141.68 225.219C1141.68 222.948 1142.29 221.115 1143.53 219.719C1144.78 218.323 1146.41 217.625 1148.43 217.625C1150.34 217.625 1151.88 218.271 1153.03 219.562C1154.19 220.844 1154.77 222.557 1154.77 224.703V225.125ZM1157.29 229.531L1159.12 228.484C1159.42 229.255 1159.86 229.839 1160.43 230.234C1161 230.62 1161.71 230.812 1162.54 230.812C1163.35 230.812 1164 230.609 1164.48 230.203C1164.96 229.786 1165.2 229.234 1165.2 228.547C1165.2 227.484 1164.25 226.583 1162.37 225.844C1162.17 225.771 1162.01 225.708 1161.9 225.656C1160.44 225.083 1159.42 224.495 1158.84 223.891C1158.25 223.276 1157.96 222.521 1157.96 221.625C1157.96 220.448 1158.38 219.484 1159.21 218.734C1160.05 217.974 1161.12 217.594 1162.45 217.594C1163.57 217.594 1164.53 217.839 1165.32 218.328C1166.11 218.818 1166.69 219.516 1167.06 220.422L1165.29 221.406C1165.07 220.75 1164.71 220.25 1164.2 219.906C1163.69 219.562 1163.06 219.391 1162.32 219.391C1161.66 219.391 1161.1 219.589 1160.67 219.984C1160.24 220.37 1160.03 220.854 1160.03 221.438C1160.03 222.01 1160.24 222.484 1160.67 222.859C1161.09 223.234 1161.98 223.646 1163.32 224.094C1164.84 224.625 1165.86 225.203 1166.38 225.828C1166.92 226.453 1167.18 227.318 1167.18 228.422C1167.18 229.693 1166.73 230.708 1165.82 231.469C1164.92 232.229 1163.7 232.609 1162.17 232.609C1160.99 232.609 1159.97 232.344 1159.12 231.812C1158.28 231.271 1157.67 230.51 1157.29 229.531ZM1181.4 225.219C1181.4 227.01 1181.8 228.391 1182.6 229.359C1183.41 230.328 1184.57 230.812 1186.07 230.812C1187.53 230.812 1188.67 230.286 1189.51 229.234C1190.35 228.172 1190.77 226.714 1190.77 224.859C1190.77 223.161 1190.36 221.828 1189.52 220.859C1188.69 219.88 1187.55 219.391 1186.1 219.391C1184.65 219.391 1183.51 219.911 1182.66 220.953C1181.82 221.984 1181.4 223.406 1181.4 225.219ZM1190.74 232V229.469C1190.28 230.49 1189.64 231.271 1188.8 231.812C1187.98 232.344 1187.01 232.609 1185.88 232.609C1183.89 232.609 1182.29 231.927 1181.07 230.562C1179.86 229.198 1179.26 227.396 1179.26 225.156C1179.26 222.938 1179.86 221.13 1181.05 219.734C1182.25 218.328 1183.8 217.625 1185.69 217.625C1186.87 217.625 1187.89 217.885 1188.74 218.406C1189.61 218.917 1190.27 219.672 1190.74 220.672V218.141H1192.66V232H1190.74ZM1197.92 232V218.141H1199.75V220.281C1200.31 219.396 1201 218.734 1201.81 218.297C1202.63 217.849 1203.57 217.625 1204.64 217.625C1206.21 217.625 1207.43 218.062 1208.31 218.938C1209.18 219.812 1209.62 221.031 1209.62 222.594V232H1207.67V223.453C1207.67 222.068 1207.38 221.042 1206.79 220.375C1206.22 219.698 1205.33 219.359 1204.12 219.359C1202.65 219.359 1201.57 219.797 1200.87 220.672C1200.18 221.536 1199.84 222.901 1199.84 224.766V232H1197.92ZM1215.66 225.219C1215.66 227.01 1216.06 228.391 1216.86 229.359C1217.68 230.328 1218.83 230.812 1220.33 230.812C1221.78 230.812 1222.92 230.286 1223.75 229.234C1224.59 228.172 1225 226.714 1225 224.859C1225 223.161 1224.59 221.828 1223.77 220.859C1222.95 219.88 1221.81 219.391 1220.36 219.391C1218.91 219.391 1217.77 219.911 1216.93 220.953C1216.08 221.984 1215.66 223.406 1215.66 225.219ZM1224.97 232V229.469C1224.51 230.5 1223.87 231.281 1223.05 231.812C1222.23 232.344 1221.26 232.609 1220.14 232.609C1218.15 232.609 1216.55 231.927 1215.33 230.562C1214.12 229.198 1213.52 227.396 1213.52 225.156C1213.52 222.938 1214.12 221.13 1215.32 219.734C1216.51 218.328 1218.06 217.625 1219.96 217.625C1221.13 217.625 1222.14 217.885 1222.99 218.406C1223.84 218.917 1224.5 219.672 1224.97 220.672V207.781H1226.93V232H1224.97ZM1243.36 232H1241.44V218.141H1243.36V220.312C1243.82 219.438 1244.42 218.771 1245.17 218.312C1245.92 217.854 1246.79 217.625 1247.77 217.625C1248.78 217.625 1249.64 217.859 1250.34 218.328C1251.06 218.786 1251.61 219.464 1252 220.359C1252.55 219.443 1253.23 218.76 1254.03 218.312C1254.83 217.854 1255.77 217.625 1256.83 217.625C1258.3 217.625 1259.45 218.073 1260.3 218.969C1261.14 219.854 1261.56 221.073 1261.56 222.625V232H1259.64V223.391C1259.64 222.036 1259.36 221.016 1258.8 220.328C1258.24 219.641 1257.42 219.297 1256.31 219.297C1254.99 219.297 1254.02 219.729 1253.39 220.594C1252.78 221.458 1252.47 222.828 1252.47 224.703V232H1250.56V223.391C1250.56 221.974 1250.3 220.938 1249.77 220.281C1249.23 219.625 1248.41 219.297 1247.3 219.297C1245.94 219.297 1244.95 219.734 1244.31 220.609C1243.68 221.484 1243.36 222.849 1243.36 224.703V232ZM1267.68 225.219C1267.68 227.01 1268.08 228.391 1268.88 229.359C1269.69 230.328 1270.85 230.812 1272.35 230.812C1273.81 230.812 1274.95 230.286 1275.79 229.234C1276.63 228.172 1277.05 226.714 1277.05 224.859C1277.05 223.161 1276.64 221.828 1275.8 220.859C1274.97 219.88 1273.83 219.391 1272.38 219.391C1270.93 219.391 1269.79 219.911 1268.94 220.953C1268.1 221.984 1267.68 223.406 1267.68 225.219ZM1277.02 232V229.469C1276.56 230.49 1275.92 231.271 1275.08 231.812C1274.26 232.344 1273.29 232.609 1272.16 232.609C1270.17 232.609 1268.57 231.927 1267.35 230.562C1266.14 229.198 1265.54 227.396 1265.54 225.156C1265.54 222.938 1266.14 221.13 1267.33 219.734C1268.53 218.328 1270.08 217.625 1271.97 217.625C1273.15 217.625 1274.17 217.885 1275.02 218.406C1275.89 218.917 1276.55 219.672 1277.02 220.672V218.141H1278.94V232H1277.02ZM1284.2 232V207.781H1286.12V224.281L1293.03 218.141H1295.68L1288.26 224.359L1296.23 232H1293.57L1286.12 224.828V232H1284.2ZM1308.58 223.484C1308.49 222.214 1308.07 221.229 1307.32 220.531C1306.57 219.833 1305.55 219.484 1304.27 219.484C1303.1 219.484 1302.12 219.849 1301.33 220.578C1300.55 221.307 1300.1 222.276 1299.97 223.484H1308.58ZM1310.86 225.125H1299.85C1299.9 226.917 1300.35 228.323 1301.19 229.344C1302.03 230.365 1303.16 230.875 1304.58 230.875C1305.6 230.875 1306.5 230.599 1307.27 230.047C1308.04 229.495 1308.68 228.661 1309.19 227.547L1310.96 228.516C1310.25 229.922 1309.38 230.958 1308.35 231.625C1307.33 232.281 1306.07 232.609 1304.58 232.609C1302.55 232.609 1300.9 231.932 1299.64 230.578C1298.39 229.214 1297.77 227.427 1297.77 225.219C1297.77 222.948 1298.39 221.115 1299.63 219.719C1300.88 218.323 1302.51 217.625 1304.52 217.625C1306.44 217.625 1307.97 218.271 1309.13 219.562C1310.28 220.844 1310.86 222.557 1310.86 224.703V225.125ZM1316.88 220.922C1317.59 219.724 1318.29 218.875 1318.96 218.375C1319.65 217.875 1320.45 217.625 1321.35 217.625C1321.62 217.625 1321.89 217.651 1322.17 217.703C1322.45 217.755 1322.72 217.828 1322.99 217.922L1322.37 219.734C1322.16 219.672 1321.94 219.62 1321.71 219.578C1321.49 219.536 1321.28 219.516 1321.07 219.516C1319.92 219.516 1318.93 220.057 1318.1 221.141C1317.29 222.224 1316.88 223.573 1316.88 225.188V232H1314.96V218.141H1316.88V220.922ZM1323.58 229.531L1325.41 228.484C1325.71 229.255 1326.15 229.839 1326.72 230.234C1327.29 230.62 1327.99 230.812 1328.83 230.812C1329.64 230.812 1330.29 230.609 1330.77 230.203C1331.24 229.786 1331.48 229.234 1331.48 228.547C1331.48 227.484 1330.54 226.583 1328.66 225.844C1328.46 225.771 1328.3 225.708 1328.19 225.656C1326.73 225.083 1325.71 224.495 1325.12 223.891C1324.54 223.276 1324.25 222.521 1324.25 221.625C1324.25 220.448 1324.67 219.484 1325.5 218.734C1326.33 217.974 1327.41 217.594 1328.73 217.594C1329.86 217.594 1330.82 217.839 1331.61 218.328C1332.4 218.818 1332.98 219.516 1333.34 220.422L1331.58 221.406C1331.36 220.75 1330.99 220.25 1330.48 219.906C1329.97 219.562 1329.35 219.391 1328.61 219.391C1327.94 219.391 1327.39 219.589 1326.95 219.984C1326.53 220.37 1326.31 220.854 1326.31 221.438C1326.31 222.01 1326.53 222.484 1326.95 222.859C1327.38 223.234 1328.27 223.646 1329.61 224.094C1331.13 224.625 1332.15 225.203 1332.67 225.828C1333.2 226.453 1333.47 227.318 1333.47 228.422C1333.47 229.693 1333.02 230.708 1332.11 231.469C1331.2 232.229 1329.98 232.609 1328.45 232.609C1327.28 232.609 1326.26 232.344 1325.41 231.812C1324.56 231.271 1323.95 230.51 1323.58 229.531Z" fill="black"/>
<path d="M1357.69 206.984C1357.24 206.984 1356.86 206.833 1356.56 206.531C1356.25 206.219 1356.09 205.839 1356.09 205.391C1356.09 204.943 1356.25 204.568 1356.56 204.266C1356.86 203.953 1357.24 203.797 1357.69 203.797C1358.14 203.797 1358.52 203.953 1358.83 204.266C1359.13 204.568 1359.28 204.943 1359.28 205.391C1359.28 205.839 1359.13 206.219 1358.83 206.531C1358.52 206.833 1358.14 206.984 1357.69 206.984ZM1336.12 188.612L1336.12 186.566L1351.06 186.566C1353.32 186.566 1355.01 186.05 1356.11 185.019C1357.2 183.987 1357.75 182.409 1357.75 180.284C1357.75 178.191 1357.2 176.628 1356.11 175.597C1355.01 174.566 1353.32 174.05 1351.06 174.05L1336.12 174.05L1336.12 171.972L1350.39 171.972C1353.48 171.972 1355.8 172.659 1357.33 174.034C1358.85 175.409 1359.61 177.493 1359.61 180.284C1359.61 183.086 1358.85 185.175 1357.33 186.55C1355.8 187.925 1353.48 188.612 1350.39 188.612L1336.12 188.612ZM1359 166.544L1345.14 166.544L1345.14 164.716L1347.28 164.716C1346.4 164.153 1345.73 163.466 1345.3 162.653C1344.85 161.83 1344.62 160.888 1344.62 159.825C1344.62 158.252 1345.06 157.028 1345.94 156.153C1346.81 155.278 1348.03 154.841 1349.59 154.841L1359 154.841L1359 156.794L1350.45 156.794C1349.07 156.794 1348.04 157.085 1347.37 157.669C1346.7 158.242 1346.36 159.132 1346.36 160.341C1346.36 161.809 1346.8 162.893 1347.67 163.591C1348.54 164.278 1349.9 164.622 1351.77 164.622L1359 164.622L1359 166.544ZM1339.73 150.116C1339.33 150.116 1338.98 149.97 1338.7 149.678C1338.41 149.386 1338.27 149.037 1338.27 148.631C1338.27 148.225 1338.41 147.876 1338.7 147.584C1338.98 147.282 1339.33 147.131 1339.73 147.131C1340.15 147.131 1340.5 147.277 1340.78 147.569C1341.06 147.85 1341.2 148.204 1341.2 148.631C1341.2 149.048 1341.06 149.402 1340.78 149.694C1340.5 149.975 1340.15 150.116 1339.73 150.116ZM1359 149.631L1345.14 149.631L1345.14 147.647L1359 147.647L1359 149.631ZM1346.78 141.875L1346.78 144.422L1345.14 144.422L1345.14 141.875L1339.45 141.875L1339.45 139.984L1345.14 139.984L1345.14 137.203L1346.78 137.203L1346.78 139.984L1359 139.984L1359 141.875L1346.78 141.875ZM1339.73 134.603C1339.33 134.603 1338.98 134.457 1338.7 134.166C1338.41 133.874 1338.27 133.525 1338.27 133.119C1338.27 132.713 1338.41 132.364 1338.7 132.072C1338.98 131.77 1339.33 131.619 1339.73 131.619C1340.15 131.619 1340.5 131.765 1340.78 132.056C1341.06 132.338 1341.2 132.692 1341.2 133.119C1341.2 133.535 1341.06 133.89 1340.78 134.181C1340.5 134.463 1340.15 134.603 1339.73 134.603ZM1359 134.119L1345.14 134.119L1345.14 132.134L1359 132.134L1359 134.119ZM1359 126.769L1345.14 126.769L1345.14 124.941L1347.28 124.941C1346.4 124.378 1345.73 123.691 1345.3 122.878C1344.85 122.055 1344.62 121.113 1344.62 120.05C1344.62 118.477 1345.06 117.253 1345.94 116.378C1346.81 115.503 1348.03 115.066 1349.59 115.066L1359 115.066L1359 117.019L1350.45 117.019C1349.07 117.019 1348.04 117.31 1347.37 117.894C1346.7 118.467 1346.36 119.357 1346.36 120.566C1346.36 122.034 1346.8 123.118 1347.67 123.816C1348.54 124.503 1349.9 124.847 1351.77 124.847L1359 124.847L1359 126.769ZM1345.14 97.7937L1356.59 97.7937C1358.42 97.7937 1359.81 97.8458 1360.77 97.95C1361.72 98.0437 1362.44 98.2052 1362.91 98.4344C1363.94 98.9135 1364.7 99.6479 1365.2 100.637C1365.71 101.627 1365.97 102.877 1365.97 104.387C1365.97 106.231 1365.61 107.669 1364.89 108.7C1364.18 109.721 1363.1 110.341 1361.66 110.559L1361.66 108.153C1362.51 107.997 1363.16 107.591 1363.59 106.934C1364.03 106.268 1364.25 105.367 1364.25 104.231C1364.25 103.377 1364.1 102.611 1363.8 101.934C1363.49 101.247 1363.08 100.731 1362.55 100.387C1362.2 100.158 1361.8 99.9969 1361.34 99.9031C1360.9 99.799 1360.2 99.7469 1359.25 99.7469L1358.52 99.7469L1356.44 99.7469C1357.43 100.174 1358.2 100.83 1358.77 101.716C1359.33 102.591 1359.61 103.596 1359.61 104.731C1359.61 106.679 1358.93 108.236 1357.58 109.403C1356.22 110.559 1354.41 111.137 1352.12 111.137C1349.86 111.137 1348.05 110.544 1346.69 109.356C1345.31 108.169 1344.62 106.596 1344.62 104.637C1344.62 103.544 1344.91 102.554 1345.48 101.669C1346.05 100.773 1346.8 100.132 1347.73 99.7469L1345.14 99.7469L1345.14 97.7937ZM1346.39 104.419C1346.39 105.856 1346.91 106.992 1347.94 107.825C1348.96 108.648 1350.36 109.059 1352.16 109.059C1353.94 109.059 1355.33 108.669 1356.33 107.887C1357.32 107.096 1357.81 106.002 1357.81 104.606C1357.81 103.127 1357.29 101.945 1356.23 101.059C1355.18 100.164 1353.77 99.7156 1351.98 99.7156C1350.23 99.7156 1348.86 100.132 1347.87 100.966C1346.89 101.799 1346.39 102.95 1346.39 104.419ZM1359.89 77.1406L1336.12 86.0938L1336.12 83.7031L1354.75 77.1094L1336.12 70.1719L1336.12 67.8906L1359.89 77.1406ZM1339.73 65.8844C1339.33 65.8844 1338.98 65.7385 1338.7 65.4469C1338.41 65.1552 1338.27 64.8062 1338.27 64.4C1338.27 63.9937 1338.41 63.6448 1338.7 63.3531C1338.98 63.051 1339.33 62.9 1339.73 62.9C1340.15 62.9 1340.5 63.0458 1340.78 63.3375C1341.06 63.6187 1341.2 63.9729 1341.2 64.4C1341.2 64.8167 1341.06 65.1708 1340.78 65.4625C1340.5 65.7437 1340.15 65.8844 1339.73 65.8844ZM1359 65.4L1345.14 65.4L1345.14 63.4156L1359 63.4156L1359 65.4ZM1356.53 59.6281L1355.48 57.8C1356.26 57.4979 1356.84 57.0604 1357.23 56.4875C1357.62 55.9146 1357.81 55.2115 1357.81 54.3781C1357.81 53.5656 1357.61 52.9198 1357.2 52.4406C1356.79 51.9615 1356.23 51.7219 1355.55 51.7219C1354.48 51.7219 1353.58 52.6646 1352.84 54.55C1352.77 54.7479 1352.71 54.9042 1352.66 55.0188C1352.08 56.4771 1351.49 57.4979 1350.89 58.0813C1350.28 58.6646 1349.52 58.9563 1348.62 58.9563C1347.45 58.9563 1346.48 58.5396 1345.73 57.7063C1344.97 56.8729 1344.59 55.7948 1344.59 54.4719C1344.59 53.3469 1344.84 52.3885 1345.33 51.5969C1345.82 50.8052 1346.52 50.2271 1347.42 49.8625L1348.41 51.6281C1347.75 51.8469 1347.25 52.2115 1346.91 52.7219C1346.56 53.2323 1346.39 53.8573 1346.39 54.5969C1346.39 55.2635 1346.59 55.8156 1346.98 56.2531C1347.37 56.6802 1347.85 56.8938 1348.44 56.8938C1349.01 56.8938 1349.48 56.6802 1349.86 56.2531C1350.23 55.826 1350.65 54.9406 1351.09 53.5969C1351.62 52.076 1352.2 51.0552 1352.83 50.5344C1353.45 50.0031 1354.32 49.7375 1355.42 49.7375C1356.69 49.7375 1357.71 50.1906 1358.47 51.0969C1359.23 52.0031 1359.61 53.2219 1359.61 54.7531C1359.61 55.9302 1359.34 56.9458 1358.81 57.8C1358.27 58.6438 1357.51 59.2531 1356.53 59.6281ZM1339.73 46.0906C1339.33 46.0906 1338.98 45.9448 1338.7 45.6531C1338.41 45.3615 1338.27 45.0125 1338.27 44.6062C1338.27 44.2 1338.41 43.851 1338.7 43.5594C1338.98 43.2573 1339.33 43.1062 1339.73 43.1062C1340.15 43.1062 1340.5 43.2521 1340.78 43.5437C1341.06 43.825 1341.2 44.1792 1341.2 44.6062C1341.2 45.0229 1341.06 45.3771 1340.78 45.6687C1340.5 45.95 1340.15 46.0906 1339.73 46.0906ZM1359 45.6062L1345.14 45.6062L1345.14 43.6219L1359 43.6219L1359 45.6062Z" fill="black"/>
<path d="M1388.92 41.8125C1390.44 41.8125 1391.73 41.2656 1392.78 40.1719C1393.84 39.0677 1394.38 37.7188 1394.38 36.125C1394.38 34.5104 1393.85 33.1562 1392.8 32.0625C1391.74 30.9688 1390.45 30.4219 1388.92 30.4219C1387.4 30.4219 1386.11 30.9688 1385.06 32.0625C1384.01 33.1562 1383.48 34.5104 1383.48 36.125C1383.48 37.7188 1384.01 39.0677 1385.06 40.1719C1386.11 41.2656 1387.4 41.8125 1388.92 41.8125ZM1388.86 43.6094C1387.87 43.6094 1386.92 43.4115 1386.02 43.0156C1385.11 42.6302 1384.29 42.0729 1383.55 41.3438C1382.85 40.6562 1382.32 39.8646 1381.95 38.9688C1381.59 38.0729 1381.41 37.1146 1381.41 36.0938C1381.41 35.0833 1381.59 34.125 1381.97 33.2188C1382.34 32.3125 1382.88 31.5104 1383.58 30.8125C1384.29 30.1042 1385.09 29.5625 1386 29.1875C1386.91 28.8125 1387.86 28.625 1388.86 28.625C1389.88 28.625 1390.85 28.8125 1391.77 29.1875C1392.69 29.5625 1393.52 30.1042 1394.23 30.8125C1394.95 31.5208 1395.5 32.3281 1395.88 33.2344C1396.26 34.1406 1396.45 35.0938 1396.45 36.0938C1396.45 37.0938 1396.27 38.0469 1395.89 38.9531C1395.52 39.849 1394.97 40.6458 1394.27 41.3438C1393.54 42.0729 1392.7 42.6302 1391.77 43.0156C1390.84 43.4115 1389.87 43.6094 1388.86 43.6094ZM1400.54 43V29.1406H1402.37V31.2812C1402.93 30.3958 1403.62 29.7344 1404.43 29.2969C1405.25 28.849 1406.19 28.625 1407.26 28.625C1408.83 28.625 1410.05 29.0625 1410.93 29.9375C1411.8 30.8125 1412.24 32.0312 1412.24 33.5938V43H1410.29V34.4531C1410.29 33.0677 1410 32.0417 1409.41 31.375C1408.84 30.6979 1407.95 30.3594 1406.74 30.3594C1405.27 30.3594 1404.19 30.7969 1403.49 31.6719C1402.8 32.5365 1402.46 33.901 1402.46 35.7656V43H1400.54ZM1418.22 36.2188C1418.22 38.0104 1418.62 39.3906 1419.42 40.3594C1420.23 41.3281 1421.39 41.8125 1422.89 41.8125C1424.35 41.8125 1425.49 41.2865 1426.33 40.2344C1427.17 39.1719 1427.59 37.7135 1427.59 35.8594C1427.59 34.1615 1427.17 32.8281 1426.34 31.8594C1425.51 30.8802 1424.37 30.3906 1422.92 30.3906C1421.47 30.3906 1420.33 30.9115 1419.48 31.9531C1418.64 32.9844 1418.22 34.4062 1418.22 36.2188ZM1427.56 43V40.4688C1427.1 41.4896 1426.46 42.2708 1425.62 42.8125C1424.8 43.3438 1423.83 43.6094 1422.7 43.6094C1420.71 43.6094 1419.11 42.9271 1417.89 41.5625C1416.68 40.1979 1416.08 38.3958 1416.08 36.1562C1416.08 33.9375 1416.67 32.1302 1417.87 30.7344C1419.07 29.3281 1420.62 28.625 1422.51 28.625C1423.69 28.625 1424.71 28.8854 1425.56 29.4062C1426.42 29.9167 1427.09 30.6719 1427.56 31.6719V29.1406H1429.48V43H1427.56ZM1436.66 31.9219C1437.37 30.724 1438.06 29.875 1438.74 29.375C1439.42 28.875 1440.22 28.625 1441.13 28.625C1441.4 28.625 1441.67 28.651 1441.94 28.7031C1442.22 28.7552 1442.5 28.8281 1442.77 28.9219L1442.14 30.7344C1441.94 30.6719 1441.72 30.6198 1441.49 30.5781C1441.27 30.5365 1441.06 30.5156 1440.85 30.5156C1439.69 30.5156 1438.7 31.0573 1437.88 32.1406C1437.07 33.224 1436.66 34.5729 1436.66 36.1875V43H1434.74V29.1406H1436.66V31.9219ZM1444.57 23.7344C1444.57 23.3281 1444.72 22.9844 1445.01 22.7031C1445.3 22.4115 1445.65 22.2656 1446.06 22.2656C1446.46 22.2656 1446.81 22.4115 1447.1 22.7031C1447.41 22.9844 1447.56 23.3281 1447.56 23.7344C1447.56 24.151 1447.41 24.5 1447.12 24.7812C1446.84 25.0625 1446.48 25.2031 1446.06 25.2031C1445.64 25.2031 1445.29 25.0625 1444.99 24.7812C1444.71 24.5 1444.57 24.151 1444.57 23.7344ZM1445.06 43V29.1406H1447.04V43H1445.06ZM1462.03 34.4844C1461.94 33.2135 1461.52 32.2292 1460.77 31.5312C1460.02 30.8333 1459 30.4844 1457.72 30.4844C1456.55 30.4844 1455.57 30.849 1454.78 31.5781C1454 32.3073 1453.55 33.276 1453.42 34.4844H1462.03ZM1464.31 36.125H1453.3C1453.35 37.9167 1453.8 39.3229 1454.64 40.3438C1455.48 41.3646 1456.61 41.875 1458.03 41.875C1459.05 41.875 1459.95 41.599 1460.72 41.0469C1461.49 40.4948 1462.13 39.6615 1462.64 38.5469L1464.41 39.5156C1463.7 40.9219 1462.83 41.9583 1461.8 42.625C1460.78 43.2812 1459.52 43.6094 1458.03 43.6094C1456 43.6094 1454.35 42.9323 1453.09 41.5781C1451.84 40.2135 1451.22 38.4271 1451.22 36.2188C1451.22 33.9479 1451.84 32.1146 1453.08 30.7188C1454.33 29.3229 1455.96 28.625 1457.97 28.625C1459.89 28.625 1461.42 29.2708 1462.58 30.5625C1463.73 31.8438 1464.31 33.5573 1464.31 35.7031V36.125ZM1466.83 40.5312L1468.66 39.4844C1468.96 40.2552 1469.4 40.8385 1469.97 41.2344C1470.55 41.6198 1471.25 41.8125 1472.08 41.8125C1472.9 41.8125 1473.54 41.6094 1474.02 41.2031C1474.5 40.7865 1474.74 40.2344 1474.74 39.5469C1474.74 38.4844 1473.8 37.5833 1471.91 36.8438C1471.71 36.7708 1471.56 36.7083 1471.44 36.6562C1469.99 36.0833 1468.96 35.4948 1468.38 34.8906C1467.8 34.276 1467.51 33.5208 1467.51 32.625C1467.51 31.4479 1467.92 30.4844 1468.76 29.7344C1469.59 28.974 1470.67 28.5938 1471.99 28.5938C1473.12 28.5938 1474.07 28.8385 1474.87 29.3281C1475.66 29.8177 1476.24 30.5156 1476.6 31.4219L1474.83 32.4062C1474.62 31.75 1474.25 31.25 1473.74 30.9062C1473.23 30.5625 1472.61 30.3906 1471.87 30.3906C1471.2 30.3906 1470.65 30.5885 1470.21 30.9844C1469.78 31.3698 1469.57 31.8542 1469.57 32.4375C1469.57 33.0104 1469.78 33.4844 1470.21 33.8594C1470.64 34.2344 1471.52 34.6458 1472.87 35.0938C1474.39 35.625 1475.41 36.2031 1475.93 36.8281C1476.46 37.4531 1476.72 38.3177 1476.72 39.4219C1476.72 40.6927 1476.27 41.7083 1475.37 42.4688C1474.46 43.2292 1473.24 43.6094 1471.71 43.6094C1470.53 43.6094 1469.52 43.3438 1468.66 42.8125C1467.82 42.2708 1467.21 41.5104 1466.83 40.5312Z" fill="black"/>
</svg>
