<svg width="601" height="390" viewBox="0 0 601 390" fill="none" xmlns="http://www.w3.org/2000/svg">
<path d="M43 0V347H558V0" stroke="#D9E167" stroke-width="85" stroke-linejoin="round"/>
<path d="M45.75 333.125H47.7969V348.062C47.7969 350.323 48.3125 352.005 49.3438 353.109C50.375 354.203 51.9531 354.75 54.0781 354.75C56.1719 354.75 57.7344 354.203 58.7656 353.109C59.7969 352.005 60.3125 350.323 60.3125 348.062V333.125H62.3906V347.391C62.3906 350.484 61.7031 352.797 60.3281 354.328C58.9531 355.849 56.8698 356.609 54.0781 356.609C51.276 356.609 49.1875 355.849 47.8125 354.328C46.4375 352.797 45.75 350.484 45.75 347.391V333.125ZM67.8188 356V342.141H69.6469V344.281C70.2094 343.396 70.8969 342.734 71.7094 342.297C72.5323 341.849 73.475 341.625 74.5375 341.625C76.1104 341.625 77.3344 342.062 78.2094 342.938C79.0844 343.812 79.5219 345.031 79.5219 346.594V356H77.5688V347.453C77.5688 346.068 77.2771 345.042 76.6938 344.375C76.1208 343.698 75.2302 343.359 74.0219 343.359C72.5531 343.359 71.4698 343.797 70.7719 344.672C70.0844 345.536 69.7406 346.901 69.7406 348.766V356H67.8188ZM84.2469 336.734C84.2469 336.328 84.3927 335.984 84.6844 335.703C84.976 335.411 85.325 335.266 85.7313 335.266C86.1375 335.266 86.4865 335.411 86.7781 335.703C87.0802 335.984 87.2313 336.328 87.2313 336.734C87.2313 337.151 87.0854 337.5 86.7938 337.781C86.5125 338.062 86.1583 338.203 85.7313 338.203C85.3146 338.203 84.9604 338.062 84.6688 337.781C84.3875 337.5 84.2469 337.151 84.2469 336.734ZM84.7313 356V342.141H86.7156V356H84.7313ZM92.4875 343.781H89.9406V342.141H92.4875V336.453H94.3781V342.141H97.1594V343.781H94.3781V356H92.4875V343.781ZM99.7594 336.734C99.7594 336.328 99.9052 335.984 100.197 335.703C100.489 335.411 100.838 335.266 101.244 335.266C101.65 335.266 101.999 335.411 102.291 335.703C102.593 335.984 102.744 336.328 102.744 336.734C102.744 337.151 102.598 337.5 102.306 337.781C102.025 338.062 101.671 338.203 101.244 338.203C100.827 338.203 100.473 338.062 100.181 337.781C99.9 337.5 99.7594 337.151 99.7594 336.734ZM100.244 356V342.141H102.228V356H100.244ZM107.594 356V342.141H109.422V344.281C109.984 343.396 110.672 342.734 111.484 342.297C112.307 341.849 113.25 341.625 114.312 341.625C115.885 341.625 117.109 342.062 117.984 342.938C118.859 343.812 119.297 345.031 119.297 346.594V356H117.344V347.453C117.344 346.068 117.052 345.042 116.469 344.375C115.896 343.698 115.005 343.359 113.797 343.359C112.328 343.359 111.245 343.797 110.547 344.672C109.859 345.536 109.516 346.901 109.516 348.766V356H107.594ZM136.569 342.141V353.594C136.569 355.417 136.517 356.807 136.412 357.766C136.319 358.724 136.157 359.438 135.928 359.906C135.449 360.938 134.715 361.703 133.725 362.203C132.735 362.714 131.485 362.969 129.975 362.969C128.131 362.969 126.694 362.609 125.662 361.891C124.642 361.182 124.022 360.104 123.803 358.656H126.209C126.366 359.51 126.772 360.156 127.428 360.594C128.095 361.031 128.996 361.25 130.131 361.25C130.985 361.25 131.751 361.099 132.428 360.797C133.116 360.495 133.631 360.078 133.975 359.547C134.204 359.203 134.366 358.802 134.459 358.344C134.564 357.896 134.616 357.198 134.616 356.25V355.516V353.438C134.189 354.427 133.532 355.203 132.647 355.766C131.772 356.328 130.767 356.609 129.631 356.609C127.683 356.609 126.126 355.932 124.959 354.578C123.803 353.224 123.225 351.406 123.225 349.125C123.225 346.865 123.819 345.052 125.006 343.688C126.194 342.312 127.767 341.625 129.725 341.625C130.819 341.625 131.808 341.911 132.694 342.484C133.59 343.047 134.23 343.797 134.616 344.734V342.141H136.569ZM129.944 343.391C128.506 343.391 127.371 343.906 126.537 344.938C125.715 345.958 125.303 347.365 125.303 349.156C125.303 350.938 125.694 352.328 126.475 353.328C127.267 354.318 128.36 354.812 129.756 354.812C131.235 354.812 132.418 354.286 133.303 353.234C134.199 352.182 134.647 350.766 134.647 348.984C134.647 347.234 134.23 345.865 133.397 344.875C132.564 343.885 131.412 343.391 129.944 343.391ZM157.222 356.891L148.269 333.125H150.659L157.253 351.75L164.191 333.125H166.472L157.222 356.891ZM168.478 336.734C168.478 336.328 168.624 335.984 168.916 335.703C169.207 335.411 169.556 335.266 169.963 335.266C170.369 335.266 170.718 335.411 171.009 335.703C171.311 335.984 171.463 336.328 171.463 336.734C171.463 337.151 171.317 337.5 171.025 337.781C170.744 338.062 170.39 338.203 169.963 338.203C169.546 338.203 169.192 338.062 168.9 337.781C168.619 337.5 168.478 337.151 168.478 336.734ZM168.963 356V342.141H170.947V356H168.963ZM174.734 353.531L176.562 352.484C176.865 353.255 177.302 353.839 177.875 354.234C178.448 354.62 179.151 354.812 179.984 354.812C180.797 354.812 181.443 354.609 181.922 354.203C182.401 353.786 182.641 353.234 182.641 352.547C182.641 351.484 181.698 350.583 179.812 349.844C179.615 349.771 179.458 349.708 179.344 349.656C177.885 349.083 176.865 348.495 176.281 347.891C175.698 347.276 175.406 346.521 175.406 345.625C175.406 344.448 175.823 343.484 176.656 342.734C177.49 341.974 178.568 341.594 179.891 341.594C181.016 341.594 181.974 341.839 182.766 342.328C183.557 342.818 184.135 343.516 184.5 344.422L182.734 345.406C182.516 344.75 182.151 344.25 181.641 343.906C181.13 343.562 180.505 343.391 179.766 343.391C179.099 343.391 178.547 343.589 178.109 343.984C177.682 344.37 177.469 344.854 177.469 345.438C177.469 346.01 177.682 346.484 178.109 346.859C178.536 347.234 179.422 347.646 180.766 348.094C182.286 348.625 183.307 349.203 183.828 349.828C184.359 350.453 184.625 351.318 184.625 352.422C184.625 353.693 184.172 354.708 183.266 355.469C182.359 356.229 181.141 356.609 179.609 356.609C178.432 356.609 177.417 356.344 176.562 355.812C175.719 355.271 175.109 354.51 174.734 353.531ZM188.272 336.734C188.272 336.328 188.418 335.984 188.709 335.703C189.001 335.411 189.35 335.266 189.756 335.266C190.163 335.266 190.511 335.411 190.803 335.703C191.105 335.984 191.256 336.328 191.256 336.734C191.256 337.151 191.11 337.5 190.819 337.781C190.538 338.062 190.183 338.203 189.756 338.203C189.34 338.203 188.985 338.062 188.694 337.781C188.413 337.5 188.272 337.151 188.272 336.734ZM188.756 356V342.141H190.741V356H188.756ZM202.466 354.812C203.986 354.812 205.273 354.266 206.325 353.172C207.387 352.068 207.919 350.719 207.919 349.125C207.919 347.51 207.393 346.156 206.341 345.062C205.289 343.969 203.997 343.422 202.466 343.422C200.945 343.422 199.658 343.969 198.606 345.062C197.554 346.156 197.028 347.51 197.028 349.125C197.028 350.719 197.554 352.068 198.606 353.172C199.658 354.266 200.945 354.812 202.466 354.812ZM202.403 356.609C201.414 356.609 200.466 356.411 199.559 356.016C198.653 355.63 197.83 355.073 197.091 354.344C196.393 353.656 195.861 352.865 195.497 351.969C195.132 351.073 194.95 350.115 194.95 349.094C194.95 348.083 195.137 347.125 195.512 346.219C195.887 345.312 196.424 344.51 197.122 343.812C197.83 343.104 198.637 342.562 199.544 342.188C200.45 341.812 201.403 341.625 202.403 341.625C203.424 341.625 204.393 341.812 205.309 342.188C206.236 342.562 207.059 343.104 207.778 343.812C208.497 344.521 209.044 345.328 209.419 346.234C209.804 347.141 209.997 348.094 209.997 349.094C209.997 350.094 209.809 351.047 209.434 351.953C209.059 352.849 208.518 353.646 207.809 354.344C207.08 355.073 206.247 355.63 205.309 356.016C204.382 356.411 203.414 356.609 202.403 356.609ZM214.081 356V342.141H215.909V344.281C216.472 343.396 217.159 342.734 217.972 342.297C218.795 341.849 219.738 341.625 220.8 341.625C222.373 341.625 223.597 342.062 224.472 342.938C225.347 343.812 225.784 345.031 225.784 346.594V356H223.831V347.453C223.831 346.068 223.54 345.042 222.956 344.375C222.383 343.698 221.493 343.359 220.284 343.359C218.816 343.359 217.732 343.797 217.034 344.672C216.347 345.536 216.003 346.901 216.003 348.766V356H214.081ZM231.759 349.219C231.759 351.01 232.16 352.391 232.962 353.359C233.775 354.328 234.931 354.812 236.431 354.812C237.89 354.812 239.035 354.286 239.869 353.234C240.712 352.172 241.134 350.714 241.134 348.859C241.134 347.161 240.718 345.828 239.884 344.859C239.051 343.88 237.91 343.391 236.462 343.391C235.015 343.391 233.869 343.911 233.025 344.953C232.181 345.984 231.759 347.406 231.759 349.219ZM241.103 356V353.469C240.645 354.49 239.999 355.271 239.166 355.812C238.343 356.344 237.369 356.609 236.244 356.609C234.254 356.609 232.65 355.927 231.431 354.562C230.223 353.198 229.619 351.396 229.619 349.156C229.619 346.938 230.218 345.13 231.416 343.734C232.614 342.328 234.16 341.625 236.056 341.625C237.233 341.625 238.249 341.885 239.103 342.406C239.968 342.917 240.634 343.672 241.103 344.672V342.141H243.025V356H241.103ZM250.203 344.922C250.911 343.724 251.604 342.875 252.281 342.375C252.969 341.875 253.766 341.625 254.672 341.625C254.943 341.625 255.214 341.651 255.484 341.703C255.766 341.755 256.042 341.828 256.312 341.922L255.688 343.734C255.479 343.672 255.26 343.62 255.031 343.578C254.812 343.536 254.599 343.516 254.391 343.516C253.234 343.516 252.245 344.057 251.422 345.141C250.609 346.224 250.203 347.573 250.203 349.188V356H248.281V342.141H250.203V344.922ZM258.116 336.734C258.116 336.328 258.261 335.984 258.553 335.703C258.845 335.411 259.194 335.266 259.6 335.266C260.006 335.266 260.355 335.411 260.647 335.703C260.949 335.984 261.1 336.328 261.1 336.734C261.1 337.151 260.954 337.5 260.663 337.781C260.381 338.062 260.027 338.203 259.6 338.203C259.183 338.203 258.829 338.062 258.538 337.781C258.256 337.5 258.116 337.151 258.116 336.734ZM258.6 356V342.141H260.584V356H258.6ZM275.575 347.484C275.481 346.214 275.059 345.229 274.309 344.531C273.559 343.833 272.544 343.484 271.262 343.484C270.096 343.484 269.117 343.849 268.325 344.578C267.544 345.307 267.091 346.276 266.966 347.484H275.575ZM277.856 349.125H266.841C266.893 350.917 267.341 352.323 268.184 353.344C269.028 354.365 270.158 354.875 271.575 354.875C272.596 354.875 273.492 354.599 274.262 354.047C275.033 353.495 275.674 352.661 276.184 351.547L277.95 352.516C277.242 353.922 276.372 354.958 275.341 355.625C274.32 356.281 273.065 356.609 271.575 356.609C269.544 356.609 267.898 355.932 266.637 354.578C265.387 353.214 264.762 351.427 264.762 349.219C264.762 346.948 265.382 345.115 266.622 343.719C267.872 342.323 269.502 341.625 271.512 341.625C273.429 341.625 274.966 342.271 276.122 343.562C277.278 344.844 277.856 346.557 277.856 348.703V349.125ZM280.378 353.531L282.206 352.484C282.508 353.255 282.946 353.839 283.519 354.234C284.092 354.62 284.795 354.812 285.628 354.812C286.441 354.812 287.086 354.609 287.566 354.203C288.045 353.786 288.284 353.234 288.284 352.547C288.284 351.484 287.342 350.583 285.456 349.844C285.258 349.771 285.102 349.708 284.988 349.656C283.529 349.083 282.508 348.495 281.925 347.891C281.342 347.276 281.05 346.521 281.05 345.625C281.05 344.448 281.467 343.484 282.3 342.734C283.133 341.974 284.211 341.594 285.534 341.594C286.659 341.594 287.618 341.839 288.409 342.328C289.201 342.818 289.779 343.516 290.144 344.422L288.378 345.406C288.159 344.75 287.795 344.25 287.284 343.906C286.774 343.562 286.149 343.391 285.409 343.391C284.743 343.391 284.191 343.589 283.753 343.984C283.326 344.37 283.113 344.854 283.113 345.438C283.113 346.01 283.326 346.484 283.753 346.859C284.18 347.234 285.066 347.646 286.409 348.094C287.93 348.625 288.951 349.203 289.472 349.828C290.003 350.453 290.269 351.318 290.269 352.422C290.269 353.693 289.816 354.708 288.909 355.469C288.003 356.229 286.784 356.609 285.253 356.609C284.076 356.609 283.06 356.344 282.206 355.812C281.363 355.271 280.753 354.51 280.378 353.531ZM304.484 349.219C304.484 351.01 304.885 352.391 305.688 353.359C306.5 354.328 307.656 354.812 309.156 354.812C310.615 354.812 311.76 354.286 312.594 353.234C313.438 352.172 313.859 350.714 313.859 348.859C313.859 347.161 313.443 345.828 312.609 344.859C311.776 343.88 310.635 343.391 309.188 343.391C307.74 343.391 306.594 343.911 305.75 344.953C304.906 345.984 304.484 347.406 304.484 349.219ZM313.828 356V353.469C313.37 354.49 312.724 355.271 311.891 355.812C311.068 356.344 310.094 356.609 308.969 356.609C306.979 356.609 305.375 355.927 304.156 354.562C302.948 353.198 302.344 351.396 302.344 349.156C302.344 346.938 302.943 345.13 304.141 343.734C305.339 342.328 306.885 341.625 308.781 341.625C309.958 341.625 310.974 341.885 311.828 342.406C312.693 342.917 313.359 343.672 313.828 344.672V342.141H315.75V356H313.828ZM321.006 356V342.141H322.834V344.281C323.397 343.396 324.084 342.734 324.897 342.297C325.72 341.849 326.663 341.625 327.725 341.625C329.298 341.625 330.522 342.062 331.397 342.938C332.272 343.812 332.709 345.031 332.709 346.594V356H330.756V347.453C330.756 346.068 330.465 345.042 329.881 344.375C329.308 343.698 328.418 343.359 327.209 343.359C325.741 343.359 324.657 343.797 323.959 344.672C323.272 345.536 322.928 346.901 322.928 348.766V356H321.006ZM338.747 349.219C338.747 351.01 339.148 352.391 339.95 353.359C340.763 354.328 341.919 354.812 343.419 354.812C344.867 354.812 346.007 354.286 346.841 353.234C347.674 352.172 348.091 350.714 348.091 348.859C348.091 347.161 347.679 345.828 346.856 344.859C346.033 343.88 344.898 343.391 343.45 343.391C342.002 343.391 340.856 343.911 340.013 344.953C339.169 345.984 338.747 347.406 338.747 349.219ZM348.059 356V353.469C347.601 354.5 346.96 355.281 346.138 355.812C345.315 356.344 344.346 356.609 343.231 356.609C341.242 356.609 339.638 355.927 338.419 354.562C337.21 353.198 336.606 351.396 336.606 349.156C336.606 346.938 337.205 345.13 338.403 343.734C339.601 342.328 341.148 341.625 343.044 341.625C344.221 341.625 345.231 341.885 346.075 342.406C346.929 342.917 347.591 343.672 348.059 344.672V331.781H350.013V356H348.059ZM366.447 356H364.525V342.141H366.447V344.312C366.905 343.438 367.509 342.771 368.259 342.312C369.009 341.854 369.874 341.625 370.853 341.625C371.864 341.625 372.723 341.859 373.431 342.328C374.15 342.786 374.702 343.464 375.087 344.359C375.64 343.443 376.317 342.76 377.119 342.312C377.921 341.854 378.853 341.625 379.916 341.625C381.384 341.625 382.541 342.073 383.384 342.969C384.228 343.854 384.65 345.073 384.65 346.625V356H382.728V347.391C382.728 346.036 382.447 345.016 381.884 344.328C381.332 343.641 380.504 343.297 379.4 343.297C378.077 343.297 377.103 343.729 376.478 344.594C375.864 345.458 375.556 346.828 375.556 348.703V356H373.65V347.391C373.65 345.974 373.384 344.938 372.853 344.281C372.322 343.625 371.499 343.297 370.384 343.297C369.03 343.297 368.035 343.734 367.4 344.609C366.765 345.484 366.447 346.849 366.447 348.703V356ZM390.766 349.219C390.766 351.01 391.167 352.391 391.969 353.359C392.781 354.328 393.938 354.812 395.438 354.812C396.896 354.812 398.042 354.286 398.875 353.234C399.719 352.172 400.141 350.714 400.141 348.859C400.141 347.161 399.724 345.828 398.891 344.859C398.057 343.88 396.917 343.391 395.469 343.391C394.021 343.391 392.875 343.911 392.031 344.953C391.188 345.984 390.766 347.406 390.766 349.219ZM400.109 356V353.469C399.651 354.49 399.005 355.271 398.172 355.812C397.349 356.344 396.375 356.609 395.25 356.609C393.26 356.609 391.656 355.927 390.438 354.562C389.229 353.198 388.625 351.396 388.625 349.156C388.625 346.938 389.224 345.13 390.422 343.734C391.62 342.328 393.167 341.625 395.062 341.625C396.24 341.625 397.255 341.885 398.109 342.406C398.974 342.917 399.641 343.672 400.109 344.672V342.141H402.031V356H400.109ZM407.288 356V331.781H409.209V348.281L416.116 342.141H418.772L411.35 348.359L419.319 356H416.663L409.209 348.828V356H407.288ZM431.669 347.484C431.575 346.214 431.153 345.229 430.403 344.531C429.653 343.833 428.638 343.484 427.356 343.484C426.19 343.484 425.21 343.849 424.419 344.578C423.638 345.307 423.184 346.276 423.059 347.484H431.669ZM433.95 349.125H422.934C422.986 350.917 423.434 352.323 424.278 353.344C425.122 354.365 426.252 354.875 427.669 354.875C428.69 354.875 429.585 354.599 430.356 354.047C431.127 353.495 431.768 352.661 432.278 351.547L434.044 352.516C433.335 353.922 432.466 354.958 431.434 355.625C430.414 356.281 429.158 356.609 427.669 356.609C425.638 356.609 423.992 355.932 422.731 354.578C421.481 353.214 420.856 351.427 420.856 349.219C420.856 346.948 421.476 345.115 422.716 343.719C423.966 342.323 425.596 341.625 427.606 341.625C429.523 341.625 431.059 342.271 432.216 343.562C433.372 344.844 433.95 346.557 433.95 348.703V349.125ZM439.972 344.922C440.68 343.724 441.373 342.875 442.05 342.375C442.737 341.875 443.534 341.625 444.441 341.625C444.711 341.625 444.982 341.651 445.253 341.703C445.534 341.755 445.81 341.828 446.081 341.922L445.456 343.734C445.248 343.672 445.029 343.62 444.8 343.578C444.581 343.536 444.368 343.516 444.159 343.516C443.003 343.516 442.014 344.057 441.191 345.141C440.378 346.224 439.972 347.573 439.972 349.188V356H438.05V342.141H439.972V344.922ZM446.666 353.531L448.494 352.484C448.796 353.255 449.233 353.839 449.806 354.234C450.379 354.62 451.082 354.812 451.916 354.812C452.728 354.812 453.374 354.609 453.853 354.203C454.332 353.786 454.572 353.234 454.572 352.547C454.572 351.484 453.629 350.583 451.744 349.844C451.546 349.771 451.39 349.708 451.275 349.656C449.817 349.083 448.796 348.495 448.212 347.891C447.629 347.276 447.337 346.521 447.337 345.625C447.337 344.448 447.754 343.484 448.587 342.734C449.421 341.974 450.499 341.594 451.822 341.594C452.947 341.594 453.905 341.839 454.697 342.328C455.489 342.818 456.067 343.516 456.431 344.422L454.666 345.406C454.447 344.75 454.082 344.25 453.572 343.906C453.061 343.562 452.436 343.391 451.697 343.391C451.03 343.391 450.478 343.589 450.041 343.984C449.614 344.37 449.4 344.854 449.4 345.438C449.4 346.01 449.614 346.484 450.041 346.859C450.468 347.234 451.353 347.646 452.697 348.094C454.218 348.625 455.239 349.203 455.759 349.828C456.291 350.453 456.556 351.318 456.556 352.422C456.556 353.693 456.103 354.708 455.197 355.469C454.291 356.229 453.072 356.609 451.541 356.609C450.364 356.609 449.348 356.344 448.494 355.812C447.65 355.271 447.041 354.51 446.666 353.531ZM470.334 354.688C470.334 354.24 470.485 353.865 470.788 353.562C471.1 353.25 471.48 353.094 471.928 353.094C472.376 353.094 472.751 353.25 473.053 353.562C473.366 353.865 473.522 354.24 473.522 354.688C473.522 355.135 473.366 355.516 473.053 355.828C472.751 356.13 472.376 356.281 471.928 356.281C471.48 356.281 471.1 356.13 470.788 355.828C470.485 355.516 470.334 355.135 470.334 354.688ZM488.706 333.125H490.753V348.062C490.753 350.323 491.269 352.005 492.3 353.109C493.331 354.203 494.909 354.75 497.034 354.75C499.128 354.75 500.691 354.203 501.722 353.109C502.753 352.005 503.269 350.323 503.269 348.062V333.125H505.347V347.391C505.347 350.484 504.659 352.797 503.284 354.328C501.909 355.849 499.826 356.609 497.034 356.609C494.232 356.609 492.144 355.849 490.769 354.328C489.394 352.797 488.706 350.484 488.706 347.391V333.125ZM510.775 356V342.141H512.603V344.281C513.166 343.396 513.853 342.734 514.666 342.297C515.489 341.849 516.431 341.625 517.494 341.625C519.067 341.625 520.291 342.062 521.166 342.938C522.041 343.812 522.478 345.031 522.478 346.594V356H520.525V347.453C520.525 346.068 520.233 345.042 519.65 344.375C519.077 343.698 518.186 343.359 516.978 343.359C515.509 343.359 514.426 343.797 513.728 344.672C513.041 345.536 512.697 346.901 512.697 348.766V356H510.775ZM527.203 336.734C527.203 336.328 527.349 335.984 527.641 335.703C527.932 335.411 528.281 335.266 528.688 335.266C529.094 335.266 529.443 335.411 529.734 335.703C530.036 335.984 530.188 336.328 530.188 336.734C530.188 337.151 530.042 337.5 529.75 337.781C529.469 338.062 529.115 338.203 528.688 338.203C528.271 338.203 527.917 338.062 527.625 337.781C527.344 337.5 527.203 337.151 527.203 336.734ZM527.688 356V342.141H529.672V356H527.688ZM535.444 343.781H532.897V342.141H535.444V336.453H537.334V342.141H540.116V343.781H537.334V356H535.444V343.781ZM542.716 336.734C542.716 336.328 542.861 335.984 543.153 335.703C543.445 335.411 543.794 335.266 544.2 335.266C544.606 335.266 544.955 335.411 545.247 335.703C545.549 335.984 545.7 336.328 545.7 336.734C545.7 337.151 545.554 337.5 545.263 337.781C544.981 338.062 544.627 338.203 544.2 338.203C543.783 338.203 543.429 338.062 543.138 337.781C542.856 337.5 542.716 337.151 542.716 336.734ZM543.2 356V342.141H545.184V356H543.2ZM550.55 356V342.141H552.378V344.281C552.941 343.396 553.628 342.734 554.441 342.297C555.264 341.849 556.206 341.625 557.269 341.625C558.842 341.625 560.066 342.062 560.941 342.938C561.816 343.812 562.253 345.031 562.253 346.594V356H560.3V347.453C560.3 346.068 560.008 345.042 559.425 344.375C558.852 343.698 557.961 343.359 556.753 343.359C555.284 343.359 554.201 343.797 553.503 344.672C552.816 345.536 552.472 346.901 552.472 348.766V356H550.55Z" fill="black"/>
<path d="M55.2656 20.2031C55.6719 20.2031 56.0156 20.349 56.2969 20.6406C56.5885 20.9323 56.7344 21.2812 56.7344 21.6875C56.7344 22.0937 56.5885 22.4427 56.2969 22.7344C56.0156 23.0365 55.6719 23.1875 55.2656 23.1875C54.849 23.1875 54.5 23.0417 54.2187 22.75C53.9375 22.4687 53.7969 22.1146 53.7969 21.6875C53.7969 21.2708 53.9375 20.9167 54.2187 20.625C54.5 20.3437 54.849 20.2031 55.2656 20.2031ZM36 20.6875L49.8594 20.6875L49.8594 22.6719L36 22.6719L36 20.6875ZM37.1875 34.3969C37.1875 35.9177 37.7344 37.2042 38.8281 38.2562C39.9323 39.3187 41.2812 39.85 42.875 39.85C44.4896 39.85 45.8437 39.324 46.9375 38.2719C48.0312 37.2198 48.5781 35.9281 48.5781 34.3969C48.5781 32.876 48.0312 31.5896 46.9375 30.5375C45.8437 29.4854 44.4896 28.9594 42.875 28.9594C41.2812 28.9594 39.9323 29.4854 38.8281 30.5375C37.7344 31.5896 37.1875 32.876 37.1875 34.3969ZM35.3906 34.3344C35.3906 33.3448 35.5885 32.3969 35.9844 31.4906C36.3698 30.5844 36.9271 29.7615 37.6562 29.0219C38.3437 28.324 39.1354 27.7927 40.0312 27.4281C40.9271 27.0635 41.8854 26.8812 42.9062 26.8812C43.9167 26.8812 44.875 27.0687 45.7812 27.4437C46.6875 27.8187 47.4896 28.3552 48.1875 29.0531C48.8958 29.7615 49.4375 30.5687 49.8125 31.475C50.1875 32.3812 50.375 33.3344 50.375 34.3344C50.375 35.3552 50.1875 36.324 49.8125 37.2406C49.4375 38.1677 48.8958 38.9906 48.1875 39.7094C47.4792 40.4281 46.6719 40.975 45.7656 41.35C44.8594 41.7354 43.9062 41.9281 42.9062 41.9281C41.9062 41.9281 40.9531 41.7406 40.0469 41.3656C39.151 40.9906 38.3542 40.449 37.6562 39.7406C36.9271 39.0115 36.3698 38.1781 35.9844 37.2406C35.5885 36.3135 35.3906 35.3448 35.3906 34.3344ZM36 46.0125L49.8594 46.0125L49.8594 47.8406L47.7187 47.8406C48.6042 48.4031 49.2656 49.0906 49.7031 49.9031C50.151 50.726 50.375 51.6688 50.375 52.7313C50.375 54.3042 49.9375 55.5281 49.0625 56.4031C48.1875 57.2781 46.9687 57.7156 45.4062 57.7156L36 57.7156L36 55.7625L44.5469 55.7625C45.9323 55.7625 46.9583 55.4708 47.625 54.8875C48.3021 54.3146 48.6406 53.424 48.6406 52.2156C48.6406 50.7469 48.2031 49.6635 47.3281 48.9656C46.4635 48.2781 45.099 47.9344 43.2344 47.9344L36 47.9344L36 46.0125ZM42.7812 63.6906C40.9896 63.6906 39.6094 64.0917 38.6406 64.8937C37.6719 65.7062 37.1875 66.8625 37.1875 68.3625C37.1875 69.8208 37.7135 70.9667 38.7656 71.8C39.8281 72.6437 41.2865 73.0656 43.1406 73.0656C44.8385 73.0656 46.1719 72.649 47.1406 71.8156C48.1198 70.9823 48.6094 69.8417 48.6094 68.3937C48.6094 66.9458 48.0885 65.8 47.0469 64.9562C46.0156 64.1125 44.5937 63.6906 42.7812 63.6906ZM36 73.0344L38.5312 73.0344C37.5104 72.576 36.7292 71.9302 36.1875 71.0969C35.6562 70.274 35.3906 69.3 35.3906 68.175C35.3906 66.1854 36.0729 64.5812 37.4375 63.3625C38.8021 62.1542 40.6042 61.55 42.8437 61.55C45.0625 61.55 46.8698 62.149 48.2656 63.3469C49.6719 64.5448 50.375 66.0917 50.375 67.9875C50.375 69.1646 50.1146 70.1802 49.5937 71.0344C49.0833 71.899 48.3281 72.5656 47.3281 73.0344L49.8594 73.0344L49.8594 74.9562L36 74.9562L36 73.0344ZM47.0781 82.1344C48.276 82.8427 49.125 83.5354 49.625 84.2125C50.125 84.9 50.375 85.6969 50.375 86.6031C50.375 86.874 50.349 87.1448 50.2969 87.4156C50.2448 87.6969 50.1719 87.9729 50.0781 88.2438L48.2656 87.6188C48.3281 87.4104 48.3802 87.1917 48.4219 86.9625C48.4635 86.7438 48.4844 86.5302 48.4844 86.3219C48.4844 85.1656 47.9427 84.176 46.8594 83.3531C45.776 82.5406 44.4271 82.1344 42.8125 82.1344L36 82.1344L36 80.2125L49.8594 80.2125L49.8594 82.1344L47.0781 82.1344ZM55.2656 90.0469C55.6719 90.0469 56.0156 90.1927 56.2969 90.4844C56.5885 90.776 56.7344 91.125 56.7344 91.5312C56.7344 91.9375 56.5885 92.2865 56.2969 92.5781C56.0156 92.8802 55.6719 93.0312 55.2656 93.0312C54.849 93.0312 54.5 92.8854 54.2187 92.5937C53.9375 92.3125 53.7969 91.9583 53.7969 91.5312C53.7969 91.1146 53.9375 90.7604 54.2187 90.4687C54.5 90.1875 54.849 90.0469 55.2656 90.0469ZM36 90.5312L49.8594 90.5312L49.8594 92.5156L36 92.5156L36 90.5312ZM44.5156 107.506C45.7865 107.412 46.7708 106.991 47.4687 106.241C48.1667 105.491 48.5156 104.475 48.5156 103.194C48.5156 102.027 48.151 101.048 47.4219 100.256C46.6927 99.475 45.724 99.0219 44.5156 98.8969L44.5156 107.506ZM42.875 109.787L42.875 98.7719C41.0833 98.824 39.6771 99.2719 38.6562 100.116C37.6354 100.959 37.125 102.09 37.125 103.506C37.125 104.527 37.401 105.423 37.9531 106.194C38.5052 106.965 39.3385 107.605 40.4531 108.116L39.4844 109.881C38.0781 109.173 37.0417 108.303 36.375 107.272C35.7187 106.251 35.3906 104.996 35.3906 103.506C35.3906 101.475 36.0677 99.8292 37.4219 98.5687C38.7865 97.3187 40.5729 96.6937 42.7812 96.6937C45.0521 96.6937 46.8854 97.3135 48.2812 98.5531C49.6771 99.8031 50.375 101.433 50.375 103.444C50.375 105.36 49.7292 106.897 48.4375 108.053C47.1562 109.209 45.4427 109.787 43.2969 109.787L42.875 109.787ZM38.4687 112.309L39.5156 114.137C38.7448 114.44 38.1615 114.877 37.7656 115.45C37.3802 116.023 37.1875 116.726 37.1875 117.559C37.1875 118.372 37.3906 119.018 37.7969 119.497C38.2135 119.976 38.7656 120.216 39.4531 120.216C40.5156 120.216 41.4167 119.273 42.1562 117.387C42.2292 117.19 42.2917 117.033 42.3437 116.919C42.9167 115.46 43.5052 114.44 44.1094 113.856C44.724 113.273 45.4792 112.981 46.375 112.981C47.5521 112.981 48.5156 113.398 49.2656 114.231C50.026 115.065 50.4062 116.143 50.4062 117.466C50.4062 118.591 50.1615 119.549 49.6719 120.341C49.1823 121.132 48.4844 121.71 47.5781 122.075L46.5937 120.309C47.25 120.091 47.75 119.726 48.0937 119.216C48.4375 118.705 48.6094 118.08 48.6094 117.341C48.6094 116.674 48.4115 116.122 48.0156 115.684C47.6302 115.257 47.1458 115.044 46.5625 115.044C45.9896 115.044 45.5156 115.257 45.1406 115.684C44.7656 116.111 44.3542 116.997 43.9062 118.341C43.375 119.861 42.7969 120.882 42.1719 121.403C41.5469 121.934 40.6823 122.2 39.5781 122.2C38.3073 122.2 37.2917 121.747 36.5312 120.841C35.7708 119.934 35.3906 118.716 35.3906 117.184C35.3906 116.007 35.6562 114.992 36.1875 114.137C36.7292 113.294 37.4896 112.684 38.4687 112.309ZM42.7812 136.416C40.9896 136.416 39.6094 136.817 38.6406 137.619C37.6719 138.431 37.1875 139.588 37.1875 141.088C37.1875 142.546 37.7135 143.692 38.7656 144.525C39.8281 145.369 41.2865 145.791 43.1406 145.791C44.8385 145.791 46.1719 145.374 47.1406 144.541C48.1198 143.707 48.6094 142.567 48.6094 141.119C48.6094 139.671 48.0885 138.525 47.0469 137.681C46.0156 136.838 44.5937 136.416 42.7812 136.416ZM36 145.759L38.5312 145.759C37.5104 145.301 36.7292 144.655 36.1875 143.822C35.6562 142.999 35.3906 142.025 35.3906 140.9C35.3906 138.91 36.0729 137.306 37.4375 136.088C38.8021 134.879 40.6042 134.275 42.8437 134.275C45.0625 134.275 46.8698 134.874 48.2656 136.072C49.6719 137.27 50.375 138.817 50.375 140.713C50.375 141.89 50.1146 142.905 49.5937 143.759C49.0833 144.624 48.3281 145.291 47.3281 145.759L49.8594 145.759L49.8594 147.681L36 147.681L36 145.759ZM36 152.937L49.8594 152.937L49.8594 154.766L47.7187 154.766C48.6042 155.328 49.2656 156.016 49.7031 156.828C50.151 157.651 50.375 158.594 50.375 159.656C50.375 161.229 49.9375 162.453 49.0625 163.328C48.1875 164.203 46.9687 164.641 45.4062 164.641L36 164.641L36 162.687L44.5469 162.687C45.9323 162.687 46.9583 162.396 47.625 161.812C48.3021 161.24 48.6406 160.349 48.6406 159.141C48.6406 157.672 48.2031 156.589 47.3281 155.891C46.4635 155.203 45.099 154.859 43.2344 154.859L36 154.859L36 152.937ZM42.7812 170.678C40.9896 170.678 39.6094 171.079 38.6406 171.881C37.6719 172.694 37.1875 173.85 37.1875 175.35C37.1875 176.798 37.7135 177.939 38.7656 178.772C39.8281 179.605 41.2865 180.022 43.1406 180.022C44.8385 180.022 46.1719 179.61 47.1406 178.788C48.1198 177.965 48.6094 176.829 48.6094 175.381C48.6094 173.933 48.0885 172.788 47.0469 171.944C46.0156 171.1 44.5937 170.678 42.7812 170.678ZM36 179.991L38.5312 179.991C37.5 179.532 36.7187 178.892 36.1875 178.069C35.6562 177.246 35.3906 176.277 35.3906 175.163C35.3906 173.173 36.0729 171.569 37.4375 170.35C38.8021 169.142 40.6042 168.538 42.8437 168.538C45.0625 168.538 46.8698 169.136 48.2656 170.334C49.6719 171.532 50.375 173.079 50.375 174.975C50.375 176.152 50.1146 177.163 49.5937 178.006C49.0833 178.86 48.3281 179.522 47.3281 179.991L60.2187 179.991L60.2187 181.944L36 181.944L36 179.991ZM36 198.378L36 196.456L49.8594 196.456L49.8594 198.378L47.6875 198.378C48.5625 198.836 49.2292 199.441 49.6875 200.191C50.1458 200.941 50.375 201.805 50.375 202.784C50.375 203.795 50.1406 204.654 49.6719 205.363C49.2135 206.081 48.5365 206.633 47.6406 207.019C48.5573 207.571 49.2396 208.248 49.6875 209.05C50.1458 209.852 50.375 210.784 50.375 211.847C50.375 213.316 49.9271 214.472 49.0312 215.316C48.1458 216.159 46.9271 216.581 45.375 216.581L36 216.581L36 214.659L44.6094 214.659C45.9635 214.659 46.9844 214.378 47.6719 213.816C48.3594 213.264 48.7031 212.435 48.7031 211.331C48.7031 210.008 48.2708 209.034 47.4062 208.409C46.5417 207.795 45.1719 207.488 43.2969 207.488L36 207.488L36 205.581L44.6094 205.581C46.026 205.581 47.0625 205.316 47.7187 204.784C48.375 204.253 48.7031 203.43 48.7031 202.316C48.7031 200.961 48.2656 199.967 47.3906 199.331C46.5156 198.696 45.151 198.378 43.2969 198.378L36 198.378ZM42.7812 222.697C40.9896 222.697 39.6094 223.098 38.6406 223.9C37.6719 224.712 37.1875 225.869 37.1875 227.369C37.1875 228.827 37.7135 229.973 38.7656 230.806C39.8281 231.65 41.2864 232.072 43.1406 232.072C44.8385 232.072 46.1719 231.655 47.1406 230.822C48.1198 229.989 48.6094 228.848 48.6094 227.4C48.6094 225.952 48.0885 224.806 47.0469 223.962C46.0156 223.119 44.5937 222.697 42.7812 222.697ZM36 232.041L38.5312 232.041C37.5104 231.582 36.7292 230.936 36.1875 230.103C35.6562 229.28 35.3906 228.306 35.3906 227.181C35.3906 225.192 36.0729 223.587 37.4375 222.369C38.8021 221.16 40.6042 220.556 42.8437 220.556C45.0625 220.556 46.8698 221.155 48.2656 222.353C49.6719 223.551 50.375 225.098 50.375 226.994C50.375 228.171 50.1146 229.186 49.5937 230.041C49.0833 230.905 48.3281 231.572 47.3281 232.041L49.8594 232.041L49.8594 233.962L36 233.962L36 232.041ZM36 239.219L60.2187 239.219L60.2187 241.141L43.7187 241.141L49.8594 248.047L49.8594 250.703L43.6406 243.281L36 251.25L36 248.594L43.1719 241.141L36 241.141L36 239.219ZM44.5156 263.6C45.7864 263.506 46.7708 263.084 47.4687 262.334C48.1667 261.584 48.5156 260.569 48.5156 259.288C48.5156 258.121 48.151 257.142 47.4219 256.35C46.6927 255.569 45.7239 255.116 44.5156 254.991L44.5156 263.6ZM42.875 265.881L42.875 254.866C41.0833 254.918 39.6771 255.366 38.6562 256.209C37.6354 257.053 37.125 258.183 37.125 259.6C37.125 260.621 37.401 261.517 37.9531 262.288C38.5052 263.058 39.3385 263.699 40.4531 264.209L39.4844 265.975C38.0781 265.267 37.0417 264.397 36.375 263.366C35.7187 262.345 35.3906 261.09 35.3906 259.6C35.3906 257.569 36.0677 255.923 37.4219 254.663C38.7864 253.413 40.5729 252.788 42.7812 252.788C45.0521 252.788 46.8854 253.407 48.2812 254.647C49.6771 255.897 50.375 257.527 50.375 259.538C50.375 261.454 49.7292 262.991 48.4375 264.147C47.1562 265.303 45.4427 265.881 43.2969 265.881L42.875 265.881ZM47.0781 271.903C48.276 272.611 49.125 273.304 49.625 273.981C50.125 274.669 50.375 275.466 50.375 276.372C50.375 276.643 50.3489 276.914 50.2969 277.184C50.2448 277.466 50.1719 277.742 50.0781 278.012L48.2656 277.387C48.3281 277.179 48.3802 276.96 48.4219 276.731C48.4635 276.512 48.4844 276.299 48.4844 276.091C48.4844 274.934 47.9427 273.945 46.8594 273.122C45.776 272.309 44.4271 271.903 42.8125 271.903L36 271.903L36 269.981L49.8594 269.981L49.8594 271.903L47.0781 271.903ZM38.4687 278.597L39.5156 280.425C38.7448 280.727 38.1614 281.165 37.7656 281.737C37.3802 282.31 37.1875 283.014 37.1875 283.847C37.1875 284.659 37.3906 285.305 37.7969 285.784C38.2135 286.264 38.7656 286.503 39.4531 286.503C40.5156 286.503 41.4167 285.56 42.1562 283.675C42.2292 283.477 42.2917 283.321 42.3437 283.206C42.9167 281.748 43.5052 280.727 44.1094 280.144C44.7239 279.56 45.4792 279.269 46.375 279.269C47.5521 279.269 48.5156 279.685 49.2656 280.519C50.026 281.352 50.4062 282.43 50.4062 283.753C50.4062 284.878 50.1614 285.836 49.6719 286.628C49.1823 287.42 48.4844 287.998 47.5781 288.362L46.5937 286.597C47.25 286.378 47.75 286.014 48.0937 285.503C48.4375 284.993 48.6094 284.368 48.6094 283.628C48.6094 282.961 48.4114 282.409 48.0156 281.972C47.6302 281.545 47.1458 281.331 46.5625 281.331C45.9896 281.331 45.5156 281.545 45.1406 281.972C44.7656 282.399 44.3542 283.284 43.9062 284.628C43.375 286.149 42.7969 287.17 42.1719 287.691C41.5469 288.222 40.6823 288.487 39.5781 288.487C38.3073 288.487 37.2917 288.034 36.5312 287.128C35.7708 286.222 35.3906 285.003 35.3906 283.472C35.3906 282.295 35.6562 281.279 36.1875 280.425C36.7292 279.581 37.4896 278.972 38.4687 278.597ZM37.3125 302.266C37.7604 302.266 38.1354 302.417 38.4375 302.719C38.75 303.031 38.9062 303.411 38.9062 303.859C38.9062 304.307 38.75 304.682 38.4375 304.984C38.1354 305.297 37.7604 305.453 37.3125 305.453C36.8646 305.453 36.4844 305.297 36.1719 304.984C35.8698 304.682 35.7187 304.307 35.7187 303.859C35.7187 303.411 35.8698 303.031 36.1719 302.719C36.4844 302.417 36.8646 302.266 37.3125 302.266Z" fill="black"/>
<path d="M548.141 299.25L559.594 299.25C561.417 299.25 562.807 299.302 563.766 299.406C564.724 299.5 565.437 299.661 565.906 299.891C566.937 300.37 567.703 301.104 568.203 302.094C568.714 303.083 568.969 304.333 568.969 305.844C568.969 307.687 568.609 309.125 567.891 310.156C567.182 311.177 566.104 311.797 564.656 312.016L564.656 309.609C565.51 309.453 566.156 309.047 566.594 308.391C567.031 307.724 567.25 306.823 567.25 305.687C567.25 304.833 567.099 304.068 566.797 303.391C566.495 302.703 566.078 302.187 565.547 301.844C565.203 301.615 564.802 301.453 564.344 301.359C563.896 301.255 563.198 301.203 562.25 301.203L561.516 301.203L559.437 301.203C560.427 301.63 561.203 302.286 561.766 303.172C562.328 304.047 562.609 305.052 562.609 306.187C562.609 308.135 561.932 309.693 560.578 310.859C559.224 312.016 557.406 312.594 555.125 312.594C552.865 312.594 551.052 312 549.687 310.812C548.312 309.625 547.625 308.052 547.625 306.094C547.625 305 547.911 304.01 548.484 303.125C549.047 302.229 549.797 301.589 550.734 301.203L548.141 301.203L548.141 299.25ZM549.391 305.875C549.391 307.312 549.906 308.448 550.937 309.281C551.958 310.104 553.365 310.516 555.156 310.516C556.937 310.516 558.328 310.125 559.328 309.344C560.318 308.552 560.812 307.458 560.812 306.062C560.812 304.583 560.286 303.401 559.234 302.516C558.182 301.62 556.766 301.172 554.984 301.172C553.234 301.172 551.865 301.589 550.875 302.422C549.885 303.255 549.391 304.406 549.391 305.875ZM562.891 278.597L539.125 287.55L539.125 285.159L557.75 278.566L539.125 271.628L539.125 269.347L562.891 278.597ZM542.734 267.341C542.328 267.341 541.984 267.195 541.703 266.903C541.411 266.611 541.266 266.263 541.266 265.856C541.266 265.45 541.411 265.101 541.703 264.809C541.984 264.507 542.328 264.356 542.734 264.356C543.151 264.356 543.5 264.502 543.781 264.794C544.062 265.075 544.203 265.429 544.203 265.856C544.203 266.273 544.062 266.627 543.781 266.919C543.5 267.2 543.151 267.341 542.734 267.341ZM562 266.856L548.141 266.856L548.141 264.872L562 264.872L562 266.856ZM559.531 261.084L558.484 259.256C559.255 258.954 559.839 258.517 560.234 257.944C560.62 257.371 560.812 256.668 560.812 255.834C560.812 255.022 560.609 254.376 560.203 253.897C559.786 253.418 559.234 253.178 558.547 253.178C557.484 253.178 556.583 254.121 555.844 256.006C555.771 256.204 555.708 256.36 555.656 256.475C555.083 257.933 554.495 258.954 553.891 259.537C553.276 260.121 552.521 260.412 551.625 260.412C550.448 260.412 549.484 259.996 548.734 259.162C547.974 258.329 547.594 257.251 547.594 255.928C547.594 254.803 547.839 253.845 548.328 253.053C548.818 252.261 549.516 251.683 550.422 251.319L551.406 253.084C550.75 253.303 550.25 253.668 549.906 254.178C549.562 254.689 549.391 255.314 549.391 256.053C549.391 256.72 549.589 257.272 549.984 257.709C550.37 258.136 550.854 258.35 551.437 258.35C552.01 258.35 552.484 258.136 552.859 257.709C553.234 257.282 553.646 256.397 554.094 255.053C554.625 253.532 555.203 252.511 555.828 251.991C556.453 251.459 557.318 251.194 558.422 251.194C559.693 251.194 560.708 251.647 561.469 252.553C562.229 253.459 562.609 254.678 562.609 256.209C562.609 257.386 562.344 258.402 561.812 259.256C561.271 260.1 560.51 260.709 559.531 261.084ZM542.734 247.547C542.328 247.547 541.984 247.401 541.703 247.109C541.411 246.818 541.266 246.469 541.266 246.062C541.266 245.656 541.411 245.307 541.703 245.016C541.984 244.714 542.328 244.562 542.734 244.562C543.151 244.562 543.5 244.708 543.781 245C544.062 245.281 544.203 245.635 544.203 246.062C544.203 246.479 544.062 246.833 543.781 247.125C543.5 247.406 543.151 247.547 542.734 247.547ZM562 247.062L548.141 247.062L548.141 245.078L562 245.078L562 247.062ZM560.812 233.353C560.812 231.832 560.266 230.546 559.172 229.494C558.068 228.431 556.719 227.9 555.125 227.9C553.51 227.9 552.156 228.426 551.062 229.478C549.969 230.53 549.422 231.822 549.422 233.353C549.422 234.874 549.969 236.16 551.062 237.213C552.156 238.265 553.51 238.791 555.125 238.791C556.719 238.791 558.068 238.265 559.172 237.213C560.266 236.16 560.812 234.874 560.812 233.353ZM562.609 233.416C562.609 234.405 562.411 235.353 562.016 236.259C561.63 237.166 561.073 237.989 560.344 238.728C559.656 239.426 558.865 239.957 557.969 240.322C557.073 240.686 556.115 240.869 555.094 240.869C554.083 240.869 553.125 240.681 552.219 240.306C551.312 239.931 550.51 239.395 549.812 238.697C549.104 237.989 548.562 237.181 548.187 236.275C547.812 235.369 547.625 234.416 547.625 233.416C547.625 232.395 547.812 231.426 548.187 230.509C548.562 229.582 549.104 228.759 549.812 228.041C550.521 227.322 551.328 226.775 552.234 226.4C553.141 226.015 554.094 225.822 555.094 225.822C556.094 225.822 557.047 226.009 557.953 226.384C558.849 226.759 559.646 227.301 560.344 228.009C561.073 228.739 561.63 229.572 562.016 230.509C562.411 231.436 562.609 232.405 562.609 233.416ZM562 221.738L548.141 221.738L548.141 219.909L550.281 219.909C549.396 219.347 548.734 218.659 548.297 217.847C547.849 217.024 547.625 216.081 547.625 215.019C547.625 213.446 548.062 212.222 548.937 211.347C549.812 210.472 551.031 210.034 552.594 210.034L562 210.034L562 211.988L553.453 211.988C552.068 211.988 551.042 212.279 550.375 212.863C549.698 213.435 549.359 214.326 549.359 215.534C549.359 217.003 549.797 218.086 550.672 218.784C551.536 219.472 552.901 219.816 554.766 219.816L562 219.816L562 221.738ZM555.219 204.059C557.01 204.059 558.391 203.658 559.359 202.856C560.328 202.044 560.812 200.887 560.812 199.387C560.812 197.929 560.286 196.783 559.234 195.95C558.172 195.106 556.714 194.684 554.859 194.684C553.161 194.684 551.828 195.101 550.859 195.934C549.88 196.768 549.391 197.908 549.391 199.356C549.391 200.804 549.911 201.95 550.953 202.794C551.984 203.637 553.406 204.059 555.219 204.059ZM562 194.716L559.469 194.716C560.49 195.174 561.271 195.82 561.812 196.653C562.344 197.476 562.609 198.45 562.609 199.575C562.609 201.565 561.927 203.169 560.562 204.387C559.198 205.596 557.396 206.2 555.156 206.2C552.937 206.2 551.13 205.601 549.734 204.403C548.328 203.205 547.625 201.658 547.625 199.762C547.625 198.585 547.885 197.57 548.406 196.716C548.917 195.851 549.672 195.184 550.672 194.716L548.141 194.716L548.141 192.794L562 192.794L562 194.716ZM550.922 185.616C549.724 184.907 548.875 184.215 548.375 183.537C547.875 182.85 547.625 182.053 547.625 181.147C547.625 180.876 547.651 180.605 547.703 180.334C547.755 180.053 547.828 179.777 547.922 179.506L549.734 180.131C549.672 180.34 549.62 180.558 549.578 180.787C549.536 181.006 549.516 181.22 549.516 181.428C549.516 182.584 550.057 183.574 551.141 184.397C552.224 185.209 553.573 185.616 555.187 185.616L562 185.616L562 187.537L548.141 187.537L548.141 185.616L550.922 185.616ZM542.734 177.703C542.328 177.703 541.984 177.557 541.703 177.266C541.411 176.974 541.266 176.625 541.266 176.219C541.266 175.812 541.411 175.464 541.703 175.172C541.984 174.87 542.328 174.719 542.734 174.719C543.151 174.719 543.5 174.865 543.781 175.156C544.062 175.437 544.203 175.792 544.203 176.219C544.203 176.635 544.062 176.99 543.781 177.281C543.5 177.562 543.151 177.703 542.734 177.703ZM562 177.219L548.141 177.219L548.141 175.234L562 175.234L562 177.219ZM553.484 160.244C552.214 160.337 551.229 160.759 550.531 161.509C549.833 162.259 549.484 163.275 549.484 164.556C549.484 165.723 549.849 166.702 550.578 167.494C551.307 168.275 552.276 168.728 553.484 168.853L553.484 160.244ZM555.125 157.962L555.125 168.978C556.917 168.926 558.323 168.478 559.344 167.634C560.365 166.791 560.875 165.66 560.875 164.244C560.875 163.223 560.599 162.327 560.047 161.556C559.495 160.785 558.661 160.145 557.547 159.634L558.516 157.869C559.922 158.577 560.958 159.447 561.625 160.478C562.281 161.499 562.609 162.754 562.609 164.244C562.609 166.275 561.932 167.921 560.578 169.181C559.214 170.431 557.427 171.056 555.219 171.056C552.948 171.056 551.115 170.436 549.719 169.197C548.323 167.947 547.625 166.317 547.625 164.306C547.625 162.39 548.271 160.853 549.562 159.697C550.844 158.541 552.557 157.962 554.703 157.962L555.125 157.962ZM559.531 155.441L558.484 153.613C559.255 153.31 559.839 152.873 560.234 152.3C560.62 151.727 560.812 151.024 560.812 150.191C560.812 149.378 560.609 148.732 560.203 148.253C559.786 147.774 559.234 147.534 558.547 147.534C557.484 147.534 556.583 148.477 555.844 150.363C555.771 150.56 555.708 150.717 555.656 150.831C555.083 152.29 554.495 153.31 553.891 153.894C553.276 154.477 552.521 154.769 551.625 154.769C550.448 154.769 549.484 154.352 548.734 153.519C547.974 152.685 547.594 151.607 547.594 150.284C547.594 149.159 547.839 148.201 548.328 147.409C548.818 146.618 549.516 146.04 550.422 145.675L551.406 147.441C550.75 147.659 550.25 148.024 549.906 148.534C549.562 149.045 549.391 149.67 549.391 150.409C549.391 151.076 549.589 151.628 549.984 152.066C550.37 152.493 550.854 152.706 551.437 152.706C552.01 152.706 552.484 152.493 552.859 152.066C553.234 151.639 553.646 150.753 554.094 149.409C554.625 147.889 555.203 146.868 555.828 146.347C556.453 145.816 557.318 145.55 558.422 145.55C559.693 145.55 560.708 146.003 561.469 146.909C562.229 147.816 562.609 149.034 562.609 150.566C562.609 151.743 562.344 152.758 561.812 153.613C561.271 154.456 560.51 155.066 559.531 155.441ZM555.219 131.334C557.01 131.334 558.391 130.933 559.359 130.131C560.328 129.319 560.812 128.163 560.812 126.663C560.812 125.204 560.286 124.058 559.234 123.225C558.172 122.381 556.714 121.959 554.859 121.959C553.161 121.959 551.828 122.376 550.859 123.209C549.88 124.043 549.391 125.183 549.391 126.631C549.391 128.079 549.911 129.225 550.953 130.069C551.984 130.913 553.406 131.334 555.219 131.334ZM562 121.991L559.469 121.991C560.49 122.449 561.271 123.095 561.812 123.928C562.344 124.751 562.609 125.725 562.609 126.85C562.609 128.84 561.927 130.444 560.562 131.663C559.198 132.871 557.396 133.475 555.156 133.475C552.937 133.475 551.13 132.876 549.734 131.678C548.328 130.48 547.625 128.933 547.625 127.038C547.625 125.86 547.885 124.845 548.406 123.991C548.917 123.126 549.672 122.459 550.672 121.991L548.141 121.991L548.141 120.069L562 120.069L562 121.991ZM562 114.812L548.141 114.812L548.141 112.984L550.281 112.984C549.396 112.422 548.734 111.734 548.297 110.922C547.849 110.099 547.625 109.156 547.625 108.094C547.625 106.521 548.062 105.297 548.937 104.422C549.812 103.547 551.031 103.109 552.594 103.109L562 103.109L562 105.062L553.453 105.062C552.068 105.062 551.042 105.354 550.375 105.937C549.698 106.51 549.359 107.401 549.359 108.609C549.359 110.078 549.797 111.161 550.672 111.859C551.536 112.547 552.901 112.891 554.766 112.891L562 112.891L562 114.812ZM555.219 97.0719C557.01 97.0719 558.391 96.6708 559.359 95.8687C560.328 95.0562 560.812 93.9 560.812 92.4C560.812 90.9521 560.286 89.8115 559.234 88.9781C558.172 88.1448 556.714 87.7281 554.859 87.7281C553.161 87.7281 551.828 88.1396 550.859 88.9625C549.88 89.7854 549.391 90.9208 549.391 92.3687C549.391 93.8167 549.911 94.9625 550.953 95.8062C551.984 96.65 553.406 97.0719 555.219 97.0719ZM562 87.7594L559.469 87.7594C560.5 88.2177 561.281 88.8583 561.812 89.6812C562.344 90.5042 562.609 91.4729 562.609 92.5875C562.609 94.5771 561.927 96.1812 560.562 97.4C559.198 98.6083 557.396 99.2125 555.156 99.2125C552.937 99.2125 551.13 98.6135 549.734 97.4156C548.328 96.2177 547.625 94.6708 547.625 92.775C547.625 91.5979 547.885 90.5875 548.406 89.7437C548.917 88.8896 549.672 88.2281 550.672 87.7594L537.781 87.7594L537.781 85.8062L562 85.8062L562 87.7594ZM562 69.3719L562 71.2937L548.141 71.2937L548.141 69.3719L550.312 69.3719C549.437 68.9135 548.771 68.3094 548.312 67.5594C547.854 66.8094 547.625 65.9448 547.625 64.9656C547.625 63.9552 547.859 63.0958 548.328 62.3875C548.786 61.6687 549.464 61.1167 550.359 60.7312C549.443 60.1792 548.76 59.5021 548.312 58.7C547.854 57.8979 547.625 56.9656 547.625 55.9031C547.625 54.4344 548.073 53.2781 548.969 52.4344C549.854 51.5906 551.073 51.1687 552.625 51.1687L562 51.1687L562 53.0906L553.391 53.0906C552.036 53.0906 551.016 53.3719 550.328 53.9344C549.641 54.4865 549.297 55.3146 549.297 56.4187C549.297 57.7417 549.729 58.7156 550.594 59.3406C551.458 59.9552 552.828 60.2625 554.703 60.2625L562 60.2625L562 62.1687L553.391 62.1687C551.974 62.1687 550.937 62.4344 550.281 62.9656C549.625 63.4969 549.297 64.3198 549.297 65.4344C549.297 66.7885 549.734 67.7833 550.609 68.4187C551.484 69.0542 552.849 69.3719 554.703 69.3719L562 69.3719ZM555.219 45.0531C557.01 45.0531 558.391 44.6521 559.359 43.85C560.328 43.0375 560.812 41.8813 560.812 40.3813C560.812 38.9229 560.286 37.7771 559.234 36.9438C558.172 36.1 556.714 35.6781 554.859 35.6781C553.161 35.6781 551.828 36.0948 550.859 36.9281C549.88 37.7615 549.391 38.9021 549.391 40.35C549.391 41.7979 549.911 42.9438 550.953 43.7875C551.984 44.6313 553.406 45.0531 555.219 45.0531ZM562 35.7094L559.469 35.7094C560.49 36.1677 561.271 36.8135 561.812 37.6469C562.344 38.4698 562.609 39.4438 562.609 40.5688C562.609 42.5583 561.927 44.1625 560.562 45.3813C559.198 46.5896 557.396 47.1938 555.156 47.1938C552.937 47.1938 551.13 46.5948 549.734 45.3969C548.328 44.199 547.625 42.6521 547.625 40.7563C547.625 39.5792 547.885 38.5635 548.406 37.7094C548.917 36.8448 549.672 36.1781 550.672 35.7094L548.141 35.7094L548.141 33.7875L562 33.7875L562 35.7094ZM562 28.5312L537.781 28.5313L537.781 26.6094L554.281 26.6094L548.141 19.7031L548.141 17.0469L554.359 24.4687L562 16.5L562 19.1562L554.828 26.6094L562 26.6094L562 28.5312Z" fill="black"/>
</svg>
