<svg width="72" height="72" viewBox="0 0 72 72" fill="none" xmlns="http://www.w3.org/2000/svg">
<path d="M66 29.9969V59.9999C66 60.7956 65.6839 61.5587 65.1213 62.1213C64.5587 62.6839 63.7957 62.9999 63 62.9999H39V29.9969H66ZM33 47.9969V62.9999H9C8.20435 62.9999 7.44129 62.6839 6.87868 62.1213C6.31607 61.5587 6 60.7956 6 59.9999V47.9969H33ZM33 8.99994V41.9969H6V11.9999C6 11.2043 6.31607 10.4412 6.87868 9.87862C7.44129 9.31601 8.20435 8.99994 9 8.99994H33ZM63 8.99994C63.7957 8.99994 64.5587 9.31601 65.1213 9.87862C65.6839 10.4412 66 11.2043 66 11.9999V23.9969H39V8.99994H63Z" fill="#D9E167"/>
</svg>
