<svg width="312" height="35" viewBox="0 0 312 35" fill="none" xmlns="http://www.w3.org/2000/svg">
<path d="M12.5638 34.3397C19.5026 34.3397 25.1276 28.687 25.1276 21.7139C25.1276 14.7409 19.5026 9.08813 12.5638 9.08813C5.625 9.08813 0 14.7409 0 21.7139C0 28.687 5.625 34.3397 12.5638 34.3397Z" fill="black"/>
<path d="M9.52824 0H34.3396V9.08803H0L9.52824 0Z" fill="black"/>
<path d="M34.3394 26.3109V9.08813H25.1484V32.9416L34.3394 26.3109Z" fill="black"/>
<g clip-path="url(#clip0_817_14)">
<path d="M219.038 0.657796C220.93 0.657796 222.61 0.657796 224.361 0.657796C224.361 11.2742 224.361 21.8201 224.361 32.4599C223.178 32.4599 222.042 32.2955 220.978 32.5069C219.274 32.8592 218.612 31.9432 218.115 30.6279C216.53 26.3297 214.944 22.0315 213.359 17.7332C213.146 17.193 212.933 16.6293 212.507 16.0891C212.507 21.5617 212.507 27.0108 212.507 32.6009C210.496 32.6009 208.698 32.6009 206.758 32.6009C206.734 32.0606 206.687 31.5439 206.687 31.0272C206.687 21.4443 206.71 11.8614 206.663 2.30192C206.663 0.869184 206.947 0.305483 208.509 0.540358C209.739 0.728259 210.993 0.587333 212.342 0.587333C214.447 6.13039 216.577 11.7204 218.73 17.3105C218.848 17.287 218.943 17.2635 219.061 17.24C219.038 11.7204 219.038 6.27132 219.038 0.657796Z" fill="black"/>
<path d="M108.756 32.4129C106.792 32.4129 105.041 32.4129 103.29 32.4129C101.161 26.7289 99.0076 21.0684 96.8782 15.4079C96.8072 15.4079 96.7599 15.4079 96.6889 15.4079C96.6889 21.0919 96.6889 26.7993 96.6889 32.6712C95.0563 32.6712 93.5657 32.7182 92.0987 32.6242C91.7911 32.6008 91.4126 32.131 91.2706 31.7787C91.1286 31.4499 91.2233 31.0271 91.2233 30.6278C91.2469 21.9844 91.2943 13.3175 91.3179 4.67407C91.3179 3.59364 91.1523 2.48973 91.2233 1.4093C91.2469 1.08048 91.7438 0.516777 92.0514 0.493289C93.5893 0.399339 95.1273 0.446314 96.7125 0.446314C98.9603 6.41215 101.161 12.2605 103.456 18.2734C103.456 12.284 103.456 6.48261 103.456 0.610727C105.23 0.610727 106.958 0.610727 108.756 0.610727C108.756 11.2036 108.756 21.7495 108.756 32.4129Z" fill="black"/>
<path d="M166.274 32.6714C165.115 32.6714 164.026 32.5539 162.985 32.6949C161.495 32.9063 160.95 32.1781 160.595 30.8863C159.815 27.9504 158.916 25.0614 158.111 22.149C158.064 22.008 158.206 21.8201 158.3 21.5148C157.614 21.5148 157.046 21.5148 156.242 21.5148C156.242 25.1789 156.242 28.8429 156.242 32.6479C154.562 32.6479 153.095 32.7184 151.675 32.6009C151.368 32.5774 150.871 31.8728 150.847 31.4735C150.753 29.4066 150.8 27.3397 150.8 25.2728C150.8 19.26 150.8 13.2472 150.8 7.23437C150.8 5.07351 150.8 2.91266 150.8 0.469956C152.835 0.469956 154.657 0.446468 156.455 0.469956C157.851 0.493444 159.294 0.352518 160.595 0.681344C164.121 1.57387 165.848 4.08704 166.44 7.65714C166.936 10.6635 166.865 13.529 165.919 16.371C165.611 17.2635 165.115 18.25 164.405 18.8372C163.103 19.9646 163.245 20.9981 163.766 22.4543C164.807 25.4607 165.588 28.5845 166.44 31.6614C166.487 31.9433 166.345 32.2486 166.274 32.6714ZM156.289 16.3006C156.833 16.324 157.378 16.371 157.945 16.371C160.217 16.324 161.116 15.3845 161.092 13.0828C161.092 11.9789 161.045 10.8749 161.092 9.77102C161.329 5.42583 159.933 5.26142 156.266 5.6607C156.289 9.13686 156.289 12.6365 156.289 16.3006Z" fill="black"/>
<path d="M112.777 33C112.777 21.8904 112.777 11.2975 112.777 0.75159C116.113 0.75159 119.331 0.587178 122.526 0.798566C125.341 0.986466 128.299 4.5096 128.251 7.86832C128.133 13.9046 128.251 19.9644 128.204 26.0007C128.204 28.3495 125.767 31.5672 123.401 31.9196C119.947 32.4363 116.445 32.6477 112.777 33ZM118.172 5.28469C118.172 12.9886 118.172 20.2932 118.172 27.7153C119.047 27.7153 119.757 27.7623 120.491 27.7153C121.697 27.6448 122.999 26.2591 122.999 25.1082C122.975 19.4007 123.022 13.6697 122.928 7.96227C122.928 7.30462 122.407 6.34163 121.863 6.08326C120.798 5.61351 119.544 5.54305 118.172 5.28469Z" fill="black"/>
<path d="M187.522 17.2634C187.522 13.8108 187.38 10.3581 187.569 6.92891C187.735 4.03994 190.598 0.25845 194.431 0.187988C198.974 0.0940374 201.718 1.69119 202.854 5.40222C203.209 6.5766 203.28 7.8919 203.303 9.13674C203.374 14.4214 203.422 19.7061 203.374 25.0143C203.351 29.5004 199.494 33.3759 194.975 32.9296C190.834 32.5303 187.687 29.5474 187.616 25.4841C187.569 22.736 187.616 20.0115 187.616 17.2634C187.569 17.2634 187.545 17.2634 187.522 17.2634ZM197.791 16.5823C197.767 16.5823 197.72 16.5823 197.696 16.5823C197.696 13.5524 197.696 10.5225 197.696 7.5161C197.696 5.98941 196.631 4.83852 195.282 4.8855C194.218 4.93247 192.893 6.50614 192.893 7.68051C192.916 13.2471 192.94 18.8136 192.964 24.3802C192.964 24.9439 192.964 25.531 193.106 26.0947C193.39 27.3396 194.715 28.0912 196.111 27.8563C197.199 27.6684 197.767 26.9638 197.767 25.9303C197.814 22.83 197.791 19.7061 197.791 16.5823Z" fill="black"/>
<path d="M147.251 16.3708C147.251 19.4477 147.346 22.5245 147.227 25.6014C147.085 29.3124 143.584 33.2114 139.041 32.8826C135.35 32.6242 133.102 30.8626 131.895 27.6213C131.517 26.6114 131.54 25.4135 131.54 24.2861C131.493 18.7665 131.351 13.2235 131.493 7.7039C131.564 4.76796 132.984 2.48967 135.776 1.00995C139.656 -1.03346 143.418 0.422765 145.571 3.10035C146.66 4.43914 147.275 5.98931 147.251 7.75088C147.227 10.6398 147.251 13.5288 147.251 16.4178C147.251 16.3708 147.251 16.3708 147.251 16.3708ZM137.077 16.7936C137.053 16.7936 137.03 16.7936 137.006 16.7936C137.006 19.7295 136.982 22.6655 137.03 25.5779C137.053 27.0107 138.236 28.0441 139.585 27.9737C141.099 27.9032 141.904 26.7523 141.927 24.7559C141.998 19.2363 141.975 13.6932 141.927 8.17366C141.927 7.58647 141.762 6.9523 141.525 6.3886C141.123 5.37864 140.2 4.6975 139.206 4.97935C138.26 5.2612 137.006 5.54305 137.053 7.1402C137.148 10.358 137.077 13.5758 137.077 16.7936Z" fill="black"/>
<path d="M260.23 32.6244C258.527 32.6244 256.776 32.6244 254.883 32.6244C254.599 31.3795 254.197 30.1347 254.031 28.8429C253.913 27.9503 253.511 27.7624 252.706 27.7859C251.097 27.8329 249.512 27.8329 247.903 27.7859C247.051 27.7624 246.484 27.9503 246.436 28.9133C246.413 29.4535 246.294 30.0172 246.176 30.5575C245.845 32.366 245.514 32.6478 243.55 32.6244C242.58 32.6244 241.61 32.6244 240.639 32.6009C240.545 32.6009 240.45 32.5539 240.143 32.4599C240.356 31.5909 240.568 30.7219 240.781 29.8293C242.343 23.018 243.905 16.2066 245.466 9.39518C246.058 6.81155 246.673 4.22792 247.146 1.6208C247.335 0.540374 247.832 0.258523 248.802 0.422936C249.039 0.469911 249.276 0.422936 249.536 0.422936C253.18 0.258523 253.085 0.258523 253.676 3.94607C254.031 6.20087 254.741 8.4087 255.238 10.6635C256.066 14.3511 256.8 18.0386 257.675 21.7261C258.219 24.0044 258.976 26.2592 259.544 28.5375C259.876 29.8293 259.994 31.1681 260.23 32.6244ZM250.364 13.1062C250.269 13.1297 250.151 13.1532 250.056 13.1767C249.347 16.3005 248.637 19.4478 247.903 22.6891C249.441 22.6891 250.814 22.6891 252.517 22.6891C251.784 19.4244 251.074 16.2535 250.364 13.1062Z" fill="black"/>
<path d="M51 0.587208C52.9402 0.587208 54.6201 0.587208 56.4656 0.587208C58.0982 7.18721 59.7308 13.8342 61.3633 20.5046C61.4816 20.4812 61.5999 20.4812 61.7182 20.4577C63.3272 13.8342 64.9598 7.2107 66.5923 0.563721C68.3905 0.563721 70.2124 0.563721 72.0816 0.563721C70.6146 6.71746 69.2187 12.7772 67.7517 18.8135C66.7343 23.0648 65.6696 27.2691 64.6285 31.5203C64.4865 32.131 64.2736 32.5068 63.4928 32.4833C61.9549 32.4128 60.3933 32.4598 58.7843 32.4598C56.2053 21.8434 53.6263 11.2975 51 0.587208Z" fill="black"/>
<path d="M311.882 11.3212C310.036 11.2272 308.262 11.1568 306.25 11.0628C306.25 9.91194 306.298 8.76105 306.25 7.63365C306.132 5.35535 305.612 5.28489 303.861 4.95607C302.772 4.74468 301.826 5.8251 301.495 7.30482C301.069 9.20731 301.779 10.6635 303.08 12.0023C305.967 15.0087 308.877 17.9917 311.574 21.139C312.166 21.8201 312.071 23.2059 312 24.2628C311.716 28.7724 310.178 31.5675 305.99 32.6714C300.927 34.0102 296.573 30.9333 296.242 25.4842C296.195 24.8735 296.147 24.2393 296.124 23.6287C296.1 23.065 296.124 22.5013 296.124 21.8436C297.946 21.8436 299.673 21.8436 301.447 21.8436C301.447 23.065 301.258 24.3098 301.518 25.4372C301.708 26.3297 302.275 27.4102 303.033 27.8564C303.79 28.3262 304.973 28.0443 305.683 27.2457C306.014 26.8465 306.203 26.3062 306.345 25.7895C307.031 23.2059 305.422 21.5852 303.861 19.9411C301.471 17.4045 299.081 14.8443 296.692 12.2842C296.479 12.0493 296.195 11.7675 296.171 11.4856C295.934 8.05642 295.887 4.6977 298.703 1.99663C300.785 0.000193372 304.642 -0.211194 306.913 0.634357C311.101 2.18454 312.213 6.29486 311.882 11.3212Z" fill="black"/>
<path d="M73.7852 0.540283C78.5883 0.540283 83.344 0.540283 88.2181 0.540283C88.2181 2.23139 88.2181 3.82854 88.2181 5.54313C85.4498 5.54313 82.6106 5.54313 79.6293 5.54313C79.6293 8.40861 79.6293 11.1801 79.6293 14.0926C81.8771 14.0926 84.1958 14.0926 86.6092 14.0926C86.6092 15.8072 86.6092 17.3574 86.6092 19.0954C84.2905 19.0954 81.9954 19.0954 79.6057 19.0954C79.6057 22.0314 79.6057 24.7794 79.6057 27.7154C82.4923 27.7154 85.3315 27.7154 88.2418 27.7154C88.2418 29.4065 88.2418 30.9332 88.2418 32.5303C83.486 32.5303 78.6829 32.5303 73.7852 32.5303C73.7852 21.7495 73.7852 11.1332 73.7852 0.540283Z" fill="black"/>
<path d="M277.952 10.1233C276.012 10.1233 274.545 10.1703 273.102 10.0764C272.794 10.0529 272.345 9.51266 272.25 9.13686C272.085 8.45572 272.227 7.70412 272.085 6.9995C271.824 5.68419 270.712 4.9091 269.482 5.05003C268.275 5.19095 267.471 6.27138 267.447 7.61017C267.423 12.566 267.376 17.4984 267.352 22.4543C267.352 23.4173 267.329 24.3568 267.305 25.3198C267.281 26.6586 268.11 27.8799 269.151 27.9504C270.902 28.0678 272.108 27.1283 272.203 25.5312C272.25 24.897 272.203 24.2863 272.203 23.6522C272.203 23.0885 272.203 22.5248 272.203 21.7497C273.859 21.7497 275.373 21.7027 276.911 21.7966C277.172 21.8201 277.645 22.3134 277.645 22.5952C277.645 25.5077 277.81 28.4671 275.302 30.6984C273.788 32.0607 272.203 32.8123 270.097 32.9063C266.927 33.0707 264.631 31.7084 263.117 29.2187C262.265 27.8329 261.816 26.0244 261.745 24.3803C261.579 19.2365 261.532 14.0927 261.721 8.94896C261.91 4.22797 264.064 0.610883 269.198 0.0706699C272.25 -0.234668 276.083 1.55038 277.006 5.14398C277.408 6.67067 277.597 8.29131 277.952 10.1233Z" fill="black"/>
<path d="M179.713 21.7965C181.606 21.7965 183.239 21.7965 184.942 21.7965C184.966 24.5446 185.534 27.2691 183.712 29.6649C180.447 33.9396 174.011 34.1745 170.935 29.7353C170.036 28.4435 169.35 26.7524 169.279 25.2257C169.09 19.5652 169.043 13.8812 169.232 8.19724C169.35 4.6976 170.888 1.69119 174.461 0.469839C179.595 -1.26824 185.321 2.30187 184.99 8.12678C184.871 10.1702 184.848 10.1702 182.813 10.1702C182.576 10.1702 182.34 10.1702 182.08 10.1702C179.784 10.1702 179.784 10.1702 179.713 7.8919C179.666 6.2008 178.672 5.19083 177.418 5.12037C176.661 5.0734 175.668 5.70756 175.123 6.34172C174.697 6.81148 174.721 7.75098 174.721 8.47909C174.697 13.9047 174.697 19.3538 174.721 24.7794C174.721 26.7994 175.644 27.8093 177.395 27.8328C178.696 27.8563 179.548 26.9638 179.69 25.3431C179.737 24.7794 179.713 24.1923 179.713 23.6051C179.713 23.0414 179.713 22.4777 179.713 21.7965Z" fill="black"/>
<path d="M231.767 32.5773C231.767 23.5581 231.767 14.6563 231.767 5.56663C229.779 5.56663 227.981 5.56663 225.946 5.56663C225.946 4.03994 225.899 2.65417 225.994 1.26841C226.017 1.01005 226.514 0.587271 226.798 0.563783C232.074 0.516808 237.351 0.540296 242.745 0.540296C242.745 2.2314 242.745 3.78158 242.745 5.51965C241.137 5.51965 239.386 5.51965 237.469 5.51965C237.469 14.6093 237.469 23.5346 237.469 32.5538C235.553 32.5773 233.802 32.5773 231.767 32.5773Z" fill="black"/>
<path d="M289.428 32.5772C287.559 32.5772 285.831 32.5772 283.938 32.5772C283.938 23.558 283.938 14.6328 283.938 5.54308C282.353 5.54308 280.957 5.49611 279.585 5.56657C278.544 5.61354 278.213 5.21425 278.284 4.22778C278.355 3.02991 278.307 1.83205 278.307 0.563721C283.868 0.563721 289.38 0.563721 294.964 0.563721C294.964 2.18436 294.964 3.78151 294.964 5.49611C293.166 5.49611 291.392 5.49611 289.475 5.49611C289.428 14.5858 289.428 23.558 289.428 32.5772Z" fill="black"/>
</g>
<defs>
<clipPath id="clip0_817_14">
<rect width="261" height="33" fill="white" transform="translate(51)"/>
</clipPath>
</defs>
</svg>
